%TF.GenerationSoftware,KiCad,Pcbnew,9.0.6*%
%TF.CreationDate,2026-03-01T21:50:25+00:00*%
%TF.ProjectId,KicadProject,4b696361-6450-4726-9f6a-6563742e6b69,rev?*%
%TF.SameCoordinates,Original*%
%TF.FileFunction,Copper,L6,Bot*%
%TF.FilePolarity,Positive*%
%FSLAX46Y46*%
G04 Gerber Fmt 4.6, Leading zero omitted, Abs format (unit mm)*
G04 Created by KiCad (PCBNEW 9.0.6) date 2026-03-01 21:50:25*
%MOMM*%
%LPD*%
G01*
G04 APERTURE LIST*
G04 Aperture macros list*
%AMRoundRect*
0 Rectangle with rounded corners*
0 $1 Rounding radius*
0 $2 $3 $4 $5 $6 $7 $8 $9 X,Y pos of 4 corners*
0 Add a 4 corners polygon primitive as box body*
4,1,4,$2,$3,$4,$5,$6,$7,$8,$9,$2,$3,0*
0 Add four circle primitives for the rounded corners*
1,1,$1+$1,$2,$3*
1,1,$1+$1,$4,$5*
1,1,$1+$1,$6,$7*
1,1,$1+$1,$8,$9*
0 Add four rect primitives between the rounded corners*
20,1,$1+$1,$2,$3,$4,$5,0*
20,1,$1+$1,$4,$5,$6,$7,0*
20,1,$1+$1,$6,$7,$8,$9,0*
20,1,$1+$1,$8,$9,$2,$3,0*%
G04 Aperture macros list end*
%TA.AperFunction,Conductor*%
%ADD10C,0.200000*%
%TD*%
%TA.AperFunction,ComponentPad*%
%ADD11R,1.520000X1.520000*%
%TD*%
%TA.AperFunction,ComponentPad*%
%ADD12C,1.520000*%
%TD*%
%TA.AperFunction,ComponentPad*%
%ADD13C,2.910000*%
%TD*%
%TA.AperFunction,ComponentPad*%
%ADD14RoundRect,0.250000X-0.750000X0.750000X-0.750000X-0.750000X0.750000X-0.750000X0.750000X0.750000X0*%
%TD*%
%TA.AperFunction,ComponentPad*%
%ADD15C,2.000000*%
%TD*%
%TA.AperFunction,ComponentPad*%
%ADD16RoundRect,0.250000X-1.060660X0.000000X0.000000X-1.060660X1.060660X0.000000X0.000000X1.060660X0*%
%TD*%
%TA.AperFunction,ComponentPad*%
%ADD17R,2.421300X2.421300*%
%TD*%
%TA.AperFunction,ComponentPad*%
%ADD18RoundRect,0.250000X-0.750000X-0.750000X0.750000X-0.750000X0.750000X0.750000X-0.750000X0.750000X0*%
%TD*%
%TA.AperFunction,ComponentPad*%
%ADD19R,1.524000X1.524000*%
%TD*%
%TA.AperFunction,ComponentPad*%
%ADD20C,1.524000*%
%TD*%
%TA.AperFunction,ViaPad*%
%ADD21C,0.600000*%
%TD*%
G04 APERTURE END LIST*
D10*
%TO.N,5v_SERVO*%
X185881360Y-75879941D02*
X185881360Y-77379941D01*
X187777985Y-79374417D01*
X195881186Y-79380115D01*
X197131360Y-78129941D01*
X197131360Y-76379941D01*
X197881360Y-75629941D01*
X199131360Y-75629941D01*
X199881360Y-76379941D01*
X199881360Y-77879941D01*
X200631360Y-78629941D01*
X205131360Y-78629941D01*
X206631360Y-80379941D01*
X208381360Y-83129941D01*
X210381360Y-86250000D01*
X216139543Y-86250000D01*
X216131360Y-93379941D01*
X209631360Y-93250000D01*
X205631360Y-90879941D01*
X202631360Y-85379941D01*
X200881360Y-84747618D01*
X180188208Y-84868734D01*
X179044759Y-86129941D01*
X179246540Y-99379941D01*
X176381360Y-102750000D01*
X173408063Y-102750000D01*
X172121024Y-101500000D01*
X170631360Y-101500000D01*
X169889543Y-100879941D01*
X169889543Y-99129941D01*
X170631360Y-98500000D01*
X172139543Y-98500000D01*
X173389543Y-97212961D01*
X173389543Y-88500000D01*
X172389543Y-87500000D01*
X170639543Y-87500000D01*
X169639543Y-86500000D01*
X169639543Y-84879941D01*
X175621284Y-79129941D01*
X181633555Y-79129941D01*
X183131360Y-77618881D01*
X183131360Y-75879941D01*
X183631360Y-75379941D01*
X185381360Y-75379941D01*
X185881360Y-75879941D01*
%TA.AperFunction,Conductor*%
G36*
X185881360Y-75879941D02*
G01*
X185881360Y-77379941D01*
X187777985Y-79374417D01*
X195881186Y-79380115D01*
X197131360Y-78129941D01*
X197131360Y-76379941D01*
X197881360Y-75629941D01*
X199131360Y-75629941D01*
X199881360Y-76379941D01*
X199881360Y-77879941D01*
X200631360Y-78629941D01*
X205131360Y-78629941D01*
X206631360Y-80379941D01*
X208381360Y-83129941D01*
X210381360Y-86250000D01*
X216139543Y-86250000D01*
X216131360Y-93379941D01*
X209631360Y-93250000D01*
X205631360Y-90879941D01*
X202631360Y-85379941D01*
X200881360Y-84747618D01*
X180188208Y-84868734D01*
X179044759Y-86129941D01*
X179246540Y-99379941D01*
X176381360Y-102750000D01*
X173408063Y-102750000D01*
X172121024Y-101500000D01*
X170631360Y-101500000D01*
X169889543Y-100879941D01*
X169889543Y-99129941D01*
X170631360Y-98500000D01*
X172139543Y-98500000D01*
X173389543Y-97212961D01*
X173389543Y-88500000D01*
X172389543Y-87500000D01*
X170639543Y-87500000D01*
X169639543Y-86500000D01*
X169639543Y-84879941D01*
X175621284Y-79129941D01*
X181633555Y-79129941D01*
X183131360Y-77618881D01*
X183131360Y-75879941D01*
X183631360Y-75379941D01*
X185381360Y-75379941D01*
X185881360Y-75879941D01*
G37*
%TD.AperFunction*%
%TD*%
D11*
%TO.P,J2,1,1*%
%TO.N,Net-(J2-Pad1)*%
X171134250Y-92274941D03*
D12*
%TO.P,J2,2,2*%
%TO.N,GND*%
X171134250Y-89274941D03*
%TO.P,J2,3,3*%
%TO.N,5v_SERVO*%
X171134250Y-86274941D03*
D13*
%TO.P,J2,S1,SHIELD1*%
%TO.N,GND*%
X166814250Y-94424941D03*
%TO.P,J2,S2,SHIELD2*%
X166814250Y-84124941D03*
%TD*%
D14*
%TO.P,C16,1*%
%TO.N,5v_SERVO*%
X190000000Y-82132323D03*
D15*
%TO.P,C16,2*%
%TO.N,GND*%
X190000000Y-87132323D03*
%TD*%
D16*
%TO.P,C18,1*%
%TO.N,5v_SERVO*%
X177482233Y-83091386D03*
D15*
%TO.P,C18,2*%
%TO.N,GND*%
X181017767Y-86626920D03*
%TD*%
D17*
%TO.P,J7,1,01*%
%TO.N,Net-(J7-01)*%
X175273500Y-121238650D03*
%TO.P,J7,2,02*%
%TO.N,GND*%
X180273500Y-121238650D03*
%TD*%
D14*
%TO.P,C19,1*%
%TO.N,5v_SERVO*%
X200750000Y-82500000D03*
D15*
%TO.P,C19,2*%
%TO.N,GND*%
X200750000Y-87500000D03*
%TD*%
D18*
%TO.P,C20,1*%
%TO.N,5v_SERVO*%
X176632323Y-95667505D03*
D15*
%TO.P,C20,2*%
%TO.N,GND*%
X181632323Y-95667505D03*
%TD*%
D11*
%TO.P,J3,1,1*%
%TO.N,Net-(J3-Pad1)*%
X171134250Y-106274941D03*
D12*
%TO.P,J3,2,2*%
%TO.N,GND*%
X171134250Y-103274941D03*
%TO.P,J3,3,3*%
%TO.N,5v_SERVO*%
X171134250Y-100274941D03*
D13*
%TO.P,J3,S1,SHIELD1*%
%TO.N,GND*%
X166814250Y-108424941D03*
%TO.P,J3,S2,SHIELD2*%
X166814250Y-98124941D03*
%TD*%
D19*
%TO.P,J5,01,01*%
%TO.N,GND*%
X214030839Y-84906927D03*
D20*
%TO.P,J5,02,02*%
X211490839Y-84906927D03*
%TO.P,J5,03,03*%
%TO.N,5v_SERVO*%
X214030839Y-87446927D03*
%TO.P,J5,04,04*%
X211490839Y-87446927D03*
%TO.P,J5,05,05*%
X214030839Y-89986927D03*
%TO.P,J5,06,06*%
X211490839Y-89986927D03*
%TO.P,J5,07,07*%
X214030839Y-92526927D03*
%TO.P,J5,08,08*%
X211490839Y-92526927D03*
%TO.P,J5,09,09*%
%TO.N,GND*%
X214030839Y-95066927D03*
%TO.P,J5,10,10*%
X211490839Y-95066927D03*
%TO.P,J5,11,11*%
%TO.N,5V_LOGIC*%
X214030839Y-97606927D03*
%TO.P,J5,12,12*%
X211490839Y-97606927D03*
%TO.P,J5,13,13*%
%TO.N,GND*%
X214030839Y-100146927D03*
%TO.P,J5,14,14*%
X211490839Y-100146927D03*
%TO.P,J5,15,15*%
X214030839Y-102686927D03*
%TO.P,J5,16,16*%
%TO.N,CAN_+*%
X211490839Y-102686927D03*
%TO.P,J5,17,17*%
%TO.N,GND*%
X214030839Y-105226927D03*
%TO.P,J5,18,18*%
%TO.N,CAN_-*%
X211490839Y-105226927D03*
%TO.P,J5,19,19*%
%TO.N,GND*%
X214030839Y-107766927D03*
%TO.P,J5,20,20*%
X211490839Y-107766927D03*
%TD*%
D11*
%TO.P,J4,1,1*%
%TO.N,Net-(J4-Pad1)*%
X192400000Y-77134250D03*
D12*
%TO.P,J4,2,2*%
%TO.N,GND*%
X195400000Y-77134250D03*
%TO.P,J4,3,3*%
%TO.N,5v_SERVO*%
X198400000Y-77134250D03*
D13*
%TO.P,J4,S1,SHIELD1*%
%TO.N,GND*%
X190250000Y-72814250D03*
%TO.P,J4,S2,SHIELD2*%
X200550000Y-72814250D03*
%TD*%
D11*
%TO.P,J6,1,1*%
%TO.N,Net-(J6-Pad1)*%
X178350000Y-77134250D03*
D12*
%TO.P,J6,2,2*%
%TO.N,GND*%
X181350000Y-77134250D03*
%TO.P,J6,3,3*%
%TO.N,5v_SERVO*%
X184350000Y-77134250D03*
D13*
%TO.P,J6,S1,SHIELD1*%
%TO.N,GND*%
X176200000Y-72814250D03*
%TO.P,J6,S2,SHIELD2*%
X186500000Y-72814250D03*
%TD*%
D21*
%TO.N,3.3V*%
X201625000Y-106875000D03*
X191500000Y-118500000D03*
X191126509Y-112623491D03*
X204985229Y-110164536D03*
X199411883Y-99575959D03*
X184250000Y-101250000D03*
X189305756Y-98055756D03*
X193862144Y-102230339D03*
X202000000Y-123250000D03*
X209000000Y-100250000D03*
X182500000Y-110250000D03*
%TO.N,GND*%
X187000000Y-123750000D03*
X197224236Y-117561607D03*
X188250000Y-107500000D03*
X204999595Y-116482473D03*
X203999318Y-117520423D03*
X212490839Y-76851110D03*
X206500000Y-78500000D03*
X186750000Y-107500000D03*
X201971093Y-117552503D03*
X191000000Y-93750000D03*
X168038179Y-81836679D03*
X209750000Y-97250000D03*
X204971093Y-117552503D03*
X201109471Y-100628118D03*
X197227512Y-100613756D03*
X210959303Y-77552150D03*
X212597667Y-81766927D03*
X185887411Y-102189886D03*
X186250000Y-111500000D03*
X210240839Y-113266927D03*
X207000000Y-93000000D03*
X193690634Y-111648161D03*
X168038179Y-115836679D03*
X194180256Y-89002069D03*
X191980680Y-109031067D03*
X192912410Y-116762723D03*
X183750000Y-115750000D03*
X194250000Y-101250000D03*
X188250000Y-115750000D03*
X203735229Y-110414536D03*
X201999595Y-116482473D03*
X202696912Y-97301156D03*
X198724236Y-117561607D03*
X182000000Y-107250000D03*
X212490839Y-110851110D03*
X166288179Y-76920862D03*
X170288179Y-113420862D03*
X214152932Y-110890056D03*
X214240839Y-115766927D03*
X176750000Y-103500000D03*
X207000000Y-104000000D03*
X194250000Y-99750000D03*
X191500000Y-89750000D03*
X182598900Y-102014899D03*
X186000000Y-91000000D03*
X188750000Y-97250000D03*
X210240839Y-79266927D03*
X204750000Y-77250000D03*
X197000000Y-124750000D03*
X186250000Y-113516374D03*
X181500000Y-90250000D03*
X167931351Y-110888766D03*
X188000000Y-77250000D03*
X169569715Y-115135639D03*
X193992643Y-115750654D03*
X205999595Y-116482473D03*
X202999595Y-116482473D03*
X166376086Y-81797733D03*
X209250000Y-101500000D03*
X204027820Y-116450393D03*
X183829748Y-99347243D03*
X178250000Y-102250000D03*
X192808819Y-115643034D03*
X195905529Y-89000000D03*
X205971093Y-117552503D03*
X195724236Y-117561607D03*
X166288179Y-110888766D03*
X194224236Y-117561607D03*
X180750000Y-100000000D03*
X166376086Y-115797733D03*
X185250000Y-106500000D03*
X203750000Y-91750000D03*
X184304832Y-111095320D03*
X210881410Y-80998933D03*
X198750000Y-103250000D03*
X170288179Y-79420862D03*
X210959303Y-111552150D03*
X202471093Y-111052503D03*
X169569715Y-81135639D03*
X188750000Y-95750000D03*
X205750000Y-106250000D03*
X212597667Y-115766927D03*
X210881410Y-114998933D03*
X207517398Y-97400522D03*
X199750000Y-95250000D03*
X172500000Y-104750000D03*
X178750000Y-107250000D03*
X214240839Y-81766927D03*
X192750000Y-118500000D03*
X169647608Y-111688856D03*
X214152932Y-76890056D03*
X203022174Y-94172636D03*
X201250000Y-91500000D03*
X202971093Y-117552503D03*
X169647608Y-77688856D03*
X168250000Y-96250000D03*
X190250000Y-106750000D03*
X208000000Y-79750000D03*
X197500000Y-96750000D03*
X193500000Y-123500000D03*
X190000000Y-112750000D03*
X167931351Y-76920862D03*
%TO.N,Net-(U3-VCC)*%
X197724236Y-116561607D03*
X193299238Y-110904660D03*
%TO.N,SCL*%
X198009588Y-100023644D03*
X186211980Y-97288020D03*
%TO.N,SWDIO*%
X189000000Y-118750000D03*
X186500000Y-103750000D03*
%TO.N,5V_LOGIC*%
X192724236Y-111561607D03*
X193735229Y-112889150D03*
X197374237Y-111061607D03*
X205250000Y-123250000D03*
X192927509Y-112889150D03*
%TO.N,Net-(J2-Pad1)*%
X176500000Y-114000000D03*
X192500000Y-89000000D03*
%TO.N,Net-(J4-Pad1)*%
X197250000Y-88000000D03*
X182500000Y-114000000D03*
%TO.N,Net-(J6-Pad1)*%
X194250000Y-88000000D03*
X179500000Y-114000000D03*
%TO.N,Net-(J3-Pad1)*%
X189750000Y-91500000D03*
X173500000Y-114000000D03*
%TO.N,SDA*%
X188250000Y-98250000D03*
X199250000Y-100500000D03*
%TO.N,NRST*%
X190250000Y-118750000D03*
X185375000Y-107625000D03*
%TO.N,SWCLK*%
X187750000Y-118750000D03*
X185500000Y-103750000D03*
%TD*%
D10*
%TO.N,Net-(U3-VCC)*%
X197928236Y-114833234D02*
X197928236Y-116561607D01*
X193793240Y-110698238D02*
X197928236Y-114833234D01*
X193564868Y-110698238D02*
X193793240Y-110698238D01*
%TO.N,SWDIO*%
X189000000Y-106250000D02*
X189000000Y-118750000D01*
X186500000Y-103750000D02*
X189000000Y-106250000D01*
%TO.N,5V_LOGIC*%
X196078237Y-109561607D02*
X192928236Y-109561607D01*
X192428236Y-111061607D02*
X192928236Y-111561607D01*
X192928236Y-109561607D02*
X192428236Y-110061607D01*
X197578237Y-111061607D02*
X196078237Y-109561607D01*
X192428236Y-110061607D02*
X192428236Y-111061607D01*
%TO.N,Net-(J2-Pad1)*%
X176500000Y-105599943D02*
X192500000Y-89599943D01*
X176500000Y-114000000D02*
X176500000Y-105599943D01*
X192500000Y-89599943D02*
X192500000Y-89000000D01*
%TO.N,Net-(J4-Pad1)*%
X185927240Y-103000000D02*
X197250000Y-91677240D01*
X185400057Y-103000000D02*
X185927240Y-103000000D01*
X183101000Y-105299057D02*
X185400057Y-103000000D01*
X183101000Y-113399000D02*
X183101000Y-105299057D01*
X182500000Y-114000000D02*
X183101000Y-113399000D01*
X197250000Y-91677240D02*
X197250000Y-88000000D01*
%TO.N,Net-(J6-Pad1)*%
X185638468Y-101588886D02*
X186622569Y-101588886D01*
X179500000Y-114000000D02*
X179500000Y-107727354D01*
X194781256Y-93430199D02*
X194781256Y-88531256D01*
X194781256Y-88531256D02*
X194250000Y-88000000D01*
X179500000Y-107727354D02*
X185638468Y-101588886D01*
X186622569Y-101588886D02*
X194781256Y-93430199D01*
%TO.N,Net-(J3-Pad1)*%
X171134250Y-111634250D02*
X171134250Y-106274941D01*
X173500000Y-114000000D02*
X171134250Y-111634250D01*
%TO.N,SWCLK*%
X187390916Y-118390916D02*
X187390916Y-105640916D01*
X187750000Y-118750000D02*
X187390916Y-118390916D01*
X187390916Y-105640916D02*
X185500000Y-103750000D01*
%TD*%
%TA.AperFunction,Conductor*%
%TO.N,GND*%
G36*
X188196619Y-106296300D02*
G01*
X188203097Y-106302332D01*
X188363181Y-106462416D01*
X188396666Y-106523739D01*
X188399500Y-106550097D01*
X188399500Y-117989240D01*
X188398115Y-117993954D01*
X188399134Y-117998762D01*
X188388367Y-118027151D01*
X188379815Y-118056279D01*
X188376101Y-118059496D01*
X188374359Y-118064092D01*
X188349950Y-118082157D01*
X188327011Y-118102034D01*
X188322148Y-118102733D01*
X188318198Y-118105657D01*
X188287903Y-118107657D01*
X188257853Y-118111978D01*
X188252038Y-118110025D01*
X188248480Y-118110260D01*
X188232948Y-118103613D01*
X188215479Y-118097746D01*
X188210924Y-118095226D01*
X188129179Y-118040606D01*
X188061511Y-118012577D01*
X188055395Y-118009194D01*
X188035541Y-117989122D01*
X188013560Y-117971408D01*
X188011297Y-117964611D01*
X188006261Y-117959519D01*
X188000410Y-117931900D01*
X187991495Y-117905113D01*
X187991416Y-117900688D01*
X187991416Y-106390013D01*
X188011101Y-106322974D01*
X188063905Y-106277219D01*
X188133063Y-106267275D01*
X188196619Y-106296300D01*
G37*
%TD.AperFunction*%
%TA.AperFunction,Conductor*%
G36*
X193836601Y-111595535D02*
G01*
X193859118Y-111613351D01*
X194204711Y-111958944D01*
X194238196Y-112020267D01*
X194233212Y-112089959D01*
X194191340Y-112145892D01*
X194125876Y-112170309D01*
X194069578Y-112161186D01*
X193968730Y-112119414D01*
X193968718Y-112119411D01*
X193814074Y-112088650D01*
X193814071Y-112088650D01*
X193656387Y-112088650D01*
X193656382Y-112088650D01*
X193574412Y-112104955D01*
X193567632Y-112104348D01*
X193561298Y-112106842D01*
X193533277Y-112101274D01*
X193504820Y-112098728D01*
X193499443Y-112094551D01*
X193492768Y-112093225D01*
X193472206Y-112073393D01*
X193449643Y-112055865D01*
X193447378Y-112049445D01*
X193442479Y-112044720D01*
X193435902Y-112016914D01*
X193426399Y-111989975D01*
X193427582Y-111981737D01*
X193426397Y-111976726D01*
X193431595Y-111953806D01*
X193433276Y-111942109D01*
X193434385Y-111938962D01*
X193493973Y-111795104D01*
X193505456Y-111737374D01*
X193508400Y-111729024D01*
X193523858Y-111707577D01*
X193536112Y-111684152D01*
X193545210Y-111677954D01*
X193549255Y-111672343D01*
X193559190Y-111668431D01*
X193577893Y-111655692D01*
X193614684Y-111640453D01*
X193678417Y-111614054D01*
X193702546Y-111597930D01*
X193769220Y-111577052D01*
X193836601Y-111595535D01*
G37*
%TD.AperFunction*%
%TA.AperFunction,Conductor*%
G36*
X213557458Y-105423008D02*
G01*
X213624337Y-105538847D01*
X213718919Y-105633429D01*
X213834758Y-105700308D01*
X213894896Y-105716421D01*
X213332122Y-106279195D01*
X213332122Y-106279196D01*
X213369406Y-106306285D01*
X213526721Y-106386442D01*
X213577517Y-106434417D01*
X213594312Y-106502238D01*
X213571774Y-106568373D01*
X213526721Y-106607412D01*
X213369403Y-106687570D01*
X213332122Y-106714656D01*
X213332121Y-106714657D01*
X213894897Y-107277431D01*
X213834758Y-107293546D01*
X213718919Y-107360425D01*
X213624337Y-107455007D01*
X213557458Y-107570846D01*
X213541343Y-107630984D01*
X212978569Y-107068209D01*
X212978568Y-107068210D01*
X212951482Y-107105491D01*
X212871324Y-107262809D01*
X212823349Y-107313605D01*
X212755528Y-107330400D01*
X212689393Y-107307862D01*
X212650354Y-107262809D01*
X212570197Y-107105494D01*
X212543107Y-107068210D01*
X211980333Y-107630984D01*
X211964220Y-107570846D01*
X211897341Y-107455007D01*
X211802759Y-107360425D01*
X211686920Y-107293546D01*
X211626781Y-107277431D01*
X212189555Y-106714658D01*
X212189554Y-106714657D01*
X212152271Y-106687568D01*
X211995507Y-106607692D01*
X211944711Y-106559717D01*
X211927916Y-106491896D01*
X211950454Y-106425761D01*
X211995506Y-106386723D01*
X212152533Y-106306714D01*
X212313303Y-106189908D01*
X212453820Y-106049391D01*
X212570626Y-105888621D01*
X212650635Y-105731594D01*
X212698608Y-105680799D01*
X212766429Y-105664004D01*
X212832564Y-105686541D01*
X212871604Y-105731595D01*
X212951480Y-105888359D01*
X212978569Y-105925642D01*
X212978570Y-105925643D01*
X213541343Y-105362869D01*
X213557458Y-105423008D01*
G37*
%TD.AperFunction*%
%TA.AperFunction,Conductor*%
G36*
X213557458Y-102883008D02*
G01*
X213624337Y-102998847D01*
X213718919Y-103093429D01*
X213834758Y-103160308D01*
X213894896Y-103176421D01*
X213332122Y-103739195D01*
X213332122Y-103739196D01*
X213369406Y-103766285D01*
X213526721Y-103846442D01*
X213577517Y-103894417D01*
X213594312Y-103962238D01*
X213571774Y-104028373D01*
X213526721Y-104067412D01*
X213369403Y-104147570D01*
X213332122Y-104174656D01*
X213332121Y-104174657D01*
X213894897Y-104737431D01*
X213834758Y-104753546D01*
X213718919Y-104820425D01*
X213624337Y-104915007D01*
X213557458Y-105030846D01*
X213541343Y-105090984D01*
X212978569Y-104528209D01*
X212978568Y-104528210D01*
X212951480Y-104565493D01*
X212871603Y-104722259D01*
X212823629Y-104773054D01*
X212755808Y-104789849D01*
X212689673Y-104767311D01*
X212650635Y-104722259D01*
X212570626Y-104565233D01*
X212453820Y-104404463D01*
X212313303Y-104263946D01*
X212152533Y-104147140D01*
X211996057Y-104067411D01*
X211945262Y-104019437D01*
X211928467Y-103951616D01*
X211951004Y-103885481D01*
X211996057Y-103846442D01*
X212152533Y-103766714D01*
X212313303Y-103649908D01*
X212453820Y-103509391D01*
X212570626Y-103348621D01*
X212650635Y-103191594D01*
X212698608Y-103140799D01*
X212766429Y-103124004D01*
X212832564Y-103146541D01*
X212871604Y-103191595D01*
X212951480Y-103348359D01*
X212978569Y-103385642D01*
X212978570Y-103385643D01*
X213541343Y-102822869D01*
X213557458Y-102883008D01*
G37*
%TD.AperFunction*%
%TA.AperFunction,Conductor*%
G36*
X213557458Y-100343008D02*
G01*
X213624337Y-100458847D01*
X213718919Y-100553429D01*
X213834758Y-100620308D01*
X213894896Y-100636421D01*
X213332122Y-101199195D01*
X213332122Y-101199196D01*
X213369406Y-101226285D01*
X213526721Y-101306442D01*
X213577517Y-101354417D01*
X213594312Y-101422238D01*
X213571774Y-101488373D01*
X213526721Y-101527412D01*
X213369403Y-101607570D01*
X213332122Y-101634656D01*
X213332121Y-101634657D01*
X213894897Y-102197431D01*
X213834758Y-102213546D01*
X213718919Y-102280425D01*
X213624337Y-102375007D01*
X213557458Y-102490846D01*
X213541343Y-102550984D01*
X212978569Y-101988209D01*
X212978568Y-101988210D01*
X212951480Y-102025493D01*
X212871603Y-102182259D01*
X212823629Y-102233054D01*
X212755808Y-102249849D01*
X212689673Y-102227311D01*
X212650635Y-102182259D01*
X212570626Y-102025233D01*
X212453820Y-101864463D01*
X212313303Y-101723946D01*
X212152533Y-101607140D01*
X211995506Y-101527130D01*
X211944711Y-101479156D01*
X211927916Y-101411335D01*
X211950453Y-101345200D01*
X211995508Y-101306161D01*
X212152261Y-101226291D01*
X212189555Y-101199195D01*
X211626781Y-100636421D01*
X211686920Y-100620308D01*
X211802759Y-100553429D01*
X211897341Y-100458847D01*
X211964220Y-100343008D01*
X211980334Y-100282869D01*
X212543107Y-100845642D01*
X212570201Y-100808352D01*
X212650354Y-100651044D01*
X212698328Y-100600248D01*
X212766149Y-100583453D01*
X212832284Y-100605990D01*
X212871324Y-100651044D01*
X212951480Y-100808359D01*
X212978569Y-100845642D01*
X212978570Y-100845643D01*
X213541343Y-100282869D01*
X213557458Y-100343008D01*
G37*
%TD.AperFunction*%
%TA.AperFunction,Conductor*%
G36*
X212832285Y-98067092D02*
G01*
X212871323Y-98112145D01*
X212951052Y-98268621D01*
X213067858Y-98429391D01*
X213208375Y-98569908D01*
X213369145Y-98686714D01*
X213526171Y-98766723D01*
X213576966Y-98814696D01*
X213593761Y-98882517D01*
X213571224Y-98948652D01*
X213526171Y-98987691D01*
X213369405Y-99067568D01*
X213332122Y-99094656D01*
X213332121Y-99094657D01*
X213894897Y-99657431D01*
X213834758Y-99673546D01*
X213718919Y-99740425D01*
X213624337Y-99835007D01*
X213557458Y-99950846D01*
X213541343Y-100010984D01*
X212978569Y-99448209D01*
X212978568Y-99448210D01*
X212951482Y-99485491D01*
X212871324Y-99642809D01*
X212823349Y-99693605D01*
X212755528Y-99710400D01*
X212689393Y-99687862D01*
X212650354Y-99642809D01*
X212570197Y-99485494D01*
X212543107Y-99448210D01*
X211980333Y-100010984D01*
X211964220Y-99950846D01*
X211897341Y-99835007D01*
X211802759Y-99740425D01*
X211686920Y-99673546D01*
X211626781Y-99657431D01*
X212189555Y-99094658D01*
X212189554Y-99094657D01*
X212152271Y-99067568D01*
X211995507Y-98987692D01*
X211944711Y-98939717D01*
X211927916Y-98871896D01*
X211950454Y-98805761D01*
X211995506Y-98766723D01*
X212152533Y-98686714D01*
X212313303Y-98569908D01*
X212453820Y-98429391D01*
X212570626Y-98268621D01*
X212650354Y-98112145D01*
X212698329Y-98061350D01*
X212766150Y-98044555D01*
X212832285Y-98067092D01*
G37*
%TD.AperFunction*%
%TA.AperFunction,Conductor*%
G36*
X213557458Y-95263008D02*
G01*
X213624337Y-95378847D01*
X213718919Y-95473429D01*
X213834758Y-95540308D01*
X213894896Y-95556421D01*
X213332122Y-96119195D01*
X213332122Y-96119196D01*
X213369406Y-96146285D01*
X213526170Y-96226161D01*
X213576966Y-96274136D01*
X213593761Y-96341957D01*
X213571223Y-96408092D01*
X213526170Y-96447131D01*
X213369144Y-96527140D01*
X213208372Y-96643948D01*
X213067860Y-96784460D01*
X212951052Y-96945232D01*
X212871324Y-97101707D01*
X212823349Y-97152503D01*
X212755528Y-97169298D01*
X212689393Y-97146760D01*
X212650354Y-97101707D01*
X212617109Y-97036461D01*
X212570626Y-96945233D01*
X212453820Y-96784463D01*
X212313303Y-96643946D01*
X212152533Y-96527140D01*
X211995506Y-96447130D01*
X211944711Y-96399156D01*
X211927916Y-96331335D01*
X211950453Y-96265200D01*
X211995508Y-96226161D01*
X212152261Y-96146291D01*
X212189555Y-96119195D01*
X211626781Y-95556421D01*
X211686920Y-95540308D01*
X211802759Y-95473429D01*
X211897341Y-95378847D01*
X211964220Y-95263008D01*
X211980334Y-95202869D01*
X212543107Y-95765642D01*
X212570201Y-95728352D01*
X212650354Y-95571044D01*
X212698328Y-95520248D01*
X212766149Y-95503453D01*
X212832284Y-95525990D01*
X212871324Y-95571044D01*
X212951480Y-95728359D01*
X212978569Y-95765642D01*
X212978570Y-95765643D01*
X213541343Y-95202869D01*
X213557458Y-95263008D01*
G37*
%TD.AperFunction*%
%TA.AperFunction,Conductor*%
G36*
X213207353Y-93927108D02*
G01*
X213273982Y-93948127D01*
X213315564Y-93998100D01*
X213894897Y-94577431D01*
X213834758Y-94593546D01*
X213718919Y-94660425D01*
X213624337Y-94755007D01*
X213557458Y-94870846D01*
X213541343Y-94930984D01*
X212978569Y-94368209D01*
X212978568Y-94368210D01*
X212951482Y-94405491D01*
X212871324Y-94562809D01*
X212823349Y-94613605D01*
X212755528Y-94630400D01*
X212689393Y-94607862D01*
X212650354Y-94562809D01*
X212570197Y-94405494D01*
X212543107Y-94368210D01*
X211980333Y-94930984D01*
X211964220Y-94870846D01*
X211897341Y-94755007D01*
X211802759Y-94660425D01*
X211686920Y-94593546D01*
X211626780Y-94577431D01*
X212199926Y-94004286D01*
X212206150Y-93974656D01*
X212255199Y-93924898D01*
X212317879Y-93909326D01*
X213207353Y-93927108D01*
G37*
%TD.AperFunction*%
%TA.AperFunction,Conductor*%
G36*
X219682869Y-66856894D02*
G01*
X219728624Y-66909698D01*
X219739830Y-66961209D01*
X219739830Y-77141646D01*
X219720145Y-77208685D01*
X219667341Y-77254440D01*
X219615830Y-77265646D01*
X212814123Y-77265646D01*
X212813813Y-77265554D01*
X212624992Y-77265550D01*
X212624991Y-77265550D01*
X212624987Y-77265550D01*
X212351982Y-77301484D01*
X212241430Y-77331103D01*
X212086002Y-77372745D01*
X212085991Y-77372749D01*
X211831609Y-77478110D01*
X211831593Y-77478118D01*
X211593131Y-77615787D01*
X211593128Y-77615789D01*
X211374671Y-77783410D01*
X211374662Y-77783418D01*
X211179963Y-77978113D01*
X211179953Y-77978124D01*
X211012329Y-78196568D01*
X211012324Y-78196575D01*
X210874645Y-78435039D01*
X210874644Y-78435041D01*
X210873926Y-78436774D01*
X210769265Y-78689442D01*
X210697996Y-78955419D01*
X210662054Y-79228412D01*
X210662054Y-79503787D01*
X210697996Y-79776780D01*
X210697997Y-79776784D01*
X210769266Y-80042760D01*
X210874644Y-80297159D01*
X210877475Y-80302062D01*
X211012324Y-80535624D01*
X211012329Y-80535631D01*
X211179953Y-80754075D01*
X211179963Y-80754086D01*
X211374662Y-80948781D01*
X211374671Y-80948789D01*
X211593128Y-81116410D01*
X211593131Y-81116412D01*
X211597058Y-81118679D01*
X211831601Y-81254086D01*
X212086003Y-81359455D01*
X212351982Y-81430716D01*
X212624987Y-81466650D01*
X212762663Y-81466646D01*
X212762668Y-81466646D01*
X219615830Y-81466646D01*
X219682869Y-81486331D01*
X219728624Y-81539135D01*
X219739830Y-81590646D01*
X219739830Y-111082772D01*
X219720145Y-111149811D01*
X219667341Y-111195566D01*
X219615830Y-111206772D01*
X212828535Y-111206772D01*
X212828528Y-111206770D01*
X212762636Y-111206772D01*
X212689239Y-111206772D01*
X212688347Y-111206829D01*
X212624966Y-111206831D01*
X212351985Y-111242778D01*
X212351977Y-111242780D01*
X212086031Y-111314047D01*
X212086029Y-111314047D01*
X212086028Y-111314048D01*
X211831651Y-111419422D01*
X211831648Y-111419423D01*
X211831647Y-111419424D01*
X211831641Y-111419427D01*
X211593194Y-111557101D01*
X211374774Y-111724708D01*
X211374762Y-111724718D01*
X211180081Y-111919404D01*
X211180076Y-111919410D01*
X211012464Y-112137849D01*
X211012460Y-112137856D01*
X210874793Y-112376308D01*
X210829636Y-112485331D01*
X210769427Y-112630691D01*
X210698166Y-112896642D01*
X210662228Y-113169629D01*
X210662228Y-113444970D01*
X210698166Y-113717957D01*
X210765683Y-113969934D01*
X210769428Y-113983911D01*
X210874793Y-114238292D01*
X211012460Y-114476744D01*
X211012462Y-114476746D01*
X211012464Y-114476750D01*
X211180076Y-114695189D01*
X211180081Y-114695195D01*
X211326262Y-114841380D01*
X211374765Y-114889884D01*
X211374772Y-114889889D01*
X211374774Y-114889891D01*
X211593194Y-115057498D01*
X211593198Y-115057500D01*
X211593203Y-115057504D01*
X211831651Y-115195178D01*
X212086028Y-115300552D01*
X212351984Y-115371821D01*
X212624966Y-115407768D01*
X212696751Y-115407770D01*
X212696759Y-115407772D01*
X212762636Y-115407772D01*
X212828528Y-115407774D01*
X212828531Y-115407772D01*
X212837151Y-115407773D01*
X212837180Y-115407772D01*
X219615830Y-115407772D01*
X219682869Y-115427457D01*
X219728624Y-115480261D01*
X219739830Y-115531772D01*
X219739830Y-125712209D01*
X219720145Y-125779248D01*
X219667341Y-125825003D01*
X219615830Y-125836209D01*
X160864830Y-125836209D01*
X160797791Y-125816524D01*
X160752036Y-125763720D01*
X160740830Y-125712209D01*
X160740830Y-123171153D01*
X201199500Y-123171153D01*
X201199500Y-123328846D01*
X201230261Y-123483489D01*
X201230264Y-123483501D01*
X201290602Y-123629172D01*
X201290609Y-123629185D01*
X201378210Y-123760288D01*
X201378213Y-123760292D01*
X201489707Y-123871786D01*
X201489711Y-123871789D01*
X201620814Y-123959390D01*
X201620827Y-123959397D01*
X201766498Y-124019735D01*
X201766503Y-124019737D01*
X201921153Y-124050499D01*
X201921156Y-124050500D01*
X201921158Y-124050500D01*
X202078844Y-124050500D01*
X202078845Y-124050499D01*
X202233497Y-124019737D01*
X202379179Y-123959394D01*
X202510289Y-123871789D01*
X202621789Y-123760289D01*
X202709394Y-123629179D01*
X202769737Y-123483497D01*
X202800500Y-123328842D01*
X202800500Y-123171158D01*
X202800500Y-123171155D01*
X202800499Y-123171153D01*
X204449500Y-123171153D01*
X204449500Y-123328846D01*
X204480261Y-123483489D01*
X204480264Y-123483501D01*
X204540602Y-123629172D01*
X204540609Y-123629185D01*
X204628210Y-123760288D01*
X204628213Y-123760292D01*
X204739707Y-123871786D01*
X204739711Y-123871789D01*
X204870814Y-123959390D01*
X204870827Y-123959397D01*
X205016498Y-124019735D01*
X205016503Y-124019737D01*
X205171153Y-124050499D01*
X205171156Y-124050500D01*
X205171158Y-124050500D01*
X205328844Y-124050500D01*
X205328845Y-124050499D01*
X205483497Y-124019737D01*
X205629179Y-123959394D01*
X205760289Y-123871789D01*
X205871789Y-123760289D01*
X205959394Y-123629179D01*
X206019737Y-123483497D01*
X206050500Y-123328842D01*
X206050500Y-123171158D01*
X206050500Y-123171155D01*
X206050499Y-123171153D01*
X206019738Y-123016510D01*
X206019737Y-123016503D01*
X205991901Y-122949300D01*
X205959397Y-122870827D01*
X205959390Y-122870814D01*
X205871789Y-122739711D01*
X205871786Y-122739707D01*
X205760292Y-122628213D01*
X205760288Y-122628210D01*
X205629185Y-122540609D01*
X205629172Y-122540602D01*
X205483501Y-122480264D01*
X205483489Y-122480261D01*
X205328845Y-122449500D01*
X205328842Y-122449500D01*
X205171158Y-122449500D01*
X205171155Y-122449500D01*
X205016510Y-122480261D01*
X205016498Y-122480264D01*
X204870827Y-122540602D01*
X204870814Y-122540609D01*
X204739711Y-122628210D01*
X204739707Y-122628213D01*
X204628213Y-122739707D01*
X204628210Y-122739711D01*
X204540609Y-122870814D01*
X204540602Y-122870827D01*
X204480264Y-123016498D01*
X204480261Y-123016510D01*
X204449500Y-123171153D01*
X202800499Y-123171153D01*
X202769738Y-123016510D01*
X202769737Y-123016503D01*
X202741901Y-122949300D01*
X202709397Y-122870827D01*
X202709390Y-122870814D01*
X202621789Y-122739711D01*
X202621786Y-122739707D01*
X202510292Y-122628213D01*
X202510288Y-122628210D01*
X202379185Y-122540609D01*
X202379172Y-122540602D01*
X202233501Y-122480264D01*
X202233489Y-122480261D01*
X202078845Y-122449500D01*
X202078842Y-122449500D01*
X201921158Y-122449500D01*
X201921155Y-122449500D01*
X201766510Y-122480261D01*
X201766498Y-122480264D01*
X201620827Y-122540602D01*
X201620814Y-122540609D01*
X201489711Y-122628210D01*
X201489707Y-122628213D01*
X201378213Y-122739707D01*
X201378210Y-122739711D01*
X201290609Y-122870814D01*
X201290602Y-122870827D01*
X201230264Y-123016498D01*
X201230261Y-123016510D01*
X201199500Y-123171153D01*
X160740830Y-123171153D01*
X160740830Y-119980135D01*
X173562350Y-119980135D01*
X173562350Y-122497170D01*
X173562351Y-122497176D01*
X173568758Y-122556783D01*
X173619052Y-122691628D01*
X173619056Y-122691635D01*
X173705302Y-122806844D01*
X173705305Y-122806847D01*
X173820514Y-122893093D01*
X173820521Y-122893097D01*
X173955367Y-122943391D01*
X173955366Y-122943391D01*
X173962294Y-122944135D01*
X174014977Y-122949800D01*
X176532022Y-122949799D01*
X176591633Y-122943391D01*
X176726481Y-122893096D01*
X176841696Y-122806846D01*
X176927946Y-122691631D01*
X176978241Y-122556783D01*
X176984650Y-122497173D01*
X176984649Y-121159158D01*
X176984649Y-119980155D01*
X178562850Y-119980155D01*
X178562850Y-120988650D01*
X179503455Y-120988650D01*
X179497417Y-121003228D01*
X179466400Y-121159158D01*
X179466400Y-121318142D01*
X179497417Y-121474072D01*
X179503455Y-121488650D01*
X178562850Y-121488650D01*
X178562850Y-122497144D01*
X178569251Y-122556672D01*
X178569253Y-122556679D01*
X178619495Y-122691386D01*
X178619499Y-122691393D01*
X178705659Y-122806487D01*
X178705662Y-122806490D01*
X178820756Y-122892650D01*
X178820763Y-122892654D01*
X178955470Y-122942896D01*
X178955477Y-122942898D01*
X179015005Y-122949299D01*
X179015022Y-122949300D01*
X180023500Y-122949300D01*
X180023500Y-122008694D01*
X180038078Y-122014733D01*
X180194008Y-122045750D01*
X180352992Y-122045750D01*
X180508922Y-122014733D01*
X180523500Y-122008694D01*
X180523500Y-122949300D01*
X181531978Y-122949300D01*
X181531994Y-122949299D01*
X181591522Y-122942898D01*
X181591529Y-122942896D01*
X181726236Y-122892654D01*
X181726243Y-122892650D01*
X181841337Y-122806490D01*
X181841340Y-122806487D01*
X181927500Y-122691393D01*
X181927504Y-122691386D01*
X181977746Y-122556679D01*
X181977748Y-122556672D01*
X181984149Y-122497144D01*
X181984150Y-122497127D01*
X181984150Y-121488650D01*
X181043545Y-121488650D01*
X181049583Y-121474072D01*
X181080600Y-121318142D01*
X181080600Y-121159158D01*
X181049583Y-121003228D01*
X181043545Y-120988650D01*
X181984150Y-120988650D01*
X181984150Y-119980172D01*
X181984149Y-119980155D01*
X181977748Y-119920627D01*
X181977746Y-119920620D01*
X181927504Y-119785913D01*
X181927500Y-119785906D01*
X181841340Y-119670812D01*
X181841337Y-119670809D01*
X181726243Y-119584649D01*
X181726236Y-119584645D01*
X181591529Y-119534403D01*
X181591522Y-119534401D01*
X181531994Y-119528000D01*
X180523500Y-119528000D01*
X180523500Y-120468605D01*
X180508922Y-120462567D01*
X180352992Y-120431550D01*
X180194008Y-120431550D01*
X180038078Y-120462567D01*
X180023500Y-120468605D01*
X180023500Y-119528000D01*
X179015005Y-119528000D01*
X178955477Y-119534401D01*
X178955470Y-119534403D01*
X178820763Y-119584645D01*
X178820756Y-119584649D01*
X178705662Y-119670809D01*
X178705659Y-119670812D01*
X178619499Y-119785906D01*
X178619495Y-119785913D01*
X178569253Y-119920620D01*
X178569251Y-119920627D01*
X178562850Y-119980155D01*
X176984649Y-119980155D01*
X176984649Y-119980129D01*
X176984648Y-119980123D01*
X176984647Y-119980116D01*
X176978241Y-119920517D01*
X176928034Y-119785906D01*
X176927947Y-119785671D01*
X176927943Y-119785664D01*
X176841697Y-119670455D01*
X176841694Y-119670452D01*
X176726485Y-119584206D01*
X176726478Y-119584202D01*
X176591632Y-119533908D01*
X176591633Y-119533908D01*
X176532033Y-119527501D01*
X176532031Y-119527500D01*
X176532023Y-119527500D01*
X176532014Y-119527500D01*
X174014979Y-119527500D01*
X174014973Y-119527501D01*
X173955366Y-119533908D01*
X173820521Y-119584202D01*
X173820514Y-119584206D01*
X173705305Y-119670452D01*
X173705302Y-119670455D01*
X173619056Y-119785664D01*
X173619052Y-119785671D01*
X173568758Y-119920517D01*
X173562351Y-119980116D01*
X173562351Y-119980123D01*
X173562350Y-119980135D01*
X160740830Y-119980135D01*
X160740830Y-115531772D01*
X160760515Y-115464733D01*
X160813319Y-115418978D01*
X160864830Y-115407772D01*
X167666561Y-115407772D01*
X167666741Y-115407825D01*
X167717981Y-115407827D01*
X167717981Y-115407828D01*
X167855661Y-115407835D01*
X168128669Y-115371908D01*
X168128678Y-115371905D01*
X168128681Y-115371905D01*
X168394644Y-115300654D01*
X168394644Y-115300653D01*
X168394651Y-115300652D01*
X168589876Y-115219796D01*
X168649048Y-115195290D01*
X168649048Y-115195289D01*
X168649057Y-115195286D01*
X168887532Y-115057614D01*
X169105997Y-114889992D01*
X169300713Y-114695288D01*
X169357113Y-114621789D01*
X169468337Y-114476846D01*
X169468340Y-114476841D01*
X169468347Y-114476832D01*
X169606033Y-114238365D01*
X169711413Y-113983965D01*
X169782684Y-113717987D01*
X169818628Y-113444981D01*
X169818628Y-113169620D01*
X169782685Y-112896614D01*
X169774953Y-112867761D01*
X169715190Y-112644731D01*
X169711413Y-112630636D01*
X169694321Y-112589374D01*
X169606039Y-112376248D01*
X169606031Y-112376233D01*
X169468348Y-112137769D01*
X169468345Y-112137765D01*
X169468338Y-112137754D01*
X169300721Y-111919321D01*
X169300720Y-111919320D01*
X169300717Y-111919317D01*
X169300714Y-111919313D01*
X169105998Y-111724609D01*
X169105993Y-111724605D01*
X169105992Y-111724604D01*
X168887536Y-111556987D01*
X168686262Y-111440792D01*
X168649058Y-111419314D01*
X168649056Y-111419313D01*
X168649054Y-111419312D01*
X168649050Y-111419310D01*
X168394646Y-111313946D01*
X168128682Y-111242694D01*
X168128671Y-111242692D01*
X167855666Y-111206765D01*
X167855663Y-111206765D01*
X167717982Y-111206772D01*
X160864830Y-111206772D01*
X160797791Y-111187087D01*
X160752036Y-111134283D01*
X160740830Y-111082772D01*
X160740830Y-108296803D01*
X164859250Y-108296803D01*
X164859250Y-108553078D01*
X164892698Y-108807150D01*
X164892701Y-108807163D01*
X164959029Y-109054706D01*
X165057099Y-109291467D01*
X165057101Y-109291471D01*
X165185239Y-109513410D01*
X165185240Y-109513411D01*
X165266424Y-109619212D01*
X165802786Y-109082849D01*
X165895128Y-109209946D01*
X166029245Y-109344063D01*
X166156339Y-109436402D01*
X165619977Y-109972764D01*
X165619977Y-109972765D01*
X165725779Y-110053950D01*
X165725780Y-110053951D01*
X165947719Y-110182089D01*
X165947723Y-110182091D01*
X166184484Y-110280161D01*
X166432027Y-110346489D01*
X166432040Y-110346492D01*
X166686112Y-110379941D01*
X166942388Y-110379941D01*
X167196459Y-110346492D01*
X167196472Y-110346489D01*
X167444015Y-110280161D01*
X167680776Y-110182091D01*
X167680780Y-110182089D01*
X167902729Y-110053946D01*
X168008521Y-109972767D01*
X168008521Y-109972764D01*
X167472159Y-109436403D01*
X167599255Y-109344063D01*
X167733372Y-109209946D01*
X167825712Y-109082851D01*
X168362073Y-109619212D01*
X168362076Y-109619212D01*
X168443255Y-109513420D01*
X168571398Y-109291471D01*
X168571400Y-109291467D01*
X168669470Y-109054706D01*
X168735798Y-108807163D01*
X168735801Y-108807150D01*
X168769250Y-108553078D01*
X168769250Y-108296803D01*
X168735801Y-108042731D01*
X168735798Y-108042718D01*
X168669470Y-107795175D01*
X168571400Y-107558414D01*
X168571398Y-107558410D01*
X168443260Y-107336471D01*
X168443259Y-107336470D01*
X168362074Y-107230668D01*
X168362073Y-107230668D01*
X167825711Y-107767030D01*
X167733372Y-107639936D01*
X167599255Y-107505819D01*
X167472158Y-107413477D01*
X168008521Y-106877115D01*
X167902720Y-106795931D01*
X167902719Y-106795930D01*
X167680780Y-106667792D01*
X167680776Y-106667790D01*
X167444015Y-106569720D01*
X167196472Y-106503392D01*
X167196459Y-106503389D01*
X166942388Y-106469941D01*
X166686112Y-106469941D01*
X166432040Y-106503389D01*
X166432027Y-106503392D01*
X166184484Y-106569720D01*
X165947723Y-106667790D01*
X165947719Y-106667792D01*
X165725780Y-106795930D01*
X165725770Y-106795936D01*
X165619977Y-106877114D01*
X165619977Y-106877115D01*
X166156340Y-107413478D01*
X166029245Y-107505819D01*
X165895128Y-107639936D01*
X165802787Y-107767031D01*
X165266424Y-107230668D01*
X165266423Y-107230668D01*
X165185245Y-107336461D01*
X165185239Y-107336471D01*
X165057101Y-107558410D01*
X165057099Y-107558414D01*
X164959029Y-107795175D01*
X164892701Y-108042718D01*
X164892698Y-108042731D01*
X164859250Y-108296803D01*
X160740830Y-108296803D01*
X160740830Y-105467076D01*
X169873750Y-105467076D01*
X169873750Y-107082811D01*
X169873751Y-107082817D01*
X169880158Y-107142424D01*
X169930452Y-107277269D01*
X169930456Y-107277276D01*
X170016702Y-107392485D01*
X170016705Y-107392488D01*
X170131914Y-107478734D01*
X170131921Y-107478738D01*
X170176868Y-107495502D01*
X170266767Y-107529032D01*
X170326377Y-107535441D01*
X170409751Y-107535440D01*
X170476788Y-107555124D01*
X170522544Y-107607927D01*
X170533750Y-107659440D01*
X170533750Y-111547580D01*
X170533749Y-111547598D01*
X170533749Y-111713304D01*
X170533748Y-111713304D01*
X170574673Y-111866035D01*
X170602419Y-111914093D01*
X170602422Y-111914097D01*
X170653729Y-112002964D01*
X170653731Y-112002967D01*
X170772599Y-112121835D01*
X170772605Y-112121840D01*
X172665425Y-114014660D01*
X172698910Y-114075983D01*
X172699361Y-114078149D01*
X172730261Y-114233491D01*
X172730264Y-114233501D01*
X172790602Y-114379172D01*
X172790609Y-114379185D01*
X172878210Y-114510288D01*
X172878213Y-114510292D01*
X172989707Y-114621786D01*
X172989711Y-114621789D01*
X173120814Y-114709390D01*
X173120827Y-114709397D01*
X173228942Y-114754179D01*
X173266503Y-114769737D01*
X173421153Y-114800499D01*
X173421156Y-114800500D01*
X173421158Y-114800500D01*
X173578844Y-114800500D01*
X173578845Y-114800499D01*
X173733497Y-114769737D01*
X173846166Y-114723067D01*
X173879172Y-114709397D01*
X173879172Y-114709396D01*
X173879179Y-114709394D01*
X174010289Y-114621789D01*
X174121789Y-114510289D01*
X174209394Y-114379179D01*
X174269737Y-114233497D01*
X174300500Y-114078842D01*
X174300500Y-113921158D01*
X174300500Y-113921155D01*
X174300499Y-113921153D01*
X175699500Y-113921153D01*
X175699500Y-114078846D01*
X175730261Y-114233489D01*
X175730264Y-114233501D01*
X175790602Y-114379172D01*
X175790609Y-114379185D01*
X175878210Y-114510288D01*
X175878213Y-114510292D01*
X175989707Y-114621786D01*
X175989711Y-114621789D01*
X176120814Y-114709390D01*
X176120827Y-114709397D01*
X176228942Y-114754179D01*
X176266503Y-114769737D01*
X176421153Y-114800499D01*
X176421156Y-114800500D01*
X176421158Y-114800500D01*
X176578844Y-114800500D01*
X176578845Y-114800499D01*
X176733497Y-114769737D01*
X176846166Y-114723067D01*
X176879172Y-114709397D01*
X176879172Y-114709396D01*
X176879179Y-114709394D01*
X177010289Y-114621789D01*
X177121789Y-114510289D01*
X177209394Y-114379179D01*
X177269737Y-114233497D01*
X177300500Y-114078842D01*
X177300500Y-113921158D01*
X177300500Y-113921155D01*
X177300499Y-113921153D01*
X178699500Y-113921153D01*
X178699500Y-114078846D01*
X178730261Y-114233489D01*
X178730264Y-114233501D01*
X178790602Y-114379172D01*
X178790609Y-114379185D01*
X178878210Y-114510288D01*
X178878213Y-114510292D01*
X178989707Y-114621786D01*
X178989711Y-114621789D01*
X179120814Y-114709390D01*
X179120827Y-114709397D01*
X179228942Y-114754179D01*
X179266503Y-114769737D01*
X179421153Y-114800499D01*
X179421156Y-114800500D01*
X179421158Y-114800500D01*
X179578844Y-114800500D01*
X179578845Y-114800499D01*
X179733497Y-114769737D01*
X179846166Y-114723067D01*
X179879172Y-114709397D01*
X179879172Y-114709396D01*
X179879179Y-114709394D01*
X180010289Y-114621789D01*
X180121789Y-114510289D01*
X180209394Y-114379179D01*
X180269737Y-114233497D01*
X180300500Y-114078842D01*
X180300500Y-113921158D01*
X180300500Y-113921155D01*
X180300499Y-113921153D01*
X180269738Y-113766510D01*
X180269737Y-113766503D01*
X180237904Y-113689650D01*
X180209397Y-113620827D01*
X180209390Y-113620814D01*
X180121398Y-113489125D01*
X180100520Y-113422447D01*
X180100500Y-113420234D01*
X180100500Y-108027451D01*
X180120185Y-107960412D01*
X180136819Y-107939770D01*
X182288819Y-105787770D01*
X182350142Y-105754285D01*
X182419834Y-105759269D01*
X182475767Y-105801141D01*
X182500184Y-105866605D01*
X182500500Y-105875451D01*
X182500500Y-109331953D01*
X182480815Y-109398992D01*
X182428011Y-109444747D01*
X182400692Y-109453570D01*
X182266508Y-109480261D01*
X182266498Y-109480264D01*
X182120827Y-109540602D01*
X182120814Y-109540609D01*
X181989711Y-109628210D01*
X181989707Y-109628213D01*
X181878213Y-109739707D01*
X181878210Y-109739711D01*
X181790609Y-109870814D01*
X181790602Y-109870827D01*
X181730264Y-110016498D01*
X181730261Y-110016510D01*
X181699500Y-110171153D01*
X181699500Y-110328846D01*
X181730261Y-110483489D01*
X181730264Y-110483501D01*
X181790602Y-110629172D01*
X181790609Y-110629185D01*
X181878210Y-110760288D01*
X181878213Y-110760292D01*
X181989707Y-110871786D01*
X181989711Y-110871789D01*
X182120814Y-110959390D01*
X182120827Y-110959397D01*
X182266498Y-111019735D01*
X182266503Y-111019737D01*
X182360645Y-111038463D01*
X182400691Y-111046429D01*
X182462602Y-111078814D01*
X182497176Y-111139529D01*
X182500500Y-111168046D01*
X182500500Y-113081953D01*
X182480815Y-113148992D01*
X182428011Y-113194747D01*
X182400692Y-113203570D01*
X182266508Y-113230261D01*
X182266498Y-113230264D01*
X182120827Y-113290602D01*
X182120814Y-113290609D01*
X181989711Y-113378210D01*
X181989707Y-113378213D01*
X181878213Y-113489707D01*
X181878210Y-113489711D01*
X181790609Y-113620814D01*
X181790602Y-113620827D01*
X181730264Y-113766498D01*
X181730261Y-113766510D01*
X181699500Y-113921153D01*
X181699500Y-114078846D01*
X181730261Y-114233489D01*
X181730264Y-114233501D01*
X181790602Y-114379172D01*
X181790609Y-114379185D01*
X181878210Y-114510288D01*
X181878213Y-114510292D01*
X181989707Y-114621786D01*
X181989711Y-114621789D01*
X182120814Y-114709390D01*
X182120827Y-114709397D01*
X182228942Y-114754179D01*
X182266503Y-114769737D01*
X182421153Y-114800499D01*
X182421156Y-114800500D01*
X182421158Y-114800500D01*
X182578844Y-114800500D01*
X182578845Y-114800499D01*
X182733497Y-114769737D01*
X182846166Y-114723067D01*
X182879172Y-114709397D01*
X182879172Y-114709396D01*
X182879179Y-114709394D01*
X183010289Y-114621789D01*
X183121789Y-114510289D01*
X183209394Y-114379179D01*
X183269737Y-114233497D01*
X183292351Y-114119808D01*
X183300638Y-114078150D01*
X183309403Y-114061393D01*
X183313423Y-114042915D01*
X183332169Y-114017871D01*
X183333023Y-114016239D01*
X183334476Y-114014757D01*
X183459509Y-113889724D01*
X183459514Y-113889721D01*
X183469714Y-113879520D01*
X183469716Y-113879520D01*
X183581520Y-113767716D01*
X183660577Y-113630784D01*
X183697034Y-113494724D01*
X183701500Y-113478058D01*
X183701500Y-113319943D01*
X183701500Y-107546153D01*
X184574500Y-107546153D01*
X184574500Y-107703846D01*
X184605261Y-107858489D01*
X184605264Y-107858501D01*
X184665602Y-108004172D01*
X184665609Y-108004185D01*
X184753210Y-108135288D01*
X184753213Y-108135292D01*
X184864707Y-108246786D01*
X184864711Y-108246789D01*
X184995814Y-108334390D01*
X184995827Y-108334397D01*
X185141498Y-108394735D01*
X185141503Y-108394737D01*
X185293343Y-108424940D01*
X185296153Y-108425499D01*
X185296156Y-108425500D01*
X185296158Y-108425500D01*
X185453844Y-108425500D01*
X185453845Y-108425499D01*
X185608497Y-108394737D01*
X185754179Y-108334394D01*
X185885289Y-108246789D01*
X185996789Y-108135289D01*
X186084394Y-108004179D01*
X186144737Y-107858497D01*
X186175500Y-107703842D01*
X186175500Y-107546158D01*
X186175500Y-107546155D01*
X186175499Y-107546153D01*
X186144933Y-107392488D01*
X186144737Y-107391503D01*
X186131864Y-107360425D01*
X186084397Y-107245827D01*
X186084390Y-107245814D01*
X185996789Y-107114711D01*
X185996786Y-107114707D01*
X185885292Y-107003213D01*
X185885288Y-107003210D01*
X185754185Y-106915609D01*
X185754172Y-106915602D01*
X185608501Y-106855264D01*
X185608489Y-106855261D01*
X185453845Y-106824500D01*
X185453842Y-106824500D01*
X185296158Y-106824500D01*
X185296155Y-106824500D01*
X185141510Y-106855261D01*
X185141498Y-106855264D01*
X184995827Y-106915602D01*
X184995814Y-106915609D01*
X184864711Y-107003210D01*
X184864707Y-107003213D01*
X184753213Y-107114707D01*
X184753210Y-107114711D01*
X184665609Y-107245814D01*
X184665602Y-107245827D01*
X184605264Y-107391498D01*
X184605261Y-107391510D01*
X184574500Y-107546153D01*
X183701500Y-107546153D01*
X183701500Y-105599154D01*
X183721185Y-105532115D01*
X183737819Y-105511473D01*
X184234851Y-105014441D01*
X184850490Y-104398801D01*
X184911811Y-104365318D01*
X184981503Y-104370302D01*
X185007060Y-104383382D01*
X185120814Y-104459390D01*
X185120827Y-104459397D01*
X185266498Y-104519735D01*
X185266503Y-104519737D01*
X185331147Y-104532595D01*
X185421849Y-104550638D01*
X185483760Y-104583023D01*
X185485339Y-104584574D01*
X186754097Y-105853332D01*
X186787582Y-105914655D01*
X186790416Y-105941013D01*
X186790416Y-118304246D01*
X186790415Y-118304264D01*
X186790415Y-118469970D01*
X186790414Y-118469970D01*
X186790415Y-118469973D01*
X186831339Y-118622701D01*
X186859191Y-118670942D01*
X186910396Y-118759632D01*
X186925062Y-118774298D01*
X186932375Y-118785796D01*
X186938435Y-118806799D01*
X186948911Y-118825985D01*
X186949362Y-118828151D01*
X186980261Y-118983491D01*
X186980264Y-118983501D01*
X187040602Y-119129172D01*
X187040609Y-119129185D01*
X187128210Y-119260288D01*
X187128213Y-119260292D01*
X187239707Y-119371786D01*
X187239711Y-119371789D01*
X187370814Y-119459390D01*
X187370827Y-119459397D01*
X187516498Y-119519735D01*
X187516503Y-119519737D01*
X187671153Y-119550499D01*
X187671156Y-119550500D01*
X187671158Y-119550500D01*
X187828844Y-119550500D01*
X187828845Y-119550499D01*
X187983497Y-119519737D01*
X188129179Y-119459394D01*
X188260289Y-119371789D01*
X188260292Y-119371786D01*
X188287319Y-119344760D01*
X188348642Y-119311275D01*
X188418334Y-119316259D01*
X188462681Y-119344760D01*
X188489707Y-119371786D01*
X188489711Y-119371789D01*
X188620814Y-119459390D01*
X188620827Y-119459397D01*
X188766498Y-119519735D01*
X188766503Y-119519737D01*
X188921153Y-119550499D01*
X188921156Y-119550500D01*
X188921158Y-119550500D01*
X189078844Y-119550500D01*
X189078845Y-119550499D01*
X189233497Y-119519737D01*
X189379179Y-119459394D01*
X189510289Y-119371789D01*
X189510292Y-119371786D01*
X189537319Y-119344760D01*
X189598642Y-119311275D01*
X189668334Y-119316259D01*
X189712681Y-119344760D01*
X189739707Y-119371786D01*
X189739711Y-119371789D01*
X189870814Y-119459390D01*
X189870827Y-119459397D01*
X190016498Y-119519735D01*
X190016503Y-119519737D01*
X190171153Y-119550499D01*
X190171156Y-119550500D01*
X190171158Y-119550500D01*
X190328844Y-119550500D01*
X190328845Y-119550499D01*
X190483497Y-119519737D01*
X190629179Y-119459394D01*
X190760289Y-119371789D01*
X190871789Y-119260289D01*
X190903274Y-119213167D01*
X190956884Y-119168363D01*
X191026209Y-119159654D01*
X191075267Y-119178956D01*
X191120821Y-119209394D01*
X191120823Y-119209395D01*
X191120827Y-119209397D01*
X191266498Y-119269735D01*
X191266503Y-119269737D01*
X191421153Y-119300499D01*
X191421156Y-119300500D01*
X191421158Y-119300500D01*
X191578844Y-119300500D01*
X191578845Y-119300499D01*
X191733497Y-119269737D01*
X191879179Y-119209394D01*
X192010289Y-119121789D01*
X192121789Y-119010289D01*
X192209394Y-118879179D01*
X192269737Y-118733497D01*
X192300500Y-118578842D01*
X192300500Y-118421158D01*
X192300500Y-118421155D01*
X192300499Y-118421153D01*
X192277248Y-118304264D01*
X192269737Y-118266503D01*
X192260630Y-118244516D01*
X192209397Y-118120827D01*
X192209390Y-118120814D01*
X192121789Y-117989711D01*
X192121786Y-117989707D01*
X192010292Y-117878213D01*
X192010288Y-117878210D01*
X191879185Y-117790609D01*
X191879172Y-117790602D01*
X191733501Y-117730264D01*
X191733489Y-117730261D01*
X191578845Y-117699500D01*
X191578842Y-117699500D01*
X191421158Y-117699500D01*
X191421155Y-117699500D01*
X191266510Y-117730261D01*
X191266498Y-117730264D01*
X191120827Y-117790602D01*
X191120814Y-117790609D01*
X190989711Y-117878210D01*
X190989707Y-117878213D01*
X190878213Y-117989707D01*
X190878210Y-117989711D01*
X190846725Y-118036832D01*
X190793112Y-118081637D01*
X190723787Y-118090344D01*
X190674732Y-118071043D01*
X190629185Y-118040609D01*
X190629172Y-118040602D01*
X190483501Y-117980264D01*
X190483489Y-117980261D01*
X190328845Y-117949500D01*
X190328842Y-117949500D01*
X190171158Y-117949500D01*
X190171155Y-117949500D01*
X190016510Y-117980261D01*
X190016498Y-117980264D01*
X189870827Y-118040602D01*
X189870809Y-118040612D01*
X189793390Y-118092342D01*
X189726713Y-118113220D01*
X189659333Y-118094735D01*
X189612643Y-118042756D01*
X189600500Y-117989240D01*
X189600500Y-112544644D01*
X190326009Y-112544644D01*
X190326009Y-112702337D01*
X190356770Y-112856980D01*
X190356773Y-112856992D01*
X190417111Y-113002663D01*
X190417118Y-113002676D01*
X190504719Y-113133779D01*
X190504722Y-113133783D01*
X190616216Y-113245277D01*
X190616220Y-113245280D01*
X190747323Y-113332881D01*
X190747336Y-113332888D01*
X190856755Y-113378210D01*
X190893012Y-113393228D01*
X191039905Y-113422447D01*
X191047662Y-113423990D01*
X191047665Y-113423991D01*
X191047667Y-113423991D01*
X191205353Y-113423991D01*
X191205354Y-113423990D01*
X191360006Y-113393228D01*
X191505688Y-113332885D01*
X191636798Y-113245280D01*
X191748298Y-113133780D01*
X191835903Y-113002670D01*
X191888448Y-112875813D01*
X191932288Y-112821410D01*
X191998582Y-112799345D01*
X192066282Y-112816624D01*
X192113893Y-112867761D01*
X192127009Y-112923266D01*
X192127009Y-112967996D01*
X192157770Y-113122639D01*
X192157773Y-113122651D01*
X192218111Y-113268322D01*
X192218118Y-113268335D01*
X192305719Y-113399438D01*
X192305722Y-113399442D01*
X192417216Y-113510936D01*
X192417220Y-113510939D01*
X192548323Y-113598540D01*
X192548336Y-113598547D01*
X192626167Y-113630785D01*
X192694012Y-113658887D01*
X192848662Y-113689649D01*
X192848665Y-113689650D01*
X192848667Y-113689650D01*
X193006353Y-113689650D01*
X193006354Y-113689649D01*
X193161006Y-113658887D01*
X193283917Y-113607975D01*
X193353386Y-113600507D01*
X193378818Y-113607975D01*
X193501732Y-113658887D01*
X193656382Y-113689649D01*
X193656385Y-113689650D01*
X193656387Y-113689650D01*
X193814073Y-113689650D01*
X193814074Y-113689649D01*
X193968726Y-113658887D01*
X194114408Y-113598544D01*
X194245518Y-113510939D01*
X194357018Y-113399439D01*
X194444623Y-113268329D01*
X194504966Y-113122647D01*
X194535729Y-112967992D01*
X194535729Y-112810308D01*
X194535729Y-112810305D01*
X194535728Y-112810303D01*
X194514251Y-112702333D01*
X194504966Y-112655653D01*
X194497168Y-112636826D01*
X194463192Y-112554800D01*
X194455723Y-112485331D01*
X194486998Y-112422852D01*
X194547087Y-112387200D01*
X194616913Y-112389694D01*
X194665434Y-112419667D01*
X197291417Y-115045650D01*
X197324902Y-115106973D01*
X197327736Y-115133331D01*
X197327736Y-115797506D01*
X197308051Y-115864545D01*
X197272628Y-115900608D01*
X197213943Y-115939820D01*
X197102449Y-116051314D01*
X197102446Y-116051318D01*
X197014845Y-116182421D01*
X197014838Y-116182434D01*
X196954500Y-116328105D01*
X196954497Y-116328117D01*
X196923736Y-116482760D01*
X196923736Y-116640453D01*
X196954497Y-116795096D01*
X196954500Y-116795108D01*
X197014838Y-116940779D01*
X197014845Y-116940792D01*
X197102446Y-117071895D01*
X197102449Y-117071899D01*
X197213943Y-117183393D01*
X197213947Y-117183396D01*
X197345050Y-117270997D01*
X197345063Y-117271004D01*
X197490734Y-117331342D01*
X197490739Y-117331344D01*
X197645389Y-117362106D01*
X197645392Y-117362107D01*
X197645394Y-117362107D01*
X197803080Y-117362107D01*
X197803081Y-117362106D01*
X197957733Y-117331344D01*
X198103415Y-117271001D01*
X198234525Y-117183396D01*
X198346025Y-117071896D01*
X198433630Y-116940786D01*
X198493973Y-116795104D01*
X198512259Y-116703171D01*
X198514087Y-116695328D01*
X198528736Y-116640664D01*
X198528736Y-114754177D01*
X198487813Y-114601450D01*
X198486952Y-114599958D01*
X198408760Y-114464524D01*
X198408757Y-114464520D01*
X198408756Y-114464518D01*
X198296952Y-114352714D01*
X198296951Y-114352713D01*
X198292621Y-114348383D01*
X198292610Y-114348373D01*
X194318025Y-110373788D01*
X194284540Y-110312465D01*
X194289524Y-110242773D01*
X194331396Y-110186840D01*
X194396860Y-110162423D01*
X194405706Y-110162107D01*
X195778140Y-110162107D01*
X195845179Y-110181792D01*
X195865821Y-110198426D01*
X196539549Y-110872154D01*
X196573034Y-110933477D01*
X196573422Y-110976612D01*
X196574334Y-110976702D01*
X196573737Y-110982764D01*
X196573737Y-111140453D01*
X196604498Y-111295096D01*
X196604501Y-111295108D01*
X196664839Y-111440779D01*
X196664846Y-111440792D01*
X196752447Y-111571895D01*
X196752450Y-111571899D01*
X196863944Y-111683393D01*
X196863948Y-111683396D01*
X196995051Y-111770997D01*
X196995064Y-111771004D01*
X197120574Y-111822991D01*
X197140740Y-111831344D01*
X197253392Y-111853752D01*
X197295390Y-111862106D01*
X197295393Y-111862107D01*
X197295395Y-111862107D01*
X197453081Y-111862107D01*
X197453082Y-111862106D01*
X197607734Y-111831344D01*
X197753416Y-111771001D01*
X197884526Y-111683396D01*
X197996026Y-111571896D01*
X198083631Y-111440786D01*
X198143974Y-111295104D01*
X198161532Y-111206832D01*
X198162256Y-111203194D01*
X198164099Y-111195289D01*
X198178737Y-111140664D01*
X198178737Y-110982548D01*
X198165801Y-110934274D01*
X198164097Y-110927916D01*
X198162255Y-110920015D01*
X198152661Y-110871786D01*
X198143974Y-110828110D01*
X198115881Y-110760288D01*
X198083634Y-110682434D01*
X198083627Y-110682421D01*
X197996026Y-110551318D01*
X197996023Y-110551314D01*
X197884529Y-110439820D01*
X197884525Y-110439817D01*
X197753422Y-110352216D01*
X197753412Y-110352211D01*
X197715876Y-110336663D01*
X197708943Y-110332030D01*
X197703902Y-110330934D01*
X197675648Y-110309783D01*
X197451554Y-110085689D01*
X204184729Y-110085689D01*
X204184729Y-110243382D01*
X204215490Y-110398025D01*
X204215493Y-110398037D01*
X204275831Y-110543708D01*
X204275838Y-110543721D01*
X204363439Y-110674824D01*
X204363442Y-110674828D01*
X204474936Y-110786322D01*
X204474940Y-110786325D01*
X204606043Y-110873926D01*
X204606056Y-110873933D01*
X204726906Y-110923990D01*
X204751732Y-110934273D01*
X204878003Y-110959390D01*
X204906382Y-110965035D01*
X204906385Y-110965036D01*
X204906387Y-110965036D01*
X205064073Y-110965036D01*
X205064074Y-110965035D01*
X205218726Y-110934273D01*
X205364408Y-110873930D01*
X205495518Y-110786325D01*
X205607018Y-110674825D01*
X205694623Y-110543715D01*
X205754966Y-110398033D01*
X205785729Y-110243378D01*
X205785729Y-110085694D01*
X205785729Y-110085691D01*
X205785728Y-110085689D01*
X205771965Y-110016498D01*
X205754966Y-109931039D01*
X205713039Y-109829817D01*
X205694626Y-109785363D01*
X205694619Y-109785350D01*
X205607018Y-109654247D01*
X205607015Y-109654243D01*
X205495521Y-109542749D01*
X205495517Y-109542746D01*
X205364414Y-109455145D01*
X205364401Y-109455138D01*
X205218730Y-109394800D01*
X205218718Y-109394797D01*
X205064074Y-109364036D01*
X205064071Y-109364036D01*
X204906387Y-109364036D01*
X204906384Y-109364036D01*
X204751739Y-109394797D01*
X204751727Y-109394800D01*
X204606056Y-109455138D01*
X204606043Y-109455145D01*
X204474940Y-109542746D01*
X204474936Y-109542749D01*
X204363442Y-109654243D01*
X204363439Y-109654247D01*
X204275838Y-109785350D01*
X204275831Y-109785363D01*
X204215493Y-109931034D01*
X204215490Y-109931046D01*
X204184729Y-110085689D01*
X197451554Y-110085689D01*
X196565827Y-109199962D01*
X196565825Y-109199959D01*
X196446954Y-109081088D01*
X196446953Y-109081087D01*
X196360141Y-109030967D01*
X196360141Y-109030966D01*
X196360137Y-109030965D01*
X196310022Y-109002030D01*
X196157294Y-108961106D01*
X195999180Y-108961106D01*
X195991584Y-108961106D01*
X195991568Y-108961107D01*
X193014906Y-108961107D01*
X193014890Y-108961106D01*
X193007294Y-108961106D01*
X192849179Y-108961106D01*
X192772815Y-108981568D01*
X192696450Y-109002030D01*
X192696445Y-109002033D01*
X192559526Y-109081082D01*
X192559518Y-109081088D01*
X192052453Y-109588153D01*
X192052450Y-109588155D01*
X192052451Y-109588156D01*
X191947714Y-109692893D01*
X191897597Y-109779701D01*
X191897595Y-109779703D01*
X191868661Y-109829816D01*
X191868660Y-109829817D01*
X191852780Y-109889079D01*
X191827735Y-109982550D01*
X191827735Y-109982552D01*
X191827735Y-110150653D01*
X191827736Y-110150666D01*
X191827736Y-110974937D01*
X191827735Y-110974955D01*
X191827735Y-111140661D01*
X191827734Y-111140661D01*
X191855096Y-111242778D01*
X191868659Y-111293392D01*
X191869649Y-111295107D01*
X191871747Y-111298739D01*
X191871751Y-111298746D01*
X191914304Y-111372452D01*
X191930775Y-111440353D01*
X191928534Y-111458639D01*
X191923736Y-111482763D01*
X191923736Y-111640453D01*
X191954497Y-111795096D01*
X191954500Y-111795108D01*
X192014838Y-111940779D01*
X192014845Y-111940792D01*
X192102446Y-112071895D01*
X192102449Y-112071899D01*
X192213944Y-112183394D01*
X192213947Y-112183396D01*
X192264584Y-112217231D01*
X192309388Y-112270841D01*
X192318097Y-112340166D01*
X192298795Y-112389222D01*
X192218121Y-112509959D01*
X192218111Y-112509977D01*
X192165570Y-112636826D01*
X192121729Y-112691230D01*
X192055435Y-112713295D01*
X191987736Y-112696016D01*
X191940125Y-112644879D01*
X191927009Y-112589374D01*
X191927009Y-112544646D01*
X191927008Y-112544644D01*
X191896247Y-112390001D01*
X191896246Y-112389994D01*
X191851548Y-112282082D01*
X191835906Y-112244318D01*
X191835899Y-112244305D01*
X191748298Y-112113202D01*
X191748295Y-112113198D01*
X191636801Y-112001704D01*
X191636797Y-112001701D01*
X191505690Y-111914098D01*
X191505681Y-111914093D01*
X191360010Y-111853755D01*
X191359998Y-111853752D01*
X191205354Y-111822991D01*
X191205351Y-111822991D01*
X191047667Y-111822991D01*
X191047664Y-111822991D01*
X190893019Y-111853752D01*
X190893007Y-111853755D01*
X190747336Y-111914093D01*
X190747328Y-111914098D01*
X190616220Y-112001701D01*
X190616216Y-112001704D01*
X190504722Y-112113198D01*
X190504719Y-112113202D01*
X190417118Y-112244305D01*
X190417111Y-112244318D01*
X190356773Y-112389989D01*
X190356770Y-112390001D01*
X190326009Y-112544644D01*
X189600500Y-112544644D01*
X189600500Y-106796153D01*
X200824500Y-106796153D01*
X200824500Y-106953846D01*
X200855261Y-107108489D01*
X200855264Y-107108501D01*
X200915602Y-107254172D01*
X200915609Y-107254185D01*
X201003210Y-107385288D01*
X201003213Y-107385292D01*
X201114707Y-107496786D01*
X201114711Y-107496789D01*
X201245814Y-107584390D01*
X201245827Y-107584397D01*
X201379912Y-107639936D01*
X201391503Y-107644737D01*
X201546153Y-107675499D01*
X201546156Y-107675500D01*
X201546158Y-107675500D01*
X201703844Y-107675500D01*
X201703845Y-107675499D01*
X201858497Y-107644737D01*
X202004179Y-107584394D01*
X202027322Y-107568929D01*
X202041240Y-107559631D01*
X202087037Y-107529030D01*
X202135289Y-107496789D01*
X202246789Y-107385289D01*
X202334394Y-107254179D01*
X202337854Y-107245827D01*
X202392163Y-107114711D01*
X202394737Y-107108497D01*
X202425500Y-106953842D01*
X202425500Y-106796158D01*
X202425500Y-106796155D01*
X202425499Y-106796153D01*
X202425455Y-106795930D01*
X202394737Y-106641503D01*
X202365004Y-106569720D01*
X202334397Y-106495827D01*
X202334390Y-106495814D01*
X202246789Y-106364711D01*
X202246786Y-106364707D01*
X202135292Y-106253213D01*
X202135288Y-106253210D01*
X202004185Y-106165609D01*
X202004172Y-106165602D01*
X201858501Y-106105264D01*
X201858489Y-106105261D01*
X201703845Y-106074500D01*
X201703842Y-106074500D01*
X201546158Y-106074500D01*
X201546155Y-106074500D01*
X201391510Y-106105261D01*
X201391498Y-106105264D01*
X201245827Y-106165602D01*
X201245814Y-106165609D01*
X201114711Y-106253210D01*
X201114707Y-106253213D01*
X201003213Y-106364707D01*
X201003210Y-106364711D01*
X200915609Y-106495814D01*
X200915602Y-106495827D01*
X200855264Y-106641498D01*
X200855261Y-106641510D01*
X200824500Y-106796153D01*
X189600500Y-106796153D01*
X189600500Y-106339059D01*
X189600501Y-106339046D01*
X189600501Y-106170945D01*
X189600501Y-106170943D01*
X189559577Y-106018215D01*
X189530639Y-105968095D01*
X189480520Y-105881284D01*
X189368716Y-105769480D01*
X189368715Y-105769479D01*
X189364385Y-105765149D01*
X189364374Y-105765139D01*
X187334574Y-103735339D01*
X187301089Y-103674016D01*
X187300638Y-103671849D01*
X187269738Y-103516510D01*
X187269737Y-103516503D01*
X187251218Y-103471794D01*
X187209397Y-103370827D01*
X187209390Y-103370814D01*
X187121789Y-103239711D01*
X187121786Y-103239707D01*
X187010292Y-103128213D01*
X187010288Y-103128210D01*
X186918900Y-103067146D01*
X186874095Y-103013534D01*
X186865388Y-102944209D01*
X186895543Y-102881181D01*
X186900091Y-102876382D01*
X187624981Y-102151492D01*
X193061644Y-102151492D01*
X193061644Y-102309185D01*
X193092405Y-102463828D01*
X193092408Y-102463840D01*
X193152746Y-102609511D01*
X193152753Y-102609524D01*
X193240354Y-102740627D01*
X193240357Y-102740631D01*
X193351851Y-102852125D01*
X193351855Y-102852128D01*
X193482958Y-102939729D01*
X193482971Y-102939736D01*
X193625158Y-102998631D01*
X193628647Y-103000076D01*
X193783297Y-103030838D01*
X193783300Y-103030839D01*
X193783302Y-103030839D01*
X193940988Y-103030839D01*
X193940989Y-103030838D01*
X194095641Y-103000076D01*
X194241323Y-102939733D01*
X194372433Y-102852128D01*
X194483933Y-102740628D01*
X194571538Y-102609518D01*
X194571539Y-102609515D01*
X194571541Y-102609512D01*
X194602304Y-102535242D01*
X194602304Y-102535241D01*
X194631881Y-102463836D01*
X194662644Y-102309181D01*
X194662644Y-102151497D01*
X194662644Y-102151494D01*
X194662643Y-102151492D01*
X194657234Y-102124300D01*
X194631881Y-101996842D01*
X194628305Y-101988209D01*
X194571541Y-101851166D01*
X194571534Y-101851153D01*
X194483933Y-101720050D01*
X194483930Y-101720046D01*
X194372436Y-101608552D01*
X194372432Y-101608549D01*
X194241329Y-101520948D01*
X194241316Y-101520941D01*
X194095645Y-101460603D01*
X194095633Y-101460600D01*
X193940989Y-101429839D01*
X193940986Y-101429839D01*
X193783302Y-101429839D01*
X193783299Y-101429839D01*
X193628654Y-101460600D01*
X193628642Y-101460603D01*
X193482971Y-101520941D01*
X193482958Y-101520948D01*
X193351855Y-101608549D01*
X193351851Y-101608552D01*
X193240357Y-101720046D01*
X193240354Y-101720050D01*
X193152753Y-101851153D01*
X193152746Y-101851166D01*
X193092408Y-101996837D01*
X193092405Y-101996849D01*
X193061644Y-102151492D01*
X187624981Y-102151492D01*
X189831677Y-99944797D01*
X197209088Y-99944797D01*
X197209088Y-100102490D01*
X197239849Y-100257133D01*
X197239852Y-100257145D01*
X197300190Y-100402816D01*
X197300197Y-100402829D01*
X197387798Y-100533932D01*
X197387801Y-100533936D01*
X197499295Y-100645430D01*
X197499299Y-100645433D01*
X197630402Y-100733034D01*
X197630415Y-100733041D01*
X197776086Y-100793379D01*
X197776091Y-100793381D01*
X197930741Y-100824143D01*
X197930744Y-100824144D01*
X197930746Y-100824144D01*
X198088432Y-100824144D01*
X198088433Y-100824143D01*
X198243085Y-100793381D01*
X198352141Y-100748208D01*
X198421608Y-100740740D01*
X198484088Y-100772015D01*
X198514153Y-100815317D01*
X198540604Y-100879175D01*
X198540609Y-100879185D01*
X198628210Y-101010288D01*
X198628213Y-101010292D01*
X198739707Y-101121786D01*
X198739711Y-101121789D01*
X198870814Y-101209390D01*
X198870827Y-101209397D01*
X198916184Y-101228184D01*
X199016503Y-101269737D01*
X199171153Y-101300499D01*
X199171156Y-101300500D01*
X199171158Y-101300500D01*
X199328844Y-101300500D01*
X199328845Y-101300499D01*
X199483497Y-101269737D01*
X199629179Y-101209394D01*
X199760289Y-101121789D01*
X199871789Y-101010289D01*
X199959394Y-100879179D01*
X199962854Y-100870827D01*
X200017163Y-100739711D01*
X200019737Y-100733497D01*
X200050500Y-100578842D01*
X200050500Y-100421158D01*
X200050500Y-100421155D01*
X200050499Y-100421153D01*
X200019739Y-100266511D01*
X200019737Y-100266505D01*
X200019737Y-100266503D01*
X200002728Y-100225440D01*
X200000802Y-100207529D01*
X199993960Y-100190862D01*
X199997145Y-100173514D01*
X199996891Y-100171153D01*
X208199500Y-100171153D01*
X208199500Y-100328846D01*
X208230261Y-100483489D01*
X208230264Y-100483501D01*
X208290602Y-100629172D01*
X208290609Y-100629185D01*
X208378210Y-100760288D01*
X208378213Y-100760292D01*
X208489707Y-100871786D01*
X208489711Y-100871789D01*
X208620814Y-100959390D01*
X208620827Y-100959397D01*
X208758683Y-101016498D01*
X208766503Y-101019737D01*
X208921153Y-101050499D01*
X208921156Y-101050500D01*
X208921158Y-101050500D01*
X209078844Y-101050500D01*
X209078845Y-101050499D01*
X209233497Y-101019737D01*
X209379179Y-100959394D01*
X209510289Y-100871789D01*
X209621789Y-100760289D01*
X209709394Y-100629179D01*
X209713069Y-100620308D01*
X209740770Y-100553429D01*
X209769737Y-100483497D01*
X209800500Y-100328842D01*
X209800500Y-100171158D01*
X209800500Y-100171155D01*
X209800499Y-100171153D01*
X209779767Y-100066924D01*
X209769738Y-100016510D01*
X209769737Y-100016503D01*
X209754684Y-99980161D01*
X209709397Y-99870827D01*
X209709390Y-99870814D01*
X209621789Y-99739711D01*
X209621786Y-99739707D01*
X209510292Y-99628213D01*
X209510288Y-99628210D01*
X209379185Y-99540609D01*
X209379172Y-99540602D01*
X209233501Y-99480264D01*
X209233489Y-99480261D01*
X209078845Y-99449500D01*
X209078842Y-99449500D01*
X208921158Y-99449500D01*
X208921155Y-99449500D01*
X208766510Y-99480261D01*
X208766498Y-99480264D01*
X208620827Y-99540602D01*
X208620814Y-99540609D01*
X208489711Y-99628210D01*
X208489707Y-99628213D01*
X208378213Y-99739707D01*
X208378210Y-99739711D01*
X208290609Y-99870814D01*
X208290602Y-99870827D01*
X208230264Y-100016498D01*
X208230261Y-100016510D01*
X208199500Y-100171153D01*
X199996891Y-100171153D01*
X199995260Y-100155975D01*
X200003325Y-100139861D01*
X200006580Y-100122141D01*
X200024805Y-100096950D01*
X200026535Y-100093496D01*
X200026799Y-100093213D01*
X200028161Y-100091758D01*
X200033672Y-100086248D01*
X200121277Y-99955138D01*
X200181620Y-99809456D01*
X200212383Y-99654801D01*
X200212383Y-99497117D01*
X200212383Y-99497114D01*
X200212382Y-99497112D01*
X200209031Y-99480264D01*
X200181620Y-99342462D01*
X200169933Y-99314246D01*
X200121280Y-99196786D01*
X200121273Y-99196773D01*
X200033672Y-99065670D01*
X200033669Y-99065666D01*
X199922175Y-98954172D01*
X199922171Y-98954169D01*
X199791068Y-98866568D01*
X199791055Y-98866561D01*
X199645384Y-98806223D01*
X199645372Y-98806220D01*
X199490728Y-98775459D01*
X199490725Y-98775459D01*
X199333041Y-98775459D01*
X199333038Y-98775459D01*
X199178393Y-98806220D01*
X199178381Y-98806223D01*
X199032710Y-98866561D01*
X199032697Y-98866568D01*
X198901594Y-98954169D01*
X198901590Y-98954172D01*
X198790096Y-99065666D01*
X198790093Y-99065670D01*
X198702492Y-99196773D01*
X198702487Y-99196782D01*
X198654194Y-99313374D01*
X198610353Y-99367777D01*
X198544059Y-99389842D01*
X198476360Y-99372563D01*
X198470743Y-99369023D01*
X198388778Y-99314256D01*
X198388760Y-99314246D01*
X198243089Y-99253908D01*
X198243077Y-99253905D01*
X198088433Y-99223144D01*
X198088430Y-99223144D01*
X197930746Y-99223144D01*
X197930743Y-99223144D01*
X197776098Y-99253905D01*
X197776086Y-99253908D01*
X197630415Y-99314246D01*
X197630402Y-99314253D01*
X197499299Y-99401854D01*
X197499295Y-99401857D01*
X197387801Y-99513351D01*
X197387798Y-99513355D01*
X197300197Y-99644458D01*
X197300190Y-99644471D01*
X197239852Y-99790142D01*
X197239849Y-99790154D01*
X197209088Y-99944797D01*
X189831677Y-99944797D01*
X197730520Y-92045956D01*
X197809577Y-91909024D01*
X197850501Y-91756297D01*
X197850501Y-91598182D01*
X197850501Y-91590587D01*
X197850500Y-91590569D01*
X197850500Y-88579765D01*
X197870185Y-88512726D01*
X197871398Y-88510874D01*
X197910604Y-88452199D01*
X197959394Y-88379179D01*
X198019737Y-88233497D01*
X198050500Y-88078842D01*
X198050500Y-87921158D01*
X198050500Y-87921155D01*
X198050499Y-87921153D01*
X198049970Y-87918492D01*
X198019737Y-87766503D01*
X197994692Y-87706039D01*
X197959397Y-87620827D01*
X197959390Y-87620814D01*
X197871789Y-87489711D01*
X197871786Y-87489707D01*
X197764026Y-87381947D01*
X199250000Y-87381947D01*
X199250000Y-87618052D01*
X199286934Y-87851247D01*
X199359897Y-88075802D01*
X199467087Y-88286174D01*
X199527338Y-88369104D01*
X199527340Y-88369105D01*
X200267037Y-87629408D01*
X200284075Y-87692993D01*
X200349901Y-87807007D01*
X200442993Y-87900099D01*
X200557007Y-87965925D01*
X200620590Y-87982962D01*
X199880893Y-88722658D01*
X199963828Y-88782914D01*
X200174197Y-88890102D01*
X200398752Y-88963065D01*
X200398751Y-88963065D01*
X200631948Y-89000000D01*
X200868052Y-89000000D01*
X201101247Y-88963065D01*
X201325802Y-88890102D01*
X201536163Y-88782918D01*
X201536169Y-88782914D01*
X201619104Y-88722658D01*
X201619105Y-88722658D01*
X200879408Y-87982962D01*
X200942993Y-87965925D01*
X201057007Y-87900099D01*
X201150099Y-87807007D01*
X201215925Y-87692993D01*
X201232962Y-87629409D01*
X201972658Y-88369105D01*
X201972658Y-88369104D01*
X202032914Y-88286169D01*
X202032918Y-88286163D01*
X202140102Y-88075802D01*
X202213065Y-87851247D01*
X202250000Y-87618052D01*
X202250000Y-87381947D01*
X202213065Y-87148752D01*
X202140102Y-86924197D01*
X202032914Y-86713828D01*
X201972658Y-86630894D01*
X201972658Y-86630893D01*
X201232962Y-87370590D01*
X201215925Y-87307007D01*
X201150099Y-87192993D01*
X201057007Y-87099901D01*
X200942993Y-87034075D01*
X200879409Y-87017037D01*
X201619105Y-86277340D01*
X201619104Y-86277338D01*
X201536174Y-86217087D01*
X201325802Y-86109897D01*
X201101247Y-86036934D01*
X201101248Y-86036934D01*
X200868052Y-86000000D01*
X200631948Y-86000000D01*
X200398752Y-86036934D01*
X200174197Y-86109897D01*
X199963830Y-86217084D01*
X199880894Y-86277340D01*
X200620591Y-87017037D01*
X200557007Y-87034075D01*
X200442993Y-87099901D01*
X200349901Y-87192993D01*
X200284075Y-87307007D01*
X200267037Y-87370591D01*
X199527340Y-86630894D01*
X199467084Y-86713830D01*
X199359897Y-86924197D01*
X199286934Y-87148752D01*
X199250000Y-87381947D01*
X197764026Y-87381947D01*
X197760292Y-87378213D01*
X197760288Y-87378210D01*
X197629185Y-87290609D01*
X197629172Y-87290602D01*
X197483501Y-87230264D01*
X197483489Y-87230261D01*
X197328845Y-87199500D01*
X197328842Y-87199500D01*
X197171158Y-87199500D01*
X197171155Y-87199500D01*
X197016510Y-87230261D01*
X197016498Y-87230264D01*
X196870827Y-87290602D01*
X196870814Y-87290609D01*
X196739711Y-87378210D01*
X196739707Y-87378213D01*
X196628213Y-87489707D01*
X196628210Y-87489711D01*
X196540609Y-87620814D01*
X196540602Y-87620827D01*
X196480264Y-87766498D01*
X196480261Y-87766510D01*
X196449500Y-87921153D01*
X196449500Y-88078846D01*
X196480261Y-88233489D01*
X196480264Y-88233501D01*
X196540602Y-88379172D01*
X196540609Y-88379185D01*
X196628602Y-88510874D01*
X196649480Y-88577551D01*
X196649500Y-88579765D01*
X196649500Y-91377142D01*
X196629815Y-91444181D01*
X196613181Y-91464823D01*
X195593437Y-92484567D01*
X195532114Y-92518052D01*
X195462422Y-92513068D01*
X195406489Y-92471196D01*
X195382072Y-92405732D01*
X195381756Y-92396886D01*
X195381756Y-88452201D01*
X195381756Y-88452199D01*
X195340833Y-88299472D01*
X195335712Y-88290602D01*
X195261780Y-88162546D01*
X195261777Y-88162542D01*
X195261776Y-88162540D01*
X195149972Y-88050736D01*
X195149971Y-88050735D01*
X195145641Y-88046405D01*
X195145630Y-88046395D01*
X195084574Y-87985339D01*
X195051089Y-87924016D01*
X195050638Y-87921849D01*
X195019738Y-87766510D01*
X195019737Y-87766503D01*
X194994692Y-87706039D01*
X194959397Y-87620827D01*
X194959390Y-87620814D01*
X194871789Y-87489711D01*
X194871786Y-87489707D01*
X194760292Y-87378213D01*
X194760288Y-87378210D01*
X194629185Y-87290609D01*
X194629172Y-87290602D01*
X194483501Y-87230264D01*
X194483489Y-87230261D01*
X194328845Y-87199500D01*
X194328842Y-87199500D01*
X194171158Y-87199500D01*
X194171155Y-87199500D01*
X194016510Y-87230261D01*
X194016498Y-87230264D01*
X193870827Y-87290602D01*
X193870814Y-87290609D01*
X193739711Y-87378210D01*
X193739707Y-87378213D01*
X193628213Y-87489707D01*
X193628210Y-87489711D01*
X193540609Y-87620814D01*
X193540602Y-87620827D01*
X193480264Y-87766498D01*
X193480261Y-87766510D01*
X193449500Y-87921153D01*
X193449500Y-88078846D01*
X193480261Y-88233489D01*
X193480264Y-88233501D01*
X193540602Y-88379172D01*
X193540609Y-88379185D01*
X193628210Y-88510288D01*
X193628213Y-88510292D01*
X193739707Y-88621786D01*
X193739711Y-88621789D01*
X193870814Y-88709390D01*
X193870827Y-88709397D01*
X193970799Y-88750806D01*
X194016503Y-88769737D01*
X194047034Y-88775810D01*
X194080947Y-88782556D01*
X194142858Y-88814940D01*
X194177432Y-88875656D01*
X194180756Y-88904173D01*
X194180756Y-93130102D01*
X194161071Y-93197141D01*
X194144437Y-93217783D01*
X189955267Y-97406952D01*
X189893944Y-97440437D01*
X189824252Y-97435453D01*
X189798695Y-97422373D01*
X189684941Y-97346365D01*
X189684928Y-97346358D01*
X189539257Y-97286020D01*
X189539245Y-97286017D01*
X189384601Y-97255256D01*
X189384598Y-97255256D01*
X189226914Y-97255256D01*
X189226911Y-97255256D01*
X189072266Y-97286017D01*
X189072254Y-97286020D01*
X188926583Y-97346358D01*
X188926570Y-97346365D01*
X188795467Y-97433966D01*
X188729943Y-97499490D01*
X188668619Y-97532974D01*
X188598928Y-97527989D01*
X188594810Y-97526369D01*
X188483501Y-97480264D01*
X188483489Y-97480261D01*
X188328845Y-97449500D01*
X188328842Y-97449500D01*
X188171158Y-97449500D01*
X188171155Y-97449500D01*
X188016510Y-97480261D01*
X188016498Y-97480264D01*
X187870827Y-97540602D01*
X187870814Y-97540609D01*
X187739711Y-97628210D01*
X187739707Y-97628213D01*
X187628213Y-97739707D01*
X187628210Y-97739711D01*
X187540609Y-97870814D01*
X187540602Y-97870827D01*
X187480264Y-98016498D01*
X187480261Y-98016510D01*
X187449500Y-98171153D01*
X187449500Y-98328846D01*
X187480261Y-98483489D01*
X187480264Y-98483501D01*
X187540602Y-98629172D01*
X187540609Y-98629185D01*
X187628210Y-98760288D01*
X187628213Y-98760292D01*
X187739707Y-98871786D01*
X187739711Y-98871789D01*
X187870814Y-98959390D01*
X187870827Y-98959397D01*
X187948262Y-98991471D01*
X188016503Y-99019737D01*
X188060870Y-99028562D01*
X188122779Y-99060946D01*
X188157354Y-99121661D01*
X188153615Y-99191431D01*
X188124359Y-99237860D01*
X186410153Y-100952067D01*
X186348830Y-100985552D01*
X186322472Y-100988386D01*
X185725138Y-100988386D01*
X185725122Y-100988385D01*
X185717526Y-100988385D01*
X185559411Y-100988385D01*
X185483047Y-101008847D01*
X185406682Y-101029309D01*
X185406677Y-101029312D01*
X185269758Y-101108361D01*
X185269749Y-101108367D01*
X185240497Y-101137620D01*
X185179173Y-101171105D01*
X185109482Y-101166119D01*
X185053549Y-101124247D01*
X185031200Y-101074129D01*
X185019738Y-101016510D01*
X185019737Y-101016503D01*
X184993047Y-100952067D01*
X184959397Y-100870827D01*
X184959390Y-100870814D01*
X184871789Y-100739711D01*
X184871786Y-100739707D01*
X184760292Y-100628213D01*
X184760288Y-100628210D01*
X184629185Y-100540609D01*
X184629172Y-100540602D01*
X184483501Y-100480264D01*
X184483489Y-100480261D01*
X184328845Y-100449500D01*
X184328842Y-100449500D01*
X184171158Y-100449500D01*
X184171155Y-100449500D01*
X184016510Y-100480261D01*
X184016498Y-100480264D01*
X183870827Y-100540602D01*
X183870814Y-100540609D01*
X183739711Y-100628210D01*
X183739707Y-100628213D01*
X183628213Y-100739707D01*
X183628210Y-100739711D01*
X183540609Y-100870814D01*
X183540602Y-100870827D01*
X183480264Y-101016498D01*
X183480261Y-101016510D01*
X183449500Y-101171153D01*
X183449500Y-101328846D01*
X183480261Y-101483489D01*
X183480264Y-101483501D01*
X183540602Y-101629172D01*
X183540609Y-101629185D01*
X183628210Y-101760288D01*
X183628213Y-101760292D01*
X183739707Y-101871786D01*
X183739711Y-101871789D01*
X183870814Y-101959390D01*
X183870827Y-101959397D01*
X184016498Y-102019735D01*
X184016503Y-102019737D01*
X184039830Y-102024377D01*
X184074129Y-102031200D01*
X184136040Y-102063585D01*
X184170614Y-102124300D01*
X184166875Y-102194070D01*
X184137619Y-102240498D01*
X179131286Y-107246832D01*
X179019481Y-107358636D01*
X179019479Y-107358639D01*
X178999939Y-107392485D01*
X178975245Y-107435256D01*
X178940423Y-107495569D01*
X178899499Y-107648297D01*
X178899499Y-107648299D01*
X178899499Y-107816400D01*
X178899500Y-107816413D01*
X178899500Y-113420234D01*
X178879815Y-113487273D01*
X178878602Y-113489125D01*
X178790609Y-113620814D01*
X178790602Y-113620827D01*
X178730264Y-113766498D01*
X178730261Y-113766510D01*
X178699500Y-113921153D01*
X177300499Y-113921153D01*
X177269738Y-113766510D01*
X177269737Y-113766503D01*
X177237904Y-113689650D01*
X177209397Y-113620827D01*
X177209390Y-113620814D01*
X177121398Y-113489125D01*
X177100520Y-113422447D01*
X177100500Y-113420234D01*
X177100500Y-105900039D01*
X177120185Y-105833000D01*
X177136814Y-105812363D01*
X185307519Y-97641657D01*
X185368840Y-97608174D01*
X185438532Y-97613158D01*
X185494465Y-97655030D01*
X185499050Y-97662234D01*
X185499201Y-97662134D01*
X185590190Y-97798308D01*
X185590193Y-97798312D01*
X185701687Y-97909806D01*
X185701691Y-97909809D01*
X185832794Y-97997410D01*
X185832807Y-97997417D01*
X185931900Y-98038462D01*
X185978483Y-98057757D01*
X186133133Y-98088519D01*
X186133136Y-98088520D01*
X186133138Y-98088520D01*
X186290824Y-98088520D01*
X186290825Y-98088519D01*
X186445477Y-98057757D01*
X186591159Y-97997414D01*
X186722269Y-97909809D01*
X186833769Y-97798309D01*
X186921374Y-97667199D01*
X186981717Y-97521517D01*
X187012480Y-97366862D01*
X187012480Y-97209178D01*
X187012480Y-97209175D01*
X187012479Y-97209173D01*
X187004191Y-97167505D01*
X186981717Y-97054523D01*
X186974236Y-97036461D01*
X186921377Y-96908847D01*
X186921370Y-96908834D01*
X186833769Y-96777731D01*
X186833766Y-96777727D01*
X186722272Y-96666233D01*
X186722268Y-96666230D01*
X186586094Y-96575241D01*
X186587399Y-96573286D01*
X186544993Y-96531616D01*
X186529543Y-96463476D01*
X186553385Y-96397800D01*
X186565612Y-96383564D01*
X192868713Y-90080464D01*
X192868716Y-90080463D01*
X192980520Y-89968659D01*
X193030639Y-89881847D01*
X193059577Y-89831728D01*
X193100501Y-89679000D01*
X193100501Y-89579764D01*
X193120186Y-89512725D01*
X193121399Y-89510873D01*
X193209390Y-89379185D01*
X193209390Y-89379184D01*
X193209394Y-89379179D01*
X193269737Y-89233497D01*
X193300500Y-89078842D01*
X193300500Y-88921158D01*
X193300500Y-88921155D01*
X193300499Y-88921153D01*
X193297121Y-88904173D01*
X193269737Y-88766503D01*
X193251576Y-88722658D01*
X193209397Y-88620827D01*
X193209390Y-88620814D01*
X193121789Y-88489711D01*
X193121786Y-88489707D01*
X193010292Y-88378213D01*
X193010288Y-88378210D01*
X192879185Y-88290609D01*
X192879172Y-88290602D01*
X192733501Y-88230264D01*
X192733489Y-88230261D01*
X192578845Y-88199500D01*
X192578842Y-88199500D01*
X192421158Y-88199500D01*
X192421155Y-88199500D01*
X192266510Y-88230261D01*
X192266498Y-88230264D01*
X192120827Y-88290602D01*
X192120814Y-88290609D01*
X191989711Y-88378210D01*
X191989707Y-88378213D01*
X191878213Y-88489707D01*
X191878210Y-88489711D01*
X191790609Y-88620814D01*
X191790602Y-88620827D01*
X191730264Y-88766498D01*
X191730261Y-88766510D01*
X191699500Y-88921153D01*
X191699500Y-89078846D01*
X191730261Y-89233489D01*
X191730264Y-89233501D01*
X191782600Y-89359853D01*
X191790069Y-89429323D01*
X191758793Y-89491801D01*
X191755720Y-89494986D01*
X190399511Y-90851196D01*
X190338188Y-90884681D01*
X190268496Y-90879697D01*
X190242939Y-90866617D01*
X190129185Y-90790609D01*
X190129172Y-90790602D01*
X189983501Y-90730264D01*
X189983489Y-90730261D01*
X189828845Y-90699500D01*
X189828842Y-90699500D01*
X189671158Y-90699500D01*
X189671155Y-90699500D01*
X189516510Y-90730261D01*
X189516498Y-90730264D01*
X189370827Y-90790602D01*
X189370814Y-90790609D01*
X189239711Y-90878210D01*
X189239707Y-90878213D01*
X189128213Y-90989707D01*
X189128210Y-90989711D01*
X189040609Y-91120814D01*
X189040602Y-91120827D01*
X188980264Y-91266498D01*
X188980261Y-91266510D01*
X188949500Y-91421153D01*
X188949500Y-91578846D01*
X188980261Y-91733489D01*
X188980264Y-91733501D01*
X189040602Y-91879172D01*
X189040609Y-91879185D01*
X189116617Y-91992939D01*
X189137495Y-92059617D01*
X189119010Y-92126997D01*
X189101196Y-92149511D01*
X176019481Y-105231225D01*
X176019479Y-105231227D01*
X176002686Y-105260314D01*
X175995588Y-105272610D01*
X175940423Y-105368158D01*
X175899499Y-105520886D01*
X175899499Y-105520888D01*
X175899499Y-105688989D01*
X175899500Y-105689002D01*
X175899500Y-113420234D01*
X175879815Y-113487273D01*
X175878602Y-113489125D01*
X175790609Y-113620814D01*
X175790602Y-113620827D01*
X175730264Y-113766498D01*
X175730261Y-113766510D01*
X175699500Y-113921153D01*
X174300499Y-113921153D01*
X174269738Y-113766510D01*
X174269737Y-113766503D01*
X174237904Y-113689650D01*
X174209397Y-113620827D01*
X174209390Y-113620814D01*
X174121789Y-113489711D01*
X174121786Y-113489707D01*
X174010292Y-113378213D01*
X174010288Y-113378210D01*
X173879185Y-113290609D01*
X173879172Y-113290602D01*
X173733501Y-113230264D01*
X173733491Y-113230261D01*
X173578151Y-113199362D01*
X173516241Y-113166977D01*
X173514662Y-113165426D01*
X171771069Y-111421833D01*
X171737584Y-111360510D01*
X171734750Y-111334152D01*
X171734750Y-107659440D01*
X171754435Y-107592401D01*
X171807239Y-107546646D01*
X171858750Y-107535440D01*
X171942121Y-107535440D01*
X171942122Y-107535440D01*
X172001733Y-107529032D01*
X172136581Y-107478737D01*
X172251796Y-107392487D01*
X172338046Y-107277272D01*
X172388341Y-107142424D01*
X172394750Y-107082814D01*
X172394749Y-105467069D01*
X172388341Y-105407458D01*
X172388341Y-105407457D01*
X172338047Y-105272611D01*
X172338043Y-105272605D01*
X172251797Y-105157396D01*
X172251794Y-105157393D01*
X172136585Y-105071147D01*
X172136578Y-105071143D01*
X172001732Y-105020849D01*
X172001733Y-105020849D01*
X171942133Y-105014442D01*
X171942131Y-105014441D01*
X171942123Y-105014441D01*
X171942114Y-105014441D01*
X170326379Y-105014441D01*
X170326373Y-105014442D01*
X170266766Y-105020849D01*
X170131921Y-105071143D01*
X170131914Y-105071147D01*
X170016705Y-105157393D01*
X170016702Y-105157396D01*
X169930456Y-105272605D01*
X169930453Y-105272611D01*
X169880158Y-105407458D01*
X169873751Y-105467057D01*
X169873751Y-105467064D01*
X169873750Y-105467076D01*
X160740830Y-105467076D01*
X160740830Y-94296803D01*
X164859250Y-94296803D01*
X164859250Y-94553078D01*
X164892698Y-94807150D01*
X164892701Y-94807163D01*
X164959029Y-95054706D01*
X165057099Y-95291467D01*
X165057101Y-95291471D01*
X165185239Y-95513410D01*
X165185240Y-95513411D01*
X165266424Y-95619212D01*
X165802786Y-95082849D01*
X165895128Y-95209946D01*
X166029245Y-95344063D01*
X166156339Y-95436402D01*
X165619977Y-95972764D01*
X165619977Y-95972765D01*
X165725779Y-96053950D01*
X165725780Y-96053951D01*
X165922543Y-96167554D01*
X165970758Y-96218122D01*
X165983980Y-96286729D01*
X165958012Y-96351593D01*
X165922543Y-96382328D01*
X165725780Y-96495930D01*
X165725770Y-96495936D01*
X165619977Y-96577114D01*
X165619977Y-96577115D01*
X166156340Y-97113478D01*
X166029245Y-97205819D01*
X165895128Y-97339936D01*
X165802787Y-97467031D01*
X165266424Y-96930668D01*
X165266423Y-96930668D01*
X165185245Y-97036461D01*
X165185239Y-97036471D01*
X165057101Y-97258410D01*
X165057099Y-97258414D01*
X164959029Y-97495175D01*
X164892701Y-97742718D01*
X164892698Y-97742731D01*
X164859250Y-97996803D01*
X164859250Y-98253078D01*
X164892698Y-98507150D01*
X164892701Y-98507163D01*
X164959029Y-98754706D01*
X165057099Y-98991467D01*
X165057101Y-98991471D01*
X165185239Y-99213410D01*
X165185240Y-99213411D01*
X165266424Y-99319212D01*
X165802786Y-98782849D01*
X165895128Y-98909946D01*
X166029245Y-99044063D01*
X166156339Y-99136402D01*
X165619977Y-99672764D01*
X165619977Y-99672765D01*
X165725779Y-99753950D01*
X165725780Y-99753951D01*
X165947719Y-99882089D01*
X165947723Y-99882091D01*
X166184484Y-99980161D01*
X166432027Y-100046489D01*
X166432040Y-100046492D01*
X166686112Y-100079941D01*
X166942388Y-100079941D01*
X167196459Y-100046492D01*
X167196472Y-100046489D01*
X167444015Y-99980161D01*
X167680776Y-99882091D01*
X167680780Y-99882089D01*
X167902729Y-99753946D01*
X168008521Y-99672767D01*
X168008521Y-99672764D01*
X167472159Y-99136403D01*
X167599255Y-99044063D01*
X167733372Y-98909946D01*
X167825712Y-98782851D01*
X168362073Y-99319212D01*
X168362076Y-99319212D01*
X168443255Y-99213420D01*
X168571398Y-98991471D01*
X168571400Y-98991467D01*
X168669470Y-98754706D01*
X168735798Y-98507163D01*
X168735801Y-98507150D01*
X168769250Y-98253078D01*
X168769250Y-97996803D01*
X168735801Y-97742731D01*
X168735798Y-97742718D01*
X168669470Y-97495175D01*
X168571400Y-97258414D01*
X168571398Y-97258410D01*
X168443260Y-97036471D01*
X168443259Y-97036470D01*
X168362074Y-96930668D01*
X168362073Y-96930668D01*
X167825711Y-97467030D01*
X167733372Y-97339936D01*
X167599255Y-97205819D01*
X167472158Y-97113477D01*
X168008521Y-96577115D01*
X167902720Y-96495931D01*
X167902712Y-96495925D01*
X167705957Y-96382328D01*
X167657741Y-96331761D01*
X167644519Y-96263154D01*
X167670487Y-96198289D01*
X167705957Y-96167554D01*
X167902726Y-96053948D01*
X168008521Y-95972767D01*
X168008521Y-95972764D01*
X167472159Y-95436403D01*
X167599255Y-95344063D01*
X167733372Y-95209946D01*
X167825712Y-95082851D01*
X168362073Y-95619212D01*
X168362076Y-95619212D01*
X168443255Y-95513420D01*
X168571398Y-95291471D01*
X168571400Y-95291467D01*
X168669470Y-95054706D01*
X168735798Y-94807163D01*
X168735801Y-94807150D01*
X168769250Y-94553078D01*
X168769250Y-94296803D01*
X168735801Y-94042731D01*
X168735798Y-94042718D01*
X168669470Y-93795175D01*
X168571400Y-93558414D01*
X168571398Y-93558410D01*
X168443260Y-93336471D01*
X168443259Y-93336470D01*
X168362074Y-93230668D01*
X168362073Y-93230668D01*
X167825711Y-93767030D01*
X167733372Y-93639936D01*
X167599255Y-93505819D01*
X167472158Y-93413477D01*
X168008521Y-92877115D01*
X167902720Y-92795931D01*
X167902719Y-92795930D01*
X167680780Y-92667792D01*
X167680776Y-92667790D01*
X167444015Y-92569720D01*
X167196472Y-92503392D01*
X167196459Y-92503389D01*
X166942388Y-92469941D01*
X166686112Y-92469941D01*
X166432040Y-92503389D01*
X166432027Y-92503392D01*
X166184484Y-92569720D01*
X165947723Y-92667790D01*
X165947719Y-92667792D01*
X165725780Y-92795930D01*
X165725770Y-92795936D01*
X165619977Y-92877114D01*
X165619977Y-92877115D01*
X166156340Y-93413478D01*
X166029245Y-93505819D01*
X165895128Y-93639936D01*
X165802787Y-93767031D01*
X165266424Y-93230668D01*
X165266423Y-93230668D01*
X165185245Y-93336461D01*
X165185239Y-93336471D01*
X165057101Y-93558410D01*
X165057099Y-93558414D01*
X164959029Y-93795175D01*
X164892701Y-94042718D01*
X164892698Y-94042731D01*
X164859250Y-94296803D01*
X160740830Y-94296803D01*
X160740830Y-91467076D01*
X169873750Y-91467076D01*
X169873750Y-93082811D01*
X169873751Y-93082817D01*
X169880158Y-93142424D01*
X169930452Y-93277269D01*
X169930456Y-93277276D01*
X170016702Y-93392485D01*
X170016705Y-93392488D01*
X170131914Y-93478734D01*
X170131921Y-93478738D01*
X170266767Y-93529032D01*
X170266766Y-93529032D01*
X170273694Y-93529776D01*
X170326377Y-93535441D01*
X171942122Y-93535440D01*
X172001733Y-93529032D01*
X172136581Y-93478737D01*
X172251796Y-93392487D01*
X172338046Y-93277272D01*
X172388341Y-93142424D01*
X172394750Y-93082814D01*
X172394749Y-91467069D01*
X172388341Y-91407458D01*
X172338046Y-91272610D01*
X172338045Y-91272609D01*
X172338043Y-91272605D01*
X172251797Y-91157396D01*
X172251794Y-91157393D01*
X172136585Y-91071147D01*
X172136578Y-91071143D01*
X172001732Y-91020849D01*
X172001733Y-91020849D01*
X171942133Y-91014442D01*
X171942131Y-91014441D01*
X171942123Y-91014441D01*
X171942114Y-91014441D01*
X170326379Y-91014441D01*
X170326373Y-91014442D01*
X170266766Y-91020849D01*
X170131921Y-91071143D01*
X170131914Y-91071147D01*
X170016705Y-91157393D01*
X170016702Y-91157396D01*
X169930456Y-91272605D01*
X169930452Y-91272612D01*
X169880158Y-91407458D01*
X169873991Y-91464823D01*
X169873751Y-91467064D01*
X169873750Y-91467076D01*
X160740830Y-91467076D01*
X160740830Y-83996803D01*
X164859250Y-83996803D01*
X164859250Y-84253078D01*
X164892698Y-84507150D01*
X164892701Y-84507163D01*
X164959029Y-84754706D01*
X165057099Y-84991467D01*
X165057101Y-84991471D01*
X165185239Y-85213410D01*
X165185240Y-85213411D01*
X165266424Y-85319212D01*
X165802786Y-84782849D01*
X165895128Y-84909946D01*
X166029245Y-85044063D01*
X166156339Y-85136402D01*
X165619977Y-85672764D01*
X165619977Y-85672765D01*
X165725779Y-85753950D01*
X165725780Y-85753951D01*
X165947719Y-85882089D01*
X165947723Y-85882091D01*
X166184484Y-85980161D01*
X166432027Y-86046489D01*
X166432040Y-86046492D01*
X166686112Y-86079941D01*
X166942388Y-86079941D01*
X167196459Y-86046492D01*
X167196472Y-86046489D01*
X167444015Y-85980161D01*
X167680776Y-85882091D01*
X167680780Y-85882089D01*
X167902729Y-85753946D01*
X168008521Y-85672767D01*
X168008521Y-85672764D01*
X167472159Y-85136403D01*
X167599255Y-85044063D01*
X167733372Y-84909946D01*
X167825712Y-84782851D01*
X168362073Y-85319212D01*
X168362076Y-85319212D01*
X168443255Y-85213420D01*
X168571398Y-84991471D01*
X168571403Y-84991461D01*
X168617600Y-84879933D01*
X169034043Y-84879933D01*
X169034043Y-86500007D01*
X169054675Y-86656714D01*
X169054675Y-86656715D01*
X169115163Y-86802747D01*
X169115165Y-86802750D01*
X169211388Y-86928151D01*
X169211394Y-86928158D01*
X170211384Y-87928148D01*
X170211390Y-87928153D01*
X170327206Y-88017022D01*
X170336792Y-88024377D01*
X170336795Y-88024379D01*
X170371108Y-88038592D01*
X170425511Y-88082433D01*
X170447576Y-88148727D01*
X170440812Y-88175226D01*
X170436965Y-88224102D01*
X170996675Y-88783812D01*
X170937397Y-88799696D01*
X170821103Y-88866839D01*
X170726148Y-88961794D01*
X170659005Y-89078088D01*
X170643121Y-89137366D01*
X170083411Y-88577656D01*
X170083410Y-88577656D01*
X170056602Y-88614556D01*
X169966563Y-88791263D01*
X169966560Y-88791271D01*
X169905276Y-88979888D01*
X169874250Y-89175777D01*
X169874250Y-89374104D01*
X169905276Y-89569993D01*
X169966560Y-89758610D01*
X169966561Y-89758613D01*
X170056600Y-89935321D01*
X170083411Y-89972224D01*
X170643121Y-89412515D01*
X170659005Y-89471794D01*
X170726148Y-89588088D01*
X170821103Y-89683043D01*
X170937397Y-89750186D01*
X170996674Y-89766069D01*
X170436964Y-90325778D01*
X170436965Y-90325779D01*
X170473862Y-90352586D01*
X170650577Y-90442629D01*
X170650580Y-90442630D01*
X170839197Y-90503914D01*
X171035087Y-90534941D01*
X171233413Y-90534941D01*
X171429302Y-90503914D01*
X171617919Y-90442630D01*
X171617922Y-90442629D01*
X171794632Y-90352589D01*
X171831533Y-90325778D01*
X171831534Y-90325777D01*
X171271825Y-89766068D01*
X171331103Y-89750186D01*
X171447397Y-89683043D01*
X171542352Y-89588088D01*
X171609495Y-89471794D01*
X171625378Y-89412516D01*
X172185086Y-89972225D01*
X172185087Y-89972224D01*
X172211898Y-89935323D01*
X172301938Y-89758613D01*
X172301939Y-89758610D01*
X172363223Y-89569993D01*
X172394250Y-89374104D01*
X172394250Y-89175777D01*
X172363223Y-88979888D01*
X172301939Y-88791271D01*
X172301938Y-88791268D01*
X172211895Y-88614553D01*
X172185088Y-88577656D01*
X172185087Y-88577655D01*
X171625377Y-89137364D01*
X171609495Y-89078088D01*
X171542352Y-88961794D01*
X171447397Y-88866839D01*
X171331103Y-88799696D01*
X171271824Y-88783812D01*
X171837063Y-88218572D01*
X171847088Y-88170853D01*
X171896138Y-88121096D01*
X171956342Y-88105500D01*
X172087375Y-88105500D01*
X172154414Y-88125185D01*
X172175056Y-88141819D01*
X172747724Y-88714487D01*
X172781209Y-88775810D01*
X172784043Y-88802168D01*
X172784043Y-96917011D01*
X172764358Y-96984050D01*
X172748995Y-97003403D01*
X172285861Y-97480261D01*
X171933785Y-97842770D01*
X171920069Y-97856892D01*
X171859241Y-97891269D01*
X171831117Y-97894500D01*
X170631359Y-97894500D01*
X170522709Y-97904328D01*
X170372237Y-97952746D01*
X170239427Y-98038460D01*
X170239424Y-98038462D01*
X169497608Y-98668403D01*
X169461392Y-98701785D01*
X169461384Y-98701794D01*
X169365165Y-98827190D01*
X169365163Y-98827193D01*
X169304675Y-98973225D01*
X169304675Y-98973226D01*
X169284043Y-99129933D01*
X169284043Y-100879934D01*
X169286449Y-100933865D01*
X169320954Y-101088117D01*
X169393217Y-101226289D01*
X169394208Y-101228184D01*
X169432428Y-101269735D01*
X169501218Y-101344521D01*
X170243041Y-101964584D01*
X170328608Y-102024377D01*
X170328609Y-102024377D01*
X170328610Y-102024378D01*
X170368137Y-102040750D01*
X170422538Y-102084590D01*
X170444604Y-102150884D01*
X170440481Y-102167036D01*
X170441451Y-102167113D01*
X170436965Y-102224102D01*
X170996675Y-102783812D01*
X170937397Y-102799696D01*
X170821103Y-102866839D01*
X170726148Y-102961794D01*
X170659005Y-103078088D01*
X170643121Y-103137366D01*
X170083411Y-102577656D01*
X170083410Y-102577656D01*
X170056602Y-102614556D01*
X169966563Y-102791263D01*
X169966560Y-102791271D01*
X169905276Y-102979888D01*
X169874250Y-103175777D01*
X169874250Y-103374104D01*
X169905276Y-103569993D01*
X169966560Y-103758610D01*
X169966561Y-103758613D01*
X170056600Y-103935321D01*
X170083411Y-103972224D01*
X170643121Y-103412515D01*
X170659005Y-103471794D01*
X170726148Y-103588088D01*
X170821103Y-103683043D01*
X170937397Y-103750186D01*
X170996674Y-103766069D01*
X170436964Y-104325778D01*
X170436965Y-104325779D01*
X170473862Y-104352586D01*
X170650577Y-104442629D01*
X170650580Y-104442630D01*
X170839197Y-104503914D01*
X171035087Y-104534941D01*
X171233413Y-104534941D01*
X171429302Y-104503914D01*
X171617919Y-104442630D01*
X171617922Y-104442629D01*
X171794632Y-104352589D01*
X171831533Y-104325778D01*
X171831534Y-104325777D01*
X171271825Y-103766068D01*
X171331103Y-103750186D01*
X171447397Y-103683043D01*
X171542352Y-103588088D01*
X171609495Y-103471794D01*
X171625378Y-103412515D01*
X172185087Y-103972224D01*
X172211897Y-103935325D01*
X172301938Y-103758613D01*
X172301939Y-103758610D01*
X172363223Y-103569993D01*
X172394250Y-103374104D01*
X172394250Y-103175777D01*
X172363224Y-102979889D01*
X172327680Y-102870497D01*
X172325685Y-102800656D01*
X172361765Y-102740823D01*
X172424466Y-102709995D01*
X172493880Y-102717960D01*
X172532003Y-102743227D01*
X172591134Y-102800656D01*
X172901006Y-103101610D01*
X172912987Y-103115073D01*
X172961386Y-103178149D01*
X172961388Y-103178150D01*
X172961390Y-103178153D01*
X173086793Y-103274378D01*
X173232828Y-103334868D01*
X173389543Y-103355500D01*
X173389550Y-103355500D01*
X176381356Y-103355500D01*
X176381360Y-103355500D01*
X176430229Y-103353525D01*
X176584767Y-103320312D01*
X176725444Y-103248233D01*
X176842672Y-103142201D01*
X179707852Y-99772142D01*
X179775468Y-99674671D01*
X179833727Y-99527732D01*
X179851970Y-99370721D01*
X179793777Y-95549452D01*
X180132323Y-95549452D01*
X180132323Y-95785557D01*
X180169257Y-96018752D01*
X180242220Y-96243307D01*
X180349410Y-96453679D01*
X180409661Y-96536609D01*
X180409663Y-96536610D01*
X181149360Y-95796913D01*
X181166398Y-95860498D01*
X181232224Y-95974512D01*
X181325316Y-96067604D01*
X181439330Y-96133430D01*
X181502913Y-96150467D01*
X180763216Y-96890163D01*
X180846151Y-96950419D01*
X181056520Y-97057607D01*
X181281075Y-97130570D01*
X181281074Y-97130570D01*
X181514271Y-97167505D01*
X181750375Y-97167505D01*
X181983570Y-97130570D01*
X182208125Y-97057607D01*
X182418486Y-96950423D01*
X182418492Y-96950419D01*
X182501427Y-96890163D01*
X182501428Y-96890163D01*
X181761731Y-96150467D01*
X181825316Y-96133430D01*
X181939330Y-96067604D01*
X182032422Y-95974512D01*
X182098248Y-95860498D01*
X182115285Y-95796914D01*
X182854981Y-96536610D01*
X182854981Y-96536609D01*
X182915237Y-96453674D01*
X182915241Y-96453668D01*
X183022425Y-96243307D01*
X183095388Y-96018752D01*
X183132323Y-95785557D01*
X183132323Y-95549452D01*
X183095388Y-95316257D01*
X183022425Y-95091702D01*
X182915237Y-94881333D01*
X182854981Y-94798399D01*
X182854981Y-94798398D01*
X182115285Y-95538094D01*
X182098248Y-95474512D01*
X182032422Y-95360498D01*
X181939330Y-95267406D01*
X181825316Y-95201580D01*
X181761732Y-95184542D01*
X182501428Y-94444845D01*
X182501427Y-94444843D01*
X182418497Y-94384592D01*
X182208125Y-94277402D01*
X181983570Y-94204439D01*
X181983571Y-94204439D01*
X181750375Y-94167505D01*
X181514271Y-94167505D01*
X181281075Y-94204439D01*
X181056520Y-94277402D01*
X180846153Y-94384589D01*
X180763217Y-94444845D01*
X181502914Y-95184542D01*
X181439330Y-95201580D01*
X181325316Y-95267406D01*
X181232224Y-95360498D01*
X181166398Y-95474512D01*
X181149360Y-95538096D01*
X180409663Y-94798399D01*
X180349407Y-94881335D01*
X180242220Y-95091702D01*
X180169257Y-95316257D01*
X180132323Y-95549452D01*
X179793777Y-95549452D01*
X179674331Y-87706034D01*
X179692992Y-87638708D01*
X179745093Y-87592154D01*
X179814092Y-87581159D01*
X179878082Y-87609212D01*
X179885997Y-87616470D01*
X180040580Y-87771053D01*
X180231595Y-87909834D01*
X180441962Y-88017022D01*
X180666511Y-88089983D01*
X180666517Y-88089985D01*
X180767767Y-88106021D01*
X180767767Y-87059932D01*
X180824774Y-87092845D01*
X180951941Y-87126920D01*
X181083593Y-87126920D01*
X181210760Y-87092845D01*
X181267767Y-87059932D01*
X181267767Y-88106020D01*
X181369016Y-88089985D01*
X181369022Y-88089983D01*
X181593571Y-88017022D01*
X181803938Y-87909834D01*
X181994953Y-87771053D01*
X182161900Y-87604106D01*
X182300681Y-87413091D01*
X182407869Y-87202722D01*
X182480832Y-86978167D01*
X182496869Y-86876920D01*
X181450779Y-86876920D01*
X181483692Y-86819913D01*
X181517767Y-86692746D01*
X181517767Y-86561094D01*
X181483692Y-86433927D01*
X181450779Y-86376920D01*
X182496869Y-86376920D01*
X182480832Y-86275672D01*
X182407869Y-86051117D01*
X182300681Y-85840748D01*
X182168598Y-85658953D01*
X182145118Y-85593147D01*
X182160943Y-85525093D01*
X182211049Y-85476398D01*
X182268186Y-85462069D01*
X189653525Y-85418844D01*
X189720676Y-85438135D01*
X189766739Y-85490670D01*
X189777087Y-85559769D01*
X189748435Y-85623494D01*
X189689879Y-85661612D01*
X189673648Y-85665314D01*
X189648750Y-85669257D01*
X189424197Y-85742220D01*
X189213830Y-85849407D01*
X189130894Y-85909663D01*
X189870591Y-86649360D01*
X189807007Y-86666398D01*
X189692993Y-86732224D01*
X189599901Y-86825316D01*
X189534075Y-86939330D01*
X189517037Y-87002914D01*
X188777340Y-86263217D01*
X188717084Y-86346153D01*
X188609897Y-86556520D01*
X188536934Y-86781075D01*
X188500000Y-87014270D01*
X188500000Y-87250375D01*
X188536934Y-87483570D01*
X188609897Y-87708125D01*
X188717087Y-87918497D01*
X188777338Y-88001427D01*
X188777340Y-88001428D01*
X189517037Y-87261731D01*
X189534075Y-87325316D01*
X189599901Y-87439330D01*
X189692993Y-87532422D01*
X189807007Y-87598248D01*
X189870590Y-87615285D01*
X189130893Y-88354981D01*
X189213828Y-88415237D01*
X189424197Y-88522425D01*
X189648752Y-88595388D01*
X189648751Y-88595388D01*
X189881948Y-88632323D01*
X190118052Y-88632323D01*
X190351247Y-88595388D01*
X190575802Y-88522425D01*
X190786163Y-88415241D01*
X190786169Y-88415237D01*
X190869104Y-88354981D01*
X190869105Y-88354981D01*
X190129408Y-87615285D01*
X190192993Y-87598248D01*
X190307007Y-87532422D01*
X190400099Y-87439330D01*
X190465925Y-87325316D01*
X190482962Y-87261731D01*
X191222658Y-88001428D01*
X191222658Y-88001427D01*
X191282914Y-87918492D01*
X191282918Y-87918486D01*
X191390102Y-87708125D01*
X191463065Y-87483570D01*
X191500000Y-87250375D01*
X191500000Y-87014270D01*
X191463065Y-86781075D01*
X191390102Y-86556520D01*
X191300617Y-86380894D01*
X191282914Y-86346151D01*
X191222658Y-86263217D01*
X191222658Y-86263216D01*
X190482962Y-87002913D01*
X190465925Y-86939330D01*
X190400099Y-86825316D01*
X190307007Y-86732224D01*
X190192993Y-86666398D01*
X190129409Y-86649360D01*
X190869105Y-85909663D01*
X190869104Y-85909661D01*
X190786174Y-85849410D01*
X190575802Y-85742220D01*
X190351247Y-85669257D01*
X190351249Y-85669257D01*
X190301709Y-85661411D01*
X190238575Y-85631481D01*
X190201644Y-85572170D01*
X190202642Y-85502307D01*
X190241252Y-85444075D01*
X190305216Y-85415961D01*
X190320364Y-85414941D01*
X200754953Y-85353868D01*
X200797814Y-85361244D01*
X202165500Y-85855427D01*
X202221861Y-85896722D01*
X202232219Y-85912668D01*
X202367671Y-86160995D01*
X205099779Y-91169861D01*
X205103594Y-91176747D01*
X205198397Y-91303229D01*
X205292501Y-91377142D01*
X205322708Y-91400867D01*
X205642903Y-91590587D01*
X209322705Y-93770924D01*
X209462987Y-93831619D01*
X209462990Y-93831619D01*
X209462992Y-93831620D01*
X209500463Y-93837316D01*
X209619258Y-93855379D01*
X209619257Y-93855379D01*
X209638546Y-93855764D01*
X210671342Y-93876411D01*
X210737972Y-93897430D01*
X210782662Y-93951138D01*
X210792479Y-94010113D01*
X210792121Y-94014657D01*
X211354897Y-94577431D01*
X211294758Y-94593546D01*
X211178919Y-94660425D01*
X211084337Y-94755007D01*
X211017458Y-94870846D01*
X211001343Y-94930984D01*
X210438569Y-94368209D01*
X210438568Y-94368210D01*
X210411482Y-94405491D01*
X210321296Y-94582489D01*
X210259914Y-94771403D01*
X210259914Y-94771406D01*
X210228839Y-94967605D01*
X210228839Y-95166248D01*
X210259914Y-95362447D01*
X210259914Y-95362450D01*
X210321296Y-95551364D01*
X210411480Y-95728359D01*
X210438569Y-95765642D01*
X210438570Y-95765643D01*
X211001343Y-95202869D01*
X211017458Y-95263008D01*
X211084337Y-95378847D01*
X211178919Y-95473429D01*
X211294758Y-95540308D01*
X211354896Y-95556421D01*
X210792122Y-96119195D01*
X210792122Y-96119196D01*
X210829406Y-96146285D01*
X210986170Y-96226161D01*
X211036966Y-96274136D01*
X211053761Y-96341957D01*
X211031223Y-96408092D01*
X210986170Y-96447131D01*
X210829144Y-96527140D01*
X210668372Y-96643948D01*
X210527860Y-96784460D01*
X210411052Y-96945232D01*
X210320833Y-97122294D01*
X210320832Y-97122297D01*
X210259426Y-97311289D01*
X210228339Y-97507566D01*
X210228339Y-97706287D01*
X210259426Y-97902564D01*
X210320832Y-98091556D01*
X210320833Y-98091559D01*
X210403132Y-98253078D01*
X210411052Y-98268621D01*
X210527858Y-98429391D01*
X210668375Y-98569908D01*
X210829145Y-98686714D01*
X210986171Y-98766723D01*
X211036966Y-98814696D01*
X211053761Y-98882517D01*
X211031224Y-98948652D01*
X210986171Y-98987691D01*
X210829405Y-99067568D01*
X210792122Y-99094656D01*
X210792121Y-99094657D01*
X211354897Y-99657431D01*
X211294758Y-99673546D01*
X211178919Y-99740425D01*
X211084337Y-99835007D01*
X211017458Y-99950846D01*
X211001343Y-100010984D01*
X210438569Y-99448209D01*
X210438568Y-99448210D01*
X210411482Y-99485491D01*
X210321296Y-99662489D01*
X210259914Y-99851403D01*
X210259914Y-99851406D01*
X210228839Y-100047605D01*
X210228839Y-100246248D01*
X210259914Y-100442447D01*
X210259914Y-100442450D01*
X210321296Y-100631364D01*
X210411480Y-100808359D01*
X210438569Y-100845642D01*
X210438570Y-100845643D01*
X211001343Y-100282869D01*
X211017458Y-100343008D01*
X211084337Y-100458847D01*
X211178919Y-100553429D01*
X211294758Y-100620308D01*
X211354896Y-100636421D01*
X210792122Y-101199195D01*
X210792122Y-101199196D01*
X210829406Y-101226285D01*
X210986170Y-101306161D01*
X211036966Y-101354136D01*
X211053761Y-101421957D01*
X211031223Y-101488092D01*
X210986170Y-101527131D01*
X210829144Y-101607140D01*
X210668372Y-101723948D01*
X210527860Y-101864460D01*
X210411052Y-102025232D01*
X210320833Y-102202294D01*
X210320832Y-102202297D01*
X210259426Y-102391289D01*
X210228339Y-102587566D01*
X210228339Y-102786287D01*
X210259426Y-102982564D01*
X210320832Y-103171556D01*
X210320833Y-103171559D01*
X210373510Y-103274941D01*
X210411052Y-103348621D01*
X210527858Y-103509391D01*
X210668375Y-103649908D01*
X210829145Y-103766714D01*
X210947671Y-103827106D01*
X210985619Y-103846442D01*
X211036415Y-103894417D01*
X211053210Y-103962238D01*
X211030672Y-104028373D01*
X210985619Y-104067412D01*
X210829144Y-104147140D01*
X210668372Y-104263948D01*
X210527860Y-104404460D01*
X210411052Y-104565232D01*
X210320833Y-104742294D01*
X210320832Y-104742297D01*
X210259426Y-104931289D01*
X210228339Y-105127566D01*
X210228339Y-105326287D01*
X210259426Y-105522564D01*
X210320832Y-105711556D01*
X210320833Y-105711559D01*
X210407314Y-105881284D01*
X210411052Y-105888621D01*
X210527858Y-106049391D01*
X210668375Y-106189908D01*
X210829145Y-106306714D01*
X210986171Y-106386723D01*
X211036966Y-106434696D01*
X211053761Y-106502517D01*
X211031224Y-106568652D01*
X210986171Y-106607691D01*
X210829405Y-106687568D01*
X210792122Y-106714656D01*
X210792121Y-106714657D01*
X211354897Y-107277431D01*
X211294758Y-107293546D01*
X211178919Y-107360425D01*
X211084337Y-107455007D01*
X211017458Y-107570846D01*
X211001343Y-107630984D01*
X210438569Y-107068209D01*
X210438568Y-107068210D01*
X210411482Y-107105491D01*
X210321296Y-107282489D01*
X210259914Y-107471403D01*
X210259914Y-107471406D01*
X210228839Y-107667605D01*
X210228839Y-107866248D01*
X210259914Y-108062447D01*
X210259914Y-108062450D01*
X210321296Y-108251364D01*
X210411480Y-108428359D01*
X210438569Y-108465642D01*
X210438570Y-108465643D01*
X211001343Y-107902869D01*
X211017458Y-107963008D01*
X211084337Y-108078847D01*
X211178919Y-108173429D01*
X211294758Y-108240308D01*
X211354896Y-108256421D01*
X210792122Y-108819195D01*
X210792122Y-108819196D01*
X210829406Y-108846285D01*
X211006401Y-108936469D01*
X211195316Y-108997851D01*
X211391518Y-109028927D01*
X211590160Y-109028927D01*
X211786359Y-108997851D01*
X211786362Y-108997851D01*
X211975276Y-108936469D01*
X212152264Y-108846289D01*
X212189555Y-108819195D01*
X211626781Y-108256421D01*
X211686920Y-108240308D01*
X211802759Y-108173429D01*
X211897341Y-108078847D01*
X211964220Y-107963008D01*
X211980334Y-107902869D01*
X212543107Y-108465642D01*
X212570201Y-108428352D01*
X212650354Y-108271044D01*
X212698328Y-108220248D01*
X212766149Y-108203453D01*
X212832284Y-108225990D01*
X212871324Y-108271044D01*
X212951480Y-108428359D01*
X212978569Y-108465642D01*
X212978570Y-108465643D01*
X213541343Y-107902869D01*
X213557458Y-107963008D01*
X213624337Y-108078847D01*
X213718919Y-108173429D01*
X213834758Y-108240308D01*
X213894896Y-108256421D01*
X213332122Y-108819195D01*
X213332122Y-108819196D01*
X213369406Y-108846285D01*
X213546401Y-108936469D01*
X213735316Y-108997851D01*
X213931518Y-109028927D01*
X214130160Y-109028927D01*
X214326359Y-108997851D01*
X214326362Y-108997851D01*
X214515276Y-108936469D01*
X214692264Y-108846289D01*
X214729555Y-108819195D01*
X214166781Y-108256421D01*
X214226920Y-108240308D01*
X214342759Y-108173429D01*
X214437341Y-108078847D01*
X214504220Y-107963008D01*
X214520334Y-107902869D01*
X215083107Y-108465642D01*
X215110201Y-108428352D01*
X215200381Y-108251364D01*
X215261763Y-108062450D01*
X215261763Y-108062447D01*
X215292839Y-107866248D01*
X215292839Y-107667605D01*
X215261763Y-107471406D01*
X215261763Y-107471403D01*
X215200381Y-107282489D01*
X215110197Y-107105494D01*
X215083107Y-107068210D01*
X214520333Y-107630984D01*
X214504220Y-107570846D01*
X214437341Y-107455007D01*
X214342759Y-107360425D01*
X214226920Y-107293546D01*
X214166781Y-107277431D01*
X214729555Y-106714658D01*
X214729554Y-106714657D01*
X214692271Y-106687568D01*
X214534956Y-106607412D01*
X214484160Y-106559437D01*
X214467365Y-106491616D01*
X214489902Y-106425481D01*
X214534956Y-106386442D01*
X214692264Y-106306289D01*
X214729555Y-106279195D01*
X214166781Y-105716421D01*
X214226920Y-105700308D01*
X214342759Y-105633429D01*
X214437341Y-105538847D01*
X214504220Y-105423008D01*
X214520334Y-105362869D01*
X215083107Y-105925642D01*
X215110201Y-105888352D01*
X215200381Y-105711364D01*
X215261763Y-105522450D01*
X215261763Y-105522447D01*
X215292839Y-105326248D01*
X215292839Y-105127605D01*
X215261763Y-104931406D01*
X215261763Y-104931403D01*
X215200381Y-104742489D01*
X215110197Y-104565494D01*
X215083107Y-104528210D01*
X214520333Y-105090984D01*
X214504220Y-105030846D01*
X214437341Y-104915007D01*
X214342759Y-104820425D01*
X214226920Y-104753546D01*
X214166781Y-104737431D01*
X214729555Y-104174658D01*
X214729554Y-104174657D01*
X214692271Y-104147568D01*
X214534956Y-104067412D01*
X214484160Y-104019437D01*
X214467365Y-103951616D01*
X214489902Y-103885481D01*
X214534956Y-103846442D01*
X214692264Y-103766289D01*
X214729555Y-103739195D01*
X214166781Y-103176421D01*
X214226920Y-103160308D01*
X214342759Y-103093429D01*
X214437341Y-102998847D01*
X214504220Y-102883008D01*
X214520334Y-102822869D01*
X215083107Y-103385642D01*
X215110201Y-103348352D01*
X215200381Y-103171364D01*
X215261763Y-102982450D01*
X215261763Y-102982447D01*
X215292839Y-102786248D01*
X215292839Y-102587605D01*
X215261763Y-102391406D01*
X215261763Y-102391403D01*
X215200381Y-102202489D01*
X215110197Y-102025494D01*
X215083107Y-101988210D01*
X214520333Y-102550984D01*
X214504220Y-102490846D01*
X214437341Y-102375007D01*
X214342759Y-102280425D01*
X214226920Y-102213546D01*
X214166781Y-102197431D01*
X214729555Y-101634658D01*
X214729554Y-101634657D01*
X214692271Y-101607568D01*
X214534956Y-101527412D01*
X214484160Y-101479437D01*
X214467365Y-101411616D01*
X214489902Y-101345481D01*
X214534956Y-101306442D01*
X214692264Y-101226289D01*
X214729555Y-101199195D01*
X214166781Y-100636421D01*
X214226920Y-100620308D01*
X214342759Y-100553429D01*
X214437341Y-100458847D01*
X214504220Y-100343008D01*
X214520334Y-100282869D01*
X215083107Y-100845642D01*
X215110201Y-100808352D01*
X215200381Y-100631364D01*
X215261763Y-100442450D01*
X215261763Y-100442447D01*
X215292839Y-100246248D01*
X215292839Y-100047605D01*
X215261763Y-99851406D01*
X215261763Y-99851403D01*
X215200381Y-99662489D01*
X215110197Y-99485494D01*
X215083107Y-99448210D01*
X214520333Y-100010984D01*
X214504220Y-99950846D01*
X214437341Y-99835007D01*
X214342759Y-99740425D01*
X214226920Y-99673546D01*
X214166781Y-99657431D01*
X214729555Y-99094658D01*
X214729554Y-99094657D01*
X214692271Y-99067568D01*
X214535507Y-98987692D01*
X214484711Y-98939717D01*
X214467916Y-98871896D01*
X214490454Y-98805761D01*
X214535506Y-98766723D01*
X214692533Y-98686714D01*
X214853303Y-98569908D01*
X214993820Y-98429391D01*
X215110626Y-98268621D01*
X215200844Y-98091559D01*
X215262252Y-97902563D01*
X215293339Y-97706288D01*
X215293339Y-97507566D01*
X215262252Y-97311291D01*
X215216116Y-97169298D01*
X215200845Y-97122297D01*
X215200844Y-97122294D01*
X215110625Y-96945232D01*
X215092250Y-96919941D01*
X214993820Y-96784463D01*
X214853303Y-96643946D01*
X214692533Y-96527140D01*
X214535506Y-96447130D01*
X214484711Y-96399156D01*
X214467916Y-96331335D01*
X214490453Y-96265200D01*
X214535508Y-96226161D01*
X214692261Y-96146291D01*
X214729555Y-96119195D01*
X214166781Y-95556421D01*
X214226920Y-95540308D01*
X214342759Y-95473429D01*
X214437341Y-95378847D01*
X214504220Y-95263008D01*
X214520334Y-95202869D01*
X215083107Y-95765642D01*
X215110201Y-95728352D01*
X215200381Y-95551364D01*
X215261763Y-95362450D01*
X215261763Y-95362447D01*
X215292839Y-95166248D01*
X215292839Y-94967605D01*
X215261763Y-94771406D01*
X215261763Y-94771403D01*
X215200381Y-94582489D01*
X215110197Y-94405494D01*
X215083107Y-94368210D01*
X214520333Y-94930984D01*
X214504220Y-94870846D01*
X214437341Y-94755007D01*
X214342759Y-94660425D01*
X214226920Y-94593546D01*
X214166780Y-94577431D01*
X214748205Y-93996007D01*
X214809528Y-93962522D01*
X214838357Y-93959713D01*
X216119258Y-93985320D01*
X216130665Y-93985441D01*
X216287404Y-93964989D01*
X216433508Y-93904667D01*
X216559021Y-93808585D01*
X216655391Y-93683293D01*
X216716048Y-93537327D01*
X216736860Y-93380636D01*
X216745043Y-86250695D01*
X216745043Y-86250000D01*
X216724411Y-86093285D01*
X216663921Y-85947250D01*
X216567696Y-85821847D01*
X216442293Y-85725622D01*
X216442292Y-85725621D01*
X216442290Y-85725620D01*
X216314690Y-85672767D01*
X216296258Y-85665132D01*
X216269521Y-85661612D01*
X216139550Y-85644500D01*
X216139543Y-85644500D01*
X215416839Y-85644500D01*
X215349800Y-85624815D01*
X215304045Y-85572011D01*
X215292839Y-85520500D01*
X215292839Y-85156927D01*
X214473090Y-85156927D01*
X214504220Y-85103008D01*
X214538839Y-84973807D01*
X214538839Y-84840047D01*
X214504220Y-84710846D01*
X214473090Y-84656927D01*
X215292839Y-84656927D01*
X215292839Y-84097099D01*
X215292838Y-84097082D01*
X215286437Y-84037554D01*
X215286435Y-84037547D01*
X215236193Y-83902840D01*
X215236189Y-83902833D01*
X215150029Y-83787739D01*
X215150026Y-83787736D01*
X215034932Y-83701576D01*
X215034925Y-83701572D01*
X214900218Y-83651330D01*
X214900211Y-83651328D01*
X214840683Y-83644927D01*
X214280839Y-83644927D01*
X214280839Y-84464675D01*
X214226920Y-84433546D01*
X214097719Y-84398927D01*
X213963959Y-84398927D01*
X213834758Y-84433546D01*
X213780839Y-84464675D01*
X213780839Y-83644927D01*
X213220994Y-83644927D01*
X213161466Y-83651328D01*
X213161459Y-83651330D01*
X213026752Y-83701572D01*
X213026745Y-83701576D01*
X212911651Y-83787736D01*
X212911648Y-83787739D01*
X212825488Y-83902833D01*
X212825484Y-83902840D01*
X212775242Y-84037547D01*
X212775240Y-84037554D01*
X212768839Y-84097082D01*
X212768839Y-84137269D01*
X212749154Y-84204308D01*
X212696350Y-84250063D01*
X212627192Y-84260007D01*
X212563636Y-84230982D01*
X212544522Y-84210156D01*
X212543108Y-84208210D01*
X212543107Y-84208210D01*
X211980333Y-84770983D01*
X211964220Y-84710846D01*
X211897341Y-84595007D01*
X211802759Y-84500425D01*
X211686920Y-84433546D01*
X211626781Y-84417431D01*
X212189555Y-83854658D01*
X212189554Y-83854657D01*
X212152271Y-83827568D01*
X211975276Y-83737384D01*
X211786361Y-83676002D01*
X211590160Y-83644927D01*
X211391518Y-83644927D01*
X211195318Y-83676002D01*
X211195315Y-83676002D01*
X211006401Y-83737384D01*
X210829403Y-83827570D01*
X210792122Y-83854656D01*
X210792121Y-83854657D01*
X211354897Y-84417431D01*
X211294758Y-84433546D01*
X211178919Y-84500425D01*
X211084337Y-84595007D01*
X211017458Y-84710846D01*
X211001344Y-84770984D01*
X210438569Y-84208209D01*
X210438568Y-84208210D01*
X210411482Y-84245491D01*
X210321296Y-84422489D01*
X210270329Y-84579350D01*
X210230891Y-84637026D01*
X210166533Y-84664224D01*
X210097686Y-84652309D01*
X210048004Y-84607950D01*
X210039707Y-84595007D01*
X209746291Y-84137269D01*
X209638323Y-83968835D01*
X208891634Y-82803979D01*
X208891414Y-82803634D01*
X208747265Y-82577114D01*
X207142197Y-80054863D01*
X207142185Y-80054847D01*
X207142180Y-80054839D01*
X207091094Y-79985892D01*
X206914320Y-79779656D01*
X206648038Y-79468993D01*
X205591085Y-78235880D01*
X205559517Y-78201792D01*
X205559515Y-78201791D01*
X205559513Y-78201788D01*
X205434110Y-78105563D01*
X205434109Y-78105562D01*
X205434107Y-78105561D01*
X205339704Y-78066458D01*
X205288075Y-78045073D01*
X205268485Y-78042494D01*
X205131367Y-78024441D01*
X205131360Y-78024441D01*
X200933528Y-78024441D01*
X200866489Y-78004756D01*
X200845847Y-77988122D01*
X200523179Y-77665454D01*
X200489694Y-77604131D01*
X200486860Y-77577773D01*
X200486860Y-76379947D01*
X200486859Y-76379933D01*
X200479808Y-76326377D01*
X200466228Y-76223226D01*
X200419441Y-76110274D01*
X200405739Y-76077193D01*
X200405737Y-76077190D01*
X200389939Y-76056602D01*
X200309513Y-75951788D01*
X200309508Y-75951782D01*
X199559518Y-75201792D01*
X199559511Y-75201786D01*
X199434110Y-75105563D01*
X199434107Y-75105561D01*
X199339704Y-75066458D01*
X199288075Y-75045073D01*
X199268485Y-75042494D01*
X199131367Y-75024441D01*
X199131360Y-75024441D01*
X197881360Y-75024441D01*
X197881352Y-75024441D01*
X197724645Y-75045073D01*
X197724644Y-75045073D01*
X197578612Y-75105561D01*
X197578609Y-75105563D01*
X197453208Y-75201786D01*
X197453201Y-75201792D01*
X196703211Y-75951782D01*
X196703205Y-75951789D01*
X196606982Y-76077190D01*
X196606980Y-76077193D01*
X196546492Y-76223225D01*
X196546492Y-76223227D01*
X196533019Y-76325559D01*
X196504752Y-76389456D01*
X196485934Y-76401867D01*
X195891128Y-76996674D01*
X195875245Y-76937397D01*
X195808102Y-76821103D01*
X195713147Y-76726148D01*
X195596853Y-76659005D01*
X195537574Y-76643121D01*
X196097283Y-76083411D01*
X196060380Y-76056600D01*
X195883672Y-75966561D01*
X195883669Y-75966560D01*
X195695052Y-75905276D01*
X195499163Y-75874250D01*
X195300837Y-75874250D01*
X195104947Y-75905276D01*
X194916330Y-75966560D01*
X194916322Y-75966563D01*
X194739615Y-76056602D01*
X194702715Y-76083410D01*
X194702715Y-76083411D01*
X195262425Y-76643121D01*
X195203147Y-76659005D01*
X195086853Y-76726148D01*
X194991898Y-76821103D01*
X194924755Y-76937397D01*
X194908871Y-76996675D01*
X194349161Y-76436965D01*
X194349160Y-76436965D01*
X194322352Y-76473865D01*
X194232313Y-76650572D01*
X194232310Y-76650580D01*
X194171026Y-76839197D01*
X194140000Y-77035086D01*
X194140000Y-77233413D01*
X194171026Y-77429302D01*
X194232310Y-77617919D01*
X194232311Y-77617922D01*
X194322350Y-77794630D01*
X194349161Y-77831533D01*
X194908871Y-77271824D01*
X194924755Y-77331103D01*
X194991898Y-77447397D01*
X195086853Y-77542352D01*
X195203147Y-77609495D01*
X195262424Y-77625378D01*
X194702714Y-78185087D01*
X194702715Y-78185088D01*
X194739612Y-78211895D01*
X194916327Y-78301938D01*
X194916330Y-78301939D01*
X195104947Y-78363223D01*
X195300837Y-78394250D01*
X195499163Y-78394250D01*
X195695049Y-78363224D01*
X195717426Y-78355953D01*
X195787267Y-78353956D01*
X195847101Y-78390034D01*
X195877931Y-78452734D01*
X195869969Y-78522149D01*
X195843429Y-78561564D01*
X195666911Y-78738082D01*
X195605588Y-78771567D01*
X195579143Y-78774401D01*
X188091075Y-78769136D01*
X188024049Y-78749404D01*
X188001306Y-78730587D01*
X187101451Y-77784306D01*
X186521002Y-77173910D01*
X186489069Y-77111765D01*
X186486860Y-77088461D01*
X186486860Y-76326385D01*
X191139500Y-76326385D01*
X191139500Y-77942120D01*
X191139501Y-77942126D01*
X191145908Y-78001733D01*
X191196202Y-78136578D01*
X191196206Y-78136585D01*
X191282452Y-78251794D01*
X191282455Y-78251797D01*
X191397664Y-78338043D01*
X191397671Y-78338047D01*
X191532517Y-78388341D01*
X191532516Y-78388341D01*
X191539444Y-78389085D01*
X191592127Y-78394750D01*
X193207872Y-78394749D01*
X193267483Y-78388341D01*
X193402331Y-78338046D01*
X193517546Y-78251796D01*
X193603796Y-78136581D01*
X193654091Y-78001733D01*
X193660500Y-77942123D01*
X193660499Y-76326378D01*
X193654091Y-76266767D01*
X193637852Y-76223227D01*
X193619493Y-76174003D01*
X193603796Y-76131919D01*
X193603793Y-76131914D01*
X193517547Y-76016705D01*
X193517544Y-76016702D01*
X193402335Y-75930456D01*
X193402328Y-75930452D01*
X193267482Y-75880158D01*
X193267483Y-75880158D01*
X193207883Y-75873751D01*
X193207881Y-75873750D01*
X193207873Y-75873750D01*
X193207864Y-75873750D01*
X191592129Y-75873750D01*
X191592123Y-75873751D01*
X191532516Y-75880158D01*
X191397671Y-75930452D01*
X191397664Y-75930456D01*
X191282455Y-76016702D01*
X191282452Y-76016705D01*
X191196206Y-76131914D01*
X191196202Y-76131921D01*
X191145908Y-76266767D01*
X191139588Y-76325559D01*
X191139501Y-76326373D01*
X191139500Y-76326385D01*
X186486860Y-76326385D01*
X186486860Y-75879947D01*
X186486859Y-75879933D01*
X186485816Y-75872013D01*
X186466228Y-75723226D01*
X186405738Y-75577191D01*
X186309513Y-75451788D01*
X186309508Y-75451782D01*
X185809518Y-74951792D01*
X185809511Y-74951786D01*
X185698379Y-74866512D01*
X185684110Y-74855563D01*
X185538075Y-74795073D01*
X185528524Y-74793815D01*
X185528523Y-74793815D01*
X185381367Y-74774441D01*
X185381360Y-74774441D01*
X183631360Y-74774441D01*
X183631352Y-74774441D01*
X183474645Y-74795073D01*
X183474644Y-74795073D01*
X183328612Y-74855561D01*
X183328609Y-74855563D01*
X183203208Y-74951786D01*
X183203201Y-74951792D01*
X182703211Y-75451782D01*
X182703205Y-75451789D01*
X182606982Y-75577190D01*
X182606980Y-75577193D01*
X182546492Y-75723225D01*
X182546492Y-75723226D01*
X182525860Y-75879933D01*
X182525860Y-76312661D01*
X182506175Y-76379700D01*
X182453371Y-76425455D01*
X182403539Y-76434262D01*
X181841128Y-76996674D01*
X181825245Y-76937397D01*
X181758102Y-76821103D01*
X181663147Y-76726148D01*
X181546853Y-76659005D01*
X181487574Y-76643121D01*
X182047283Y-76083411D01*
X182010380Y-76056600D01*
X181833672Y-75966561D01*
X181833669Y-75966560D01*
X181645052Y-75905276D01*
X181449163Y-75874250D01*
X181250837Y-75874250D01*
X181054947Y-75905276D01*
X180866330Y-75966560D01*
X180866322Y-75966563D01*
X180689615Y-76056602D01*
X180652715Y-76083410D01*
X180652715Y-76083411D01*
X181212425Y-76643121D01*
X181153147Y-76659005D01*
X181036853Y-76726148D01*
X180941898Y-76821103D01*
X180874755Y-76937397D01*
X180858871Y-76996675D01*
X180299161Y-76436965D01*
X180299160Y-76436965D01*
X180272352Y-76473865D01*
X180182313Y-76650572D01*
X180182310Y-76650580D01*
X180121026Y-76839197D01*
X180090000Y-77035086D01*
X180090000Y-77233413D01*
X180121026Y-77429302D01*
X180182310Y-77617919D01*
X180182311Y-77617922D01*
X180272350Y-77794630D01*
X180299161Y-77831533D01*
X180858871Y-77271824D01*
X180874755Y-77331103D01*
X180941898Y-77447397D01*
X181036853Y-77542352D01*
X181153147Y-77609495D01*
X181212424Y-77625378D01*
X180652714Y-78185087D01*
X180652715Y-78185088D01*
X180689612Y-78211895D01*
X180842812Y-78289956D01*
X180893608Y-78337931D01*
X180910403Y-78405752D01*
X180887865Y-78471887D01*
X180833150Y-78515338D01*
X180786517Y-78524441D01*
X179475896Y-78524441D01*
X179408857Y-78504756D01*
X179363102Y-78451952D01*
X179353158Y-78382794D01*
X179382183Y-78319238D01*
X179401585Y-78301175D01*
X179447709Y-78266646D01*
X179467546Y-78251796D01*
X179553796Y-78136581D01*
X179604091Y-78001733D01*
X179610500Y-77942123D01*
X179610499Y-76326378D01*
X179604091Y-76266767D01*
X179587852Y-76223227D01*
X179569493Y-76174003D01*
X179553796Y-76131919D01*
X179553793Y-76131914D01*
X179467547Y-76016705D01*
X179467544Y-76016702D01*
X179352335Y-75930456D01*
X179352328Y-75930452D01*
X179217482Y-75880158D01*
X179217483Y-75880158D01*
X179157883Y-75873751D01*
X179157881Y-75873750D01*
X179157873Y-75873750D01*
X179157864Y-75873750D01*
X177542129Y-75873750D01*
X177542123Y-75873751D01*
X177482516Y-75880158D01*
X177347671Y-75930452D01*
X177347664Y-75930456D01*
X177232455Y-76016702D01*
X177232452Y-76016705D01*
X177146206Y-76131914D01*
X177146202Y-76131921D01*
X177095908Y-76266767D01*
X177089588Y-76325559D01*
X177089501Y-76326373D01*
X177089500Y-76326385D01*
X177089500Y-77942120D01*
X177089501Y-77942126D01*
X177095908Y-78001733D01*
X177146202Y-78136578D01*
X177146206Y-78136585D01*
X177232452Y-78251794D01*
X177232455Y-78251797D01*
X177298415Y-78301175D01*
X177340286Y-78357108D01*
X177345270Y-78426800D01*
X177311784Y-78488123D01*
X177250461Y-78521607D01*
X177224104Y-78524441D01*
X175621283Y-78524441D01*
X175476152Y-78542091D01*
X175476149Y-78542092D01*
X175328948Y-78599686D01*
X175328941Y-78599690D01*
X175201678Y-78693409D01*
X175201662Y-78693422D01*
X169219947Y-84443398D01*
X169211389Y-84451788D01*
X169115165Y-84577190D01*
X169115163Y-84577193D01*
X169054675Y-84723225D01*
X169054675Y-84723226D01*
X169034043Y-84879933D01*
X168617600Y-84879933D01*
X168638933Y-84828430D01*
X168638933Y-84828429D01*
X168669470Y-84754706D01*
X168735798Y-84507163D01*
X168735801Y-84507150D01*
X168769250Y-84253078D01*
X168769250Y-83996803D01*
X168735801Y-83742731D01*
X168735798Y-83742718D01*
X168669470Y-83495175D01*
X168571400Y-83258414D01*
X168571398Y-83258410D01*
X168443260Y-83036471D01*
X168443259Y-83036470D01*
X168362074Y-82930668D01*
X168362073Y-82930668D01*
X167825711Y-83467030D01*
X167733372Y-83339936D01*
X167599255Y-83205819D01*
X167472158Y-83113477D01*
X168008521Y-82577115D01*
X167902720Y-82495931D01*
X167902719Y-82495930D01*
X167680780Y-82367792D01*
X167680776Y-82367790D01*
X167444015Y-82269720D01*
X167196472Y-82203392D01*
X167196459Y-82203389D01*
X166942388Y-82169941D01*
X166686112Y-82169941D01*
X166432040Y-82203389D01*
X166432027Y-82203392D01*
X166184484Y-82269720D01*
X165947723Y-82367790D01*
X165947719Y-82367792D01*
X165725780Y-82495930D01*
X165725770Y-82495936D01*
X165619977Y-82577114D01*
X165619977Y-82577115D01*
X166156340Y-83113478D01*
X166029245Y-83205819D01*
X165895128Y-83339936D01*
X165802787Y-83467031D01*
X165266424Y-82930668D01*
X165266423Y-82930668D01*
X165185245Y-83036461D01*
X165185239Y-83036471D01*
X165057101Y-83258410D01*
X165057099Y-83258414D01*
X164959029Y-83495175D01*
X164892701Y-83742718D01*
X164892698Y-83742731D01*
X164859250Y-83996803D01*
X160740830Y-83996803D01*
X160740830Y-81590646D01*
X160760515Y-81523607D01*
X160813319Y-81477852D01*
X160864830Y-81466646D01*
X167753238Y-81466646D01*
X167850543Y-81466884D01*
X167850543Y-81466883D01*
X167850547Y-81466884D01*
X168092221Y-81435653D01*
X168123830Y-81431569D01*
X168390163Y-81360858D01*
X168644976Y-81255961D01*
X168883904Y-81118678D01*
X169102851Y-80951360D01*
X169298066Y-80756875D01*
X169466202Y-80538555D01*
X169604379Y-80300143D01*
X169710228Y-80045724D01*
X169781936Y-79779658D01*
X169818273Y-79506505D01*
X169818618Y-79230945D01*
X169782963Y-78957702D01*
X169732647Y-78769136D01*
X169711921Y-78691460D01*
X169711920Y-78691457D01*
X169606707Y-78436774D01*
X169508673Y-78266646D01*
X169469128Y-78198019D01*
X169351946Y-78045073D01*
X169301537Y-77979279D01*
X169301534Y-77979276D01*
X169301531Y-77979272D01*
X169106810Y-77784307D01*
X169105642Y-77783410D01*
X168888281Y-77616442D01*
X168888282Y-77616442D01*
X168888280Y-77616441D01*
X168649700Y-77478562D01*
X168395144Y-77373028D01*
X168163949Y-77311027D01*
X168128991Y-77301652D01*
X168128989Y-77301651D01*
X168128983Y-77301650D01*
X167855802Y-77265654D01*
X167855786Y-77265653D01*
X167790475Y-77265649D01*
X167790475Y-77265648D01*
X167783910Y-77265647D01*
X167783902Y-77265646D01*
X167718013Y-77265646D01*
X167718009Y-77265645D01*
X167644527Y-77265645D01*
X167644511Y-77265646D01*
X160864830Y-77265646D01*
X160797791Y-77245961D01*
X160752036Y-77193157D01*
X160740830Y-77141646D01*
X160740830Y-72686112D01*
X174245000Y-72686112D01*
X174245000Y-72942387D01*
X174278448Y-73196459D01*
X174278451Y-73196472D01*
X174344779Y-73444015D01*
X174442849Y-73680776D01*
X174442851Y-73680780D01*
X174570989Y-73902719D01*
X174570990Y-73902720D01*
X174652174Y-74008521D01*
X175188536Y-73472158D01*
X175280878Y-73599255D01*
X175414995Y-73733372D01*
X175542089Y-73825711D01*
X175005727Y-74362073D01*
X175005727Y-74362074D01*
X175111529Y-74443259D01*
X175111530Y-74443260D01*
X175333469Y-74571398D01*
X175333473Y-74571400D01*
X175570234Y-74669470D01*
X175817777Y-74735798D01*
X175817790Y-74735801D01*
X176071862Y-74769250D01*
X176328138Y-74769250D01*
X176582209Y-74735801D01*
X176582222Y-74735798D01*
X176829765Y-74669470D01*
X177066526Y-74571400D01*
X177066530Y-74571398D01*
X177288479Y-74443255D01*
X177394271Y-74362076D01*
X177394271Y-74362073D01*
X176857909Y-73825712D01*
X176985005Y-73733372D01*
X177119122Y-73599255D01*
X177211462Y-73472159D01*
X177747823Y-74008521D01*
X177747826Y-74008521D01*
X177829005Y-73902729D01*
X177957148Y-73680780D01*
X177957150Y-73680776D01*
X178055220Y-73444015D01*
X178121548Y-73196472D01*
X178121551Y-73196459D01*
X178155000Y-72942387D01*
X178155000Y-72686112D01*
X184545000Y-72686112D01*
X184545000Y-72942387D01*
X184578448Y-73196459D01*
X184578451Y-73196472D01*
X184644779Y-73444015D01*
X184742849Y-73680776D01*
X184742851Y-73680780D01*
X184870989Y-73902719D01*
X184870990Y-73902720D01*
X184952174Y-74008521D01*
X185488536Y-73472158D01*
X185580878Y-73599255D01*
X185714995Y-73733372D01*
X185842089Y-73825711D01*
X185305727Y-74362073D01*
X185305727Y-74362074D01*
X185411529Y-74443259D01*
X185411530Y-74443260D01*
X185617222Y-74562018D01*
X185809621Y-74644363D01*
X185870234Y-74669470D01*
X186117777Y-74735798D01*
X186117790Y-74735801D01*
X186371862Y-74769250D01*
X186628138Y-74769250D01*
X186882209Y-74735801D01*
X186882222Y-74735798D01*
X187129765Y-74669470D01*
X187366526Y-74571400D01*
X187366530Y-74571398D01*
X187588479Y-74443255D01*
X187694271Y-74362076D01*
X187694271Y-74362073D01*
X187157909Y-73825712D01*
X187285005Y-73733372D01*
X187419122Y-73599255D01*
X187511462Y-73472160D01*
X188047823Y-74008521D01*
X188047826Y-74008521D01*
X188129005Y-73902729D01*
X188257148Y-73680780D01*
X188257154Y-73680769D01*
X188260438Y-73672841D01*
X188304277Y-73618436D01*
X188370571Y-73596369D01*
X188438270Y-73613646D01*
X188485882Y-73664782D01*
X188489562Y-73672841D01*
X188492845Y-73680769D01*
X188492851Y-73680780D01*
X188620989Y-73902719D01*
X188620990Y-73902720D01*
X188702174Y-74008521D01*
X189238536Y-73472158D01*
X189330878Y-73599255D01*
X189464995Y-73733372D01*
X189592089Y-73825711D01*
X189055727Y-74362073D01*
X189055727Y-74362074D01*
X189161529Y-74443259D01*
X189161530Y-74443260D01*
X189383469Y-74571398D01*
X189383473Y-74571400D01*
X189620234Y-74669470D01*
X189867777Y-74735798D01*
X189867790Y-74735801D01*
X190121862Y-74769250D01*
X190378138Y-74769250D01*
X190632209Y-74735801D01*
X190632222Y-74735798D01*
X190879765Y-74669470D01*
X191116526Y-74571400D01*
X191116530Y-74571398D01*
X191338479Y-74443255D01*
X191444271Y-74362076D01*
X191444271Y-74362073D01*
X190907909Y-73825712D01*
X191035005Y-73733372D01*
X191169122Y-73599255D01*
X191261462Y-73472160D01*
X191797823Y-74008521D01*
X191797826Y-74008521D01*
X191879005Y-73902729D01*
X192007148Y-73680780D01*
X192007150Y-73680776D01*
X192105220Y-73444015D01*
X192171548Y-73196472D01*
X192171551Y-73196459D01*
X192205000Y-72942387D01*
X192205000Y-72686112D01*
X198595000Y-72686112D01*
X198595000Y-72942387D01*
X198628448Y-73196459D01*
X198628451Y-73196472D01*
X198694779Y-73444015D01*
X198792849Y-73680776D01*
X198792851Y-73680780D01*
X198920989Y-73902719D01*
X198920990Y-73902720D01*
X199002174Y-74008521D01*
X199538536Y-73472158D01*
X199630878Y-73599255D01*
X199764995Y-73733372D01*
X199892089Y-73825711D01*
X199355727Y-74362073D01*
X199355727Y-74362074D01*
X199461529Y-74443259D01*
X199461530Y-74443260D01*
X199683469Y-74571398D01*
X199683473Y-74571400D01*
X199920234Y-74669470D01*
X200167777Y-74735798D01*
X200167790Y-74735801D01*
X200421862Y-74769250D01*
X200678138Y-74769250D01*
X200932209Y-74735801D01*
X200932222Y-74735798D01*
X201179765Y-74669470D01*
X201416526Y-74571400D01*
X201416530Y-74571398D01*
X201638479Y-74443255D01*
X201744271Y-74362076D01*
X201744271Y-74362073D01*
X201207909Y-73825712D01*
X201335005Y-73733372D01*
X201469122Y-73599255D01*
X201561462Y-73472160D01*
X202097823Y-74008521D01*
X202097826Y-74008521D01*
X202179005Y-73902729D01*
X202307148Y-73680780D01*
X202307150Y-73680776D01*
X202405220Y-73444015D01*
X202471548Y-73196472D01*
X202471551Y-73196459D01*
X202505000Y-72942387D01*
X202505000Y-72686112D01*
X202471551Y-72432040D01*
X202471548Y-72432027D01*
X202405220Y-72184484D01*
X202307150Y-71947723D01*
X202307148Y-71947719D01*
X202179010Y-71725780D01*
X202179009Y-71725779D01*
X202097824Y-71619977D01*
X202097823Y-71619977D01*
X201561461Y-72156339D01*
X201469122Y-72029245D01*
X201335005Y-71895128D01*
X201207908Y-71802786D01*
X201744271Y-71266424D01*
X201638470Y-71185240D01*
X201638469Y-71185239D01*
X201416530Y-71057101D01*
X201416526Y-71057099D01*
X201179765Y-70959029D01*
X200932222Y-70892701D01*
X200932209Y-70892698D01*
X200678138Y-70859250D01*
X200421862Y-70859250D01*
X200167790Y-70892698D01*
X200167777Y-70892701D01*
X199920234Y-70959029D01*
X199683473Y-71057099D01*
X199683469Y-71057101D01*
X199461530Y-71185239D01*
X199461520Y-71185245D01*
X199355727Y-71266423D01*
X199355727Y-71266424D01*
X199892090Y-71802787D01*
X199764995Y-71895128D01*
X199630878Y-72029245D01*
X199538537Y-72156340D01*
X199002174Y-71619977D01*
X199002173Y-71619977D01*
X198920995Y-71725770D01*
X198920989Y-71725780D01*
X198792851Y-71947719D01*
X198792849Y-71947723D01*
X198694779Y-72184484D01*
X198628451Y-72432027D01*
X198628448Y-72432040D01*
X198595000Y-72686112D01*
X192205000Y-72686112D01*
X192171551Y-72432040D01*
X192171548Y-72432027D01*
X192105220Y-72184484D01*
X192007150Y-71947723D01*
X192007148Y-71947719D01*
X191879010Y-71725780D01*
X191879009Y-71725779D01*
X191797824Y-71619977D01*
X191797823Y-71619977D01*
X191261461Y-72156339D01*
X191169122Y-72029245D01*
X191035005Y-71895128D01*
X190907908Y-71802786D01*
X191444271Y-71266424D01*
X191338470Y-71185240D01*
X191338469Y-71185239D01*
X191116530Y-71057101D01*
X191116526Y-71057099D01*
X190879765Y-70959029D01*
X190632222Y-70892701D01*
X190632209Y-70892698D01*
X190378138Y-70859250D01*
X190121862Y-70859250D01*
X189867790Y-70892698D01*
X189867777Y-70892701D01*
X189620234Y-70959029D01*
X189383473Y-71057099D01*
X189383469Y-71057101D01*
X189161530Y-71185239D01*
X189161520Y-71185245D01*
X189055727Y-71266423D01*
X189055727Y-71266424D01*
X189592090Y-71802787D01*
X189464995Y-71895128D01*
X189330878Y-72029245D01*
X189238537Y-72156340D01*
X188702174Y-71619977D01*
X188702173Y-71619977D01*
X188620995Y-71725770D01*
X188620989Y-71725780D01*
X188492851Y-71947719D01*
X188492849Y-71947723D01*
X188489561Y-71955662D01*
X188445720Y-72010065D01*
X188379426Y-72032130D01*
X188311726Y-72014851D01*
X188264116Y-71963713D01*
X188260439Y-71955662D01*
X188257150Y-71947723D01*
X188257148Y-71947719D01*
X188129010Y-71725780D01*
X188129009Y-71725779D01*
X188047824Y-71619977D01*
X188047823Y-71619977D01*
X187511461Y-72156339D01*
X187419122Y-72029245D01*
X187285005Y-71895128D01*
X187157908Y-71802786D01*
X187694271Y-71266424D01*
X187588470Y-71185240D01*
X187588469Y-71185239D01*
X187366530Y-71057101D01*
X187366526Y-71057099D01*
X187129765Y-70959029D01*
X186882222Y-70892701D01*
X186882209Y-70892698D01*
X186628138Y-70859250D01*
X186371862Y-70859250D01*
X186117790Y-70892698D01*
X186117777Y-70892701D01*
X185870234Y-70959029D01*
X185633473Y-71057099D01*
X185633469Y-71057101D01*
X185411530Y-71185239D01*
X185411520Y-71185245D01*
X185305727Y-71266423D01*
X185305727Y-71266424D01*
X185842090Y-71802787D01*
X185714995Y-71895128D01*
X185580878Y-72029245D01*
X185488537Y-72156340D01*
X184952174Y-71619977D01*
X184952173Y-71619977D01*
X184870995Y-71725770D01*
X184870989Y-71725780D01*
X184742851Y-71947719D01*
X184742849Y-71947723D01*
X184644779Y-72184484D01*
X184578451Y-72432027D01*
X184578448Y-72432040D01*
X184545000Y-72686112D01*
X178155000Y-72686112D01*
X178121551Y-72432040D01*
X178121548Y-72432027D01*
X178055220Y-72184484D01*
X177957150Y-71947723D01*
X177957148Y-71947719D01*
X177829010Y-71725780D01*
X177829009Y-71725779D01*
X177747824Y-71619977D01*
X177747823Y-71619977D01*
X177211461Y-72156339D01*
X177119122Y-72029245D01*
X176985005Y-71895128D01*
X176857908Y-71802786D01*
X177394271Y-71266424D01*
X177288470Y-71185240D01*
X177288469Y-71185239D01*
X177066530Y-71057101D01*
X177066526Y-71057099D01*
X176829765Y-70959029D01*
X176582222Y-70892701D01*
X176582209Y-70892698D01*
X176328138Y-70859250D01*
X176071862Y-70859250D01*
X175817790Y-70892698D01*
X175817777Y-70892701D01*
X175570234Y-70959029D01*
X175333473Y-71057099D01*
X175333469Y-71057101D01*
X175111530Y-71185239D01*
X175111520Y-71185245D01*
X175005727Y-71266423D01*
X175005727Y-71266424D01*
X175542090Y-71802787D01*
X175414995Y-71895128D01*
X175280878Y-72029245D01*
X175188537Y-72156340D01*
X174652174Y-71619977D01*
X174652173Y-71619977D01*
X174570995Y-71725770D01*
X174570989Y-71725780D01*
X174442851Y-71947719D01*
X174442849Y-71947723D01*
X174344779Y-72184484D01*
X174278451Y-72432027D01*
X174278448Y-72432040D01*
X174245000Y-72686112D01*
X160740830Y-72686112D01*
X160740830Y-66961209D01*
X160760515Y-66894170D01*
X160813319Y-66848415D01*
X160864830Y-66837209D01*
X180374438Y-66837209D01*
X199974438Y-66837209D01*
X219615830Y-66837209D01*
X219682869Y-66856894D01*
G37*
%TD.AperFunction*%
%TD*%
M02*
