%TF.GenerationSoftware,KiCad,Pcbnew,9.0.6*%
%TF.CreationDate,2026-03-01T21:50:26+00:00*%
%TF.ProjectId,KicadProject,4b696361-6450-4726-9f6a-6563742e6b69,rev?*%
%TF.SameCoordinates,Original*%
%TF.FileFunction,Soldermask,Bot*%
%TF.FilePolarity,Negative*%
%FSLAX46Y46*%
G04 Gerber Fmt 4.6, Leading zero omitted, Abs format (unit mm)*
G04 Created by KiCad (PCBNEW 9.0.6) date 2026-03-01 21:50:26*
%MOMM*%
%LPD*%
G01*
G04 APERTURE LIST*
G04 Aperture macros list*
%AMRoundRect*
0 Rectangle with rounded corners*
0 $1 Rounding radius*
0 $2 $3 $4 $5 $6 $7 $8 $9 X,Y pos of 4 corners*
0 Add a 4 corners polygon primitive as box body*
4,1,4,$2,$3,$4,$5,$6,$7,$8,$9,$2,$3,0*
0 Add four circle primitives for the rounded corners*
1,1,$1+$1,$2,$3*
1,1,$1+$1,$4,$5*
1,1,$1+$1,$6,$7*
1,1,$1+$1,$8,$9*
0 Add four rect primitives between the rounded corners*
20,1,$1+$1,$2,$3,$4,$5,0*
20,1,$1+$1,$4,$5,$6,$7,0*
20,1,$1+$1,$6,$7,$8,$9,0*
20,1,$1+$1,$8,$9,$2,$3,0*%
G04 Aperture macros list end*
%ADD10C,3.100000*%
%ADD11C,1.531200*%
%ADD12C,0.836200*%
%ADD13C,0.010000*%
%ADD14RoundRect,0.250000X-0.750000X0.750000X-0.750000X-0.750000X0.750000X-0.750000X0.750000X0.750000X0*%
%ADD15C,2.000000*%
%ADD16RoundRect,0.250000X-1.060660X0.000000X0.000000X-1.060660X1.060660X0.000000X0.000000X1.060660X0*%
%ADD17RoundRect,0.102000X-1.210650X-1.210650X1.210650X-1.210650X1.210650X1.210650X-1.210650X1.210650X0*%
%ADD18RoundRect,0.250000X-0.750000X-0.750000X0.750000X-0.750000X0.750000X0.750000X-0.750000X0.750000X0*%
%ADD19RoundRect,0.102000X0.762000X-0.762000X0.762000X0.762000X-0.762000X0.762000X-0.762000X-0.762000X0*%
%ADD20C,1.728000*%
G04 APERTURE END LIST*
D10*
X214319020Y-79359426D02*
G75*
G02*
X211219020Y-79359426I-1550000J0D01*
G01*
X211219020Y-79359426D02*
G75*
G02*
X214319020Y-79359426I1550000J0D01*
G01*
X214319020Y-113300552D02*
G75*
G02*
X211219020Y-113300552I-1550000J0D01*
G01*
X211219020Y-113300552D02*
G75*
G02*
X214319020Y-113300552I1550000J0D01*
G01*
X169274378Y-79359426D02*
G75*
G02*
X166174378Y-79359426I-1550000J0D01*
G01*
X166174378Y-79359426D02*
G75*
G02*
X169274378Y-79359426I1550000J0D01*
G01*
X169274378Y-113300552D02*
G75*
G02*
X166174378Y-113300552I-1550000J0D01*
G01*
X166174378Y-113300552D02*
G75*
G02*
X169274378Y-113300552I1550000J0D01*
G01*
D11*
%TO.C,J2*%
X167579850Y-84124941D02*
G75*
G02*
X166048650Y-84124941I-765600J0D01*
G01*
X166048650Y-84124941D02*
G75*
G02*
X167579850Y-84124941I765600J0D01*
G01*
X167579850Y-94424941D02*
G75*
G02*
X166048650Y-94424941I-765600J0D01*
G01*
X166048650Y-94424941D02*
G75*
G02*
X167579850Y-94424941I765600J0D01*
G01*
D12*
X171552350Y-86274941D02*
G75*
G02*
X170716150Y-86274941I-418100J0D01*
G01*
X170716150Y-86274941D02*
G75*
G02*
X171552350Y-86274941I418100J0D01*
G01*
X171552350Y-89274941D02*
G75*
G02*
X170716150Y-89274941I-418100J0D01*
G01*
X170716150Y-89274941D02*
G75*
G02*
X171552350Y-89274941I418100J0D01*
G01*
D13*
X171970450Y-93111141D02*
X170298050Y-93111141D01*
X170298050Y-91438741D01*
X171970450Y-91438741D01*
X171970450Y-93111141D01*
G36*
X171970450Y-93111141D02*
G01*
X170298050Y-93111141D01*
X170298050Y-91438741D01*
X171970450Y-91438741D01*
X171970450Y-93111141D01*
G37*
D11*
%TO.C,J3*%
X167579850Y-98124941D02*
G75*
G02*
X166048650Y-98124941I-765600J0D01*
G01*
X166048650Y-98124941D02*
G75*
G02*
X167579850Y-98124941I765600J0D01*
G01*
X167579850Y-108424941D02*
G75*
G02*
X166048650Y-108424941I-765600J0D01*
G01*
X166048650Y-108424941D02*
G75*
G02*
X167579850Y-108424941I765600J0D01*
G01*
D12*
X171552350Y-100274941D02*
G75*
G02*
X170716150Y-100274941I-418100J0D01*
G01*
X170716150Y-100274941D02*
G75*
G02*
X171552350Y-100274941I418100J0D01*
G01*
X171552350Y-103274941D02*
G75*
G02*
X170716150Y-103274941I-418100J0D01*
G01*
X170716150Y-103274941D02*
G75*
G02*
X171552350Y-103274941I418100J0D01*
G01*
D13*
X171970450Y-107111141D02*
X170298050Y-107111141D01*
X170298050Y-105438741D01*
X171970450Y-105438741D01*
X171970450Y-107111141D01*
G36*
X171970450Y-107111141D02*
G01*
X170298050Y-107111141D01*
X170298050Y-105438741D01*
X171970450Y-105438741D01*
X171970450Y-107111141D01*
G37*
D11*
%TO.C,J4*%
X191015600Y-72814250D02*
G75*
G02*
X189484400Y-72814250I-765600J0D01*
G01*
X189484400Y-72814250D02*
G75*
G02*
X191015600Y-72814250I765600J0D01*
G01*
D12*
X195818100Y-77134250D02*
G75*
G02*
X194981900Y-77134250I-418100J0D01*
G01*
X194981900Y-77134250D02*
G75*
G02*
X195818100Y-77134250I418100J0D01*
G01*
X198818100Y-77134250D02*
G75*
G02*
X197981900Y-77134250I-418100J0D01*
G01*
X197981900Y-77134250D02*
G75*
G02*
X198818100Y-77134250I418100J0D01*
G01*
D11*
X201315600Y-72814250D02*
G75*
G02*
X199784400Y-72814250I-765600J0D01*
G01*
X199784400Y-72814250D02*
G75*
G02*
X201315600Y-72814250I765600J0D01*
G01*
D13*
X193236200Y-77970450D02*
X191563800Y-77970450D01*
X191563800Y-76298050D01*
X193236200Y-76298050D01*
X193236200Y-77970450D01*
G36*
X193236200Y-77970450D02*
G01*
X191563800Y-77970450D01*
X191563800Y-76298050D01*
X193236200Y-76298050D01*
X193236200Y-77970450D01*
G37*
D11*
%TO.C,J6*%
X176965600Y-72814250D02*
G75*
G02*
X175434400Y-72814250I-765600J0D01*
G01*
X175434400Y-72814250D02*
G75*
G02*
X176965600Y-72814250I765600J0D01*
G01*
D12*
X181768100Y-77134250D02*
G75*
G02*
X180931900Y-77134250I-418100J0D01*
G01*
X180931900Y-77134250D02*
G75*
G02*
X181768100Y-77134250I418100J0D01*
G01*
X184768100Y-77134250D02*
G75*
G02*
X183931900Y-77134250I-418100J0D01*
G01*
X183931900Y-77134250D02*
G75*
G02*
X184768100Y-77134250I418100J0D01*
G01*
D11*
X187265600Y-72814250D02*
G75*
G02*
X185734400Y-72814250I-765600J0D01*
G01*
X185734400Y-72814250D02*
G75*
G02*
X187265600Y-72814250I765600J0D01*
G01*
D13*
X179186200Y-77970450D02*
X177513800Y-77970450D01*
X177513800Y-76298050D01*
X179186200Y-76298050D01*
X179186200Y-77970450D01*
G36*
X179186200Y-77970450D02*
G01*
X177513800Y-77970450D01*
X177513800Y-76298050D01*
X179186200Y-76298050D01*
X179186200Y-77970450D01*
G37*
%TD*%
D14*
%TO.C,C16*%
X190000000Y-82132323D03*
D15*
X190000000Y-87132323D03*
%TD*%
D16*
%TO.C,C18*%
X177482233Y-83091386D03*
D15*
X181017767Y-86626920D03*
%TD*%
D17*
%TO.C,J7*%
X175273500Y-121238650D03*
X180273500Y-121238650D03*
%TD*%
D14*
%TO.C,C19*%
X200750000Y-82500000D03*
D15*
X200750000Y-87500000D03*
%TD*%
D18*
%TO.C,C20*%
X176632323Y-95667505D03*
D15*
X181632323Y-95667505D03*
%TD*%
D19*
%TO.C,J5*%
X214030839Y-84906927D03*
D20*
X211490839Y-84906927D03*
X214030839Y-87446927D03*
X211490839Y-87446927D03*
X214030839Y-89986927D03*
X211490839Y-89986927D03*
X214030839Y-92526927D03*
X211490839Y-92526927D03*
X214030839Y-95066927D03*
X211490839Y-95066927D03*
X214030839Y-97606927D03*
X211490839Y-97606927D03*
X214030839Y-100146927D03*
X211490839Y-100146927D03*
X214030839Y-102686927D03*
X211490839Y-102686927D03*
X214030839Y-105226927D03*
X211490839Y-105226927D03*
X214030839Y-107766927D03*
X211490839Y-107766927D03*
%TD*%
M02*
