%TF.GenerationSoftware,KiCad,Pcbnew,9.0.6*%
%TF.CreationDate,2026-03-01T21:50:25+00:00*%
%TF.ProjectId,KicadProject,4b696361-6450-4726-9f6a-6563742e6b69,rev?*%
%TF.SameCoordinates,Original*%
%TF.FileFunction,Paste,Top*%
%TF.FilePolarity,Positive*%
%FSLAX46Y46*%
G04 Gerber Fmt 4.6, Leading zero omitted, Abs format (unit mm)*
G04 Created by KiCad (PCBNEW 9.0.6) date 2026-03-01 21:50:25*
%MOMM*%
%LPD*%
G01*
G04 APERTURE LIST*
G04 Aperture macros list*
%AMRoundRect*
0 Rectangle with rounded corners*
0 $1 Rounding radius*
0 $2 $3 $4 $5 $6 $7 $8 $9 X,Y pos of 4 corners*
0 Add a 4 corners polygon primitive as box body*
4,1,4,$2,$3,$4,$5,$6,$7,$8,$9,$2,$3,0*
0 Add four circle primitives for the rounded corners*
1,1,$1+$1,$2,$3*
1,1,$1+$1,$4,$5*
1,1,$1+$1,$6,$7*
1,1,$1+$1,$8,$9*
0 Add four rect primitives between the rounded corners*
20,1,$1+$1,$2,$3,$4,$5,0*
20,1,$1+$1,$4,$5,$6,$7,0*
20,1,$1+$1,$6,$7,$8,$9,0*
20,1,$1+$1,$8,$9,$2,$3,0*%
G04 Aperture macros list end*
%ADD10C,0.000000*%
%ADD11RoundRect,0.140000X0.140000X0.170000X-0.140000X0.170000X-0.140000X-0.170000X0.140000X-0.170000X0*%
%ADD12RoundRect,0.135000X0.135000X0.185000X-0.135000X0.185000X-0.135000X-0.185000X0.135000X-0.185000X0*%
%ADD13R,1.800000X1.000000*%
%ADD14RoundRect,0.140000X-0.170000X0.140000X-0.170000X-0.140000X0.170000X-0.140000X0.170000X0.140000X0*%
%ADD15R,1.000000X1.800000*%
%ADD16RoundRect,0.160000X-0.160000X0.245000X-0.160000X-0.245000X0.160000X-0.245000X0.160000X0.245000X0*%
%ADD17RoundRect,0.093750X-0.106250X0.093750X-0.106250X-0.093750X0.106250X-0.093750X0.106250X0.093750X0*%
%ADD18RoundRect,0.135000X-0.135000X-0.185000X0.135000X-0.185000X0.135000X0.185000X-0.135000X0.185000X0*%
%ADD19RoundRect,0.140000X-0.140000X-0.170000X0.140000X-0.170000X0.140000X0.170000X-0.140000X0.170000X0*%
%ADD20R,0.355600X1.409700*%
%ADD21RoundRect,0.140000X0.170000X-0.140000X0.170000X0.140000X-0.170000X0.140000X-0.170000X-0.140000X0*%
%ADD22R,0.600000X1.700000*%
%ADD23R,1.000000X2.700000*%
%ADD24RoundRect,0.135000X0.185000X-0.135000X0.185000X0.135000X-0.185000X0.135000X-0.185000X-0.135000X0*%
%ADD25RoundRect,0.135000X-0.185000X0.135000X-0.185000X-0.135000X0.185000X-0.135000X0.185000X0.135000X0*%
%ADD26R,2.387600X1.295400*%
%ADD27R,0.127000X0.127000*%
%ADD28R,0.203200X1.295400*%
%ADD29R,2.057400X0.254000*%
%ADD30RoundRect,0.150000X-0.587500X-0.150000X0.587500X-0.150000X0.587500X0.150000X-0.587500X0.150000X0*%
%ADD31RoundRect,0.150000X-0.825000X-0.150000X0.825000X-0.150000X0.825000X0.150000X-0.825000X0.150000X0*%
%ADD32RoundRect,0.075000X-0.662500X-0.075000X0.662500X-0.075000X0.662500X0.075000X-0.662500X0.075000X0*%
%ADD33RoundRect,0.075000X-0.075000X-0.662500X0.075000X-0.662500X0.075000X0.662500X-0.075000X0.662500X0*%
G04 APERTURE END LIST*
D10*
%TO.C,U3*%
G36*
X195522692Y-111613094D02*
G01*
X195522692Y-112908494D01*
X194671093Y-112912793D01*
X194671093Y-112658793D01*
X195179093Y-112658793D01*
X195171093Y-112113093D01*
X195321093Y-112113093D01*
X195321093Y-111613093D01*
X195522692Y-111613094D01*
G37*
G36*
X195245492Y-114913092D02*
G01*
X195522692Y-115163092D01*
X195522692Y-116208492D01*
X195319492Y-116208492D01*
X195319492Y-115708492D01*
X195171492Y-115708492D01*
X195179093Y-115162793D01*
X194671093Y-115162793D01*
X194671093Y-114908793D01*
X195245492Y-114913092D01*
G37*
G36*
X198372694Y-112113094D02*
G01*
X198919493Y-112113094D01*
X198919493Y-111613094D01*
X199122693Y-111613094D01*
X199122693Y-116208492D01*
X198919493Y-116208492D01*
X198919493Y-115708492D01*
X198372694Y-115708492D01*
X198372694Y-116208492D01*
X198169494Y-116208492D01*
X198169494Y-111613094D01*
X198372694Y-111613094D01*
X198372694Y-112113094D01*
G37*
G36*
X200222694Y-112113094D02*
G01*
X200762694Y-112113094D01*
X200763093Y-112658793D01*
X201271093Y-112658793D01*
X201271093Y-112912793D01*
X200763093Y-112912793D01*
X200763093Y-114908793D01*
X201271093Y-114908793D01*
X201271093Y-115162793D01*
X200763093Y-115162793D01*
X200762694Y-115708492D01*
X200222694Y-115708492D01*
X200222694Y-116208492D01*
X200019494Y-116208492D01*
X200019494Y-111613094D01*
X200222694Y-111613094D01*
X200222694Y-112113094D01*
G37*
%TD*%
D11*
%TO.C,C13*%
X182480000Y-109297500D03*
X181520000Y-109297500D03*
%TD*%
D12*
%TO.C,R4*%
X205542696Y-102968684D03*
X204522696Y-102968684D03*
%TD*%
D13*
%TO.C,5VL*%
X205250000Y-124750000D03*
%TD*%
D14*
%TO.C,C33*%
X206064019Y-111484288D03*
X206064019Y-112444288D03*
%TD*%
D15*
%TO.C,PWM1*%
X182500000Y-115750000D03*
%TD*%
D16*
%TO.C,U5*%
X204639905Y-112186833D03*
X203839905Y-112186833D03*
D17*
X204889905Y-111299333D03*
X204239905Y-111299333D03*
X203589905Y-111299333D03*
X203589905Y-113074333D03*
X204239905Y-113074333D03*
X204889905Y-113074333D03*
%TD*%
D13*
%TO.C,3V3*%
X202000000Y-124750000D03*
%TD*%
D18*
%TO.C,R7*%
X185191980Y-98198232D03*
X186211980Y-98198232D03*
%TD*%
D19*
%TO.C,C14*%
X192250000Y-100250000D03*
X193210000Y-100250000D03*
%TD*%
D11*
%TO.C,C11*%
X191126509Y-111714676D03*
X190166509Y-111714676D03*
%TD*%
D14*
%TO.C,C26*%
X205032569Y-114504288D03*
X205032569Y-115464288D03*
%TD*%
D11*
%TO.C,C28*%
X180730000Y-107250000D03*
X179770000Y-107250000D03*
%TD*%
D18*
%TO.C,R15*%
X196168262Y-109601533D03*
X197188262Y-109601533D03*
%TD*%
D11*
%TO.C,C9*%
X191121918Y-110706897D03*
X190161918Y-110706897D03*
%TD*%
D20*
%TO.C,U2*%
X199399999Y-92344500D03*
X198749998Y-92344500D03*
X198099999Y-92344500D03*
X197449998Y-92344500D03*
X196800000Y-92344500D03*
X196149998Y-92344500D03*
X195500000Y-92344500D03*
X194850001Y-92344500D03*
X194200000Y-92344500D03*
X193550001Y-92344500D03*
X192900000Y-92344500D03*
X192250001Y-92344500D03*
X191600000Y-92344500D03*
X190950001Y-92344500D03*
X190949999Y-98250000D03*
X191600000Y-98250000D03*
X192249999Y-98250000D03*
X192900000Y-98250000D03*
X193549998Y-98250000D03*
X194200000Y-98250000D03*
X194849998Y-98250000D03*
X195500000Y-98250000D03*
X196149998Y-98250000D03*
X196800000Y-98250000D03*
X197449998Y-98250000D03*
X198099999Y-98250000D03*
X198749998Y-98250000D03*
X199399999Y-98250000D03*
%TD*%
D14*
%TO.C,C24*%
X206032569Y-114493384D03*
X206032569Y-115453384D03*
%TD*%
D21*
%TO.C,C17*%
X200547130Y-99395611D03*
X200547130Y-98435611D03*
%TD*%
%TO.C,C3*%
X194282161Y-104523567D03*
X194282161Y-103563567D03*
%TD*%
D11*
%TO.C,C2*%
X199226497Y-110610754D03*
X198266497Y-110610754D03*
%TD*%
D14*
%TO.C,C29*%
X203994352Y-114501783D03*
X203994352Y-115461783D03*
%TD*%
D22*
%TO.C,J1*%
X187729733Y-120550000D03*
X188979733Y-120550000D03*
X190229733Y-120550000D03*
X191479733Y-120550000D03*
X192729733Y-120550000D03*
D23*
X185879733Y-123750000D03*
X194579733Y-123750000D03*
%TD*%
D24*
%TO.C,R12*%
X201142543Y-96245617D03*
X201142543Y-95225617D03*
%TD*%
D11*
%TO.C,C12*%
X182456495Y-108287019D03*
X181496495Y-108287019D03*
%TD*%
D18*
%TO.C,R6*%
X190679802Y-90665130D03*
X191699802Y-90665130D03*
%TD*%
D21*
%TO.C,C4*%
X195278833Y-104523448D03*
X195278833Y-103563448D03*
%TD*%
D19*
%TO.C,C15*%
X192250000Y-101250000D03*
X193210000Y-101250000D03*
%TD*%
D11*
%TO.C,C27*%
X181710000Y-102000000D03*
X180750000Y-102000000D03*
%TD*%
D13*
%TO.C,C+*%
X207500000Y-101472278D03*
%TD*%
D15*
%TO.C,PWM4*%
X173500000Y-115750000D03*
%TD*%
D12*
%TO.C,R11*%
X196982249Y-99797250D03*
X195962249Y-99797250D03*
%TD*%
D24*
%TO.C,R9*%
X201250000Y-93520000D03*
X201250000Y-92500000D03*
%TD*%
D25*
%TO.C,R2*%
X195123854Y-89752136D03*
X195123854Y-90772136D03*
%TD*%
D21*
%TO.C,C23*%
X192823047Y-114484288D03*
X192823047Y-113524288D03*
%TD*%
D24*
%TO.C,R10*%
X202250000Y-95177437D03*
X202250000Y-94157437D03*
%TD*%
D14*
%TO.C,C21*%
X184250000Y-109250000D03*
X184250000Y-110210000D03*
%TD*%
D11*
%TO.C,C1*%
X200750000Y-107250000D03*
X199790000Y-107250000D03*
%TD*%
D26*
%TO.C,XTAL1*%
X181250000Y-103595000D03*
X181250000Y-105500000D03*
%TD*%
D15*
%TO.C,PWM2*%
X179500000Y-115750000D03*
%TD*%
D13*
%TO.C,GND*%
X198750000Y-124750000D03*
%TD*%
%TO.C,C-*%
X207500000Y-106500000D03*
%TD*%
D25*
%TO.C,R3*%
X193303407Y-89727863D03*
X193303407Y-90747863D03*
%TD*%
D21*
%TO.C,C8*%
X183844444Y-101189411D03*
X183844444Y-100229411D03*
%TD*%
D15*
%TO.C,PWM3*%
X176500000Y-115750000D03*
%TD*%
D12*
%TO.C,R8*%
X189305756Y-99203465D03*
X188285756Y-99203465D03*
%TD*%
D25*
%TO.C,R1*%
X196750000Y-89782194D03*
X196750000Y-90802194D03*
%TD*%
D24*
%TO.C,R13*%
X201750000Y-98260000D03*
X201750000Y-97240000D03*
%TD*%
D21*
%TO.C,C22*%
X191856287Y-114484288D03*
X191856287Y-113524288D03*
%TD*%
%TO.C,C7*%
X182825300Y-101202461D03*
X182825300Y-100242461D03*
%TD*%
D11*
%TO.C,C25*%
X195211769Y-109606184D03*
X194251769Y-109606184D03*
%TD*%
D27*
%TO.C,U3*%
X195421092Y-115560792D03*
D28*
X195871093Y-115560792D03*
X196321092Y-115560792D03*
X196771094Y-115560792D03*
X197221093Y-115560792D03*
X197671092Y-115560792D03*
D27*
X198271094Y-115560792D03*
X199021093Y-115560792D03*
X200121094Y-115560792D03*
X201017093Y-115035793D03*
X201017093Y-112785793D03*
X200121094Y-112260794D03*
X199021093Y-112260794D03*
X198271094Y-112260794D03*
D28*
X197671092Y-112260794D03*
X197221093Y-112260794D03*
X196771094Y-112260794D03*
X196321092Y-112260794D03*
X195871093Y-112260794D03*
D27*
X195421092Y-112260794D03*
X194925093Y-112785793D03*
D29*
X195700093Y-113635792D03*
X195700093Y-114185794D03*
D27*
X194925093Y-115035793D03*
%TD*%
D14*
%TO.C,C30*%
X203032569Y-114504288D03*
X203032569Y-115464288D03*
%TD*%
D12*
%TO.C,R17*%
X195258166Y-110629950D03*
X194238166Y-110629950D03*
%TD*%
D18*
%TO.C,R5*%
X204522696Y-104968684D03*
X205542696Y-104968684D03*
%TD*%
D30*
%TO.C,D1*%
X207062500Y-103001764D03*
X207062500Y-104901764D03*
X208937500Y-103951764D03*
%TD*%
D31*
%TO.C,U1*%
X197050000Y-102017795D03*
X197050000Y-103287795D03*
X197050000Y-104557795D03*
X197050000Y-105827795D03*
X202000000Y-105827795D03*
X202000000Y-104557795D03*
X202000000Y-103287795D03*
X202000000Y-102017795D03*
%TD*%
D19*
%TO.C,C6*%
X204552696Y-103968684D03*
X205512696Y-103968684D03*
%TD*%
%TO.C,C10*%
X184880396Y-99310820D03*
X185840396Y-99310820D03*
%TD*%
D21*
%TO.C,C5*%
X193807171Y-114472497D03*
X193807171Y-113512497D03*
%TD*%
D24*
%TO.C,R14*%
X187250000Y-99250000D03*
X187250000Y-98230000D03*
%TD*%
D14*
%TO.C,C32*%
X202477933Y-112189161D03*
X202477933Y-113149161D03*
%TD*%
D32*
%TO.C,U4*%
X183925000Y-102250000D03*
X183925000Y-102750000D03*
X183925000Y-103250000D03*
X183925000Y-103750000D03*
X183925000Y-104250000D03*
X183925000Y-104750000D03*
X183925000Y-105250000D03*
X183925000Y-105750000D03*
X183925000Y-106250000D03*
X183925000Y-106750000D03*
X183925000Y-107250000D03*
X183925000Y-107750000D03*
D33*
X185337500Y-109162500D03*
X185837500Y-109162500D03*
X186337500Y-109162500D03*
X186837500Y-109162500D03*
X187337500Y-109162500D03*
X187837500Y-109162500D03*
X188337500Y-109162500D03*
X188837500Y-109162500D03*
X189337500Y-109162500D03*
X189837500Y-109162500D03*
X190337500Y-109162500D03*
X190837500Y-109162500D03*
D32*
X192250000Y-107750000D03*
X192250000Y-107250000D03*
X192250000Y-106750000D03*
X192250000Y-106250000D03*
X192250000Y-105750000D03*
X192250000Y-105250000D03*
X192250000Y-104750000D03*
X192250000Y-104250000D03*
X192250000Y-103750000D03*
X192250000Y-103250000D03*
X192250000Y-102750000D03*
X192250000Y-102250000D03*
D33*
X190837500Y-100837500D03*
X190337500Y-100837500D03*
X189837500Y-100837500D03*
X189337500Y-100837500D03*
X188837500Y-100837500D03*
X188337500Y-100837500D03*
X187837500Y-100837500D03*
X187337500Y-100837500D03*
X186837500Y-100837500D03*
X186337500Y-100837500D03*
X185837500Y-100837500D03*
X185337500Y-100837500D03*
%TD*%
D14*
%TO.C,C31*%
X202032569Y-114504288D03*
X202032569Y-115464288D03*
%TD*%
D18*
%TO.C,R16*%
X198212742Y-109592710D03*
X199232742Y-109592710D03*
%TD*%
D12*
%TO.C,R18*%
X176260000Y-112500000D03*
X175240000Y-112500000D03*
%TD*%
M02*
