%TF.GenerationSoftware,KiCad,Pcbnew,9.0.6*%
%TF.CreationDate,2026-03-01T21:50:25+00:00*%
%TF.ProjectId,KicadProject,4b696361-6450-4726-9f6a-6563742e6b69,rev?*%
%TF.SameCoordinates,Original*%
%TF.FileFunction,Copper,L4,Inr*%
%TF.FilePolarity,Positive*%
%FSLAX46Y46*%
G04 Gerber Fmt 4.6, Leading zero omitted, Abs format (unit mm)*
G04 Created by KiCad (PCBNEW 9.0.6) date 2026-03-01 21:50:25*
%MOMM*%
%LPD*%
G01*
G04 APERTURE LIST*
G04 Aperture macros list*
%AMRoundRect*
0 Rectangle with rounded corners*
0 $1 Rounding radius*
0 $2 $3 $4 $5 $6 $7 $8 $9 X,Y pos of 4 corners*
0 Add a 4 corners polygon primitive as box body*
4,1,4,$2,$3,$4,$5,$6,$7,$8,$9,$2,$3,0*
0 Add four circle primitives for the rounded corners*
1,1,$1+$1,$2,$3*
1,1,$1+$1,$4,$5*
1,1,$1+$1,$6,$7*
1,1,$1+$1,$8,$9*
0 Add four rect primitives between the rounded corners*
20,1,$1+$1,$2,$3,$4,$5,0*
20,1,$1+$1,$4,$5,$6,$7,0*
20,1,$1+$1,$6,$7,$8,$9,0*
20,1,$1+$1,$8,$9,$2,$3,0*%
G04 Aperture macros list end*
%TA.AperFunction,Conductor*%
%ADD10C,0.200000*%
%TD*%
%TA.AperFunction,ComponentPad*%
%ADD11R,1.520000X1.520000*%
%TD*%
%TA.AperFunction,ComponentPad*%
%ADD12C,1.520000*%
%TD*%
%TA.AperFunction,ComponentPad*%
%ADD13C,2.910000*%
%TD*%
%TA.AperFunction,ComponentPad*%
%ADD14RoundRect,0.250000X-0.750000X0.750000X-0.750000X-0.750000X0.750000X-0.750000X0.750000X0.750000X0*%
%TD*%
%TA.AperFunction,ComponentPad*%
%ADD15C,2.000000*%
%TD*%
%TA.AperFunction,ComponentPad*%
%ADD16RoundRect,0.250000X-1.060660X0.000000X0.000000X-1.060660X1.060660X0.000000X0.000000X1.060660X0*%
%TD*%
%TA.AperFunction,ComponentPad*%
%ADD17R,2.421300X2.421300*%
%TD*%
%TA.AperFunction,ComponentPad*%
%ADD18RoundRect,0.250000X-0.750000X-0.750000X0.750000X-0.750000X0.750000X0.750000X-0.750000X0.750000X0*%
%TD*%
%TA.AperFunction,ComponentPad*%
%ADD19R,1.524000X1.524000*%
%TD*%
%TA.AperFunction,ComponentPad*%
%ADD20C,1.524000*%
%TD*%
%TA.AperFunction,ViaPad*%
%ADD21C,0.600000*%
%TD*%
%TA.AperFunction,Conductor*%
%ADD22C,0.600000*%
%TD*%
%TA.AperFunction,Conductor*%
%ADD23C,0.300000*%
%TD*%
G04 APERTURE END LIST*
D10*
%TO.N,3.3V*%
X196500000Y-99250000D02*
X195500000Y-98250000D01*
X197500000Y-98250000D01*
X196500000Y-99250000D01*
%TA.AperFunction,Conductor*%
G36*
X196500000Y-99250000D02*
G01*
X195500000Y-98250000D01*
X197500000Y-98250000D01*
X196500000Y-99250000D01*
G37*
%TD.AperFunction*%
X191126509Y-111746517D02*
X189750000Y-110250000D01*
X192500000Y-110250000D01*
X191126509Y-111746517D01*
%TA.AperFunction,Conductor*%
G36*
X191126509Y-111746517D02*
G01*
X189750000Y-110250000D01*
X192500000Y-110250000D01*
X191126509Y-111746517D01*
G37*
%TD.AperFunction*%
X197750000Y-98750000D02*
X196750000Y-98750000D01*
X196500000Y-98250000D01*
X197500000Y-98250000D01*
X197750000Y-98750000D01*
%TA.AperFunction,Conductor*%
G36*
X197750000Y-98750000D02*
G01*
X196750000Y-98750000D01*
X196500000Y-98250000D01*
X197500000Y-98250000D01*
X197750000Y-98750000D01*
G37*
%TD.AperFunction*%
X202775970Y-107250000D02*
X201275970Y-107250000D01*
X202025970Y-106500000D01*
X202775970Y-107250000D01*
%TA.AperFunction,Conductor*%
G36*
X202775970Y-107250000D02*
G01*
X201275970Y-107250000D01*
X202025970Y-106500000D01*
X202775970Y-107250000D01*
G37*
%TD.AperFunction*%
X190000000Y-98500000D02*
X189250000Y-99250000D01*
X189250000Y-98000000D01*
X190000000Y-98500000D01*
%TA.AperFunction,Conductor*%
G36*
X190000000Y-98500000D02*
G01*
X189250000Y-99250000D01*
X189250000Y-98000000D01*
X190000000Y-98500000D01*
G37*
%TD.AperFunction*%
%TD*%
D11*
%TO.N,Net-(J2-Pad1)*%
%TO.C,J2*%
X171134250Y-92274941D03*
D12*
%TO.N,GND*%
X171134250Y-89274941D03*
%TO.N,5v_SERVO*%
X171134250Y-86274941D03*
D13*
%TO.N,GND*%
X166814250Y-94424941D03*
X166814250Y-84124941D03*
%TD*%
D14*
%TO.N,5v_SERVO*%
%TO.C,C16*%
X190000000Y-82132323D03*
D15*
%TO.N,GND*%
X190000000Y-87132323D03*
%TD*%
D16*
%TO.N,5v_SERVO*%
%TO.C,C18*%
X177482233Y-83091386D03*
D15*
%TO.N,GND*%
X181017767Y-86626920D03*
%TD*%
D17*
%TO.N,Net-(J7-01)*%
%TO.C,J7*%
X175273500Y-121238650D03*
%TO.N,GND*%
X180273500Y-121238650D03*
%TD*%
D14*
%TO.N,5v_SERVO*%
%TO.C,C19*%
X200750000Y-82500000D03*
D15*
%TO.N,GND*%
X200750000Y-87500000D03*
%TD*%
D18*
%TO.N,5v_SERVO*%
%TO.C,C20*%
X176632323Y-95667505D03*
D15*
%TO.N,GND*%
X181632323Y-95667505D03*
%TD*%
D11*
%TO.N,Net-(J3-Pad1)*%
%TO.C,J3*%
X171134250Y-106274941D03*
D12*
%TO.N,GND*%
X171134250Y-103274941D03*
%TO.N,5v_SERVO*%
X171134250Y-100274941D03*
D13*
%TO.N,GND*%
X166814250Y-108424941D03*
X166814250Y-98124941D03*
%TD*%
D19*
%TO.N,GND*%
%TO.C,J5*%
X214030839Y-84906927D03*
D20*
X211490839Y-84906927D03*
%TO.N,5v_SERVO*%
X214030839Y-87446927D03*
X211490839Y-87446927D03*
X214030839Y-89986927D03*
X211490839Y-89986927D03*
X214030839Y-92526927D03*
X211490839Y-92526927D03*
%TO.N,GND*%
X214030839Y-95066927D03*
X211490839Y-95066927D03*
%TO.N,5V_LOGIC*%
X214030839Y-97606927D03*
X211490839Y-97606927D03*
%TO.N,GND*%
X214030839Y-100146927D03*
X211490839Y-100146927D03*
X214030839Y-102686927D03*
%TO.N,CAN_+*%
X211490839Y-102686927D03*
%TO.N,GND*%
X214030839Y-105226927D03*
%TO.N,CAN_-*%
X211490839Y-105226927D03*
%TO.N,GND*%
X214030839Y-107766927D03*
X211490839Y-107766927D03*
%TD*%
D11*
%TO.N,Net-(J4-Pad1)*%
%TO.C,J4*%
X192400000Y-77134250D03*
D12*
%TO.N,GND*%
X195400000Y-77134250D03*
%TO.N,5v_SERVO*%
X198400000Y-77134250D03*
D13*
%TO.N,GND*%
X190250000Y-72814250D03*
X200550000Y-72814250D03*
%TD*%
D11*
%TO.N,Net-(J6-Pad1)*%
%TO.C,J6*%
X178350000Y-77134250D03*
D12*
%TO.N,GND*%
X181350000Y-77134250D03*
%TO.N,5v_SERVO*%
X184350000Y-77134250D03*
D13*
%TO.N,GND*%
X176200000Y-72814250D03*
X186500000Y-72814250D03*
%TD*%
D21*
%TO.N,3.3V*%
X201625000Y-106875000D03*
X191500000Y-118500000D03*
X191126509Y-112623491D03*
X204985229Y-110164536D03*
X199411883Y-99575959D03*
X184250000Y-101250000D03*
X189305756Y-98055756D03*
X193862144Y-102230339D03*
X202000000Y-123250000D03*
X209000000Y-100250000D03*
X182500000Y-110250000D03*
%TO.N,GND*%
X187000000Y-123750000D03*
X197224236Y-117561607D03*
X188250000Y-107500000D03*
X204999595Y-116482473D03*
X203999318Y-117520423D03*
X212490839Y-76851110D03*
X206500000Y-78500000D03*
X186750000Y-107500000D03*
X201971093Y-117552503D03*
X191000000Y-93750000D03*
X168038179Y-81836679D03*
X209750000Y-97250000D03*
X204971093Y-117552503D03*
X201109471Y-100628118D03*
X197227512Y-100613756D03*
X210959303Y-77552150D03*
X212597667Y-81766927D03*
X185887411Y-102189886D03*
X186250000Y-111500000D03*
X210240839Y-113266927D03*
X207000000Y-93000000D03*
X193690634Y-111648161D03*
X168038179Y-115836679D03*
X194180256Y-89002069D03*
X191980680Y-109031067D03*
X192912410Y-116762723D03*
X183750000Y-115750000D03*
X194250000Y-101250000D03*
X188250000Y-115750000D03*
X203735229Y-110414536D03*
X201999595Y-116482473D03*
X202696912Y-97301156D03*
X198724236Y-117561607D03*
X182000000Y-107250000D03*
X212490839Y-110851110D03*
X166288179Y-76920862D03*
X170288179Y-113420862D03*
X214152932Y-110890056D03*
X214240839Y-115766927D03*
X176750000Y-103500000D03*
X207000000Y-104000000D03*
X194250000Y-99750000D03*
X191500000Y-89750000D03*
X182598900Y-102014899D03*
X186000000Y-91000000D03*
X188750000Y-97250000D03*
X210240839Y-79266927D03*
X204750000Y-77250000D03*
X197000000Y-124750000D03*
X186250000Y-113516374D03*
X181500000Y-90250000D03*
X167931351Y-110888766D03*
X188000000Y-77250000D03*
X169569715Y-115135639D03*
X193992643Y-115750654D03*
X205999595Y-116482473D03*
X202999595Y-116482473D03*
X166376086Y-81797733D03*
X209250000Y-101500000D03*
X204027820Y-116450393D03*
X183829748Y-99347243D03*
X178250000Y-102250000D03*
X192808819Y-115643034D03*
X195905529Y-89000000D03*
X205971093Y-117552503D03*
X195724236Y-117561607D03*
X166288179Y-110888766D03*
X194224236Y-117561607D03*
X180750000Y-100000000D03*
X166376086Y-115797733D03*
X185250000Y-106500000D03*
X203750000Y-91750000D03*
X184304832Y-111095320D03*
X210881410Y-80998933D03*
X198750000Y-103250000D03*
X170288179Y-79420862D03*
X210959303Y-111552150D03*
X202471093Y-111052503D03*
X169569715Y-81135639D03*
X188750000Y-95750000D03*
X205750000Y-106250000D03*
X212597667Y-115766927D03*
X210881410Y-114998933D03*
X207517398Y-97400522D03*
X199750000Y-95250000D03*
X172500000Y-104750000D03*
X178750000Y-107250000D03*
X214240839Y-81766927D03*
X192750000Y-118500000D03*
X169647608Y-111688856D03*
X214152932Y-76890056D03*
X203022174Y-94172636D03*
X201250000Y-91500000D03*
X202971093Y-117552503D03*
X169647608Y-77688856D03*
X168250000Y-96250000D03*
X190250000Y-106750000D03*
X208000000Y-79750000D03*
X197500000Y-96750000D03*
X193500000Y-123500000D03*
X190000000Y-112750000D03*
X167931351Y-76920862D03*
%TO.N,Net-(U3-VCC)*%
X197724236Y-116561607D03*
X193299238Y-110904660D03*
%TO.N,SCL*%
X198009588Y-100023644D03*
X186211980Y-97288020D03*
%TO.N,SWDIO*%
X189000000Y-118750000D03*
X186500000Y-103750000D03*
%TO.N,5V_LOGIC*%
X192724236Y-111561607D03*
X193735229Y-112889150D03*
X197374237Y-111061607D03*
X205250000Y-123250000D03*
X192927509Y-112889150D03*
%TO.N,Net-(J2-Pad1)*%
X176500000Y-114000000D03*
X192500000Y-89000000D03*
%TO.N,Net-(J4-Pad1)*%
X197250000Y-88000000D03*
X182500000Y-114000000D03*
%TO.N,Net-(J6-Pad1)*%
X194250000Y-88000000D03*
X179500000Y-114000000D03*
%TO.N,Net-(J3-Pad1)*%
X189750000Y-91500000D03*
X173500000Y-114000000D03*
%TO.N,SDA*%
X188250000Y-98250000D03*
X199250000Y-100500000D03*
%TO.N,NRST*%
X190250000Y-118750000D03*
X185375000Y-107625000D03*
%TO.N,SWCLK*%
X187750000Y-118750000D03*
X185500000Y-103750000D03*
%TD*%
D22*
%TO.N,3.3V*%
X201325959Y-99575959D02*
X202000000Y-100250000D01*
X190500000Y-98055756D02*
X187305756Y-101250000D01*
X191126509Y-112623491D02*
X191500000Y-112996982D01*
X202000000Y-106375000D02*
X204985229Y-109360229D01*
X201625000Y-106875000D02*
X202000000Y-106500000D01*
X200250000Y-99575959D02*
X199411883Y-99575959D01*
D10*
X191500000Y-118000000D02*
X191500000Y-118099943D01*
X196650057Y-123250000D02*
X202000000Y-123250000D01*
D22*
X202000000Y-106500000D02*
X202000000Y-105000000D01*
X198825959Y-99575959D02*
X197305756Y-98055756D01*
D23*
X204893244Y-110072551D02*
X204985229Y-110164536D01*
D22*
X191500000Y-112996982D02*
X191500000Y-118000000D01*
X194519661Y-102230339D02*
X193862144Y-102230339D01*
X194519661Y-102230339D02*
X196500000Y-100250000D01*
X192422007Y-110250000D02*
X191126509Y-110250000D01*
X202000000Y-100250000D02*
X209000000Y-100250000D01*
X191126509Y-110250000D02*
X191126509Y-112623491D01*
X196500000Y-100250000D02*
X196500000Y-98055756D01*
X197305756Y-98055756D02*
X196500000Y-98055756D01*
X202000000Y-106500000D02*
X198861865Y-109638135D01*
X192422007Y-110250000D02*
X193021809Y-109650198D01*
X198861865Y-109638135D02*
X193070058Y-109638135D01*
X202000000Y-105812266D02*
X202000000Y-106000000D01*
X196500000Y-98055756D02*
X190500000Y-98055756D01*
D10*
X191500000Y-118099943D02*
X196650057Y-123250000D01*
D22*
X191500000Y-118000000D02*
X191500000Y-118500000D01*
X187305756Y-101250000D02*
X184250000Y-101250000D01*
X202000000Y-105500000D02*
X202000000Y-106375000D01*
X182500000Y-110250000D02*
X192422007Y-110250000D01*
X200250000Y-99575959D02*
X201325959Y-99575959D01*
X204985229Y-109360229D02*
X204985229Y-110164536D01*
X202000000Y-105500000D02*
X202000000Y-100250000D01*
X200250000Y-99575959D02*
X198825959Y-99575959D01*
X190500000Y-98055756D02*
X189305756Y-98055756D01*
%TD*%
%TA.AperFunction,Conductor*%
%TO.N,GND*%
G36*
X213557458Y-105423008D02*
G01*
X213624337Y-105538847D01*
X213718919Y-105633429D01*
X213834758Y-105700308D01*
X213894896Y-105716421D01*
X213332122Y-106279195D01*
X213332122Y-106279196D01*
X213369406Y-106306285D01*
X213526721Y-106386442D01*
X213577517Y-106434417D01*
X213594312Y-106502238D01*
X213571774Y-106568373D01*
X213526721Y-106607412D01*
X213369403Y-106687570D01*
X213332122Y-106714656D01*
X213332121Y-106714657D01*
X213894897Y-107277431D01*
X213834758Y-107293546D01*
X213718919Y-107360425D01*
X213624337Y-107455007D01*
X213557458Y-107570846D01*
X213541343Y-107630984D01*
X212978569Y-107068209D01*
X212978568Y-107068210D01*
X212951482Y-107105491D01*
X212871324Y-107262809D01*
X212823349Y-107313605D01*
X212755528Y-107330400D01*
X212689393Y-107307862D01*
X212650354Y-107262809D01*
X212570197Y-107105494D01*
X212543107Y-107068210D01*
X211980333Y-107630984D01*
X211964220Y-107570846D01*
X211897341Y-107455007D01*
X211802759Y-107360425D01*
X211686920Y-107293546D01*
X211626781Y-107277431D01*
X212189555Y-106714658D01*
X212189554Y-106714657D01*
X212152271Y-106687568D01*
X211995507Y-106607692D01*
X211944711Y-106559717D01*
X211927916Y-106491896D01*
X211950454Y-106425761D01*
X211995506Y-106386723D01*
X212152533Y-106306714D01*
X212313303Y-106189908D01*
X212453820Y-106049391D01*
X212570626Y-105888621D01*
X212650635Y-105731594D01*
X212698608Y-105680799D01*
X212766429Y-105664004D01*
X212832564Y-105686541D01*
X212871604Y-105731595D01*
X212951480Y-105888359D01*
X212978569Y-105925642D01*
X212978570Y-105925643D01*
X213541343Y-105362869D01*
X213557458Y-105423008D01*
G37*
%TD.AperFunction*%
%TA.AperFunction,Conductor*%
G36*
X213557458Y-102883008D02*
G01*
X213624337Y-102998847D01*
X213718919Y-103093429D01*
X213834758Y-103160308D01*
X213894896Y-103176421D01*
X213332122Y-103739195D01*
X213332122Y-103739196D01*
X213369406Y-103766285D01*
X213526721Y-103846442D01*
X213577517Y-103894417D01*
X213594312Y-103962238D01*
X213571774Y-104028373D01*
X213526721Y-104067412D01*
X213369403Y-104147570D01*
X213332122Y-104174656D01*
X213332121Y-104174657D01*
X213894897Y-104737431D01*
X213834758Y-104753546D01*
X213718919Y-104820425D01*
X213624337Y-104915007D01*
X213557458Y-105030846D01*
X213541343Y-105090984D01*
X212978569Y-104528209D01*
X212978568Y-104528210D01*
X212951480Y-104565493D01*
X212871603Y-104722259D01*
X212823629Y-104773054D01*
X212755808Y-104789849D01*
X212689673Y-104767311D01*
X212650635Y-104722259D01*
X212570626Y-104565233D01*
X212453820Y-104404463D01*
X212313303Y-104263946D01*
X212152533Y-104147140D01*
X211996057Y-104067411D01*
X211945262Y-104019437D01*
X211928467Y-103951616D01*
X211951004Y-103885481D01*
X211996057Y-103846442D01*
X212152533Y-103766714D01*
X212313303Y-103649908D01*
X212453820Y-103509391D01*
X212570626Y-103348621D01*
X212650635Y-103191594D01*
X212698608Y-103140799D01*
X212766429Y-103124004D01*
X212832564Y-103146541D01*
X212871604Y-103191595D01*
X212951480Y-103348359D01*
X212978569Y-103385642D01*
X212978570Y-103385643D01*
X213541343Y-102822869D01*
X213557458Y-102883008D01*
G37*
%TD.AperFunction*%
%TA.AperFunction,Conductor*%
G36*
X213557458Y-100343008D02*
G01*
X213624337Y-100458847D01*
X213718919Y-100553429D01*
X213834758Y-100620308D01*
X213894896Y-100636421D01*
X213332122Y-101199195D01*
X213332122Y-101199196D01*
X213369406Y-101226285D01*
X213526721Y-101306442D01*
X213577517Y-101354417D01*
X213594312Y-101422238D01*
X213571774Y-101488373D01*
X213526721Y-101527412D01*
X213369403Y-101607570D01*
X213332122Y-101634656D01*
X213332121Y-101634657D01*
X213894897Y-102197431D01*
X213834758Y-102213546D01*
X213718919Y-102280425D01*
X213624337Y-102375007D01*
X213557458Y-102490846D01*
X213541343Y-102550984D01*
X212978569Y-101988209D01*
X212978568Y-101988210D01*
X212951480Y-102025493D01*
X212871603Y-102182259D01*
X212823629Y-102233054D01*
X212755808Y-102249849D01*
X212689673Y-102227311D01*
X212650635Y-102182259D01*
X212570626Y-102025233D01*
X212453820Y-101864463D01*
X212313303Y-101723946D01*
X212152533Y-101607140D01*
X211995506Y-101527130D01*
X211944711Y-101479156D01*
X211927916Y-101411335D01*
X211950453Y-101345200D01*
X211995508Y-101306161D01*
X212152261Y-101226291D01*
X212189555Y-101199195D01*
X211626781Y-100636421D01*
X211686920Y-100620308D01*
X211802759Y-100553429D01*
X211897341Y-100458847D01*
X211964220Y-100343008D01*
X211980334Y-100282869D01*
X212543107Y-100845642D01*
X212570201Y-100808352D01*
X212650354Y-100651044D01*
X212698328Y-100600248D01*
X212766149Y-100583453D01*
X212832284Y-100605990D01*
X212871324Y-100651044D01*
X212951480Y-100808359D01*
X212978569Y-100845642D01*
X212978570Y-100845643D01*
X213541343Y-100282869D01*
X213557458Y-100343008D01*
G37*
%TD.AperFunction*%
%TA.AperFunction,Conductor*%
G36*
X212832285Y-98067092D02*
G01*
X212871323Y-98112145D01*
X212951052Y-98268621D01*
X213067858Y-98429391D01*
X213208375Y-98569908D01*
X213369145Y-98686714D01*
X213526171Y-98766723D01*
X213576966Y-98814696D01*
X213593761Y-98882517D01*
X213571224Y-98948652D01*
X213526171Y-98987691D01*
X213369405Y-99067568D01*
X213332122Y-99094656D01*
X213332121Y-99094657D01*
X213894897Y-99657431D01*
X213834758Y-99673546D01*
X213718919Y-99740425D01*
X213624337Y-99835007D01*
X213557458Y-99950846D01*
X213541343Y-100010984D01*
X212978569Y-99448209D01*
X212978568Y-99448210D01*
X212951482Y-99485491D01*
X212871324Y-99642809D01*
X212823349Y-99693605D01*
X212755528Y-99710400D01*
X212689393Y-99687862D01*
X212650354Y-99642809D01*
X212570197Y-99485494D01*
X212543107Y-99448210D01*
X211980333Y-100010984D01*
X211964220Y-99950846D01*
X211897341Y-99835007D01*
X211802759Y-99740425D01*
X211686920Y-99673546D01*
X211626781Y-99657431D01*
X212189555Y-99094658D01*
X212189554Y-99094657D01*
X212152271Y-99067568D01*
X211995507Y-98987692D01*
X211944711Y-98939717D01*
X211927916Y-98871896D01*
X211950454Y-98805761D01*
X211995506Y-98766723D01*
X212152533Y-98686714D01*
X212313303Y-98569908D01*
X212453820Y-98429391D01*
X212570626Y-98268621D01*
X212650354Y-98112145D01*
X212698329Y-98061350D01*
X212766150Y-98044555D01*
X212832285Y-98067092D01*
G37*
%TD.AperFunction*%
%TA.AperFunction,Conductor*%
G36*
X213557458Y-95263008D02*
G01*
X213624337Y-95378847D01*
X213718919Y-95473429D01*
X213834758Y-95540308D01*
X213894896Y-95556421D01*
X213332122Y-96119195D01*
X213332122Y-96119196D01*
X213369406Y-96146285D01*
X213526170Y-96226161D01*
X213576966Y-96274136D01*
X213593761Y-96341957D01*
X213571223Y-96408092D01*
X213526170Y-96447131D01*
X213369144Y-96527140D01*
X213208372Y-96643948D01*
X213067860Y-96784460D01*
X212951052Y-96945232D01*
X212871324Y-97101707D01*
X212823349Y-97152503D01*
X212755528Y-97169298D01*
X212689393Y-97146760D01*
X212650354Y-97101707D01*
X212603736Y-97010215D01*
X212570626Y-96945233D01*
X212453820Y-96784463D01*
X212313303Y-96643946D01*
X212152533Y-96527140D01*
X211995506Y-96447130D01*
X211944711Y-96399156D01*
X211927916Y-96331335D01*
X211950453Y-96265200D01*
X211995508Y-96226161D01*
X212152261Y-96146291D01*
X212189555Y-96119195D01*
X211626781Y-95556421D01*
X211686920Y-95540308D01*
X211802759Y-95473429D01*
X211897341Y-95378847D01*
X211964220Y-95263008D01*
X211980334Y-95202869D01*
X212543107Y-95765642D01*
X212570201Y-95728352D01*
X212650354Y-95571044D01*
X212698328Y-95520248D01*
X212766149Y-95503453D01*
X212832284Y-95525990D01*
X212871324Y-95571044D01*
X212951480Y-95728359D01*
X212978569Y-95765642D01*
X212978570Y-95765643D01*
X213541343Y-95202869D01*
X213557458Y-95263008D01*
G37*
%TD.AperFunction*%
%TA.AperFunction,Conductor*%
G36*
X212832285Y-92987092D02*
G01*
X212871323Y-93032145D01*
X212951052Y-93188621D01*
X213067858Y-93349391D01*
X213208375Y-93489908D01*
X213369145Y-93606714D01*
X213526171Y-93686723D01*
X213576966Y-93734696D01*
X213593761Y-93802517D01*
X213571224Y-93868652D01*
X213526171Y-93907691D01*
X213369405Y-93987568D01*
X213332122Y-94014656D01*
X213332121Y-94014657D01*
X213894897Y-94577431D01*
X213834758Y-94593546D01*
X213718919Y-94660425D01*
X213624337Y-94755007D01*
X213557458Y-94870846D01*
X213541343Y-94930984D01*
X212978569Y-94368209D01*
X212978568Y-94368210D01*
X212951482Y-94405491D01*
X212871324Y-94562809D01*
X212823349Y-94613605D01*
X212755528Y-94630400D01*
X212689393Y-94607862D01*
X212650354Y-94562809D01*
X212570197Y-94405494D01*
X212543107Y-94368210D01*
X211980333Y-94930984D01*
X211964220Y-94870846D01*
X211897341Y-94755007D01*
X211802759Y-94660425D01*
X211686920Y-94593546D01*
X211626781Y-94577431D01*
X212189555Y-94014658D01*
X212189554Y-94014657D01*
X212152271Y-93987568D01*
X211995507Y-93907692D01*
X211944711Y-93859717D01*
X211927916Y-93791896D01*
X211950454Y-93725761D01*
X211995506Y-93686723D01*
X212152533Y-93606714D01*
X212313303Y-93489908D01*
X212453820Y-93349391D01*
X212570626Y-93188621D01*
X212650354Y-93032145D01*
X212698329Y-92981350D01*
X212766150Y-92964555D01*
X212832285Y-92987092D01*
G37*
%TD.AperFunction*%
%TA.AperFunction,Conductor*%
G36*
X212543107Y-85605642D02*
G01*
X212544522Y-85603696D01*
X212599852Y-85561031D01*
X212669466Y-85555053D01*
X212731260Y-85587660D01*
X212765617Y-85648499D01*
X212768839Y-85676583D01*
X212768839Y-85716771D01*
X212775240Y-85776299D01*
X212775242Y-85776306D01*
X212825484Y-85911013D01*
X212825488Y-85911020D01*
X212911648Y-86026114D01*
X212911651Y-86026117D01*
X213026745Y-86112277D01*
X213026752Y-86112281D01*
X213161459Y-86162523D01*
X213161466Y-86162525D01*
X213220994Y-86168926D01*
X213221011Y-86168927D01*
X213260329Y-86168927D01*
X213327368Y-86188612D01*
X213373123Y-86241416D01*
X213383067Y-86310574D01*
X213354042Y-86374130D01*
X213333214Y-86393245D01*
X213208378Y-86483943D01*
X213208372Y-86483948D01*
X213067860Y-86624460D01*
X212951052Y-86785232D01*
X212871324Y-86941707D01*
X212823349Y-86992503D01*
X212755528Y-87009298D01*
X212689393Y-86986760D01*
X212650354Y-86941707D01*
X212570625Y-86785232D01*
X212567605Y-86781075D01*
X212453820Y-86624463D01*
X212313303Y-86483946D01*
X212152533Y-86367140D01*
X211995506Y-86287130D01*
X211944711Y-86239156D01*
X211927916Y-86171335D01*
X211950453Y-86105200D01*
X211995508Y-86066161D01*
X212152261Y-85986291D01*
X212189555Y-85959195D01*
X211626781Y-85396421D01*
X211686920Y-85380308D01*
X211802759Y-85313429D01*
X211897341Y-85218847D01*
X211964220Y-85103008D01*
X211980334Y-85042869D01*
X212543107Y-85605642D01*
G37*
%TD.AperFunction*%
%TA.AperFunction,Conductor*%
G36*
X219682869Y-66856894D02*
G01*
X219728624Y-66909698D01*
X219739830Y-66961209D01*
X219739830Y-77141646D01*
X219720145Y-77208685D01*
X219667341Y-77254440D01*
X219615830Y-77265646D01*
X212814123Y-77265646D01*
X212813813Y-77265554D01*
X212624992Y-77265550D01*
X212624991Y-77265550D01*
X212624987Y-77265550D01*
X212351982Y-77301484D01*
X212241430Y-77331103D01*
X212086002Y-77372745D01*
X212085991Y-77372749D01*
X211831609Y-77478110D01*
X211831593Y-77478118D01*
X211593131Y-77615787D01*
X211593128Y-77615789D01*
X211374671Y-77783410D01*
X211374662Y-77783418D01*
X211179963Y-77978113D01*
X211179953Y-77978124D01*
X211012329Y-78196568D01*
X211012324Y-78196575D01*
X210874645Y-78435039D01*
X210874644Y-78435041D01*
X210873926Y-78436774D01*
X210769265Y-78689442D01*
X210697996Y-78955419D01*
X210662054Y-79228412D01*
X210662054Y-79503787D01*
X210697996Y-79776780D01*
X210697997Y-79776784D01*
X210769266Y-80042760D01*
X210874644Y-80297159D01*
X210877475Y-80302062D01*
X211012324Y-80535624D01*
X211012329Y-80535631D01*
X211179953Y-80754075D01*
X211179963Y-80754086D01*
X211374662Y-80948781D01*
X211374671Y-80948789D01*
X211593128Y-81116410D01*
X211593131Y-81116412D01*
X211597058Y-81118679D01*
X211831601Y-81254086D01*
X212086003Y-81359455D01*
X212351982Y-81430716D01*
X212624987Y-81466650D01*
X212762663Y-81466646D01*
X212762668Y-81466646D01*
X219615830Y-81466646D01*
X219682869Y-81486331D01*
X219728624Y-81539135D01*
X219739830Y-81590646D01*
X219739830Y-111082772D01*
X219720145Y-111149811D01*
X219667341Y-111195566D01*
X219615830Y-111206772D01*
X212828535Y-111206772D01*
X212828528Y-111206770D01*
X212762636Y-111206772D01*
X212689239Y-111206772D01*
X212688347Y-111206829D01*
X212624966Y-111206831D01*
X212351985Y-111242778D01*
X212351977Y-111242780D01*
X212086031Y-111314047D01*
X212086029Y-111314047D01*
X212086028Y-111314048D01*
X211831651Y-111419422D01*
X211831648Y-111419423D01*
X211831647Y-111419424D01*
X211831641Y-111419427D01*
X211593194Y-111557101D01*
X211374774Y-111724708D01*
X211374762Y-111724718D01*
X211180081Y-111919404D01*
X211180076Y-111919410D01*
X211012464Y-112137849D01*
X211012460Y-112137856D01*
X210874793Y-112376308D01*
X210819430Y-112509971D01*
X210769427Y-112630691D01*
X210698166Y-112896642D01*
X210662228Y-113169629D01*
X210662228Y-113444970D01*
X210698166Y-113717957D01*
X210765683Y-113969934D01*
X210769428Y-113983911D01*
X210874793Y-114238292D01*
X211012460Y-114476744D01*
X211012462Y-114476746D01*
X211012464Y-114476750D01*
X211180076Y-114695189D01*
X211180081Y-114695195D01*
X211326262Y-114841380D01*
X211374765Y-114889884D01*
X211374772Y-114889889D01*
X211374774Y-114889891D01*
X211593194Y-115057498D01*
X211593198Y-115057500D01*
X211593203Y-115057504D01*
X211831651Y-115195178D01*
X212086028Y-115300552D01*
X212351984Y-115371821D01*
X212624966Y-115407768D01*
X212696751Y-115407770D01*
X212696759Y-115407772D01*
X212762636Y-115407772D01*
X212828528Y-115407774D01*
X212828531Y-115407772D01*
X212837151Y-115407773D01*
X212837180Y-115407772D01*
X219615830Y-115407772D01*
X219682869Y-115427457D01*
X219728624Y-115480261D01*
X219739830Y-115531772D01*
X219739830Y-125712209D01*
X219720145Y-125779248D01*
X219667341Y-125825003D01*
X219615830Y-125836209D01*
X160864830Y-125836209D01*
X160797791Y-125816524D01*
X160752036Y-125763720D01*
X160740830Y-125712209D01*
X160740830Y-119980135D01*
X173562350Y-119980135D01*
X173562350Y-122497170D01*
X173562351Y-122497176D01*
X173568758Y-122556783D01*
X173619052Y-122691628D01*
X173619056Y-122691635D01*
X173705302Y-122806844D01*
X173705305Y-122806847D01*
X173820514Y-122893093D01*
X173820521Y-122893097D01*
X173955367Y-122943391D01*
X173955366Y-122943391D01*
X173962294Y-122944135D01*
X174014977Y-122949800D01*
X176532022Y-122949799D01*
X176591633Y-122943391D01*
X176726481Y-122893096D01*
X176841696Y-122806846D01*
X176927946Y-122691631D01*
X176978241Y-122556783D01*
X176984650Y-122497173D01*
X176984649Y-121159158D01*
X176984649Y-119980155D01*
X178562850Y-119980155D01*
X178562850Y-120988650D01*
X179503455Y-120988650D01*
X179497417Y-121003228D01*
X179466400Y-121159158D01*
X179466400Y-121318142D01*
X179497417Y-121474072D01*
X179503455Y-121488650D01*
X178562850Y-121488650D01*
X178562850Y-122497144D01*
X178569251Y-122556672D01*
X178569253Y-122556679D01*
X178619495Y-122691386D01*
X178619499Y-122691393D01*
X178705659Y-122806487D01*
X178705662Y-122806490D01*
X178820756Y-122892650D01*
X178820763Y-122892654D01*
X178955470Y-122942896D01*
X178955477Y-122942898D01*
X179015005Y-122949299D01*
X179015022Y-122949300D01*
X180023500Y-122949300D01*
X180023500Y-122008694D01*
X180038078Y-122014733D01*
X180194008Y-122045750D01*
X180352992Y-122045750D01*
X180508922Y-122014733D01*
X180523500Y-122008694D01*
X180523500Y-122949300D01*
X181531978Y-122949300D01*
X181531994Y-122949299D01*
X181591522Y-122942898D01*
X181591529Y-122942896D01*
X181726236Y-122892654D01*
X181726243Y-122892650D01*
X181841337Y-122806490D01*
X181841340Y-122806487D01*
X181927500Y-122691393D01*
X181927504Y-122691386D01*
X181977746Y-122556679D01*
X181977748Y-122556672D01*
X181984149Y-122497144D01*
X181984150Y-122497127D01*
X181984150Y-121488650D01*
X181043545Y-121488650D01*
X181049583Y-121474072D01*
X181080600Y-121318142D01*
X181080600Y-121159158D01*
X181049583Y-121003228D01*
X181043545Y-120988650D01*
X181984150Y-120988650D01*
X181984150Y-119980172D01*
X181984149Y-119980155D01*
X181977748Y-119920627D01*
X181977746Y-119920620D01*
X181927504Y-119785913D01*
X181927500Y-119785906D01*
X181841340Y-119670812D01*
X181841337Y-119670809D01*
X181726243Y-119584649D01*
X181726236Y-119584645D01*
X181591529Y-119534403D01*
X181591522Y-119534401D01*
X181531994Y-119528000D01*
X180523500Y-119528000D01*
X180523500Y-120468605D01*
X180508922Y-120462567D01*
X180352992Y-120431550D01*
X180194008Y-120431550D01*
X180038078Y-120462567D01*
X180023500Y-120468605D01*
X180023500Y-119528000D01*
X179015005Y-119528000D01*
X178955477Y-119534401D01*
X178955470Y-119534403D01*
X178820763Y-119584645D01*
X178820756Y-119584649D01*
X178705662Y-119670809D01*
X178705659Y-119670812D01*
X178619499Y-119785906D01*
X178619495Y-119785913D01*
X178569253Y-119920620D01*
X178569251Y-119920627D01*
X178562850Y-119980155D01*
X176984649Y-119980155D01*
X176984649Y-119980129D01*
X176984648Y-119980123D01*
X176984647Y-119980116D01*
X176978241Y-119920517D01*
X176928034Y-119785906D01*
X176927947Y-119785671D01*
X176927943Y-119785664D01*
X176841697Y-119670455D01*
X176841694Y-119670452D01*
X176726485Y-119584206D01*
X176726478Y-119584202D01*
X176591632Y-119533908D01*
X176591633Y-119533908D01*
X176532033Y-119527501D01*
X176532031Y-119527500D01*
X176532023Y-119527500D01*
X176532014Y-119527500D01*
X174014979Y-119527500D01*
X174014973Y-119527501D01*
X173955366Y-119533908D01*
X173820521Y-119584202D01*
X173820514Y-119584206D01*
X173705305Y-119670452D01*
X173705302Y-119670455D01*
X173619056Y-119785664D01*
X173619052Y-119785671D01*
X173568758Y-119920517D01*
X173562351Y-119980116D01*
X173562351Y-119980123D01*
X173562350Y-119980135D01*
X160740830Y-119980135D01*
X160740830Y-115531772D01*
X160760515Y-115464733D01*
X160813319Y-115418978D01*
X160864830Y-115407772D01*
X167666561Y-115407772D01*
X167666741Y-115407825D01*
X167717981Y-115407827D01*
X167717981Y-115407828D01*
X167855661Y-115407835D01*
X168128669Y-115371908D01*
X168128678Y-115371905D01*
X168128681Y-115371905D01*
X168394644Y-115300654D01*
X168394644Y-115300653D01*
X168394651Y-115300652D01*
X168589876Y-115219796D01*
X168649048Y-115195290D01*
X168649048Y-115195289D01*
X168649057Y-115195286D01*
X168887532Y-115057614D01*
X169105997Y-114889992D01*
X169300713Y-114695288D01*
X169357113Y-114621789D01*
X169468337Y-114476846D01*
X169468340Y-114476841D01*
X169468347Y-114476832D01*
X169606033Y-114238365D01*
X169711413Y-113983965D01*
X169728244Y-113921153D01*
X172699500Y-113921153D01*
X172699500Y-114078846D01*
X172730261Y-114233489D01*
X172730264Y-114233501D01*
X172790602Y-114379172D01*
X172790609Y-114379185D01*
X172878210Y-114510288D01*
X172878213Y-114510292D01*
X172989707Y-114621786D01*
X172989711Y-114621789D01*
X173120814Y-114709390D01*
X173120827Y-114709397D01*
X173266498Y-114769735D01*
X173266503Y-114769737D01*
X173421153Y-114800499D01*
X173421156Y-114800500D01*
X173421158Y-114800500D01*
X173578844Y-114800500D01*
X173578845Y-114800499D01*
X173733497Y-114769737D01*
X173846166Y-114723067D01*
X173879172Y-114709397D01*
X173879172Y-114709396D01*
X173879179Y-114709394D01*
X174010289Y-114621789D01*
X174121789Y-114510289D01*
X174209394Y-114379179D01*
X174269737Y-114233497D01*
X174300500Y-114078842D01*
X174300500Y-113921158D01*
X174300500Y-113921155D01*
X174300499Y-113921153D01*
X175699500Y-113921153D01*
X175699500Y-114078846D01*
X175730261Y-114233489D01*
X175730264Y-114233501D01*
X175790602Y-114379172D01*
X175790609Y-114379185D01*
X175878210Y-114510288D01*
X175878213Y-114510292D01*
X175989707Y-114621786D01*
X175989711Y-114621789D01*
X176120814Y-114709390D01*
X176120827Y-114709397D01*
X176266498Y-114769735D01*
X176266503Y-114769737D01*
X176421153Y-114800499D01*
X176421156Y-114800500D01*
X176421158Y-114800500D01*
X176578844Y-114800500D01*
X176578845Y-114800499D01*
X176733497Y-114769737D01*
X176846166Y-114723067D01*
X176879172Y-114709397D01*
X176879172Y-114709396D01*
X176879179Y-114709394D01*
X177010289Y-114621789D01*
X177121789Y-114510289D01*
X177209394Y-114379179D01*
X177269737Y-114233497D01*
X177300500Y-114078842D01*
X177300500Y-113921158D01*
X177300500Y-113921155D01*
X177300499Y-113921153D01*
X178699500Y-113921153D01*
X178699500Y-114078846D01*
X178730261Y-114233489D01*
X178730264Y-114233501D01*
X178790602Y-114379172D01*
X178790609Y-114379185D01*
X178878210Y-114510288D01*
X178878213Y-114510292D01*
X178989707Y-114621786D01*
X178989711Y-114621789D01*
X179120814Y-114709390D01*
X179120827Y-114709397D01*
X179266498Y-114769735D01*
X179266503Y-114769737D01*
X179421153Y-114800499D01*
X179421156Y-114800500D01*
X179421158Y-114800500D01*
X179578844Y-114800500D01*
X179578845Y-114800499D01*
X179733497Y-114769737D01*
X179846166Y-114723067D01*
X179879172Y-114709397D01*
X179879172Y-114709396D01*
X179879179Y-114709394D01*
X180010289Y-114621789D01*
X180121789Y-114510289D01*
X180209394Y-114379179D01*
X180269737Y-114233497D01*
X180300500Y-114078842D01*
X180300500Y-113921158D01*
X180300500Y-113921155D01*
X180300499Y-113921153D01*
X181699500Y-113921153D01*
X181699500Y-114078846D01*
X181730261Y-114233489D01*
X181730264Y-114233501D01*
X181790602Y-114379172D01*
X181790609Y-114379185D01*
X181878210Y-114510288D01*
X181878213Y-114510292D01*
X181989707Y-114621786D01*
X181989711Y-114621789D01*
X182120814Y-114709390D01*
X182120827Y-114709397D01*
X182266498Y-114769735D01*
X182266503Y-114769737D01*
X182421153Y-114800499D01*
X182421156Y-114800500D01*
X182421158Y-114800500D01*
X182578844Y-114800500D01*
X182578845Y-114800499D01*
X182733497Y-114769737D01*
X182846166Y-114723067D01*
X182879172Y-114709397D01*
X182879172Y-114709396D01*
X182879179Y-114709394D01*
X183010289Y-114621789D01*
X183121789Y-114510289D01*
X183209394Y-114379179D01*
X183269737Y-114233497D01*
X183300500Y-114078842D01*
X183300500Y-113921158D01*
X183300500Y-113921155D01*
X183300499Y-113921153D01*
X183269738Y-113766510D01*
X183269737Y-113766503D01*
X183237904Y-113689650D01*
X183209397Y-113620827D01*
X183209390Y-113620814D01*
X183121789Y-113489711D01*
X183121786Y-113489707D01*
X183010292Y-113378213D01*
X183010288Y-113378210D01*
X182879185Y-113290609D01*
X182879172Y-113290602D01*
X182733501Y-113230264D01*
X182733489Y-113230261D01*
X182578845Y-113199500D01*
X182578842Y-113199500D01*
X182421158Y-113199500D01*
X182421155Y-113199500D01*
X182266510Y-113230261D01*
X182266498Y-113230264D01*
X182120827Y-113290602D01*
X182120814Y-113290609D01*
X181989711Y-113378210D01*
X181989707Y-113378213D01*
X181878213Y-113489707D01*
X181878210Y-113489711D01*
X181790609Y-113620814D01*
X181790602Y-113620827D01*
X181730264Y-113766498D01*
X181730261Y-113766510D01*
X181699500Y-113921153D01*
X180300499Y-113921153D01*
X180269738Y-113766510D01*
X180269737Y-113766503D01*
X180237904Y-113689650D01*
X180209397Y-113620827D01*
X180209390Y-113620814D01*
X180121789Y-113489711D01*
X180121786Y-113489707D01*
X180010292Y-113378213D01*
X180010288Y-113378210D01*
X179879185Y-113290609D01*
X179879172Y-113290602D01*
X179733501Y-113230264D01*
X179733489Y-113230261D01*
X179578845Y-113199500D01*
X179578842Y-113199500D01*
X179421158Y-113199500D01*
X179421155Y-113199500D01*
X179266510Y-113230261D01*
X179266498Y-113230264D01*
X179120827Y-113290602D01*
X179120814Y-113290609D01*
X178989711Y-113378210D01*
X178989707Y-113378213D01*
X178878213Y-113489707D01*
X178878210Y-113489711D01*
X178790609Y-113620814D01*
X178790602Y-113620827D01*
X178730264Y-113766498D01*
X178730261Y-113766510D01*
X178699500Y-113921153D01*
X177300499Y-113921153D01*
X177269738Y-113766510D01*
X177269737Y-113766503D01*
X177237904Y-113689650D01*
X177209397Y-113620827D01*
X177209390Y-113620814D01*
X177121789Y-113489711D01*
X177121786Y-113489707D01*
X177010292Y-113378213D01*
X177010288Y-113378210D01*
X176879185Y-113290609D01*
X176879172Y-113290602D01*
X176733501Y-113230264D01*
X176733489Y-113230261D01*
X176578845Y-113199500D01*
X176578842Y-113199500D01*
X176421158Y-113199500D01*
X176421155Y-113199500D01*
X176266510Y-113230261D01*
X176266498Y-113230264D01*
X176120827Y-113290602D01*
X176120814Y-113290609D01*
X175989711Y-113378210D01*
X175989707Y-113378213D01*
X175878213Y-113489707D01*
X175878210Y-113489711D01*
X175790609Y-113620814D01*
X175790602Y-113620827D01*
X175730264Y-113766498D01*
X175730261Y-113766510D01*
X175699500Y-113921153D01*
X174300499Y-113921153D01*
X174269738Y-113766510D01*
X174269737Y-113766503D01*
X174237904Y-113689650D01*
X174209397Y-113620827D01*
X174209390Y-113620814D01*
X174121789Y-113489711D01*
X174121786Y-113489707D01*
X174010292Y-113378213D01*
X174010288Y-113378210D01*
X173879185Y-113290609D01*
X173879172Y-113290602D01*
X173733501Y-113230264D01*
X173733489Y-113230261D01*
X173578845Y-113199500D01*
X173578842Y-113199500D01*
X173421158Y-113199500D01*
X173421155Y-113199500D01*
X173266510Y-113230261D01*
X173266498Y-113230264D01*
X173120827Y-113290602D01*
X173120814Y-113290609D01*
X172989711Y-113378210D01*
X172989707Y-113378213D01*
X172878213Y-113489707D01*
X172878210Y-113489711D01*
X172790609Y-113620814D01*
X172790602Y-113620827D01*
X172730264Y-113766498D01*
X172730261Y-113766510D01*
X172699500Y-113921153D01*
X169728244Y-113921153D01*
X169782684Y-113717987D01*
X169818628Y-113444981D01*
X169818628Y-113169620D01*
X169782685Y-112896614D01*
X169711413Y-112630636D01*
X169675795Y-112544649D01*
X169606039Y-112376248D01*
X169606031Y-112376233D01*
X169605431Y-112375193D01*
X169468348Y-112137769D01*
X169468345Y-112137765D01*
X169468338Y-112137754D01*
X169300721Y-111919321D01*
X169300720Y-111919320D01*
X169300717Y-111919317D01*
X169300714Y-111919313D01*
X169105998Y-111724609D01*
X169105993Y-111724605D01*
X169105992Y-111724604D01*
X168887536Y-111556987D01*
X168686262Y-111440792D01*
X168649058Y-111419314D01*
X168649056Y-111419313D01*
X168649054Y-111419312D01*
X168649050Y-111419310D01*
X168394646Y-111313946D01*
X168128682Y-111242694D01*
X168128671Y-111242692D01*
X167855666Y-111206765D01*
X167855663Y-111206765D01*
X167717982Y-111206772D01*
X160864830Y-111206772D01*
X160797791Y-111187087D01*
X160752036Y-111134283D01*
X160740830Y-111082772D01*
X160740830Y-108296803D01*
X164859250Y-108296803D01*
X164859250Y-108553078D01*
X164892698Y-108807150D01*
X164892701Y-108807163D01*
X164959029Y-109054706D01*
X165057099Y-109291467D01*
X165057101Y-109291471D01*
X165185239Y-109513410D01*
X165185240Y-109513411D01*
X165266424Y-109619212D01*
X165802786Y-109082849D01*
X165895128Y-109209946D01*
X166029245Y-109344063D01*
X166156339Y-109436402D01*
X165619977Y-109972764D01*
X165619977Y-109972765D01*
X165725779Y-110053950D01*
X165725780Y-110053951D01*
X165947719Y-110182089D01*
X165947723Y-110182091D01*
X166184484Y-110280161D01*
X166432027Y-110346489D01*
X166432040Y-110346492D01*
X166686112Y-110379941D01*
X166942388Y-110379941D01*
X167196459Y-110346492D01*
X167196472Y-110346489D01*
X167444015Y-110280161D01*
X167680776Y-110182091D01*
X167680787Y-110182086D01*
X167699723Y-110171153D01*
X181699500Y-110171153D01*
X181699500Y-110328846D01*
X181730261Y-110483489D01*
X181730264Y-110483501D01*
X181790602Y-110629172D01*
X181790609Y-110629185D01*
X181878210Y-110760288D01*
X181878213Y-110760292D01*
X181989707Y-110871786D01*
X181989711Y-110871789D01*
X182120814Y-110959390D01*
X182120827Y-110959397D01*
X182266498Y-111019735D01*
X182266503Y-111019737D01*
X182421153Y-111050499D01*
X182421156Y-111050500D01*
X182421158Y-111050500D01*
X189609196Y-111050500D01*
X189676235Y-111070185D01*
X189700460Y-111090554D01*
X190293274Y-111735051D01*
X190324170Y-111797717D01*
X190326009Y-111818995D01*
X190326009Y-112702337D01*
X190356770Y-112856980D01*
X190356773Y-112856992D01*
X190417111Y-113002663D01*
X190417118Y-113002676D01*
X190504718Y-113133778D01*
X190504719Y-113133779D01*
X190504720Y-113133780D01*
X190663182Y-113292242D01*
X190696666Y-113353564D01*
X190699500Y-113379922D01*
X190699500Y-117884155D01*
X190679815Y-117951194D01*
X190627011Y-117996949D01*
X190557853Y-118006893D01*
X190528048Y-117998716D01*
X190483501Y-117980264D01*
X190483489Y-117980261D01*
X190328845Y-117949500D01*
X190328842Y-117949500D01*
X190171158Y-117949500D01*
X190171155Y-117949500D01*
X190016510Y-117980261D01*
X190016498Y-117980264D01*
X189870827Y-118040602D01*
X189870814Y-118040609D01*
X189739711Y-118128210D01*
X189739707Y-118128213D01*
X189712681Y-118155240D01*
X189651358Y-118188725D01*
X189581666Y-118183741D01*
X189537319Y-118155240D01*
X189510292Y-118128213D01*
X189510288Y-118128210D01*
X189379185Y-118040609D01*
X189379172Y-118040602D01*
X189233501Y-117980264D01*
X189233489Y-117980261D01*
X189078845Y-117949500D01*
X189078842Y-117949500D01*
X188921158Y-117949500D01*
X188921155Y-117949500D01*
X188766510Y-117980261D01*
X188766498Y-117980264D01*
X188620827Y-118040602D01*
X188620814Y-118040609D01*
X188489711Y-118128210D01*
X188489707Y-118128213D01*
X188462681Y-118155240D01*
X188401358Y-118188725D01*
X188331666Y-118183741D01*
X188287319Y-118155240D01*
X188260292Y-118128213D01*
X188260288Y-118128210D01*
X188129185Y-118040609D01*
X188129172Y-118040602D01*
X187983501Y-117980264D01*
X187983489Y-117980261D01*
X187828845Y-117949500D01*
X187828842Y-117949500D01*
X187671158Y-117949500D01*
X187671155Y-117949500D01*
X187516510Y-117980261D01*
X187516498Y-117980264D01*
X187370827Y-118040602D01*
X187370814Y-118040609D01*
X187239711Y-118128210D01*
X187239707Y-118128213D01*
X187128213Y-118239707D01*
X187128210Y-118239711D01*
X187040609Y-118370814D01*
X187040602Y-118370827D01*
X186980264Y-118516498D01*
X186980261Y-118516510D01*
X186949500Y-118671153D01*
X186949500Y-118828846D01*
X186980261Y-118983489D01*
X186980264Y-118983501D01*
X187040602Y-119129172D01*
X187040609Y-119129185D01*
X187128210Y-119260288D01*
X187128213Y-119260292D01*
X187239707Y-119371786D01*
X187239711Y-119371789D01*
X187370814Y-119459390D01*
X187370827Y-119459397D01*
X187516498Y-119519735D01*
X187516503Y-119519737D01*
X187671153Y-119550499D01*
X187671156Y-119550500D01*
X187671158Y-119550500D01*
X187828844Y-119550500D01*
X187828845Y-119550499D01*
X187983497Y-119519737D01*
X188129179Y-119459394D01*
X188260289Y-119371789D01*
X188260292Y-119371786D01*
X188287319Y-119344760D01*
X188348642Y-119311275D01*
X188418334Y-119316259D01*
X188462681Y-119344760D01*
X188489707Y-119371786D01*
X188489711Y-119371789D01*
X188620814Y-119459390D01*
X188620827Y-119459397D01*
X188766498Y-119519735D01*
X188766503Y-119519737D01*
X188921153Y-119550499D01*
X188921156Y-119550500D01*
X188921158Y-119550500D01*
X189078844Y-119550500D01*
X189078845Y-119550499D01*
X189233497Y-119519737D01*
X189379179Y-119459394D01*
X189510289Y-119371789D01*
X189510292Y-119371786D01*
X189537319Y-119344760D01*
X189598642Y-119311275D01*
X189668334Y-119316259D01*
X189712681Y-119344760D01*
X189739707Y-119371786D01*
X189739711Y-119371789D01*
X189870814Y-119459390D01*
X189870827Y-119459397D01*
X190016498Y-119519735D01*
X190016503Y-119519737D01*
X190171153Y-119550499D01*
X190171156Y-119550500D01*
X190171158Y-119550500D01*
X190328844Y-119550500D01*
X190328845Y-119550499D01*
X190483497Y-119519737D01*
X190629179Y-119459394D01*
X190760289Y-119371789D01*
X190871789Y-119260289D01*
X190903274Y-119213167D01*
X190956884Y-119168363D01*
X191026209Y-119159654D01*
X191075267Y-119178956D01*
X191120821Y-119209394D01*
X191120823Y-119209395D01*
X191120827Y-119209397D01*
X191263635Y-119268549D01*
X191266503Y-119269737D01*
X191421153Y-119300499D01*
X191421156Y-119300500D01*
X191421158Y-119300500D01*
X191578844Y-119300500D01*
X191578845Y-119300499D01*
X191624831Y-119291352D01*
X191739472Y-119268549D01*
X191739950Y-119270954D01*
X191799029Y-119270422D01*
X191852850Y-119302028D01*
X196165196Y-123614374D01*
X196165206Y-123614385D01*
X196169536Y-123618715D01*
X196169537Y-123618716D01*
X196281341Y-123730520D01*
X196281343Y-123730521D01*
X196281347Y-123730524D01*
X196418266Y-123809573D01*
X196418273Y-123809577D01*
X196530076Y-123839534D01*
X196570999Y-123850500D01*
X196571000Y-123850500D01*
X201420234Y-123850500D01*
X201487273Y-123870185D01*
X201489125Y-123871398D01*
X201620814Y-123959390D01*
X201620827Y-123959397D01*
X201766498Y-124019735D01*
X201766503Y-124019737D01*
X201921153Y-124050499D01*
X201921156Y-124050500D01*
X201921158Y-124050500D01*
X202078844Y-124050500D01*
X202078845Y-124050499D01*
X202233497Y-124019737D01*
X202379179Y-123959394D01*
X202510289Y-123871789D01*
X202621789Y-123760289D01*
X202709394Y-123629179D01*
X202769737Y-123483497D01*
X202800500Y-123328842D01*
X202800500Y-123171158D01*
X202800500Y-123171155D01*
X202800499Y-123171153D01*
X204449500Y-123171153D01*
X204449500Y-123328846D01*
X204480261Y-123483489D01*
X204480264Y-123483501D01*
X204540602Y-123629172D01*
X204540609Y-123629185D01*
X204628210Y-123760288D01*
X204628213Y-123760292D01*
X204739707Y-123871786D01*
X204739711Y-123871789D01*
X204870814Y-123959390D01*
X204870827Y-123959397D01*
X205016498Y-124019735D01*
X205016503Y-124019737D01*
X205171153Y-124050499D01*
X205171156Y-124050500D01*
X205171158Y-124050500D01*
X205328844Y-124050500D01*
X205328845Y-124050499D01*
X205483497Y-124019737D01*
X205629179Y-123959394D01*
X205760289Y-123871789D01*
X205871789Y-123760289D01*
X205959394Y-123629179D01*
X206019737Y-123483497D01*
X206050500Y-123328842D01*
X206050500Y-123171158D01*
X206050500Y-123171155D01*
X206050499Y-123171153D01*
X206019738Y-123016510D01*
X206019737Y-123016503D01*
X205991901Y-122949300D01*
X205959397Y-122870827D01*
X205959390Y-122870814D01*
X205871789Y-122739711D01*
X205871786Y-122739707D01*
X205760292Y-122628213D01*
X205760288Y-122628210D01*
X205629185Y-122540609D01*
X205629172Y-122540602D01*
X205483501Y-122480264D01*
X205483489Y-122480261D01*
X205328845Y-122449500D01*
X205328842Y-122449500D01*
X205171158Y-122449500D01*
X205171155Y-122449500D01*
X205016510Y-122480261D01*
X205016498Y-122480264D01*
X204870827Y-122540602D01*
X204870814Y-122540609D01*
X204739711Y-122628210D01*
X204739707Y-122628213D01*
X204628213Y-122739707D01*
X204628210Y-122739711D01*
X204540609Y-122870814D01*
X204540602Y-122870827D01*
X204480264Y-123016498D01*
X204480261Y-123016510D01*
X204449500Y-123171153D01*
X202800499Y-123171153D01*
X202769738Y-123016510D01*
X202769737Y-123016503D01*
X202741901Y-122949300D01*
X202709397Y-122870827D01*
X202709390Y-122870814D01*
X202621789Y-122739711D01*
X202621786Y-122739707D01*
X202510292Y-122628213D01*
X202510288Y-122628210D01*
X202379185Y-122540609D01*
X202379172Y-122540602D01*
X202233501Y-122480264D01*
X202233489Y-122480261D01*
X202078845Y-122449500D01*
X202078842Y-122449500D01*
X201921158Y-122449500D01*
X201921155Y-122449500D01*
X201766510Y-122480261D01*
X201766498Y-122480264D01*
X201620827Y-122540602D01*
X201620814Y-122540609D01*
X201489125Y-122628602D01*
X201422447Y-122649480D01*
X201420234Y-122649500D01*
X196950154Y-122649500D01*
X196883115Y-122629815D01*
X196862473Y-122613181D01*
X192336819Y-118087527D01*
X192303334Y-118026204D01*
X192300500Y-117999846D01*
X192300500Y-116482760D01*
X196923736Y-116482760D01*
X196923736Y-116640453D01*
X196954497Y-116795096D01*
X196954500Y-116795108D01*
X197014838Y-116940779D01*
X197014845Y-116940792D01*
X197102446Y-117071895D01*
X197102449Y-117071899D01*
X197213943Y-117183393D01*
X197213947Y-117183396D01*
X197345050Y-117270997D01*
X197345063Y-117271004D01*
X197490734Y-117331342D01*
X197490739Y-117331344D01*
X197645389Y-117362106D01*
X197645392Y-117362107D01*
X197645394Y-117362107D01*
X197803080Y-117362107D01*
X197803081Y-117362106D01*
X197957733Y-117331344D01*
X198103415Y-117271001D01*
X198234525Y-117183396D01*
X198346025Y-117071896D01*
X198433630Y-116940786D01*
X198493973Y-116795104D01*
X198524736Y-116640449D01*
X198524736Y-116482765D01*
X198524736Y-116482762D01*
X198524735Y-116482760D01*
X198493974Y-116328117D01*
X198493973Y-116328110D01*
X198493971Y-116328105D01*
X198433633Y-116182434D01*
X198433626Y-116182421D01*
X198346025Y-116051318D01*
X198346022Y-116051314D01*
X198234528Y-115939820D01*
X198234524Y-115939817D01*
X198103421Y-115852216D01*
X198103408Y-115852209D01*
X197957737Y-115791871D01*
X197957725Y-115791868D01*
X197803081Y-115761107D01*
X197803078Y-115761107D01*
X197645394Y-115761107D01*
X197645391Y-115761107D01*
X197490746Y-115791868D01*
X197490734Y-115791871D01*
X197345063Y-115852209D01*
X197345050Y-115852216D01*
X197213947Y-115939817D01*
X197213943Y-115939820D01*
X197102449Y-116051314D01*
X197102446Y-116051318D01*
X197014845Y-116182421D01*
X197014838Y-116182434D01*
X196954500Y-116328105D01*
X196954497Y-116328117D01*
X196923736Y-116482760D01*
X192300500Y-116482760D01*
X192300500Y-113664937D01*
X192320185Y-113597898D01*
X192372989Y-113552143D01*
X192442147Y-113542199D01*
X192493391Y-113561835D01*
X192548330Y-113598544D01*
X192548332Y-113598545D01*
X192548336Y-113598547D01*
X192694007Y-113658885D01*
X192694012Y-113658887D01*
X192848662Y-113689649D01*
X192848665Y-113689650D01*
X192848667Y-113689650D01*
X193006353Y-113689650D01*
X193006354Y-113689649D01*
X193161006Y-113658887D01*
X193283917Y-113607975D01*
X193353386Y-113600507D01*
X193378818Y-113607975D01*
X193501732Y-113658887D01*
X193656382Y-113689649D01*
X193656385Y-113689650D01*
X193656387Y-113689650D01*
X193814073Y-113689650D01*
X193814074Y-113689649D01*
X193968726Y-113658887D01*
X194114408Y-113598544D01*
X194245518Y-113510939D01*
X194357018Y-113399439D01*
X194444623Y-113268329D01*
X194504966Y-113122647D01*
X194535729Y-112967992D01*
X194535729Y-112810308D01*
X194535729Y-112810305D01*
X194535728Y-112810303D01*
X194504967Y-112655660D01*
X194504966Y-112655653D01*
X194500415Y-112644666D01*
X194444626Y-112509977D01*
X194444619Y-112509964D01*
X194357018Y-112378861D01*
X194357015Y-112378857D01*
X194245521Y-112267363D01*
X194245517Y-112267360D01*
X194114414Y-112179759D01*
X194114401Y-112179752D01*
X193968730Y-112119414D01*
X193968718Y-112119411D01*
X193814074Y-112088650D01*
X193814071Y-112088650D01*
X193656387Y-112088650D01*
X193656382Y-112088650D01*
X193574412Y-112104955D01*
X193567632Y-112104348D01*
X193561299Y-112106842D01*
X193533279Y-112101274D01*
X193504820Y-112098728D01*
X193499443Y-112094551D01*
X193492769Y-112093225D01*
X193472209Y-112073395D01*
X193449643Y-112055865D01*
X193447378Y-112049445D01*
X193442479Y-112044720D01*
X193435902Y-112016914D01*
X193426399Y-111989975D01*
X193427582Y-111981737D01*
X193426397Y-111976726D01*
X193431595Y-111953806D01*
X193433276Y-111942109D01*
X193434385Y-111938962D01*
X193493973Y-111795104D01*
X193505457Y-111737368D01*
X193508399Y-111729024D01*
X193523856Y-111707578D01*
X193536110Y-111684153D01*
X193545210Y-111677953D01*
X193549254Y-111672344D01*
X193559186Y-111668433D01*
X193577888Y-111655693D01*
X193678417Y-111614054D01*
X193809527Y-111526449D01*
X193921027Y-111414949D01*
X194008632Y-111283839D01*
X194068975Y-111138157D01*
X194099738Y-110983502D01*
X194099738Y-110825818D01*
X194099738Y-110825815D01*
X194099737Y-110825813D01*
X194071217Y-110682434D01*
X194068975Y-110671163D01*
X194052557Y-110631526D01*
X194043677Y-110610087D01*
X194036208Y-110540618D01*
X194067483Y-110478139D01*
X194127572Y-110442487D01*
X194158238Y-110438635D01*
X196595752Y-110438635D01*
X196662791Y-110458320D01*
X196708546Y-110511124D01*
X196718490Y-110580282D01*
X196698854Y-110631526D01*
X196664846Y-110682421D01*
X196664839Y-110682434D01*
X196604501Y-110828105D01*
X196604498Y-110828117D01*
X196573737Y-110982760D01*
X196573737Y-111140453D01*
X196604498Y-111295096D01*
X196604501Y-111295108D01*
X196664839Y-111440779D01*
X196664846Y-111440792D01*
X196752447Y-111571895D01*
X196752450Y-111571899D01*
X196863944Y-111683393D01*
X196863948Y-111683396D01*
X196995051Y-111770997D01*
X196995064Y-111771004D01*
X197140735Y-111831342D01*
X197140740Y-111831344D01*
X197295390Y-111862106D01*
X197295393Y-111862107D01*
X197295395Y-111862107D01*
X197453081Y-111862107D01*
X197453082Y-111862106D01*
X197607734Y-111831344D01*
X197753416Y-111771001D01*
X197884526Y-111683396D01*
X197996026Y-111571896D01*
X198083631Y-111440786D01*
X198143974Y-111295104D01*
X198174737Y-111140449D01*
X198174737Y-110982765D01*
X198174737Y-110982762D01*
X198174736Y-110982760D01*
X198152662Y-110871789D01*
X198143974Y-110828110D01*
X198115882Y-110760289D01*
X198083634Y-110682434D01*
X198083627Y-110682421D01*
X198049620Y-110631526D01*
X198028742Y-110564848D01*
X198047227Y-110497468D01*
X198099205Y-110450778D01*
X198152722Y-110438635D01*
X198940709Y-110438635D01*
X198940710Y-110438634D01*
X199095362Y-110407872D01*
X199241044Y-110347529D01*
X199372154Y-110259924D01*
X201740259Y-107891819D01*
X201801582Y-107858334D01*
X201827940Y-107855500D01*
X202297060Y-107855500D01*
X202364099Y-107875185D01*
X202384741Y-107891819D01*
X204148410Y-109655488D01*
X204181895Y-109716811D01*
X204184729Y-109743169D01*
X204184729Y-110243382D01*
X204215490Y-110398025D01*
X204215493Y-110398037D01*
X204275831Y-110543708D01*
X204275838Y-110543721D01*
X204363439Y-110674824D01*
X204363442Y-110674828D01*
X204474936Y-110786322D01*
X204474940Y-110786325D01*
X204606043Y-110873926D01*
X204606056Y-110873933D01*
X204751727Y-110934271D01*
X204751732Y-110934273D01*
X204878003Y-110959390D01*
X204906382Y-110965035D01*
X204906385Y-110965036D01*
X204906387Y-110965036D01*
X205064073Y-110965036D01*
X205064074Y-110965035D01*
X205218726Y-110934273D01*
X205364408Y-110873930D01*
X205495518Y-110786325D01*
X205607018Y-110674825D01*
X205694623Y-110543715D01*
X205754966Y-110398033D01*
X205785729Y-110243378D01*
X205785729Y-109281387D01*
X205785729Y-109281384D01*
X205785728Y-109281382D01*
X205754967Y-109126739D01*
X205754966Y-109126732D01*
X205725132Y-109054706D01*
X205694626Y-108981056D01*
X205694619Y-108981043D01*
X205608848Y-108852679D01*
X205607018Y-108849940D01*
X205495518Y-108738440D01*
X202836819Y-106079741D01*
X202803334Y-106018418D01*
X202800500Y-105992060D01*
X202800500Y-101174500D01*
X202820185Y-101107461D01*
X202872989Y-101061706D01*
X202924500Y-101050500D01*
X209078844Y-101050500D01*
X209078845Y-101050499D01*
X209233497Y-101019737D01*
X209379179Y-100959394D01*
X209510289Y-100871789D01*
X209621789Y-100760289D01*
X209709394Y-100629179D01*
X209713069Y-100620308D01*
X209741060Y-100552730D01*
X209769737Y-100483497D01*
X209800500Y-100328842D01*
X209800500Y-100171158D01*
X209800500Y-100171155D01*
X209800499Y-100171153D01*
X209779767Y-100066924D01*
X209769738Y-100016510D01*
X209769737Y-100016503D01*
X209742541Y-99950846D01*
X209709397Y-99870827D01*
X209709390Y-99870814D01*
X209621789Y-99739711D01*
X209621786Y-99739707D01*
X209510292Y-99628213D01*
X209510288Y-99628210D01*
X209379185Y-99540609D01*
X209379172Y-99540602D01*
X209233501Y-99480264D01*
X209233489Y-99480261D01*
X209078845Y-99449500D01*
X209078842Y-99449500D01*
X202382940Y-99449500D01*
X202315901Y-99429815D01*
X202295259Y-99413181D01*
X201836251Y-98954172D01*
X201836247Y-98954169D01*
X201705144Y-98866568D01*
X201705131Y-98866561D01*
X201559460Y-98806223D01*
X201559448Y-98806220D01*
X201404804Y-98775459D01*
X201404801Y-98775459D01*
X200328842Y-98775459D01*
X199208899Y-98775459D01*
X199141860Y-98755774D01*
X199121218Y-98739140D01*
X197972454Y-97590375D01*
X197816048Y-97433969D01*
X197816044Y-97433966D01*
X197684941Y-97346365D01*
X197684928Y-97346358D01*
X197539257Y-97286020D01*
X197539245Y-97286017D01*
X197384601Y-97255256D01*
X197384598Y-97255256D01*
X196578842Y-97255256D01*
X190578842Y-97255256D01*
X189226914Y-97255256D01*
X189226911Y-97255256D01*
X189072266Y-97286017D01*
X189072254Y-97286020D01*
X188926583Y-97346358D01*
X188926570Y-97346365D01*
X188795467Y-97433966D01*
X188729943Y-97499490D01*
X188668619Y-97532974D01*
X188598928Y-97527989D01*
X188594810Y-97526369D01*
X188483501Y-97480264D01*
X188483489Y-97480261D01*
X188328845Y-97449500D01*
X188328842Y-97449500D01*
X188171158Y-97449500D01*
X188171155Y-97449500D01*
X188016510Y-97480261D01*
X188016498Y-97480264D01*
X187870827Y-97540602D01*
X187870814Y-97540609D01*
X187739711Y-97628210D01*
X187739707Y-97628213D01*
X187628213Y-97739707D01*
X187628210Y-97739711D01*
X187540609Y-97870814D01*
X187540602Y-97870827D01*
X187480264Y-98016498D01*
X187480261Y-98016510D01*
X187449500Y-98171153D01*
X187449500Y-98328846D01*
X187480261Y-98483489D01*
X187480264Y-98483501D01*
X187540602Y-98629172D01*
X187540609Y-98629185D01*
X187628210Y-98760288D01*
X187628213Y-98760292D01*
X187739707Y-98871786D01*
X187739711Y-98871789D01*
X187870814Y-98959390D01*
X187870827Y-98959397D01*
X187948262Y-98991471D01*
X188016503Y-99019737D01*
X188059591Y-99028307D01*
X188112130Y-99038759D01*
X188174041Y-99071144D01*
X188208615Y-99131860D01*
X188204876Y-99201629D01*
X188175620Y-99248057D01*
X187010497Y-100413181D01*
X186949174Y-100446666D01*
X186922816Y-100449500D01*
X184171155Y-100449500D01*
X184016510Y-100480261D01*
X184016498Y-100480264D01*
X183870827Y-100540602D01*
X183870814Y-100540609D01*
X183739711Y-100628210D01*
X183739707Y-100628213D01*
X183628213Y-100739707D01*
X183628210Y-100739711D01*
X183540609Y-100870814D01*
X183540602Y-100870827D01*
X183480264Y-101016498D01*
X183480261Y-101016510D01*
X183449500Y-101171153D01*
X183449500Y-101328846D01*
X183480261Y-101483489D01*
X183480264Y-101483501D01*
X183540602Y-101629172D01*
X183540609Y-101629185D01*
X183628210Y-101760288D01*
X183628213Y-101760292D01*
X183739707Y-101871786D01*
X183739711Y-101871789D01*
X183870814Y-101959390D01*
X183870827Y-101959397D01*
X184004924Y-102014941D01*
X184016503Y-102019737D01*
X184171153Y-102050499D01*
X184171156Y-102050500D01*
X184171158Y-102050500D01*
X187384600Y-102050500D01*
X187384601Y-102050499D01*
X187539253Y-102019737D01*
X187684935Y-101959394D01*
X187816045Y-101871789D01*
X190795259Y-98892575D01*
X190856582Y-98859090D01*
X190882940Y-98856256D01*
X195198588Y-98856256D01*
X195265627Y-98875941D01*
X195286269Y-98892575D01*
X195663181Y-99269487D01*
X195696666Y-99330810D01*
X195699500Y-99357168D01*
X195699500Y-99867060D01*
X195679815Y-99934099D01*
X195663181Y-99954741D01*
X194224402Y-101393520D01*
X194163079Y-101427005D01*
X194136721Y-101429839D01*
X193783299Y-101429839D01*
X193628654Y-101460600D01*
X193628642Y-101460603D01*
X193482971Y-101520941D01*
X193482958Y-101520948D01*
X193351855Y-101608549D01*
X193351851Y-101608552D01*
X193240357Y-101720046D01*
X193240354Y-101720050D01*
X193152753Y-101851153D01*
X193152746Y-101851166D01*
X193092408Y-101996837D01*
X193092405Y-101996849D01*
X193061644Y-102151492D01*
X193061644Y-102309185D01*
X193092405Y-102463828D01*
X193092408Y-102463840D01*
X193152746Y-102609511D01*
X193152753Y-102609524D01*
X193240354Y-102740627D01*
X193240357Y-102740631D01*
X193351851Y-102852125D01*
X193351855Y-102852128D01*
X193482958Y-102939729D01*
X193482971Y-102939736D01*
X193625680Y-102998847D01*
X193628647Y-103000076D01*
X193783297Y-103030838D01*
X193783300Y-103030839D01*
X193783302Y-103030839D01*
X194598505Y-103030839D01*
X194598506Y-103030838D01*
X194753158Y-103000076D01*
X194898840Y-102939733D01*
X195029950Y-102852128D01*
X197010286Y-100871790D01*
X197010289Y-100871789D01*
X197121789Y-100760289D01*
X197209394Y-100629179D01*
X197218525Y-100607133D01*
X197262365Y-100552730D01*
X197328658Y-100530663D01*
X197396358Y-100547941D01*
X197420768Y-100566903D01*
X197499295Y-100645430D01*
X197499299Y-100645433D01*
X197630402Y-100733034D01*
X197630415Y-100733041D01*
X197776086Y-100793379D01*
X197776091Y-100793381D01*
X197930741Y-100824143D01*
X197930744Y-100824144D01*
X197930746Y-100824144D01*
X198088432Y-100824144D01*
X198088433Y-100824143D01*
X198243085Y-100793381D01*
X198352141Y-100748208D01*
X198421608Y-100740740D01*
X198484088Y-100772015D01*
X198514153Y-100815317D01*
X198540604Y-100879175D01*
X198540609Y-100879185D01*
X198628210Y-101010288D01*
X198628213Y-101010292D01*
X198739707Y-101121786D01*
X198739711Y-101121789D01*
X198870814Y-101209390D01*
X198870827Y-101209397D01*
X199016498Y-101269735D01*
X199016503Y-101269737D01*
X199171153Y-101300499D01*
X199171156Y-101300500D01*
X199171158Y-101300500D01*
X199328844Y-101300500D01*
X199328845Y-101300499D01*
X199483497Y-101269737D01*
X199629179Y-101209394D01*
X199760289Y-101121789D01*
X199871789Y-101010289D01*
X199959394Y-100879179D01*
X199962854Y-100870827D01*
X200008640Y-100760287D01*
X200019737Y-100733497D01*
X200050500Y-100578842D01*
X200050500Y-100500459D01*
X200070185Y-100433420D01*
X200122989Y-100387665D01*
X200174500Y-100376459D01*
X200943019Y-100376459D01*
X200972459Y-100385103D01*
X201002446Y-100391627D01*
X201007461Y-100395381D01*
X201010058Y-100396144D01*
X201030700Y-100412778D01*
X201163181Y-100545259D01*
X201196666Y-100606582D01*
X201199500Y-100632940D01*
X201199500Y-106117060D01*
X201179815Y-106184099D01*
X201163181Y-106204741D01*
X198566606Y-108801316D01*
X198505283Y-108834801D01*
X198478925Y-108837635D01*
X192991214Y-108837635D01*
X192836561Y-108868397D01*
X192836554Y-108868400D01*
X192836371Y-108868476D01*
X192813141Y-108875521D01*
X192788312Y-108880461D01*
X192788308Y-108880462D01*
X192642628Y-108940805D01*
X192511521Y-109028407D01*
X192511514Y-109028413D01*
X192126748Y-109413181D01*
X192065425Y-109446666D01*
X192039067Y-109449500D01*
X182421155Y-109449500D01*
X182266510Y-109480261D01*
X182266498Y-109480264D01*
X182120827Y-109540602D01*
X182120814Y-109540609D01*
X181989711Y-109628210D01*
X181989707Y-109628213D01*
X181878213Y-109739707D01*
X181878210Y-109739711D01*
X181790609Y-109870814D01*
X181790602Y-109870827D01*
X181730264Y-110016498D01*
X181730261Y-110016510D01*
X181699500Y-110171153D01*
X167699723Y-110171153D01*
X167896265Y-110057679D01*
X167902726Y-110053948D01*
X168008521Y-109972767D01*
X168008521Y-109972764D01*
X167472159Y-109436403D01*
X167599255Y-109344063D01*
X167733372Y-109209946D01*
X167825712Y-109082851D01*
X168362073Y-109619212D01*
X168362076Y-109619212D01*
X168443255Y-109513420D01*
X168571398Y-109291471D01*
X168571400Y-109291467D01*
X168669470Y-109054706D01*
X168735798Y-108807163D01*
X168735801Y-108807150D01*
X168769250Y-108553078D01*
X168769250Y-108296803D01*
X168735801Y-108042731D01*
X168735798Y-108042718D01*
X168669470Y-107795175D01*
X168571400Y-107558414D01*
X168571398Y-107558410D01*
X168564321Y-107546153D01*
X184574500Y-107546153D01*
X184574500Y-107703846D01*
X184605261Y-107858489D01*
X184605264Y-107858501D01*
X184665602Y-108004172D01*
X184665609Y-108004185D01*
X184753210Y-108135288D01*
X184753213Y-108135292D01*
X184864707Y-108246786D01*
X184864711Y-108246789D01*
X184995814Y-108334390D01*
X184995827Y-108334397D01*
X185141498Y-108394735D01*
X185141503Y-108394737D01*
X185293343Y-108424940D01*
X185296153Y-108425499D01*
X185296156Y-108425500D01*
X185296158Y-108425500D01*
X185453844Y-108425500D01*
X185453845Y-108425499D01*
X185608497Y-108394737D01*
X185754179Y-108334394D01*
X185885289Y-108246789D01*
X185996789Y-108135289D01*
X186084394Y-108004179D01*
X186144737Y-107858497D01*
X186175500Y-107703842D01*
X186175500Y-107546158D01*
X186175500Y-107546155D01*
X186175499Y-107546153D01*
X186144933Y-107392488D01*
X186144737Y-107391503D01*
X186110092Y-107307862D01*
X186084397Y-107245827D01*
X186084390Y-107245814D01*
X185996789Y-107114711D01*
X185996786Y-107114707D01*
X185885292Y-107003213D01*
X185885288Y-107003210D01*
X185754185Y-106915609D01*
X185754172Y-106915602D01*
X185608501Y-106855264D01*
X185608489Y-106855261D01*
X185453845Y-106824500D01*
X185453842Y-106824500D01*
X185296158Y-106824500D01*
X185296155Y-106824500D01*
X185141510Y-106855261D01*
X185141498Y-106855264D01*
X184995827Y-106915602D01*
X184995814Y-106915609D01*
X184864711Y-107003210D01*
X184864707Y-107003213D01*
X184753213Y-107114707D01*
X184753210Y-107114711D01*
X184665609Y-107245814D01*
X184665602Y-107245827D01*
X184605264Y-107391498D01*
X184605261Y-107391510D01*
X184574500Y-107546153D01*
X168564321Y-107546153D01*
X168443260Y-107336471D01*
X168443259Y-107336470D01*
X168362074Y-107230668D01*
X168362073Y-107230668D01*
X167825711Y-107767030D01*
X167733372Y-107639936D01*
X167599255Y-107505819D01*
X167472158Y-107413477D01*
X168008521Y-106877115D01*
X167902720Y-106795931D01*
X167902719Y-106795930D01*
X167680780Y-106667792D01*
X167680776Y-106667790D01*
X167444015Y-106569720D01*
X167196472Y-106503392D01*
X167196459Y-106503389D01*
X166942388Y-106469941D01*
X166686112Y-106469941D01*
X166432040Y-106503389D01*
X166432027Y-106503392D01*
X166184484Y-106569720D01*
X165947723Y-106667790D01*
X165947719Y-106667792D01*
X165725780Y-106795930D01*
X165725770Y-106795936D01*
X165619977Y-106877114D01*
X165619977Y-106877115D01*
X166156340Y-107413478D01*
X166029245Y-107505819D01*
X165895128Y-107639936D01*
X165802787Y-107767031D01*
X165266424Y-107230668D01*
X165266423Y-107230668D01*
X165185245Y-107336461D01*
X165185239Y-107336471D01*
X165057101Y-107558410D01*
X165057099Y-107558414D01*
X164959029Y-107795175D01*
X164892701Y-108042718D01*
X164892698Y-108042731D01*
X164859250Y-108296803D01*
X160740830Y-108296803D01*
X160740830Y-105467076D01*
X169873750Y-105467076D01*
X169873750Y-107082811D01*
X169873751Y-107082817D01*
X169880158Y-107142424D01*
X169930452Y-107277269D01*
X169930456Y-107277276D01*
X170016702Y-107392485D01*
X170016705Y-107392488D01*
X170131914Y-107478734D01*
X170131921Y-107478738D01*
X170266767Y-107529032D01*
X170266766Y-107529032D01*
X170273694Y-107529776D01*
X170326377Y-107535441D01*
X171942122Y-107535440D01*
X172001733Y-107529032D01*
X172136581Y-107478737D01*
X172146378Y-107471403D01*
X172187259Y-107440800D01*
X172223896Y-107413373D01*
X172251796Y-107392487D01*
X172338046Y-107277272D01*
X172388341Y-107142424D01*
X172394750Y-107082814D01*
X172394749Y-105467069D01*
X172388341Y-105407458D01*
X172358066Y-105326287D01*
X172338047Y-105272612D01*
X172338043Y-105272605D01*
X172251797Y-105157396D01*
X172251794Y-105157393D01*
X172136585Y-105071147D01*
X172136578Y-105071143D01*
X172001732Y-105020849D01*
X172001733Y-105020849D01*
X171942133Y-105014442D01*
X171942131Y-105014441D01*
X171942123Y-105014441D01*
X171942114Y-105014441D01*
X170326379Y-105014441D01*
X170326373Y-105014442D01*
X170266766Y-105020849D01*
X170131921Y-105071143D01*
X170131914Y-105071147D01*
X170016705Y-105157393D01*
X170016702Y-105157396D01*
X169930456Y-105272605D01*
X169930452Y-105272612D01*
X169880158Y-105407458D01*
X169873751Y-105467057D01*
X169873751Y-105467064D01*
X169873750Y-105467076D01*
X160740830Y-105467076D01*
X160740830Y-103175777D01*
X169874250Y-103175777D01*
X169874250Y-103374104D01*
X169905276Y-103569993D01*
X169966560Y-103758610D01*
X169966561Y-103758613D01*
X170056600Y-103935321D01*
X170083411Y-103972224D01*
X170643121Y-103412515D01*
X170659005Y-103471794D01*
X170726148Y-103588088D01*
X170821103Y-103683043D01*
X170937397Y-103750186D01*
X170996674Y-103766069D01*
X170436964Y-104325778D01*
X170436965Y-104325779D01*
X170473862Y-104352586D01*
X170650577Y-104442629D01*
X170650580Y-104442630D01*
X170839197Y-104503914D01*
X171035087Y-104534941D01*
X171233413Y-104534941D01*
X171429302Y-104503914D01*
X171617919Y-104442630D01*
X171617922Y-104442629D01*
X171794632Y-104352589D01*
X171831533Y-104325778D01*
X171831534Y-104325777D01*
X171271825Y-103766068D01*
X171331103Y-103750186D01*
X171447397Y-103683043D01*
X171542352Y-103588088D01*
X171609495Y-103471794D01*
X171625378Y-103412516D01*
X172185086Y-103972225D01*
X172185087Y-103972224D01*
X172211898Y-103935323D01*
X172301938Y-103758613D01*
X172301940Y-103758607D01*
X172330355Y-103671153D01*
X184699500Y-103671153D01*
X184699500Y-103828846D01*
X184730261Y-103983489D01*
X184730264Y-103983501D01*
X184790602Y-104129172D01*
X184790609Y-104129185D01*
X184878210Y-104260288D01*
X184878213Y-104260292D01*
X184989707Y-104371786D01*
X184989711Y-104371789D01*
X185120814Y-104459390D01*
X185120827Y-104459397D01*
X185266498Y-104519735D01*
X185266503Y-104519737D01*
X185421153Y-104550499D01*
X185421156Y-104550500D01*
X185421158Y-104550500D01*
X185578844Y-104550500D01*
X185578845Y-104550499D01*
X185733497Y-104519737D01*
X185879179Y-104459394D01*
X185931110Y-104424694D01*
X185997785Y-104403816D01*
X186065165Y-104422300D01*
X186068863Y-104424676D01*
X186120821Y-104459394D01*
X186120823Y-104459395D01*
X186120825Y-104459396D01*
X186266498Y-104519735D01*
X186266503Y-104519737D01*
X186421153Y-104550499D01*
X186421156Y-104550500D01*
X186421158Y-104550500D01*
X186578844Y-104550500D01*
X186578845Y-104550499D01*
X186733497Y-104519737D01*
X186879179Y-104459394D01*
X187010289Y-104371789D01*
X187121789Y-104260289D01*
X187209394Y-104129179D01*
X187269737Y-103983497D01*
X187300500Y-103828842D01*
X187300500Y-103671158D01*
X187300500Y-103671155D01*
X187300499Y-103671153D01*
X187296272Y-103649905D01*
X187269737Y-103516503D01*
X187251218Y-103471794D01*
X187209397Y-103370827D01*
X187209390Y-103370814D01*
X187121789Y-103239711D01*
X187121786Y-103239707D01*
X187010292Y-103128213D01*
X187010288Y-103128210D01*
X186879185Y-103040609D01*
X186879172Y-103040602D01*
X186733501Y-102980264D01*
X186733489Y-102980261D01*
X186578845Y-102949500D01*
X186578842Y-102949500D01*
X186421158Y-102949500D01*
X186421155Y-102949500D01*
X186266510Y-102980261D01*
X186266498Y-102980264D01*
X186120827Y-103040602D01*
X186120814Y-103040609D01*
X186068891Y-103075304D01*
X186002214Y-103096182D01*
X185934833Y-103077698D01*
X185931109Y-103075304D01*
X185879185Y-103040609D01*
X185879172Y-103040602D01*
X185733501Y-102980264D01*
X185733489Y-102980261D01*
X185578845Y-102949500D01*
X185578842Y-102949500D01*
X185421158Y-102949500D01*
X185421155Y-102949500D01*
X185266510Y-102980261D01*
X185266498Y-102980264D01*
X185120827Y-103040602D01*
X185120814Y-103040609D01*
X184989711Y-103128210D01*
X184989707Y-103128213D01*
X184878213Y-103239707D01*
X184878210Y-103239711D01*
X184790609Y-103370814D01*
X184790602Y-103370827D01*
X184730264Y-103516498D01*
X184730261Y-103516510D01*
X184699500Y-103671153D01*
X172330355Y-103671153D01*
X172344783Y-103626749D01*
X172344783Y-103626748D01*
X172363224Y-103569992D01*
X172394250Y-103374104D01*
X172394250Y-103175777D01*
X172363223Y-102979888D01*
X172301939Y-102791271D01*
X172301938Y-102791268D01*
X172211895Y-102614553D01*
X172185088Y-102577656D01*
X172185087Y-102577655D01*
X171625377Y-103137364D01*
X171609495Y-103078088D01*
X171542352Y-102961794D01*
X171447397Y-102866839D01*
X171331103Y-102799696D01*
X171271824Y-102783812D01*
X171831533Y-102224102D01*
X171794630Y-102197291D01*
X171617922Y-102107252D01*
X171617919Y-102107251D01*
X171429302Y-102045967D01*
X171233413Y-102014941D01*
X171035087Y-102014941D01*
X170839197Y-102045967D01*
X170650580Y-102107251D01*
X170650572Y-102107254D01*
X170473865Y-102197293D01*
X170436965Y-102224101D01*
X170436965Y-102224102D01*
X170996675Y-102783812D01*
X170937397Y-102799696D01*
X170821103Y-102866839D01*
X170726148Y-102961794D01*
X170659005Y-103078088D01*
X170643121Y-103137366D01*
X170083411Y-102577656D01*
X170083410Y-102577656D01*
X170056602Y-102614556D01*
X169966563Y-102791263D01*
X169966560Y-102791271D01*
X169905276Y-102979888D01*
X169874250Y-103175777D01*
X160740830Y-103175777D01*
X160740830Y-100175731D01*
X169873750Y-100175731D01*
X169873750Y-100374150D01*
X169900114Y-100540606D01*
X169904787Y-100570109D01*
X169940210Y-100679128D01*
X169966100Y-100758809D01*
X170023170Y-100870814D01*
X170056173Y-100935587D01*
X170172794Y-101096102D01*
X170313089Y-101236397D01*
X170473604Y-101353018D01*
X170587050Y-101410821D01*
X170650381Y-101443090D01*
X170650383Y-101443090D01*
X170650386Y-101443092D01*
X170839082Y-101504404D01*
X170937064Y-101519922D01*
X171035041Y-101535441D01*
X171035046Y-101535441D01*
X171233459Y-101535441D01*
X171325005Y-101520941D01*
X171429418Y-101504404D01*
X171618114Y-101443092D01*
X171794896Y-101353018D01*
X171955411Y-101236397D01*
X172095706Y-101096102D01*
X172212327Y-100935587D01*
X172302401Y-100758805D01*
X172363713Y-100570109D01*
X172387304Y-100421158D01*
X172394750Y-100374150D01*
X172394750Y-100175731D01*
X172374280Y-100046492D01*
X172363713Y-99979773D01*
X172302401Y-99791077D01*
X172302399Y-99791074D01*
X172302399Y-99791072D01*
X172249811Y-99687862D01*
X172212327Y-99614295D01*
X172095706Y-99453780D01*
X171955411Y-99313485D01*
X171794896Y-99196864D01*
X171713810Y-99155549D01*
X171618118Y-99106791D01*
X171572846Y-99092081D01*
X171429418Y-99045478D01*
X171420484Y-99044063D01*
X171233459Y-99014441D01*
X171233454Y-99014441D01*
X171035046Y-99014441D01*
X171035041Y-99014441D01*
X170839087Y-99045477D01*
X170839085Y-99045477D01*
X170839082Y-99045478D01*
X170744734Y-99076134D01*
X170650381Y-99106791D01*
X170473602Y-99196865D01*
X170473599Y-99196867D01*
X170411950Y-99241658D01*
X170313089Y-99313485D01*
X170313087Y-99313487D01*
X170313086Y-99313487D01*
X170172796Y-99453777D01*
X170172796Y-99453778D01*
X170172794Y-99453780D01*
X170129510Y-99513355D01*
X170056176Y-99614290D01*
X170056174Y-99614293D01*
X169966100Y-99791072D01*
X169941410Y-99867060D01*
X169904787Y-99979773D01*
X169904786Y-99979776D01*
X169904786Y-99979778D01*
X169873750Y-100175731D01*
X160740830Y-100175731D01*
X160740830Y-94296803D01*
X164859250Y-94296803D01*
X164859250Y-94553078D01*
X164892698Y-94807150D01*
X164892701Y-94807163D01*
X164959029Y-95054706D01*
X165057099Y-95291467D01*
X165057101Y-95291471D01*
X165185239Y-95513410D01*
X165185240Y-95513411D01*
X165266424Y-95619212D01*
X165802786Y-95082849D01*
X165895128Y-95209946D01*
X166029245Y-95344063D01*
X166156339Y-95436402D01*
X165619977Y-95972764D01*
X165619977Y-95972765D01*
X165725779Y-96053950D01*
X165725780Y-96053951D01*
X165922543Y-96167554D01*
X165970758Y-96218122D01*
X165983980Y-96286729D01*
X165958012Y-96351593D01*
X165922543Y-96382328D01*
X165725780Y-96495930D01*
X165725770Y-96495936D01*
X165619977Y-96577114D01*
X165619977Y-96577115D01*
X166156340Y-97113478D01*
X166029245Y-97205819D01*
X165895128Y-97339936D01*
X165802787Y-97467031D01*
X165266424Y-96930668D01*
X165266423Y-96930668D01*
X165185245Y-97036461D01*
X165185239Y-97036471D01*
X165057101Y-97258410D01*
X165057099Y-97258414D01*
X164959029Y-97495175D01*
X164892701Y-97742718D01*
X164892698Y-97742731D01*
X164859250Y-97996803D01*
X164859250Y-98253078D01*
X164892698Y-98507150D01*
X164892701Y-98507163D01*
X164959029Y-98754706D01*
X165057099Y-98991467D01*
X165057101Y-98991471D01*
X165185239Y-99213410D01*
X165185240Y-99213411D01*
X165266424Y-99319212D01*
X165802786Y-98782849D01*
X165895128Y-98909946D01*
X166029245Y-99044063D01*
X166156339Y-99136402D01*
X165619977Y-99672764D01*
X165619977Y-99672765D01*
X165725779Y-99753950D01*
X165725780Y-99753951D01*
X165947719Y-99882089D01*
X165947723Y-99882091D01*
X166184484Y-99980161D01*
X166432027Y-100046489D01*
X166432040Y-100046492D01*
X166686112Y-100079941D01*
X166942388Y-100079941D01*
X167185569Y-100047926D01*
X167196459Y-100046492D01*
X167196472Y-100046489D01*
X167444015Y-99980161D01*
X167680776Y-99882091D01*
X167680780Y-99882089D01*
X167902729Y-99753946D01*
X168008521Y-99672767D01*
X168008521Y-99672764D01*
X167472159Y-99136403D01*
X167599255Y-99044063D01*
X167733372Y-98909946D01*
X167825712Y-98782851D01*
X168362073Y-99319212D01*
X168362076Y-99319212D01*
X168443255Y-99213420D01*
X168571398Y-98991471D01*
X168571400Y-98991467D01*
X168669470Y-98754706D01*
X168735798Y-98507163D01*
X168735801Y-98507150D01*
X168769250Y-98253078D01*
X168769250Y-97996803D01*
X168735801Y-97742731D01*
X168735798Y-97742718D01*
X168669470Y-97495175D01*
X168571400Y-97258414D01*
X168571398Y-97258410D01*
X168542971Y-97209173D01*
X185411480Y-97209173D01*
X185411480Y-97366866D01*
X185442241Y-97521509D01*
X185442244Y-97521521D01*
X185502582Y-97667192D01*
X185502589Y-97667205D01*
X185590190Y-97798308D01*
X185590193Y-97798312D01*
X185701687Y-97909806D01*
X185701691Y-97909809D01*
X185832794Y-97997410D01*
X185832807Y-97997417D01*
X185946610Y-98044555D01*
X185978483Y-98057757D01*
X186133133Y-98088519D01*
X186133136Y-98088520D01*
X186133138Y-98088520D01*
X186290824Y-98088520D01*
X186290825Y-98088519D01*
X186445477Y-98057757D01*
X186591159Y-97997414D01*
X186722269Y-97909809D01*
X186833769Y-97798309D01*
X186921374Y-97667199D01*
X186981717Y-97521517D01*
X187012480Y-97366862D01*
X187012480Y-97209178D01*
X187012480Y-97209175D01*
X187012479Y-97209173D01*
X187002201Y-97157503D01*
X186981717Y-97054523D01*
X186963364Y-97010215D01*
X186921377Y-96908847D01*
X186921370Y-96908834D01*
X186833769Y-96777731D01*
X186833766Y-96777727D01*
X186722272Y-96666233D01*
X186722268Y-96666230D01*
X186591165Y-96578629D01*
X186591152Y-96578622D01*
X186445481Y-96518284D01*
X186445469Y-96518281D01*
X186290825Y-96487520D01*
X186290822Y-96487520D01*
X186133138Y-96487520D01*
X186133135Y-96487520D01*
X185978490Y-96518281D01*
X185978478Y-96518284D01*
X185832807Y-96578622D01*
X185832794Y-96578629D01*
X185701691Y-96666230D01*
X185701687Y-96666233D01*
X185590193Y-96777727D01*
X185590190Y-96777731D01*
X185502589Y-96908834D01*
X185502582Y-96908847D01*
X185442244Y-97054518D01*
X185442241Y-97054530D01*
X185411480Y-97209173D01*
X168542971Y-97209173D01*
X168443260Y-97036471D01*
X168443259Y-97036470D01*
X168362074Y-96930668D01*
X168362073Y-96930668D01*
X167825711Y-97467030D01*
X167733372Y-97339936D01*
X167599255Y-97205819D01*
X167472158Y-97113477D01*
X168008521Y-96577115D01*
X167902720Y-96495931D01*
X167902712Y-96495925D01*
X167705957Y-96382328D01*
X167657741Y-96331761D01*
X167644519Y-96263154D01*
X167670487Y-96198289D01*
X167705957Y-96167554D01*
X167902726Y-96053948D01*
X168008521Y-95972767D01*
X168008521Y-95972764D01*
X167472159Y-95436403D01*
X167599255Y-95344063D01*
X167733372Y-95209946D01*
X167825712Y-95082851D01*
X168362073Y-95619212D01*
X168362076Y-95619212D01*
X168443255Y-95513420D01*
X168571398Y-95291471D01*
X168571400Y-95291467D01*
X168669470Y-95054706D01*
X168719635Y-94867488D01*
X175131823Y-94867488D01*
X175131823Y-96467506D01*
X175131824Y-96467523D01*
X175142323Y-96570301D01*
X175142324Y-96570304D01*
X175174112Y-96666233D01*
X175197509Y-96736839D01*
X175289611Y-96886161D01*
X175413667Y-97010217D01*
X175562989Y-97102319D01*
X175729526Y-97157504D01*
X175832314Y-97168005D01*
X177432331Y-97168004D01*
X177535120Y-97157504D01*
X177701657Y-97102319D01*
X177850979Y-97010217D01*
X177975035Y-96886161D01*
X178067137Y-96736839D01*
X178122322Y-96570302D01*
X178132823Y-96467514D01*
X178132822Y-95549452D01*
X180132323Y-95549452D01*
X180132323Y-95785557D01*
X180169257Y-96018752D01*
X180242220Y-96243307D01*
X180349410Y-96453679D01*
X180409661Y-96536609D01*
X180409663Y-96536610D01*
X181149360Y-95796913D01*
X181166398Y-95860498D01*
X181232224Y-95974512D01*
X181325316Y-96067604D01*
X181439330Y-96133430D01*
X181502913Y-96150467D01*
X180763216Y-96890163D01*
X180846151Y-96950419D01*
X181056520Y-97057607D01*
X181281075Y-97130570D01*
X181281074Y-97130570D01*
X181514271Y-97167505D01*
X181750375Y-97167505D01*
X181983570Y-97130570D01*
X182123345Y-97085155D01*
X182208125Y-97057607D01*
X182418486Y-96950423D01*
X182418492Y-96950419D01*
X182501427Y-96890163D01*
X182501428Y-96890163D01*
X181761731Y-96150467D01*
X181825316Y-96133430D01*
X181939330Y-96067604D01*
X182032422Y-95974512D01*
X182098248Y-95860498D01*
X182115285Y-95796914D01*
X182854981Y-96536610D01*
X182854981Y-96536609D01*
X182915237Y-96453674D01*
X182915241Y-96453668D01*
X183022425Y-96243307D01*
X183095388Y-96018752D01*
X183132323Y-95785557D01*
X183132323Y-95549452D01*
X183095388Y-95316257D01*
X183022425Y-95091702D01*
X182985396Y-95019028D01*
X182915237Y-94881333D01*
X182854981Y-94798399D01*
X182854981Y-94798398D01*
X182115285Y-95538094D01*
X182098248Y-95474512D01*
X182032422Y-95360498D01*
X181939330Y-95267406D01*
X181825316Y-95201580D01*
X181761732Y-95184542D01*
X182501428Y-94444845D01*
X182501427Y-94444843D01*
X182418497Y-94384592D01*
X182208125Y-94277402D01*
X181983570Y-94204439D01*
X181983571Y-94204439D01*
X181750375Y-94167505D01*
X181514271Y-94167505D01*
X181281075Y-94204439D01*
X181056520Y-94277402D01*
X180846153Y-94384589D01*
X180763217Y-94444845D01*
X181502914Y-95184542D01*
X181439330Y-95201580D01*
X181325316Y-95267406D01*
X181232224Y-95360498D01*
X181166398Y-95474512D01*
X181149360Y-95538096D01*
X180409663Y-94798399D01*
X180349407Y-94881335D01*
X180242220Y-95091702D01*
X180169257Y-95316257D01*
X180132323Y-95549452D01*
X178132822Y-95549452D01*
X178132822Y-94867497D01*
X178126657Y-94807150D01*
X178122322Y-94764708D01*
X178122321Y-94764705D01*
X178105311Y-94713373D01*
X178067137Y-94598171D01*
X177975035Y-94448849D01*
X177850979Y-94324793D01*
X177701657Y-94232691D01*
X177535120Y-94177506D01*
X177535118Y-94177505D01*
X177432333Y-94167005D01*
X175832321Y-94167005D01*
X175832304Y-94167006D01*
X175729526Y-94177505D01*
X175729523Y-94177506D01*
X175562991Y-94232690D01*
X175562986Y-94232692D01*
X175413665Y-94324794D01*
X175289612Y-94448847D01*
X175197510Y-94598168D01*
X175197508Y-94598173D01*
X175186829Y-94630400D01*
X175142324Y-94764708D01*
X175142324Y-94764709D01*
X175142323Y-94764709D01*
X175131823Y-94867488D01*
X168719635Y-94867488D01*
X168729078Y-94832246D01*
X168735798Y-94807163D01*
X168735801Y-94807150D01*
X168769250Y-94553078D01*
X168769250Y-94296803D01*
X168735801Y-94042731D01*
X168735798Y-94042718D01*
X168669470Y-93795175D01*
X168571400Y-93558414D01*
X168571398Y-93558410D01*
X168443260Y-93336471D01*
X168443259Y-93336470D01*
X168362074Y-93230668D01*
X168362073Y-93230668D01*
X167825711Y-93767030D01*
X167733372Y-93639936D01*
X167599255Y-93505819D01*
X167472158Y-93413477D01*
X168008521Y-92877115D01*
X167902720Y-92795931D01*
X167902719Y-92795930D01*
X167680780Y-92667792D01*
X167680776Y-92667790D01*
X167444015Y-92569720D01*
X167196472Y-92503392D01*
X167196459Y-92503389D01*
X166942388Y-92469941D01*
X166686112Y-92469941D01*
X166432040Y-92503389D01*
X166432027Y-92503392D01*
X166184484Y-92569720D01*
X165947723Y-92667790D01*
X165947719Y-92667792D01*
X165725780Y-92795930D01*
X165725770Y-92795936D01*
X165619977Y-92877114D01*
X165619977Y-92877115D01*
X166156340Y-93413478D01*
X166029245Y-93505819D01*
X165895128Y-93639936D01*
X165802787Y-93767031D01*
X165266424Y-93230668D01*
X165266423Y-93230668D01*
X165185245Y-93336461D01*
X165185239Y-93336471D01*
X165057101Y-93558410D01*
X165057099Y-93558414D01*
X164959029Y-93795175D01*
X164892701Y-94042718D01*
X164892698Y-94042731D01*
X164859250Y-94296803D01*
X160740830Y-94296803D01*
X160740830Y-91467076D01*
X169873750Y-91467076D01*
X169873750Y-93082811D01*
X169873751Y-93082817D01*
X169880158Y-93142424D01*
X169930452Y-93277269D01*
X169930456Y-93277276D01*
X170016702Y-93392485D01*
X170016705Y-93392488D01*
X170131914Y-93478734D01*
X170131921Y-93478738D01*
X170266767Y-93529032D01*
X170266766Y-93529032D01*
X170273694Y-93529776D01*
X170326377Y-93535441D01*
X171942122Y-93535440D01*
X172001733Y-93529032D01*
X172136581Y-93478737D01*
X172251796Y-93392487D01*
X172338046Y-93277272D01*
X172388341Y-93142424D01*
X172394750Y-93082814D01*
X172394749Y-91467069D01*
X172392607Y-91447140D01*
X172390584Y-91428318D01*
X172389813Y-91421153D01*
X188949500Y-91421153D01*
X188949500Y-91578846D01*
X188980261Y-91733489D01*
X188980264Y-91733501D01*
X189040602Y-91879172D01*
X189040609Y-91879185D01*
X189128210Y-92010288D01*
X189128213Y-92010292D01*
X189239707Y-92121786D01*
X189239711Y-92121789D01*
X189370814Y-92209390D01*
X189370827Y-92209397D01*
X189423685Y-92231291D01*
X189516503Y-92269737D01*
X189671153Y-92300499D01*
X189671156Y-92300500D01*
X189671158Y-92300500D01*
X189828844Y-92300500D01*
X189828845Y-92300499D01*
X189983497Y-92269737D01*
X190129179Y-92209394D01*
X190260289Y-92121789D01*
X190371789Y-92010289D01*
X190459394Y-91879179D01*
X190519737Y-91733497D01*
X190550500Y-91578842D01*
X190550500Y-91421158D01*
X190550500Y-91421155D01*
X190550499Y-91421153D01*
X190539809Y-91367412D01*
X190519737Y-91266503D01*
X190512664Y-91249427D01*
X190459397Y-91120827D01*
X190459390Y-91120814D01*
X190371789Y-90989711D01*
X190371786Y-90989707D01*
X190260292Y-90878213D01*
X190260288Y-90878210D01*
X190129185Y-90790609D01*
X190129172Y-90790602D01*
X189983501Y-90730264D01*
X189983489Y-90730261D01*
X189828845Y-90699500D01*
X189828842Y-90699500D01*
X189671158Y-90699500D01*
X189671155Y-90699500D01*
X189516510Y-90730261D01*
X189516498Y-90730264D01*
X189370827Y-90790602D01*
X189370814Y-90790609D01*
X189239711Y-90878210D01*
X189239707Y-90878213D01*
X189128213Y-90989707D01*
X189128210Y-90989711D01*
X189040609Y-91120814D01*
X189040602Y-91120827D01*
X188980264Y-91266498D01*
X188980261Y-91266510D01*
X188949500Y-91421153D01*
X172389813Y-91421153D01*
X172389669Y-91419816D01*
X172388341Y-91407458D01*
X172338046Y-91272610D01*
X172338045Y-91272609D01*
X172338043Y-91272605D01*
X172251797Y-91157396D01*
X172251794Y-91157393D01*
X172136585Y-91071147D01*
X172136578Y-91071143D01*
X172001732Y-91020849D01*
X172001733Y-91020849D01*
X171942133Y-91014442D01*
X171942131Y-91014441D01*
X171942123Y-91014441D01*
X171942114Y-91014441D01*
X170326379Y-91014441D01*
X170326373Y-91014442D01*
X170266766Y-91020849D01*
X170131921Y-91071143D01*
X170131914Y-91071147D01*
X170016705Y-91157393D01*
X170016702Y-91157396D01*
X169930456Y-91272605D01*
X169930452Y-91272612D01*
X169880158Y-91407458D01*
X169873751Y-91467057D01*
X169873750Y-91467076D01*
X160740830Y-91467076D01*
X160740830Y-89175777D01*
X169874250Y-89175777D01*
X169874250Y-89374104D01*
X169905276Y-89569993D01*
X169966560Y-89758610D01*
X169966561Y-89758613D01*
X170056600Y-89935321D01*
X170083411Y-89972224D01*
X170643121Y-89412515D01*
X170659005Y-89471794D01*
X170726148Y-89588088D01*
X170821103Y-89683043D01*
X170937397Y-89750186D01*
X170996674Y-89766069D01*
X170436964Y-90325778D01*
X170436965Y-90325779D01*
X170473862Y-90352586D01*
X170650577Y-90442629D01*
X170650580Y-90442630D01*
X170839197Y-90503914D01*
X171035087Y-90534941D01*
X171233413Y-90534941D01*
X171429302Y-90503914D01*
X171617919Y-90442630D01*
X171617922Y-90442629D01*
X171794632Y-90352589D01*
X171831533Y-90325778D01*
X171831534Y-90325777D01*
X171271825Y-89766068D01*
X171331103Y-89750186D01*
X171447397Y-89683043D01*
X171542352Y-89588088D01*
X171609495Y-89471794D01*
X171625378Y-89412516D01*
X172185086Y-89972225D01*
X172185087Y-89972224D01*
X172211898Y-89935323D01*
X172301938Y-89758613D01*
X172301939Y-89758610D01*
X172363223Y-89569993D01*
X172394250Y-89374104D01*
X172394250Y-89175777D01*
X172363223Y-88979888D01*
X172354612Y-88953384D01*
X172344140Y-88921153D01*
X191699500Y-88921153D01*
X191699500Y-89078846D01*
X191730261Y-89233489D01*
X191730264Y-89233501D01*
X191790602Y-89379172D01*
X191790609Y-89379185D01*
X191878210Y-89510288D01*
X191878213Y-89510292D01*
X191989707Y-89621786D01*
X191989711Y-89621789D01*
X192120814Y-89709390D01*
X192120827Y-89709397D01*
X192239647Y-89758613D01*
X192266503Y-89769737D01*
X192421153Y-89800499D01*
X192421156Y-89800500D01*
X192421158Y-89800500D01*
X192578844Y-89800500D01*
X192578845Y-89800499D01*
X192733497Y-89769737D01*
X192879179Y-89709394D01*
X193010289Y-89621789D01*
X193121789Y-89510289D01*
X193209394Y-89379179D01*
X193269737Y-89233497D01*
X193300500Y-89078842D01*
X193300500Y-88921158D01*
X193300500Y-88921155D01*
X193300499Y-88921153D01*
X193297712Y-88907140D01*
X193269737Y-88766503D01*
X193223310Y-88654417D01*
X193209397Y-88620827D01*
X193209390Y-88620814D01*
X193121789Y-88489711D01*
X193121786Y-88489707D01*
X193010292Y-88378213D01*
X193010288Y-88378210D01*
X192879185Y-88290609D01*
X192879172Y-88290602D01*
X192733501Y-88230264D01*
X192733489Y-88230261D01*
X192578845Y-88199500D01*
X192578842Y-88199500D01*
X192421158Y-88199500D01*
X192421155Y-88199500D01*
X192266510Y-88230261D01*
X192266498Y-88230264D01*
X192120827Y-88290602D01*
X192120814Y-88290609D01*
X191989711Y-88378210D01*
X191989707Y-88378213D01*
X191878213Y-88489707D01*
X191878210Y-88489711D01*
X191790609Y-88620814D01*
X191790602Y-88620827D01*
X191730264Y-88766498D01*
X191730261Y-88766510D01*
X191699500Y-88921153D01*
X172344140Y-88921153D01*
X172301939Y-88791271D01*
X172301938Y-88791268D01*
X172211895Y-88614553D01*
X172185088Y-88577656D01*
X172185087Y-88577655D01*
X171625377Y-89137364D01*
X171609495Y-89078088D01*
X171542352Y-88961794D01*
X171447397Y-88866839D01*
X171331103Y-88799696D01*
X171271824Y-88783812D01*
X171831533Y-88224102D01*
X171794630Y-88197291D01*
X171617922Y-88107252D01*
X171617919Y-88107251D01*
X171429302Y-88045967D01*
X171233413Y-88014941D01*
X171035087Y-88014941D01*
X170839197Y-88045967D01*
X170650580Y-88107251D01*
X170650572Y-88107254D01*
X170473865Y-88197293D01*
X170436965Y-88224101D01*
X170436965Y-88224102D01*
X170996675Y-88783812D01*
X170937397Y-88799696D01*
X170821103Y-88866839D01*
X170726148Y-88961794D01*
X170659005Y-89078088D01*
X170643121Y-89137366D01*
X170083411Y-88577656D01*
X170083410Y-88577656D01*
X170056602Y-88614556D01*
X169966563Y-88791263D01*
X169966560Y-88791271D01*
X169905276Y-88979888D01*
X169874250Y-89175777D01*
X160740830Y-89175777D01*
X160740830Y-86175731D01*
X169873750Y-86175731D01*
X169873750Y-86374150D01*
X169902635Y-86556520D01*
X169904787Y-86570109D01*
X169924538Y-86630894D01*
X169966100Y-86758809D01*
X170026281Y-86876920D01*
X170056173Y-86935587D01*
X170172794Y-87096102D01*
X170313089Y-87236397D01*
X170473604Y-87353018D01*
X170587050Y-87410821D01*
X170650381Y-87443090D01*
X170650383Y-87443090D01*
X170650386Y-87443092D01*
X170839082Y-87504404D01*
X170937064Y-87519922D01*
X171035041Y-87535441D01*
X171035046Y-87535441D01*
X171233459Y-87535441D01*
X171322528Y-87521333D01*
X171429418Y-87504404D01*
X171618114Y-87443092D01*
X171794896Y-87353018D01*
X171955411Y-87236397D01*
X172095706Y-87096102D01*
X172212327Y-86935587D01*
X172280963Y-86800878D01*
X172289787Y-86783562D01*
X172289788Y-86783560D01*
X172302398Y-86758812D01*
X172302398Y-86758808D01*
X172302401Y-86758805D01*
X172363713Y-86570109D01*
X172393681Y-86380894D01*
X172394311Y-86376920D01*
X179538665Y-86376920D01*
X180584755Y-86376920D01*
X180551842Y-86433927D01*
X180517767Y-86561094D01*
X180517767Y-86692746D01*
X180551842Y-86819913D01*
X180584755Y-86876920D01*
X179538665Y-86876920D01*
X179554701Y-86978167D01*
X179627664Y-87202722D01*
X179734852Y-87413091D01*
X179873633Y-87604106D01*
X180040580Y-87771053D01*
X180231595Y-87909834D01*
X180441962Y-88017022D01*
X180666511Y-88089983D01*
X180666517Y-88089985D01*
X180767767Y-88106021D01*
X180767767Y-87059932D01*
X180824774Y-87092845D01*
X180951941Y-87126920D01*
X181083593Y-87126920D01*
X181210760Y-87092845D01*
X181267767Y-87059932D01*
X181267767Y-88106021D01*
X181369016Y-88089985D01*
X181369022Y-88089983D01*
X181593571Y-88017022D01*
X181803938Y-87909834D01*
X181994953Y-87771053D01*
X182161900Y-87604106D01*
X182300681Y-87413091D01*
X182407869Y-87202722D01*
X182469101Y-87014270D01*
X188500000Y-87014270D01*
X188500000Y-87250375D01*
X188536934Y-87483570D01*
X188609897Y-87708125D01*
X188717087Y-87918497D01*
X188777338Y-88001427D01*
X188777340Y-88001428D01*
X189517037Y-87261731D01*
X189534075Y-87325316D01*
X189599901Y-87439330D01*
X189692993Y-87532422D01*
X189807007Y-87598248D01*
X189870590Y-87615285D01*
X189130893Y-88354981D01*
X189213828Y-88415237D01*
X189424197Y-88522425D01*
X189648752Y-88595388D01*
X189648751Y-88595388D01*
X189881948Y-88632323D01*
X190118052Y-88632323D01*
X190351247Y-88595388D01*
X190575802Y-88522425D01*
X190786163Y-88415241D01*
X190786169Y-88415237D01*
X190869104Y-88354981D01*
X190869105Y-88354981D01*
X190129408Y-87615285D01*
X190192993Y-87598248D01*
X190307007Y-87532422D01*
X190400099Y-87439330D01*
X190465925Y-87325316D01*
X190482962Y-87261731D01*
X191222658Y-88001428D01*
X191222658Y-88001427D01*
X191280981Y-87921153D01*
X193449500Y-87921153D01*
X193449500Y-88078846D01*
X193480261Y-88233489D01*
X193480264Y-88233501D01*
X193540602Y-88379172D01*
X193540609Y-88379185D01*
X193628210Y-88510288D01*
X193628213Y-88510292D01*
X193739707Y-88621786D01*
X193739711Y-88621789D01*
X193870814Y-88709390D01*
X193870827Y-88709397D01*
X193982165Y-88755514D01*
X194016503Y-88769737D01*
X194167116Y-88799696D01*
X194171153Y-88800499D01*
X194171156Y-88800500D01*
X194171158Y-88800500D01*
X194328844Y-88800500D01*
X194328845Y-88800499D01*
X194483497Y-88769737D01*
X194623815Y-88711616D01*
X194629172Y-88709397D01*
X194629172Y-88709396D01*
X194629179Y-88709394D01*
X194760289Y-88621789D01*
X194871789Y-88510289D01*
X194959394Y-88379179D01*
X195019737Y-88233497D01*
X195050500Y-88078842D01*
X195050500Y-87921158D01*
X195050500Y-87921155D01*
X195050499Y-87921153D01*
X196449500Y-87921153D01*
X196449500Y-88078846D01*
X196480261Y-88233489D01*
X196480264Y-88233501D01*
X196540602Y-88379172D01*
X196540609Y-88379185D01*
X196628210Y-88510288D01*
X196628213Y-88510292D01*
X196739707Y-88621786D01*
X196739711Y-88621789D01*
X196870814Y-88709390D01*
X196870827Y-88709397D01*
X196982165Y-88755514D01*
X197016503Y-88769737D01*
X197167116Y-88799696D01*
X197171153Y-88800499D01*
X197171156Y-88800500D01*
X197171158Y-88800500D01*
X197328844Y-88800500D01*
X197328845Y-88800499D01*
X197483497Y-88769737D01*
X197623815Y-88711616D01*
X197629172Y-88709397D01*
X197629172Y-88709396D01*
X197629179Y-88709394D01*
X197760289Y-88621789D01*
X197775636Y-88606442D01*
X197794361Y-88587718D01*
X197871786Y-88510292D01*
X197871789Y-88510289D01*
X197959394Y-88379179D01*
X198019737Y-88233497D01*
X198050500Y-88078842D01*
X198050500Y-87921158D01*
X198050500Y-87921155D01*
X198050499Y-87921153D01*
X198049970Y-87918492D01*
X198019737Y-87766503D01*
X197995556Y-87708125D01*
X197959397Y-87620827D01*
X197959390Y-87620814D01*
X197871789Y-87489711D01*
X197871786Y-87489707D01*
X197764026Y-87381947D01*
X199250000Y-87381947D01*
X199250000Y-87618052D01*
X199286934Y-87851247D01*
X199359897Y-88075802D01*
X199467087Y-88286174D01*
X199527338Y-88369104D01*
X199527340Y-88369105D01*
X200267037Y-87629408D01*
X200284075Y-87692993D01*
X200349901Y-87807007D01*
X200442993Y-87900099D01*
X200557007Y-87965925D01*
X200620590Y-87982962D01*
X199880893Y-88722658D01*
X199963828Y-88782914D01*
X200174197Y-88890102D01*
X200398752Y-88963065D01*
X200398751Y-88963065D01*
X200631948Y-89000000D01*
X200868052Y-89000000D01*
X201101247Y-88963065D01*
X201325802Y-88890102D01*
X201536163Y-88782918D01*
X201536169Y-88782914D01*
X201619104Y-88722658D01*
X201619105Y-88722658D01*
X200879408Y-87982962D01*
X200942993Y-87965925D01*
X201057007Y-87900099D01*
X201150099Y-87807007D01*
X201215925Y-87692993D01*
X201232962Y-87629409D01*
X201972658Y-88369105D01*
X201972658Y-88369104D01*
X202032914Y-88286169D01*
X202032918Y-88286163D01*
X202140102Y-88075802D01*
X202213065Y-87851247D01*
X202250000Y-87618052D01*
X202250000Y-87381949D01*
X202246855Y-87362093D01*
X202246855Y-87362092D01*
X202244554Y-87347566D01*
X210228339Y-87347566D01*
X210228339Y-87546288D01*
X210239705Y-87618052D01*
X210259426Y-87742564D01*
X210320832Y-87931556D01*
X210320833Y-87931559D01*
X210379128Y-88045967D01*
X210411052Y-88108621D01*
X210527858Y-88269391D01*
X210668375Y-88409908D01*
X210829145Y-88526714D01*
X210929122Y-88577655D01*
X210985619Y-88606442D01*
X211036415Y-88654417D01*
X211053210Y-88722238D01*
X211030672Y-88788373D01*
X210985619Y-88827412D01*
X210829144Y-88907140D01*
X210668372Y-89023948D01*
X210527860Y-89164460D01*
X210411052Y-89325232D01*
X210320833Y-89502294D01*
X210320832Y-89502297D01*
X210259426Y-89691289D01*
X210228339Y-89887566D01*
X210228339Y-90086287D01*
X210259426Y-90282564D01*
X210320832Y-90471556D01*
X210320833Y-90471559D01*
X210411052Y-90648621D01*
X210527858Y-90809391D01*
X210668375Y-90949908D01*
X210829145Y-91066714D01*
X210935347Y-91120827D01*
X210985619Y-91146442D01*
X211036415Y-91194417D01*
X211053210Y-91262238D01*
X211030672Y-91328373D01*
X210985619Y-91367412D01*
X210829144Y-91447140D01*
X210668372Y-91563948D01*
X210527860Y-91704460D01*
X210411052Y-91865232D01*
X210320833Y-92042294D01*
X210320832Y-92042297D01*
X210259426Y-92231289D01*
X210228339Y-92427566D01*
X210228339Y-92626287D01*
X210259426Y-92822564D01*
X210320832Y-93011556D01*
X210320833Y-93011559D01*
X210357145Y-93082824D01*
X210411052Y-93188621D01*
X210527858Y-93349391D01*
X210668375Y-93489908D01*
X210829145Y-93606714D01*
X210986171Y-93686723D01*
X211036966Y-93734696D01*
X211053761Y-93802517D01*
X211031224Y-93868652D01*
X210986171Y-93907691D01*
X210829405Y-93987568D01*
X210792122Y-94014656D01*
X210792121Y-94014657D01*
X211354897Y-94577431D01*
X211294758Y-94593546D01*
X211178919Y-94660425D01*
X211084337Y-94755007D01*
X211017458Y-94870846D01*
X211001343Y-94930984D01*
X210438569Y-94368209D01*
X210438568Y-94368210D01*
X210411482Y-94405491D01*
X210321296Y-94582489D01*
X210259914Y-94771403D01*
X210259914Y-94771406D01*
X210228839Y-94967605D01*
X210228839Y-95166248D01*
X210259914Y-95362447D01*
X210259914Y-95362450D01*
X210321296Y-95551364D01*
X210411480Y-95728359D01*
X210438569Y-95765642D01*
X210438570Y-95765643D01*
X211001343Y-95202869D01*
X211017458Y-95263008D01*
X211084337Y-95378847D01*
X211178919Y-95473429D01*
X211294758Y-95540308D01*
X211354896Y-95556421D01*
X210792122Y-96119195D01*
X210792122Y-96119196D01*
X210829406Y-96146285D01*
X210986170Y-96226161D01*
X211036966Y-96274136D01*
X211053761Y-96341957D01*
X211031223Y-96408092D01*
X210986170Y-96447131D01*
X210829144Y-96527140D01*
X210668372Y-96643948D01*
X210527860Y-96784460D01*
X210411052Y-96945232D01*
X210320833Y-97122294D01*
X210320832Y-97122297D01*
X210259426Y-97311289D01*
X210228339Y-97507566D01*
X210228339Y-97706287D01*
X210259426Y-97902564D01*
X210320832Y-98091556D01*
X210320833Y-98091559D01*
X210403132Y-98253078D01*
X210411052Y-98268621D01*
X210527858Y-98429391D01*
X210668375Y-98569908D01*
X210829145Y-98686714D01*
X210986171Y-98766723D01*
X211036966Y-98814696D01*
X211053761Y-98882517D01*
X211031224Y-98948652D01*
X210986171Y-98987691D01*
X210829405Y-99067568D01*
X210792122Y-99094656D01*
X210792121Y-99094657D01*
X211354897Y-99657431D01*
X211294758Y-99673546D01*
X211178919Y-99740425D01*
X211084337Y-99835007D01*
X211017458Y-99950846D01*
X211001343Y-100010984D01*
X210438569Y-99448209D01*
X210438568Y-99448210D01*
X210411482Y-99485491D01*
X210321296Y-99662489D01*
X210259914Y-99851403D01*
X210259914Y-99851406D01*
X210228839Y-100047605D01*
X210228839Y-100246248D01*
X210259914Y-100442447D01*
X210259914Y-100442450D01*
X210321296Y-100631364D01*
X210411480Y-100808359D01*
X210438569Y-100845642D01*
X210438570Y-100845643D01*
X211001343Y-100282869D01*
X211017458Y-100343008D01*
X211084337Y-100458847D01*
X211178919Y-100553429D01*
X211294758Y-100620308D01*
X211354896Y-100636421D01*
X210792122Y-101199195D01*
X210792122Y-101199196D01*
X210829406Y-101226285D01*
X210986170Y-101306161D01*
X211036966Y-101354136D01*
X211053761Y-101421957D01*
X211031223Y-101488092D01*
X210986170Y-101527131D01*
X210829144Y-101607140D01*
X210668372Y-101723948D01*
X210527860Y-101864460D01*
X210411052Y-102025232D01*
X210320833Y-102202294D01*
X210320832Y-102202297D01*
X210259426Y-102391289D01*
X210228339Y-102587566D01*
X210228339Y-102786287D01*
X210259426Y-102982564D01*
X210320832Y-103171556D01*
X210320833Y-103171559D01*
X210355557Y-103239707D01*
X210411052Y-103348621D01*
X210527858Y-103509391D01*
X210668375Y-103649908D01*
X210829145Y-103766714D01*
X210947671Y-103827106D01*
X210985619Y-103846442D01*
X211036415Y-103894417D01*
X211053210Y-103962238D01*
X211030672Y-104028373D01*
X210985619Y-104067412D01*
X210829144Y-104147140D01*
X210668372Y-104263948D01*
X210527860Y-104404460D01*
X210411052Y-104565232D01*
X210320833Y-104742294D01*
X210320832Y-104742297D01*
X210259426Y-104931289D01*
X210228339Y-105127566D01*
X210228339Y-105326287D01*
X210259426Y-105522564D01*
X210320832Y-105711556D01*
X210320833Y-105711559D01*
X210410915Y-105888352D01*
X210411052Y-105888621D01*
X210527858Y-106049391D01*
X210668375Y-106189908D01*
X210829145Y-106306714D01*
X210986171Y-106386723D01*
X211036966Y-106434696D01*
X211053761Y-106502517D01*
X211031224Y-106568652D01*
X210986171Y-106607691D01*
X210829405Y-106687568D01*
X210792122Y-106714656D01*
X210792121Y-106714657D01*
X211354897Y-107277431D01*
X211294758Y-107293546D01*
X211178919Y-107360425D01*
X211084337Y-107455007D01*
X211017458Y-107570846D01*
X211001343Y-107630984D01*
X210438569Y-107068209D01*
X210438568Y-107068210D01*
X210411482Y-107105491D01*
X210321296Y-107282489D01*
X210259914Y-107471403D01*
X210259914Y-107471406D01*
X210228839Y-107667605D01*
X210228839Y-107866248D01*
X210259914Y-108062447D01*
X210259914Y-108062450D01*
X210321296Y-108251364D01*
X210411480Y-108428359D01*
X210438569Y-108465642D01*
X210438570Y-108465643D01*
X211001343Y-107902869D01*
X211017458Y-107963008D01*
X211084337Y-108078847D01*
X211178919Y-108173429D01*
X211294758Y-108240308D01*
X211354896Y-108256421D01*
X210792122Y-108819195D01*
X210792122Y-108819196D01*
X210829406Y-108846285D01*
X211006401Y-108936469D01*
X211195316Y-108997851D01*
X211391518Y-109028927D01*
X211590160Y-109028927D01*
X211786359Y-108997851D01*
X211786362Y-108997851D01*
X211975276Y-108936469D01*
X212152264Y-108846289D01*
X212189555Y-108819195D01*
X211626781Y-108256421D01*
X211686920Y-108240308D01*
X211802759Y-108173429D01*
X211897341Y-108078847D01*
X211964220Y-107963008D01*
X211980334Y-107902869D01*
X212543107Y-108465642D01*
X212570201Y-108428352D01*
X212650354Y-108271044D01*
X212698328Y-108220248D01*
X212766149Y-108203453D01*
X212832284Y-108225990D01*
X212871324Y-108271044D01*
X212951480Y-108428359D01*
X212978569Y-108465642D01*
X212978570Y-108465643D01*
X213541343Y-107902869D01*
X213557458Y-107963008D01*
X213624337Y-108078847D01*
X213718919Y-108173429D01*
X213834758Y-108240308D01*
X213894896Y-108256421D01*
X213332122Y-108819195D01*
X213332122Y-108819196D01*
X213369406Y-108846285D01*
X213546401Y-108936469D01*
X213735316Y-108997851D01*
X213931518Y-109028927D01*
X214130160Y-109028927D01*
X214326359Y-108997851D01*
X214326362Y-108997851D01*
X214515276Y-108936469D01*
X214692264Y-108846289D01*
X214729555Y-108819195D01*
X214166781Y-108256421D01*
X214226920Y-108240308D01*
X214342759Y-108173429D01*
X214437341Y-108078847D01*
X214504220Y-107963008D01*
X214520334Y-107902869D01*
X215083107Y-108465642D01*
X215110201Y-108428352D01*
X215200381Y-108251364D01*
X215261763Y-108062450D01*
X215261763Y-108062447D01*
X215292839Y-107866248D01*
X215292839Y-107667605D01*
X215261763Y-107471406D01*
X215261763Y-107471403D01*
X215200381Y-107282489D01*
X215110197Y-107105494D01*
X215083107Y-107068210D01*
X214520333Y-107630984D01*
X214504220Y-107570846D01*
X214437341Y-107455007D01*
X214342759Y-107360425D01*
X214226920Y-107293546D01*
X214166781Y-107277431D01*
X214729555Y-106714658D01*
X214729554Y-106714657D01*
X214692271Y-106687568D01*
X214534956Y-106607412D01*
X214484160Y-106559437D01*
X214467365Y-106491616D01*
X214489902Y-106425481D01*
X214534956Y-106386442D01*
X214692264Y-106306289D01*
X214729555Y-106279195D01*
X214166781Y-105716421D01*
X214226920Y-105700308D01*
X214342759Y-105633429D01*
X214437341Y-105538847D01*
X214504220Y-105423008D01*
X214520334Y-105362869D01*
X215083107Y-105925642D01*
X215110201Y-105888352D01*
X215200381Y-105711364D01*
X215261763Y-105522450D01*
X215261763Y-105522447D01*
X215292839Y-105326248D01*
X215292839Y-105127605D01*
X215261763Y-104931406D01*
X215261763Y-104931403D01*
X215200381Y-104742489D01*
X215110197Y-104565494D01*
X215083107Y-104528210D01*
X214520333Y-105090984D01*
X214504220Y-105030846D01*
X214437341Y-104915007D01*
X214342759Y-104820425D01*
X214226920Y-104753546D01*
X214166781Y-104737431D01*
X214729555Y-104174658D01*
X214729554Y-104174657D01*
X214692271Y-104147568D01*
X214534956Y-104067412D01*
X214484160Y-104019437D01*
X214467365Y-103951616D01*
X214489902Y-103885481D01*
X214534956Y-103846442D01*
X214692264Y-103766289D01*
X214729555Y-103739195D01*
X214166781Y-103176421D01*
X214226920Y-103160308D01*
X214342759Y-103093429D01*
X214437341Y-102998847D01*
X214504220Y-102883008D01*
X214520334Y-102822869D01*
X215083107Y-103385642D01*
X215110201Y-103348352D01*
X215200381Y-103171364D01*
X215261763Y-102982450D01*
X215261763Y-102982447D01*
X215292839Y-102786248D01*
X215292839Y-102587605D01*
X215261763Y-102391406D01*
X215261763Y-102391403D01*
X215200381Y-102202489D01*
X215110197Y-102025494D01*
X215083107Y-101988210D01*
X214520333Y-102550984D01*
X214504220Y-102490846D01*
X214437341Y-102375007D01*
X214342759Y-102280425D01*
X214226920Y-102213546D01*
X214166781Y-102197431D01*
X214729555Y-101634658D01*
X214729554Y-101634657D01*
X214692271Y-101607568D01*
X214534956Y-101527412D01*
X214484160Y-101479437D01*
X214467365Y-101411616D01*
X214489902Y-101345481D01*
X214534956Y-101306442D01*
X214692264Y-101226289D01*
X214729555Y-101199195D01*
X214166781Y-100636421D01*
X214226920Y-100620308D01*
X214342759Y-100553429D01*
X214437341Y-100458847D01*
X214504220Y-100343008D01*
X214520334Y-100282869D01*
X215083107Y-100845642D01*
X215110201Y-100808352D01*
X215200381Y-100631364D01*
X215261763Y-100442450D01*
X215261763Y-100442447D01*
X215292839Y-100246248D01*
X215292839Y-100047605D01*
X215261763Y-99851406D01*
X215261763Y-99851403D01*
X215200381Y-99662489D01*
X215110197Y-99485494D01*
X215083107Y-99448210D01*
X214520333Y-100010984D01*
X214504220Y-99950846D01*
X214437341Y-99835007D01*
X214342759Y-99740425D01*
X214226920Y-99673546D01*
X214166781Y-99657431D01*
X214729555Y-99094658D01*
X214729554Y-99094657D01*
X214692271Y-99067568D01*
X214535507Y-98987692D01*
X214484711Y-98939717D01*
X214467916Y-98871896D01*
X214490454Y-98805761D01*
X214535506Y-98766723D01*
X214692533Y-98686714D01*
X214853303Y-98569908D01*
X214993820Y-98429391D01*
X215110626Y-98268621D01*
X215200844Y-98091559D01*
X215262252Y-97902563D01*
X215293339Y-97706288D01*
X215293339Y-97507566D01*
X215262252Y-97311291D01*
X215215695Y-97168003D01*
X215200845Y-97122297D01*
X215200844Y-97122294D01*
X215110625Y-96945232D01*
X215084190Y-96908847D01*
X214993820Y-96784463D01*
X214853303Y-96643946D01*
X214692533Y-96527140D01*
X214535506Y-96447130D01*
X214484711Y-96399156D01*
X214467916Y-96331335D01*
X214490453Y-96265200D01*
X214535508Y-96226161D01*
X214692261Y-96146291D01*
X214729555Y-96119195D01*
X214166781Y-95556421D01*
X214226920Y-95540308D01*
X214342759Y-95473429D01*
X214437341Y-95378847D01*
X214504220Y-95263008D01*
X214520334Y-95202869D01*
X215083107Y-95765642D01*
X215110201Y-95728352D01*
X215200381Y-95551364D01*
X215261763Y-95362450D01*
X215261763Y-95362447D01*
X215292839Y-95166248D01*
X215292839Y-94967605D01*
X215261763Y-94771406D01*
X215261763Y-94771403D01*
X215200381Y-94582489D01*
X215110197Y-94405494D01*
X215083107Y-94368210D01*
X214520333Y-94930984D01*
X214504220Y-94870846D01*
X214437341Y-94755007D01*
X214342759Y-94660425D01*
X214226920Y-94593546D01*
X214166781Y-94577431D01*
X214729555Y-94014658D01*
X214729554Y-94014657D01*
X214692271Y-93987568D01*
X214535507Y-93907692D01*
X214484711Y-93859717D01*
X214467916Y-93791896D01*
X214490454Y-93725761D01*
X214535506Y-93686723D01*
X214692533Y-93606714D01*
X214853303Y-93489908D01*
X214993820Y-93349391D01*
X215110626Y-93188621D01*
X215200844Y-93011559D01*
X215262252Y-92822563D01*
X215293339Y-92626288D01*
X215293339Y-92427566D01*
X215262252Y-92231291D01*
X215200844Y-92042295D01*
X215200844Y-92042294D01*
X215117735Y-91879185D01*
X215110626Y-91865233D01*
X214993820Y-91704463D01*
X214853303Y-91563946D01*
X214692533Y-91447140D01*
X214536057Y-91367411D01*
X214485262Y-91319437D01*
X214468467Y-91251616D01*
X214491004Y-91185481D01*
X214536057Y-91146442D01*
X214692533Y-91066714D01*
X214853303Y-90949908D01*
X214993820Y-90809391D01*
X215110626Y-90648621D01*
X215200844Y-90471559D01*
X215262252Y-90282563D01*
X215293339Y-90086288D01*
X215293339Y-89887566D01*
X215262252Y-89691291D01*
X215208793Y-89526760D01*
X215200845Y-89502297D01*
X215200844Y-89502294D01*
X215110625Y-89325232D01*
X214993820Y-89164463D01*
X214853303Y-89023946D01*
X214692533Y-88907140D01*
X214536057Y-88827411D01*
X214485262Y-88779437D01*
X214468467Y-88711616D01*
X214491004Y-88645481D01*
X214536057Y-88606442D01*
X214692533Y-88526714D01*
X214853303Y-88409908D01*
X214993820Y-88269391D01*
X215110626Y-88108621D01*
X215200844Y-87931559D01*
X215262252Y-87742563D01*
X215293339Y-87546288D01*
X215293339Y-87347566D01*
X215262252Y-87151291D01*
X215200844Y-86962295D01*
X215200844Y-86962294D01*
X215110625Y-86785232D01*
X215107605Y-86781075D01*
X214993820Y-86624463D01*
X214853303Y-86483946D01*
X214730308Y-86394585D01*
X214728464Y-86393245D01*
X214685798Y-86337915D01*
X214679819Y-86268302D01*
X214712425Y-86206507D01*
X214773263Y-86172150D01*
X214801349Y-86168927D01*
X214840667Y-86168927D01*
X214840683Y-86168926D01*
X214900211Y-86162525D01*
X214900218Y-86162523D01*
X215034925Y-86112281D01*
X215034932Y-86112277D01*
X215150026Y-86026117D01*
X215150029Y-86026114D01*
X215236189Y-85911020D01*
X215236193Y-85911013D01*
X215286435Y-85776306D01*
X215286437Y-85776299D01*
X215292838Y-85716771D01*
X215292839Y-85716754D01*
X215292839Y-85156927D01*
X214473090Y-85156927D01*
X214504220Y-85103008D01*
X214538839Y-84973807D01*
X214538839Y-84840047D01*
X214504220Y-84710846D01*
X214473090Y-84656927D01*
X215292839Y-84656927D01*
X215292839Y-84097099D01*
X215292838Y-84097082D01*
X215286437Y-84037554D01*
X215286435Y-84037547D01*
X215236193Y-83902840D01*
X215236189Y-83902833D01*
X215150029Y-83787739D01*
X215150026Y-83787736D01*
X215034932Y-83701576D01*
X215034925Y-83701572D01*
X214900218Y-83651330D01*
X214900211Y-83651328D01*
X214840683Y-83644927D01*
X214280839Y-83644927D01*
X214280839Y-84464675D01*
X214226920Y-84433546D01*
X214097719Y-84398927D01*
X213963959Y-84398927D01*
X213834758Y-84433546D01*
X213780839Y-84464675D01*
X213780839Y-83644927D01*
X213220994Y-83644927D01*
X213161466Y-83651328D01*
X213161459Y-83651330D01*
X213026752Y-83701572D01*
X213026745Y-83701576D01*
X212911651Y-83787736D01*
X212911648Y-83787739D01*
X212825488Y-83902833D01*
X212825484Y-83902840D01*
X212775242Y-84037547D01*
X212775240Y-84037554D01*
X212768839Y-84097082D01*
X212768839Y-84137269D01*
X212749154Y-84204308D01*
X212696350Y-84250063D01*
X212627192Y-84260007D01*
X212563636Y-84230982D01*
X212544522Y-84210156D01*
X212543108Y-84208210D01*
X212543107Y-84208210D01*
X211980333Y-84770984D01*
X211964220Y-84710846D01*
X211897341Y-84595007D01*
X211802759Y-84500425D01*
X211686920Y-84433546D01*
X211626781Y-84417431D01*
X212189555Y-83854658D01*
X212189554Y-83854657D01*
X212152271Y-83827568D01*
X211975276Y-83737384D01*
X211786361Y-83676002D01*
X211590160Y-83644927D01*
X211391518Y-83644927D01*
X211195318Y-83676002D01*
X211195315Y-83676002D01*
X211006401Y-83737384D01*
X210829403Y-83827570D01*
X210792122Y-83854656D01*
X210792121Y-83854657D01*
X211354897Y-84417431D01*
X211294758Y-84433546D01*
X211178919Y-84500425D01*
X211084337Y-84595007D01*
X211017458Y-84710846D01*
X211001343Y-84770984D01*
X210438569Y-84208209D01*
X210438568Y-84208210D01*
X210411482Y-84245491D01*
X210321296Y-84422489D01*
X210259914Y-84611403D01*
X210259914Y-84611406D01*
X210228839Y-84807605D01*
X210228839Y-85006248D01*
X210259914Y-85202447D01*
X210259914Y-85202450D01*
X210321296Y-85391364D01*
X210411480Y-85568359D01*
X210438569Y-85605642D01*
X210438570Y-85605643D01*
X211001343Y-85042869D01*
X211017458Y-85103008D01*
X211084337Y-85218847D01*
X211178919Y-85313429D01*
X211294758Y-85380308D01*
X211354896Y-85396421D01*
X210792122Y-85959195D01*
X210792122Y-85959196D01*
X210829406Y-85986285D01*
X210986170Y-86066161D01*
X211036966Y-86114136D01*
X211053761Y-86181957D01*
X211031223Y-86248092D01*
X210986170Y-86287131D01*
X210829144Y-86367140D01*
X210668372Y-86483948D01*
X210527860Y-86624460D01*
X210411052Y-86785232D01*
X210320833Y-86962294D01*
X210320832Y-86962297D01*
X210259426Y-87151289D01*
X210237361Y-87290602D01*
X210228339Y-87347566D01*
X202244554Y-87347566D01*
X202213065Y-87148752D01*
X202140102Y-86924197D01*
X202032914Y-86713828D01*
X201972658Y-86630894D01*
X201972658Y-86630893D01*
X201232962Y-87370590D01*
X201215925Y-87307007D01*
X201150099Y-87192993D01*
X201057007Y-87099901D01*
X200942993Y-87034075D01*
X200879409Y-87017037D01*
X201619105Y-86277340D01*
X201619104Y-86277338D01*
X201536174Y-86217087D01*
X201325802Y-86109897D01*
X201101247Y-86036934D01*
X201101248Y-86036934D01*
X200868052Y-86000000D01*
X200631948Y-86000000D01*
X200398752Y-86036934D01*
X200174197Y-86109897D01*
X199963830Y-86217084D01*
X199880894Y-86277340D01*
X200620591Y-87017037D01*
X200557007Y-87034075D01*
X200442993Y-87099901D01*
X200349901Y-87192993D01*
X200284075Y-87307007D01*
X200267037Y-87370591D01*
X199527340Y-86630894D01*
X199467084Y-86713830D01*
X199359897Y-86924197D01*
X199286934Y-87148752D01*
X199250000Y-87381947D01*
X197764026Y-87381947D01*
X197760292Y-87378213D01*
X197760288Y-87378210D01*
X197629185Y-87290609D01*
X197629172Y-87290602D01*
X197483501Y-87230264D01*
X197483489Y-87230261D01*
X197328845Y-87199500D01*
X197328842Y-87199500D01*
X197171158Y-87199500D01*
X197171155Y-87199500D01*
X197016510Y-87230261D01*
X197016498Y-87230264D01*
X196870827Y-87290602D01*
X196870814Y-87290609D01*
X196739711Y-87378210D01*
X196739707Y-87378213D01*
X196628213Y-87489707D01*
X196628210Y-87489711D01*
X196540609Y-87620814D01*
X196540602Y-87620827D01*
X196480264Y-87766498D01*
X196480261Y-87766510D01*
X196449500Y-87921153D01*
X195050499Y-87921153D01*
X195049970Y-87918492D01*
X195019737Y-87766503D01*
X194995556Y-87708125D01*
X194959397Y-87620827D01*
X194959390Y-87620814D01*
X194871789Y-87489711D01*
X194871786Y-87489707D01*
X194760292Y-87378213D01*
X194760288Y-87378210D01*
X194629185Y-87290609D01*
X194629172Y-87290602D01*
X194483501Y-87230264D01*
X194483489Y-87230261D01*
X194328845Y-87199500D01*
X194328842Y-87199500D01*
X194171158Y-87199500D01*
X194171155Y-87199500D01*
X194016510Y-87230261D01*
X194016498Y-87230264D01*
X193870827Y-87290602D01*
X193870814Y-87290609D01*
X193739711Y-87378210D01*
X193739707Y-87378213D01*
X193628213Y-87489707D01*
X193628210Y-87489711D01*
X193540609Y-87620814D01*
X193540602Y-87620827D01*
X193480264Y-87766498D01*
X193480261Y-87766510D01*
X193449500Y-87921153D01*
X191280981Y-87921153D01*
X191282914Y-87918492D01*
X191282921Y-87918481D01*
X191313345Y-87858772D01*
X191313345Y-87858771D01*
X191390102Y-87708125D01*
X191463065Y-87483570D01*
X191500000Y-87250375D01*
X191500000Y-87014270D01*
X191463065Y-86781075D01*
X191390102Y-86556520D01*
X191300617Y-86380894D01*
X191282914Y-86346151D01*
X191222658Y-86263217D01*
X191222658Y-86263216D01*
X190482962Y-87002913D01*
X190465925Y-86939330D01*
X190400099Y-86825316D01*
X190307007Y-86732224D01*
X190192993Y-86666398D01*
X190129409Y-86649360D01*
X190869105Y-85909663D01*
X190869104Y-85909661D01*
X190786174Y-85849410D01*
X190575802Y-85742220D01*
X190351247Y-85669257D01*
X190351248Y-85669257D01*
X190118052Y-85632323D01*
X189881948Y-85632323D01*
X189648752Y-85669257D01*
X189424197Y-85742220D01*
X189213830Y-85849407D01*
X189130894Y-85909663D01*
X189870591Y-86649360D01*
X189807007Y-86666398D01*
X189692993Y-86732224D01*
X189599901Y-86825316D01*
X189534075Y-86939330D01*
X189517037Y-87002914D01*
X188777340Y-86263217D01*
X188717084Y-86346153D01*
X188609897Y-86556520D01*
X188536934Y-86781075D01*
X188500000Y-87014270D01*
X182469101Y-87014270D01*
X182480832Y-86978167D01*
X182496869Y-86876920D01*
X181450779Y-86876920D01*
X181483692Y-86819913D01*
X181517767Y-86692746D01*
X181517767Y-86561094D01*
X181483692Y-86433927D01*
X181450779Y-86376920D01*
X182496869Y-86376920D01*
X182480832Y-86275672D01*
X182407868Y-86051114D01*
X182388560Y-86013218D01*
X182388559Y-86013217D01*
X182300681Y-85840748D01*
X182161900Y-85649733D01*
X181994953Y-85482786D01*
X181803938Y-85344005D01*
X181593569Y-85236817D01*
X181369014Y-85163854D01*
X181267767Y-85147817D01*
X181267767Y-86193908D01*
X181210760Y-86160995D01*
X181083593Y-86126920D01*
X180951941Y-86126920D01*
X180824774Y-86160995D01*
X180767767Y-86193908D01*
X180767767Y-85147817D01*
X180666519Y-85163854D01*
X180441964Y-85236817D01*
X180231595Y-85344005D01*
X180040580Y-85482786D01*
X179873633Y-85649733D01*
X179734852Y-85840748D01*
X179627664Y-86051117D01*
X179554701Y-86275672D01*
X179538665Y-86376920D01*
X172394311Y-86376920D01*
X172394750Y-86374147D01*
X172394750Y-86175731D01*
X172377395Y-86066161D01*
X172363713Y-85979773D01*
X172302401Y-85791077D01*
X172302399Y-85791074D01*
X172302399Y-85791072D01*
X172270130Y-85727741D01*
X172212327Y-85614295D01*
X172095706Y-85453780D01*
X171955411Y-85313485D01*
X171794896Y-85196864D01*
X171730110Y-85163854D01*
X171618118Y-85106791D01*
X171572846Y-85092081D01*
X171429418Y-85045478D01*
X171420484Y-85044063D01*
X171233459Y-85014441D01*
X171233454Y-85014441D01*
X171035046Y-85014441D01*
X171035041Y-85014441D01*
X170839087Y-85045477D01*
X170839085Y-85045477D01*
X170839082Y-85045478D01*
X170744734Y-85076134D01*
X170650381Y-85106791D01*
X170473602Y-85196865D01*
X170473599Y-85196867D01*
X170418613Y-85236817D01*
X170313089Y-85313485D01*
X170313087Y-85313487D01*
X170313086Y-85313487D01*
X170172796Y-85453777D01*
X170172796Y-85453778D01*
X170172794Y-85453780D01*
X170151720Y-85482786D01*
X170056176Y-85614290D01*
X170056174Y-85614293D01*
X169966100Y-85791072D01*
X169947146Y-85849407D01*
X169904787Y-85979773D01*
X169904786Y-85979776D01*
X169904786Y-85979778D01*
X169873750Y-86175731D01*
X160740830Y-86175731D01*
X160740830Y-83996803D01*
X164859250Y-83996803D01*
X164859250Y-84253078D01*
X164892698Y-84507150D01*
X164892701Y-84507163D01*
X164959029Y-84754706D01*
X165057099Y-84991467D01*
X165057101Y-84991471D01*
X165185239Y-85213410D01*
X165185240Y-85213411D01*
X165266424Y-85319212D01*
X165802786Y-84782849D01*
X165895128Y-84909946D01*
X166029245Y-85044063D01*
X166156339Y-85136402D01*
X165619977Y-85672764D01*
X165619977Y-85672765D01*
X165725779Y-85753950D01*
X165725780Y-85753951D01*
X165947719Y-85882089D01*
X165947723Y-85882091D01*
X166184484Y-85980161D01*
X166432027Y-86046489D01*
X166432040Y-86046492D01*
X166686112Y-86079941D01*
X166942388Y-86079941D01*
X167185569Y-86047926D01*
X167196459Y-86046492D01*
X167196472Y-86046489D01*
X167444015Y-85980161D01*
X167680776Y-85882091D01*
X167680780Y-85882089D01*
X167902729Y-85753946D01*
X168008521Y-85672767D01*
X168008521Y-85672764D01*
X167472159Y-85136403D01*
X167599255Y-85044063D01*
X167733372Y-84909946D01*
X167825712Y-84782851D01*
X168362073Y-85319212D01*
X168362076Y-85319212D01*
X168443255Y-85213420D01*
X168571398Y-84991471D01*
X168571400Y-84991467D01*
X168669470Y-84754706D01*
X168735798Y-84507163D01*
X168735801Y-84507150D01*
X168769250Y-84253078D01*
X168769250Y-83996803D01*
X168735801Y-83742731D01*
X168735798Y-83742718D01*
X168669470Y-83495175D01*
X168571400Y-83258414D01*
X168571395Y-83258403D01*
X168455947Y-83058443D01*
X168443264Y-83036476D01*
X168443259Y-83036470D01*
X168418089Y-83003668D01*
X175671072Y-83003668D01*
X175671072Y-83179103D01*
X175671073Y-83179114D01*
X175711532Y-83349819D01*
X175790271Y-83506601D01*
X175790275Y-83506607D01*
X175855517Y-83586696D01*
X175855527Y-83586708D01*
X176986911Y-84718090D01*
X176986919Y-84718096D01*
X176986924Y-84718101D01*
X177067010Y-84783342D01*
X177067012Y-84783343D01*
X177067018Y-84783348D01*
X177223800Y-84862086D01*
X177223802Y-84862087D01*
X177366347Y-84895871D01*
X177394512Y-84902547D01*
X177394515Y-84902547D01*
X177569951Y-84902547D01*
X177569954Y-84902547D01*
X177740666Y-84862086D01*
X177897448Y-84783348D01*
X177977555Y-84718092D01*
X179108937Y-83586708D01*
X179174195Y-83506601D01*
X179252933Y-83349819D01*
X179255276Y-83339936D01*
X179293392Y-83179114D01*
X179293394Y-83179107D01*
X179293394Y-83003665D01*
X179273550Y-82919941D01*
X179252933Y-82832952D01*
X179174194Y-82676170D01*
X179174190Y-82676164D01*
X179108948Y-82596075D01*
X179108947Y-82596074D01*
X179108939Y-82596064D01*
X177977555Y-81464682D01*
X177897448Y-81399424D01*
X177817852Y-81359450D01*
X177763804Y-81332306D01*
X188499500Y-81332306D01*
X188499500Y-82932324D01*
X188499501Y-82932341D01*
X188510000Y-83035119D01*
X188510001Y-83035122D01*
X188510450Y-83036476D01*
X188565186Y-83201657D01*
X188657288Y-83350979D01*
X188781344Y-83475035D01*
X188930666Y-83567137D01*
X189097203Y-83622322D01*
X189199991Y-83632823D01*
X190800008Y-83632822D01*
X190902797Y-83622322D01*
X191069334Y-83567137D01*
X191218656Y-83475035D01*
X191342712Y-83350979D01*
X191434814Y-83201657D01*
X191489999Y-83035120D01*
X191500500Y-82932332D01*
X191500499Y-81699983D01*
X199249500Y-81699983D01*
X199249500Y-83300001D01*
X199249501Y-83300018D01*
X199260000Y-83402796D01*
X199260001Y-83402799D01*
X199315185Y-83569331D01*
X199315187Y-83569336D01*
X199347868Y-83622321D01*
X199407288Y-83718656D01*
X199531344Y-83842712D01*
X199680666Y-83934814D01*
X199847203Y-83989999D01*
X199949991Y-84000500D01*
X201550008Y-84000499D01*
X201652797Y-83989999D01*
X201819334Y-83934814D01*
X201968656Y-83842712D01*
X202092712Y-83718656D01*
X202184814Y-83569334D01*
X202239999Y-83402797D01*
X202250500Y-83300009D01*
X202250499Y-81699992D01*
X202239999Y-81597203D01*
X202184814Y-81430666D01*
X202092712Y-81281344D01*
X201968656Y-81157288D01*
X201819334Y-81065186D01*
X201652797Y-81010001D01*
X201652795Y-81010000D01*
X201550010Y-80999500D01*
X199949998Y-80999500D01*
X199949981Y-80999501D01*
X199847203Y-81010000D01*
X199847200Y-81010001D01*
X199680668Y-81065185D01*
X199680663Y-81065187D01*
X199531342Y-81157289D01*
X199407289Y-81281342D01*
X199315187Y-81430663D01*
X199315185Y-81430668D01*
X199299550Y-81477852D01*
X199260001Y-81597203D01*
X199260001Y-81597204D01*
X199260000Y-81597204D01*
X199249500Y-81699983D01*
X191500499Y-81699983D01*
X191500499Y-81332315D01*
X191489999Y-81229526D01*
X191434814Y-81062989D01*
X191342712Y-80913667D01*
X191218656Y-80789611D01*
X191069334Y-80697509D01*
X190902797Y-80642324D01*
X190902795Y-80642323D01*
X190800010Y-80631823D01*
X189199998Y-80631823D01*
X189199981Y-80631824D01*
X189097203Y-80642323D01*
X189097200Y-80642324D01*
X188930668Y-80697508D01*
X188930663Y-80697510D01*
X188781342Y-80789612D01*
X188657289Y-80913665D01*
X188565187Y-81062986D01*
X188565185Y-81062991D01*
X188547484Y-81116410D01*
X188510001Y-81229526D01*
X188510001Y-81229527D01*
X188510000Y-81229527D01*
X188499500Y-81332306D01*
X177763804Y-81332306D01*
X177740663Y-81320684D01*
X177569961Y-81280226D01*
X177569956Y-81280225D01*
X177569954Y-81280225D01*
X177394512Y-81280225D01*
X177394510Y-81280225D01*
X177394504Y-81280226D01*
X177223799Y-81320685D01*
X177067017Y-81399424D01*
X177067011Y-81399428D01*
X176986922Y-81464670D01*
X176986904Y-81464686D01*
X175855536Y-82596056D01*
X175855517Y-82596077D01*
X175790276Y-82676163D01*
X175790272Y-82676169D01*
X175711531Y-82832955D01*
X175671073Y-83003657D01*
X175671072Y-83003668D01*
X168418089Y-83003668D01*
X168362074Y-82930668D01*
X168362073Y-82930668D01*
X167825711Y-83467030D01*
X167733372Y-83339936D01*
X167599255Y-83205819D01*
X167472158Y-83113477D01*
X168008521Y-82577115D01*
X167902720Y-82495931D01*
X167902719Y-82495930D01*
X167680780Y-82367792D01*
X167680776Y-82367790D01*
X167444015Y-82269720D01*
X167196472Y-82203392D01*
X167196459Y-82203389D01*
X166942388Y-82169941D01*
X166686112Y-82169941D01*
X166432040Y-82203389D01*
X166432027Y-82203392D01*
X166184484Y-82269720D01*
X165947723Y-82367790D01*
X165947719Y-82367792D01*
X165725780Y-82495930D01*
X165725770Y-82495936D01*
X165619977Y-82577114D01*
X165619977Y-82577115D01*
X166156340Y-83113478D01*
X166029245Y-83205819D01*
X165895128Y-83339936D01*
X165802787Y-83467031D01*
X165266424Y-82930668D01*
X165266423Y-82930668D01*
X165185245Y-83036461D01*
X165185239Y-83036471D01*
X165057101Y-83258410D01*
X165057099Y-83258414D01*
X164959029Y-83495175D01*
X164892701Y-83742718D01*
X164892698Y-83742731D01*
X164859250Y-83996803D01*
X160740830Y-83996803D01*
X160740830Y-81590646D01*
X160760515Y-81523607D01*
X160813319Y-81477852D01*
X160864830Y-81466646D01*
X167753238Y-81466646D01*
X167850543Y-81466884D01*
X167850543Y-81466883D01*
X167850547Y-81466884D01*
X168092221Y-81435653D01*
X168123830Y-81431569D01*
X168390163Y-81360858D01*
X168393583Y-81359450D01*
X168644974Y-81255962D01*
X168648248Y-81254081D01*
X168883904Y-81118678D01*
X169102851Y-80951360D01*
X169298066Y-80756875D01*
X169466202Y-80538555D01*
X169604379Y-80300143D01*
X169710228Y-80045724D01*
X169781936Y-79779658D01*
X169818273Y-79506505D01*
X169818618Y-79230945D01*
X169782963Y-78957702D01*
X169754651Y-78851601D01*
X169711921Y-78691460D01*
X169711920Y-78691457D01*
X169606707Y-78436774D01*
X169508673Y-78266646D01*
X169469128Y-78198019D01*
X169318740Y-78001733D01*
X169301537Y-77979279D01*
X169301534Y-77979276D01*
X169301531Y-77979272D01*
X169106810Y-77784307D01*
X169105642Y-77783410D01*
X168888281Y-77616442D01*
X168888282Y-77616442D01*
X168888280Y-77616441D01*
X168649700Y-77478562D01*
X168395144Y-77373028D01*
X168192533Y-77318692D01*
X168128991Y-77301652D01*
X168128989Y-77301651D01*
X168128983Y-77301650D01*
X167855802Y-77265654D01*
X167855786Y-77265653D01*
X167790475Y-77265649D01*
X167790475Y-77265648D01*
X167783910Y-77265647D01*
X167783902Y-77265646D01*
X167718013Y-77265646D01*
X167718009Y-77265645D01*
X167644527Y-77265645D01*
X167644511Y-77265646D01*
X160864830Y-77265646D01*
X160797791Y-77245961D01*
X160752036Y-77193157D01*
X160740830Y-77141646D01*
X160740830Y-76326385D01*
X177089500Y-76326385D01*
X177089500Y-77942120D01*
X177089501Y-77942126D01*
X177095908Y-78001733D01*
X177146202Y-78136578D01*
X177146206Y-78136585D01*
X177232452Y-78251794D01*
X177232455Y-78251797D01*
X177347664Y-78338043D01*
X177347671Y-78338047D01*
X177482517Y-78388341D01*
X177482516Y-78388341D01*
X177489444Y-78389085D01*
X177542127Y-78394750D01*
X179157872Y-78394749D01*
X179217483Y-78388341D01*
X179352331Y-78338046D01*
X179467546Y-78251796D01*
X179553796Y-78136581D01*
X179553798Y-78136576D01*
X179569493Y-78094496D01*
X179569493Y-78094495D01*
X179604091Y-78001733D01*
X179610500Y-77942123D01*
X179610499Y-77035086D01*
X180090000Y-77035086D01*
X180090000Y-77233413D01*
X180121026Y-77429302D01*
X180182310Y-77617919D01*
X180182311Y-77617922D01*
X180272350Y-77794630D01*
X180299161Y-77831533D01*
X180858871Y-77271824D01*
X180874755Y-77331103D01*
X180941898Y-77447397D01*
X181036853Y-77542352D01*
X181153147Y-77609495D01*
X181212424Y-77625378D01*
X180652714Y-78185087D01*
X180652715Y-78185088D01*
X180689612Y-78211895D01*
X180866327Y-78301938D01*
X180866330Y-78301939D01*
X181054947Y-78363223D01*
X181250837Y-78394250D01*
X181449163Y-78394250D01*
X181645052Y-78363223D01*
X181833669Y-78301939D01*
X181833672Y-78301938D01*
X182010382Y-78211898D01*
X182047283Y-78185087D01*
X182047284Y-78185086D01*
X181487575Y-77625377D01*
X181546853Y-77609495D01*
X181663147Y-77542352D01*
X181758102Y-77447397D01*
X181825245Y-77331103D01*
X181841128Y-77271825D01*
X182400836Y-77831534D01*
X182400837Y-77831533D01*
X182427648Y-77794632D01*
X182517688Y-77617922D01*
X182517689Y-77617919D01*
X182578973Y-77429302D01*
X182610000Y-77233413D01*
X182610000Y-77035086D01*
X182609993Y-77035040D01*
X183089500Y-77035040D01*
X183089500Y-77233459D01*
X183111606Y-77373028D01*
X183120537Y-77429418D01*
X183139508Y-77487803D01*
X183181850Y-77618118D01*
X183223701Y-77700254D01*
X183271923Y-77794896D01*
X183388544Y-77955411D01*
X183528839Y-78095706D01*
X183689354Y-78212327D01*
X183795962Y-78266646D01*
X183866131Y-78302399D01*
X183866133Y-78302399D01*
X183866136Y-78302401D01*
X184054832Y-78363713D01*
X184152814Y-78379231D01*
X184250791Y-78394750D01*
X184250796Y-78394750D01*
X184449209Y-78394750D01*
X184538278Y-78380642D01*
X184645168Y-78363713D01*
X184833864Y-78302401D01*
X185010646Y-78212327D01*
X185171161Y-78095706D01*
X185311456Y-77955411D01*
X185428077Y-77794896D01*
X185518151Y-77618114D01*
X185579463Y-77429418D01*
X185599699Y-77301650D01*
X185610500Y-77233459D01*
X185610500Y-77035040D01*
X185593570Y-76928156D01*
X185579463Y-76839082D01*
X185518151Y-76650386D01*
X185518149Y-76650383D01*
X185518149Y-76650381D01*
X185485880Y-76587050D01*
X185428077Y-76473604D01*
X185321116Y-76326385D01*
X191139500Y-76326385D01*
X191139500Y-77942120D01*
X191139501Y-77942126D01*
X191145908Y-78001733D01*
X191196202Y-78136578D01*
X191196206Y-78136585D01*
X191282452Y-78251794D01*
X191282455Y-78251797D01*
X191397664Y-78338043D01*
X191397671Y-78338047D01*
X191532517Y-78388341D01*
X191532516Y-78388341D01*
X191539444Y-78389085D01*
X191592127Y-78394750D01*
X193207872Y-78394749D01*
X193267483Y-78388341D01*
X193402331Y-78338046D01*
X193517546Y-78251796D01*
X193603796Y-78136581D01*
X193603798Y-78136576D01*
X193619493Y-78094496D01*
X193619493Y-78094495D01*
X193654091Y-78001733D01*
X193660500Y-77942123D01*
X193660499Y-77035086D01*
X194140000Y-77035086D01*
X194140000Y-77233413D01*
X194171026Y-77429302D01*
X194232310Y-77617919D01*
X194232311Y-77617922D01*
X194322350Y-77794630D01*
X194349161Y-77831533D01*
X194908871Y-77271824D01*
X194924755Y-77331103D01*
X194991898Y-77447397D01*
X195086853Y-77542352D01*
X195203147Y-77609495D01*
X195262424Y-77625378D01*
X194702714Y-78185087D01*
X194702715Y-78185088D01*
X194739612Y-78211895D01*
X194916327Y-78301938D01*
X194916330Y-78301939D01*
X195104947Y-78363223D01*
X195300837Y-78394250D01*
X195499163Y-78394250D01*
X195695052Y-78363223D01*
X195883669Y-78301939D01*
X195883672Y-78301938D01*
X196060382Y-78211898D01*
X196097283Y-78185087D01*
X196097284Y-78185086D01*
X195537575Y-77625377D01*
X195596853Y-77609495D01*
X195713147Y-77542352D01*
X195808102Y-77447397D01*
X195875245Y-77331103D01*
X195891128Y-77271825D01*
X196450836Y-77831534D01*
X196450837Y-77831533D01*
X196477648Y-77794632D01*
X196567688Y-77617922D01*
X196567689Y-77617919D01*
X196628973Y-77429302D01*
X196660000Y-77233413D01*
X196660000Y-77035086D01*
X196659993Y-77035040D01*
X197139500Y-77035040D01*
X197139500Y-77233459D01*
X197161606Y-77373028D01*
X197170537Y-77429418D01*
X197189508Y-77487803D01*
X197231850Y-77618118D01*
X197273701Y-77700254D01*
X197321923Y-77794896D01*
X197438544Y-77955411D01*
X197578839Y-78095706D01*
X197739354Y-78212327D01*
X197845962Y-78266646D01*
X197916131Y-78302399D01*
X197916133Y-78302399D01*
X197916136Y-78302401D01*
X198104832Y-78363713D01*
X198202814Y-78379231D01*
X198300791Y-78394750D01*
X198300796Y-78394750D01*
X198499209Y-78394750D01*
X198588278Y-78380642D01*
X198695168Y-78363713D01*
X198883864Y-78302401D01*
X199060646Y-78212327D01*
X199221161Y-78095706D01*
X199361456Y-77955411D01*
X199478077Y-77794896D01*
X199568151Y-77618114D01*
X199629463Y-77429418D01*
X199649699Y-77301650D01*
X199660500Y-77233459D01*
X199660500Y-77035040D01*
X199643570Y-76928156D01*
X199629463Y-76839082D01*
X199568151Y-76650386D01*
X199568149Y-76650383D01*
X199568149Y-76650381D01*
X199535880Y-76587050D01*
X199478077Y-76473604D01*
X199361456Y-76313089D01*
X199221161Y-76172794D01*
X199060646Y-76056173D01*
X198983179Y-76016702D01*
X198883868Y-75966100D01*
X198838596Y-75951390D01*
X198695168Y-75904787D01*
X198695162Y-75904786D01*
X198499209Y-75873750D01*
X198499204Y-75873750D01*
X198300796Y-75873750D01*
X198300791Y-75873750D01*
X198104837Y-75904786D01*
X198104835Y-75904786D01*
X198104832Y-75904787D01*
X198025832Y-75930456D01*
X197916131Y-75966100D01*
X197739352Y-76056174D01*
X197739349Y-76056176D01*
X197701865Y-76083410D01*
X197578839Y-76172794D01*
X197578837Y-76172796D01*
X197578836Y-76172796D01*
X197438546Y-76313086D01*
X197438546Y-76313087D01*
X197438544Y-76313089D01*
X197428884Y-76326385D01*
X197321926Y-76473599D01*
X197321924Y-76473602D01*
X197231850Y-76650381D01*
X197229048Y-76659005D01*
X197170537Y-76839082D01*
X197170536Y-76839085D01*
X197170536Y-76839087D01*
X197139500Y-77035040D01*
X196659993Y-77035040D01*
X196628973Y-76839197D01*
X196567689Y-76650580D01*
X196567688Y-76650577D01*
X196477645Y-76473862D01*
X196450838Y-76436965D01*
X196450837Y-76436964D01*
X195891127Y-76996673D01*
X195875245Y-76937397D01*
X195808102Y-76821103D01*
X195713147Y-76726148D01*
X195596853Y-76659005D01*
X195537574Y-76643121D01*
X196097283Y-76083411D01*
X196060380Y-76056600D01*
X195883672Y-75966561D01*
X195883669Y-75966560D01*
X195695052Y-75905276D01*
X195499163Y-75874250D01*
X195300837Y-75874250D01*
X195104947Y-75905276D01*
X194916330Y-75966560D01*
X194916322Y-75966563D01*
X194739615Y-76056602D01*
X194702715Y-76083410D01*
X194702715Y-76083411D01*
X195262425Y-76643121D01*
X195203147Y-76659005D01*
X195086853Y-76726148D01*
X194991898Y-76821103D01*
X194924755Y-76937397D01*
X194908871Y-76996675D01*
X194349161Y-76436965D01*
X194349160Y-76436965D01*
X194322352Y-76473865D01*
X194232313Y-76650572D01*
X194232310Y-76650580D01*
X194171026Y-76839197D01*
X194140000Y-77035086D01*
X193660499Y-77035086D01*
X193660499Y-76326378D01*
X193654091Y-76266767D01*
X193654091Y-76266766D01*
X193619493Y-76174003D01*
X193603796Y-76131919D01*
X193603793Y-76131914D01*
X193517547Y-76016705D01*
X193517544Y-76016702D01*
X193402335Y-75930456D01*
X193402328Y-75930452D01*
X193267482Y-75880158D01*
X193267483Y-75880158D01*
X193207883Y-75873751D01*
X193207881Y-75873750D01*
X193207873Y-75873750D01*
X193207864Y-75873750D01*
X191592129Y-75873750D01*
X191592123Y-75873751D01*
X191532516Y-75880158D01*
X191397671Y-75930452D01*
X191397664Y-75930456D01*
X191282455Y-76016702D01*
X191282452Y-76016705D01*
X191196206Y-76131914D01*
X191196202Y-76131921D01*
X191145908Y-76266767D01*
X191139501Y-76326366D01*
X191139501Y-76326373D01*
X191139500Y-76326385D01*
X185321116Y-76326385D01*
X185311456Y-76313089D01*
X185171161Y-76172794D01*
X185010646Y-76056173D01*
X184933179Y-76016702D01*
X184833868Y-75966100D01*
X184788596Y-75951390D01*
X184645168Y-75904787D01*
X184645162Y-75904786D01*
X184449209Y-75873750D01*
X184449204Y-75873750D01*
X184250796Y-75873750D01*
X184250791Y-75873750D01*
X184054837Y-75904786D01*
X184054835Y-75904786D01*
X184054832Y-75904787D01*
X183975832Y-75930456D01*
X183866131Y-75966100D01*
X183689352Y-76056174D01*
X183689349Y-76056176D01*
X183651865Y-76083410D01*
X183528839Y-76172794D01*
X183528837Y-76172796D01*
X183528836Y-76172796D01*
X183388546Y-76313086D01*
X183388546Y-76313087D01*
X183388544Y-76313089D01*
X183378884Y-76326385D01*
X183271926Y-76473599D01*
X183271924Y-76473602D01*
X183181850Y-76650381D01*
X183179048Y-76659005D01*
X183120537Y-76839082D01*
X183120536Y-76839085D01*
X183120536Y-76839087D01*
X183089500Y-77035040D01*
X182609993Y-77035040D01*
X182578973Y-76839197D01*
X182517689Y-76650580D01*
X182517688Y-76650577D01*
X182427645Y-76473862D01*
X182400838Y-76436965D01*
X182400837Y-76436964D01*
X181841127Y-76996673D01*
X181825245Y-76937397D01*
X181758102Y-76821103D01*
X181663147Y-76726148D01*
X181546853Y-76659005D01*
X181487574Y-76643121D01*
X182047283Y-76083411D01*
X182010380Y-76056600D01*
X181833672Y-75966561D01*
X181833669Y-75966560D01*
X181645052Y-75905276D01*
X181449163Y-75874250D01*
X181250837Y-75874250D01*
X181054947Y-75905276D01*
X180866330Y-75966560D01*
X180866322Y-75966563D01*
X180689615Y-76056602D01*
X180652715Y-76083410D01*
X180652715Y-76083411D01*
X181212425Y-76643121D01*
X181153147Y-76659005D01*
X181036853Y-76726148D01*
X180941898Y-76821103D01*
X180874755Y-76937397D01*
X180858871Y-76996675D01*
X180299161Y-76436965D01*
X180299160Y-76436965D01*
X180272352Y-76473865D01*
X180182313Y-76650572D01*
X180182310Y-76650580D01*
X180121026Y-76839197D01*
X180090000Y-77035086D01*
X179610499Y-77035086D01*
X179610499Y-76326378D01*
X179604091Y-76266767D01*
X179604091Y-76266766D01*
X179569493Y-76174003D01*
X179553796Y-76131919D01*
X179553793Y-76131914D01*
X179467547Y-76016705D01*
X179467544Y-76016702D01*
X179352335Y-75930456D01*
X179352328Y-75930452D01*
X179217482Y-75880158D01*
X179217483Y-75880158D01*
X179157883Y-75873751D01*
X179157881Y-75873750D01*
X179157873Y-75873750D01*
X179157864Y-75873750D01*
X177542129Y-75873750D01*
X177542123Y-75873751D01*
X177482516Y-75880158D01*
X177347671Y-75930452D01*
X177347664Y-75930456D01*
X177232455Y-76016702D01*
X177232452Y-76016705D01*
X177146206Y-76131914D01*
X177146202Y-76131921D01*
X177095908Y-76266767D01*
X177089501Y-76326366D01*
X177089501Y-76326373D01*
X177089500Y-76326385D01*
X160740830Y-76326385D01*
X160740830Y-72686112D01*
X174245000Y-72686112D01*
X174245000Y-72942387D01*
X174278448Y-73196459D01*
X174278451Y-73196472D01*
X174344779Y-73444015D01*
X174442849Y-73680776D01*
X174442851Y-73680780D01*
X174570989Y-73902719D01*
X174570990Y-73902720D01*
X174652174Y-74008521D01*
X175188536Y-73472158D01*
X175280878Y-73599255D01*
X175414995Y-73733372D01*
X175542089Y-73825711D01*
X175005727Y-74362073D01*
X175005727Y-74362074D01*
X175111529Y-74443259D01*
X175111530Y-74443260D01*
X175333469Y-74571398D01*
X175333473Y-74571400D01*
X175570234Y-74669470D01*
X175817777Y-74735798D01*
X175817790Y-74735801D01*
X176071862Y-74769250D01*
X176328138Y-74769250D01*
X176582209Y-74735801D01*
X176582222Y-74735798D01*
X176829765Y-74669470D01*
X177066526Y-74571400D01*
X177066530Y-74571398D01*
X177288479Y-74443255D01*
X177394271Y-74362076D01*
X177394271Y-74362073D01*
X176857909Y-73825712D01*
X176985005Y-73733372D01*
X177119122Y-73599255D01*
X177211462Y-73472159D01*
X177747823Y-74008521D01*
X177747826Y-74008521D01*
X177829005Y-73902729D01*
X177957148Y-73680780D01*
X177957150Y-73680776D01*
X178055220Y-73444015D01*
X178121548Y-73196472D01*
X178121551Y-73196459D01*
X178155000Y-72942387D01*
X178155000Y-72686112D01*
X184545000Y-72686112D01*
X184545000Y-72942387D01*
X184578448Y-73196459D01*
X184578451Y-73196472D01*
X184644779Y-73444015D01*
X184742849Y-73680776D01*
X184742851Y-73680780D01*
X184870989Y-73902719D01*
X184870990Y-73902720D01*
X184952174Y-74008521D01*
X185488536Y-73472158D01*
X185580878Y-73599255D01*
X185714995Y-73733372D01*
X185842089Y-73825711D01*
X185305727Y-74362073D01*
X185305727Y-74362074D01*
X185411529Y-74443259D01*
X185411530Y-74443260D01*
X185633469Y-74571398D01*
X185633473Y-74571400D01*
X185870234Y-74669470D01*
X186117777Y-74735798D01*
X186117790Y-74735801D01*
X186371862Y-74769250D01*
X186628138Y-74769250D01*
X186882209Y-74735801D01*
X186882222Y-74735798D01*
X187129765Y-74669470D01*
X187366526Y-74571400D01*
X187366530Y-74571398D01*
X187588479Y-74443255D01*
X187694271Y-74362076D01*
X187694271Y-74362073D01*
X187157909Y-73825712D01*
X187285005Y-73733372D01*
X187419122Y-73599255D01*
X187511462Y-73472160D01*
X188047823Y-74008521D01*
X188047826Y-74008521D01*
X188129005Y-73902729D01*
X188257148Y-73680780D01*
X188257154Y-73680769D01*
X188260438Y-73672841D01*
X188304277Y-73618436D01*
X188370571Y-73596369D01*
X188438270Y-73613646D01*
X188485882Y-73664782D01*
X188489562Y-73672841D01*
X188492845Y-73680769D01*
X188492851Y-73680780D01*
X188620989Y-73902719D01*
X188620990Y-73902720D01*
X188702174Y-74008521D01*
X189238536Y-73472158D01*
X189330878Y-73599255D01*
X189464995Y-73733372D01*
X189592089Y-73825711D01*
X189055727Y-74362073D01*
X189055727Y-74362074D01*
X189161529Y-74443259D01*
X189161530Y-74443260D01*
X189383469Y-74571398D01*
X189383473Y-74571400D01*
X189620234Y-74669470D01*
X189867777Y-74735798D01*
X189867790Y-74735801D01*
X190121862Y-74769250D01*
X190378138Y-74769250D01*
X190632209Y-74735801D01*
X190632222Y-74735798D01*
X190879765Y-74669470D01*
X191116526Y-74571400D01*
X191116530Y-74571398D01*
X191338479Y-74443255D01*
X191444271Y-74362076D01*
X191444271Y-74362073D01*
X190907909Y-73825712D01*
X191035005Y-73733372D01*
X191169122Y-73599255D01*
X191261462Y-73472160D01*
X191797823Y-74008521D01*
X191797826Y-74008521D01*
X191879005Y-73902729D01*
X192007148Y-73680780D01*
X192007150Y-73680776D01*
X192105220Y-73444015D01*
X192171548Y-73196472D01*
X192171551Y-73196459D01*
X192205000Y-72942387D01*
X192205000Y-72686112D01*
X198595000Y-72686112D01*
X198595000Y-72942387D01*
X198628448Y-73196459D01*
X198628451Y-73196472D01*
X198694779Y-73444015D01*
X198792849Y-73680776D01*
X198792851Y-73680780D01*
X198920989Y-73902719D01*
X198920990Y-73902720D01*
X199002174Y-74008521D01*
X199538536Y-73472158D01*
X199630878Y-73599255D01*
X199764995Y-73733372D01*
X199892089Y-73825711D01*
X199355727Y-74362073D01*
X199355727Y-74362074D01*
X199461529Y-74443259D01*
X199461530Y-74443260D01*
X199683469Y-74571398D01*
X199683473Y-74571400D01*
X199920234Y-74669470D01*
X200167777Y-74735798D01*
X200167790Y-74735801D01*
X200421862Y-74769250D01*
X200678138Y-74769250D01*
X200932209Y-74735801D01*
X200932222Y-74735798D01*
X201179765Y-74669470D01*
X201416526Y-74571400D01*
X201416530Y-74571398D01*
X201638479Y-74443255D01*
X201744271Y-74362076D01*
X201744271Y-74362073D01*
X201207909Y-73825712D01*
X201335005Y-73733372D01*
X201469122Y-73599255D01*
X201561462Y-73472160D01*
X202097823Y-74008521D01*
X202097826Y-74008521D01*
X202179005Y-73902729D01*
X202307148Y-73680780D01*
X202307150Y-73680776D01*
X202405220Y-73444015D01*
X202471548Y-73196472D01*
X202471551Y-73196459D01*
X202505000Y-72942387D01*
X202505000Y-72686112D01*
X202471551Y-72432040D01*
X202471548Y-72432027D01*
X202405220Y-72184484D01*
X202307150Y-71947723D01*
X202307148Y-71947719D01*
X202179010Y-71725780D01*
X202179009Y-71725779D01*
X202097824Y-71619977D01*
X202097823Y-71619977D01*
X201561461Y-72156339D01*
X201469122Y-72029245D01*
X201335005Y-71895128D01*
X201207908Y-71802786D01*
X201744271Y-71266424D01*
X201638470Y-71185240D01*
X201638469Y-71185239D01*
X201416530Y-71057101D01*
X201416526Y-71057099D01*
X201179765Y-70959029D01*
X200932222Y-70892701D01*
X200932209Y-70892698D01*
X200678138Y-70859250D01*
X200421862Y-70859250D01*
X200167790Y-70892698D01*
X200167777Y-70892701D01*
X199920234Y-70959029D01*
X199683473Y-71057099D01*
X199683469Y-71057101D01*
X199461530Y-71185239D01*
X199461520Y-71185245D01*
X199355727Y-71266423D01*
X199355727Y-71266424D01*
X199892090Y-71802787D01*
X199764995Y-71895128D01*
X199630878Y-72029245D01*
X199538537Y-72156340D01*
X199002174Y-71619977D01*
X199002173Y-71619977D01*
X198920995Y-71725770D01*
X198920989Y-71725780D01*
X198792851Y-71947719D01*
X198792849Y-71947723D01*
X198694779Y-72184484D01*
X198628451Y-72432027D01*
X198628448Y-72432040D01*
X198595000Y-72686112D01*
X192205000Y-72686112D01*
X192171551Y-72432040D01*
X192171548Y-72432027D01*
X192105220Y-72184484D01*
X192007150Y-71947723D01*
X192007148Y-71947719D01*
X191879010Y-71725780D01*
X191879009Y-71725779D01*
X191797824Y-71619977D01*
X191797823Y-71619977D01*
X191261461Y-72156339D01*
X191169122Y-72029245D01*
X191035005Y-71895128D01*
X190907908Y-71802786D01*
X191444271Y-71266424D01*
X191338470Y-71185240D01*
X191338469Y-71185239D01*
X191116530Y-71057101D01*
X191116526Y-71057099D01*
X190879765Y-70959029D01*
X190632222Y-70892701D01*
X190632209Y-70892698D01*
X190378138Y-70859250D01*
X190121862Y-70859250D01*
X189867790Y-70892698D01*
X189867777Y-70892701D01*
X189620234Y-70959029D01*
X189383473Y-71057099D01*
X189383469Y-71057101D01*
X189161530Y-71185239D01*
X189161520Y-71185245D01*
X189055727Y-71266423D01*
X189055727Y-71266424D01*
X189592090Y-71802787D01*
X189464995Y-71895128D01*
X189330878Y-72029245D01*
X189238537Y-72156340D01*
X188702174Y-71619977D01*
X188702173Y-71619977D01*
X188620995Y-71725770D01*
X188620989Y-71725780D01*
X188492851Y-71947719D01*
X188492849Y-71947723D01*
X188489561Y-71955662D01*
X188445720Y-72010065D01*
X188379426Y-72032130D01*
X188311726Y-72014851D01*
X188264116Y-71963713D01*
X188260439Y-71955662D01*
X188257150Y-71947723D01*
X188257148Y-71947719D01*
X188129010Y-71725780D01*
X188129009Y-71725779D01*
X188047824Y-71619977D01*
X188047823Y-71619977D01*
X187511461Y-72156339D01*
X187419122Y-72029245D01*
X187285005Y-71895128D01*
X187157908Y-71802786D01*
X187694271Y-71266424D01*
X187588470Y-71185240D01*
X187588469Y-71185239D01*
X187366530Y-71057101D01*
X187366526Y-71057099D01*
X187129765Y-70959029D01*
X186882222Y-70892701D01*
X186882209Y-70892698D01*
X186628138Y-70859250D01*
X186371862Y-70859250D01*
X186117790Y-70892698D01*
X186117777Y-70892701D01*
X185870234Y-70959029D01*
X185633473Y-71057099D01*
X185633469Y-71057101D01*
X185411530Y-71185239D01*
X185411520Y-71185245D01*
X185305727Y-71266423D01*
X185305727Y-71266424D01*
X185842090Y-71802787D01*
X185714995Y-71895128D01*
X185580878Y-72029245D01*
X185488537Y-72156340D01*
X184952174Y-71619977D01*
X184952173Y-71619977D01*
X184870995Y-71725770D01*
X184870989Y-71725780D01*
X184742851Y-71947719D01*
X184742849Y-71947723D01*
X184644779Y-72184484D01*
X184578451Y-72432027D01*
X184578448Y-72432040D01*
X184545000Y-72686112D01*
X178155000Y-72686112D01*
X178121551Y-72432040D01*
X178121548Y-72432027D01*
X178055220Y-72184484D01*
X177957150Y-71947723D01*
X177957148Y-71947719D01*
X177829010Y-71725780D01*
X177829009Y-71725779D01*
X177747824Y-71619977D01*
X177747823Y-71619977D01*
X177211461Y-72156339D01*
X177119122Y-72029245D01*
X176985005Y-71895128D01*
X176857908Y-71802786D01*
X177394271Y-71266424D01*
X177288470Y-71185240D01*
X177288469Y-71185239D01*
X177066530Y-71057101D01*
X177066526Y-71057099D01*
X176829765Y-70959029D01*
X176582222Y-70892701D01*
X176582209Y-70892698D01*
X176328138Y-70859250D01*
X176071862Y-70859250D01*
X175817790Y-70892698D01*
X175817777Y-70892701D01*
X175570234Y-70959029D01*
X175333473Y-71057099D01*
X175333469Y-71057101D01*
X175111530Y-71185239D01*
X175111520Y-71185245D01*
X175005727Y-71266423D01*
X175005727Y-71266424D01*
X175542090Y-71802787D01*
X175414995Y-71895128D01*
X175280878Y-72029245D01*
X175188537Y-72156340D01*
X174652174Y-71619977D01*
X174652173Y-71619977D01*
X174570995Y-71725770D01*
X174570989Y-71725780D01*
X174442851Y-71947719D01*
X174442849Y-71947723D01*
X174344779Y-72184484D01*
X174278451Y-72432027D01*
X174278448Y-72432040D01*
X174245000Y-72686112D01*
X160740830Y-72686112D01*
X160740830Y-66961209D01*
X160760515Y-66894170D01*
X160813319Y-66848415D01*
X160864830Y-66837209D01*
X180374438Y-66837209D01*
X199974438Y-66837209D01*
X219615830Y-66837209D01*
X219682869Y-66856894D01*
G37*
%TD.AperFunction*%
%TD*%
M02*
