%TF.GenerationSoftware,KiCad,Pcbnew,9.0.6*%
%TF.CreationDate,2026-03-01T21:50:26+00:00*%
%TF.ProjectId,KicadProject,4b696361-6450-4726-9f6a-6563742e6b69,rev?*%
%TF.SameCoordinates,Original*%
%TF.FileFunction,Profile,NP*%
%FSLAX46Y46*%
G04 Gerber Fmt 4.6, Leading zero omitted, Abs format (unit mm)*
G04 Created by KiCad (PCBNEW 9.0.6) date 2026-03-01 21:50:26*
%MOMM*%
%LPD*%
G01*
G04 APERTURE LIST*
%TA.AperFunction,Profile*%
%ADD10C,0.200000*%
%TD*%
G04 APERTURE END LIST*
D10*
X167718010Y-77766146D02*
G75*
G02*
X167714011Y-80966049I-10J-1599954D01*
G01*
X160240330Y-114907272D02*
X160240330Y-126336709D01*
X220240330Y-80966146D02*
X212762651Y-80966146D01*
X220240330Y-77766146D02*
X220240330Y-66336709D01*
X212762651Y-114907272D02*
G75*
G02*
X212762651Y-111707328I49J1599972D01*
G01*
X212762651Y-111707272D02*
X220240330Y-111707272D01*
X160240330Y-111707272D02*
X167718010Y-111707272D01*
X180440330Y-66336709D02*
X200040330Y-66336709D01*
X160240330Y-80966146D02*
X160240330Y-111707272D01*
X220240330Y-126336709D02*
X220240330Y-114907272D01*
X180440330Y-66336709D02*
X160240330Y-66336709D01*
X167714011Y-80966146D02*
X160240330Y-80966146D01*
X212762651Y-80966146D02*
G75*
G02*
X212762651Y-77766054I-51J1600046D01*
G01*
X167718010Y-111707272D02*
G75*
G02*
X167718009Y-114907328I90J-1600028D01*
G01*
X212762651Y-77766146D02*
X220240330Y-77766146D01*
X220240330Y-66336709D02*
X200040330Y-66336709D01*
X160240330Y-66336709D02*
X160240330Y-77766146D01*
X220240330Y-111707272D02*
X220240330Y-80966146D01*
X160240330Y-77766146D02*
X167718010Y-77766146D01*
X167718009Y-114907272D02*
X160240330Y-114907272D01*
X160240330Y-126336709D02*
X220240330Y-126336709D01*
X220240330Y-114907272D02*
X212762651Y-114907272D01*
M02*
