M48
; DRILL file {KiCad 9.0.6} date 2026-02-27T09:44:07+0000
; FORMAT={-:-/ absolute / metric / decimal}
; #@! TF.CreationDate,2026-02-27T09:44:07+00:00
; #@! TF.GenerationSoftware,Kicad,Pcbnew,9.0.6
; #@! TF.FileFunction,Plated,1,6,PTH
FMAT,2
METRIC
; #@! TA.AperFunction,Plated,PTH,ViaDrill
T1C0.300
; #@! TA.AperFunction,Plated,PTH,ComponentDrill
T2C1.000
; #@! TA.AperFunction,Plated,PTH,ComponentDrill
T3C1.016
; #@! TA.AperFunction,Plated,PTH,ComponentDrill
T4C1.020
; #@! TA.AperFunction,Plated,PTH,ComponentDrill
T5C1.614
; #@! TA.AperFunction,Plated,PTH,ComponentDrill
T6C2.410
%
G90
G05
T1
X166.288Y-76.921
X166.288Y-110.921
X166.376Y-81.798
X166.376Y-115.798
X167.931Y-76.921
X167.931Y-110.921
X168.038Y-81.837
X168.038Y-115.837
X168.25Y-96.25
X169.57Y-81.136
X169.57Y-115.136
X169.648Y-77.689
X169.648Y-111.689
X170.288Y-79.421
X170.288Y-113.421
X172.5Y-104.75
X173.5Y-114.0
X176.5Y-114.0
X176.75Y-103.5
X178.25Y-102.25
X178.75Y-107.25
X179.5Y-114.0
X180.75Y-100.0
X181.5Y-90.25
X182.0Y-107.25
X182.5Y-110.25
X182.5Y-114.0
X182.599Y-102.015
X183.75Y-115.75
X183.83Y-99.347
X184.25Y-101.25
X184.305Y-111.095
X185.25Y-106.5
X185.375Y-107.625
X185.5Y-103.75
X185.887Y-102.19
X186.0Y-91.0
X186.212Y-97.288
X186.25Y-111.5
X186.25Y-113.516
X186.5Y-103.75
X186.75Y-107.5
X187.0Y-123.75
X187.75Y-118.75
X188.0Y-77.25
X188.25Y-98.25
X188.25Y-107.5
X188.25Y-115.75
X188.75Y-95.75
X188.75Y-97.25
X189.0Y-118.75
X189.306Y-98.056
X189.5Y-87.5
X189.75Y-91.5
X190.0Y-112.75
X190.25Y-106.75
X190.25Y-118.75
X191.0Y-93.75
X191.127Y-112.623
X191.5Y-89.75
X191.5Y-118.5
X192.5Y-89.0
X192.724Y-111.562
X192.75Y-118.5
X192.809Y-115.643
X192.811Y-110.432
X192.912Y-116.763
X192.928Y-112.889
X193.361Y-110.698
X193.5Y-123.5
X193.691Y-111.648
X193.735Y-112.889
X193.862Y-102.23
X193.993Y-115.751
X194.18Y-89.002
X194.224Y-117.562
X194.25Y-88.0
X194.25Y-99.75
X194.25Y-101.25
X195.724Y-117.562
X195.906Y-89.0
X197.0Y-124.75
X197.224Y-117.562
X197.25Y-88.0
X197.374Y-111.062
X197.5Y-96.75
X197.724Y-116.562
X197.85Y-100.15
X198.724Y-117.562
X198.75Y-103.25
X199.25Y-100.5
X199.412Y-99.576
X199.75Y-95.25
X201.109Y-100.628
X201.25Y-91.5
X201.625Y-106.875
X201.971Y-117.553
X202.0Y-116.482
X202.0Y-123.25
X202.471Y-111.053
X202.697Y-97.301
X202.971Y-117.553
X203.0Y-116.482
X203.022Y-94.173
X203.735Y-110.415
X203.75Y-91.75
X203.999Y-117.52
X204.028Y-116.45
X204.75Y-77.25
X204.971Y-117.553
X204.985Y-110.165
X205.0Y-116.482
X205.25Y-123.25
X205.75Y-106.25
X205.971Y-117.553
X206.0Y-116.482
X206.5Y-78.5
X207.0Y-93.0
X207.0Y-104.0
X207.517Y-97.401
X208.0Y-79.75
X209.0Y-100.25
X209.25Y-101.5
X209.75Y-97.25
X210.241Y-79.267
X210.241Y-113.267
X210.881Y-80.999
X210.881Y-114.999
X210.959Y-77.552
X210.959Y-111.552
X212.491Y-76.851
X212.491Y-110.851
X212.598Y-81.767
X212.598Y-115.767
X214.153Y-76.89
X214.153Y-110.89
X214.241Y-81.767
X214.241Y-115.767
T2
X176.632Y-95.668
X177.482Y-83.091
X181.018Y-86.627
X181.632Y-95.668
X190.0Y-82.132
X190.0Y-87.132
X200.75Y-82.5
X200.75Y-87.5
T3
X211.491Y-84.907
X211.491Y-87.447
X211.491Y-89.987
X211.491Y-92.527
X211.491Y-95.067
X211.491Y-97.607
X211.491Y-100.147
X211.491Y-102.687
X211.491Y-105.227
X211.491Y-107.767
X214.031Y-84.907
X214.031Y-87.447
X214.031Y-89.987
X214.031Y-92.527
X214.031Y-95.067
X214.031Y-97.607
X214.031Y-100.147
X214.031Y-102.687
X214.031Y-105.227
X214.031Y-107.767
T4
X171.134Y-86.275
X171.134Y-89.275
X171.134Y-92.275
X171.134Y-100.275
X171.134Y-103.275
X171.134Y-106.275
X178.35Y-77.134
X181.35Y-77.134
X184.35Y-77.134
X192.4Y-77.134
X195.4Y-77.134
X198.4Y-77.134
T5
X175.273Y-121.239
X180.273Y-121.239
T6
X166.814Y-84.125
X166.814Y-94.425
X166.814Y-98.125
X166.814Y-108.425
X176.2Y-72.814
X186.5Y-72.814
X190.25Y-72.814
X200.55Y-72.814
M30
