%TF.GenerationSoftware,KiCad,Pcbnew,9.0.6*%
%TF.CreationDate,2026-02-27T09:44:12+00:00*%
%TF.ProjectId,KicadProject,4b696361-6450-4726-9f6a-6563742e6b69,rev?*%
%TF.SameCoordinates,Original*%
%TF.FileFunction,Soldermask,Top*%
%TF.FilePolarity,Negative*%
%FSLAX46Y46*%
G04 Gerber Fmt 4.6, Leading zero omitted, Abs format (unit mm)*
G04 Created by KiCad (PCBNEW 9.0.6) date 2026-02-27 09:44:12*
%MOMM*%
%LPD*%
G01*
G04 APERTURE LIST*
G04 Aperture macros list*
%AMRoundRect*
0 Rectangle with rounded corners*
0 $1 Rounding radius*
0 $2 $3 $4 $5 $6 $7 $8 $9 X,Y pos of 4 corners*
0 Add a 4 corners polygon primitive as box body*
4,1,4,$2,$3,$4,$5,$6,$7,$8,$9,$2,$3,0*
0 Add four circle primitives for the rounded corners*
1,1,$1+$1,$2,$3*
1,1,$1+$1,$4,$5*
1,1,$1+$1,$6,$7*
1,1,$1+$1,$8,$9*
0 Add four rect primitives between the rounded corners*
20,1,$1+$1,$2,$3,$4,$5,0*
20,1,$1+$1,$4,$5,$6,$7,0*
20,1,$1+$1,$6,$7,$8,$9,0*
20,1,$1+$1,$8,$9,$2,$3,0*%
%AMFreePoly0*
4,1,6,1.000000,0.000000,0.500000,-0.750000,-0.500000,-0.750000,-0.500000,0.750000,0.500000,0.750000,1.000000,0.000000,1.000000,0.000000,$1*%
%AMFreePoly1*
4,1,6,0.500000,-0.750000,-0.650000,-0.750000,-0.150000,0.000000,-0.650000,0.750000,0.500000,0.750000,0.500000,-0.750000,0.500000,-0.750000,$1*%
G04 Aperture macros list end*
%ADD10C,3.100000*%
%ADD11C,1.531200*%
%ADD12C,0.836200*%
%ADD13C,0.010000*%
%ADD14C,0.000000*%
%ADD15RoundRect,0.140000X0.140000X0.170000X-0.140000X0.170000X-0.140000X-0.170000X0.140000X-0.170000X0*%
%ADD16RoundRect,0.135000X0.135000X0.185000X-0.135000X0.185000X-0.135000X-0.185000X0.135000X-0.185000X0*%
%ADD17RoundRect,0.102000X-0.900000X-0.500000X0.900000X-0.500000X0.900000X0.500000X-0.900000X0.500000X0*%
%ADD18RoundRect,0.140000X-0.170000X0.140000X-0.170000X-0.140000X0.170000X-0.140000X0.170000X0.140000X0*%
%ADD19RoundRect,0.102000X-0.500000X0.900000X-0.500000X-0.900000X0.500000X-0.900000X0.500000X0.900000X0*%
%ADD20RoundRect,0.093750X-0.106250X0.093750X-0.106250X-0.093750X0.106250X-0.093750X0.106250X0.093750X0*%
%ADD21R,1.600000X1.000000*%
%ADD22RoundRect,0.135000X-0.135000X-0.185000X0.135000X-0.185000X0.135000X0.185000X-0.135000X0.185000X0*%
%ADD23RoundRect,0.140000X-0.140000X-0.170000X0.140000X-0.170000X0.140000X0.170000X-0.140000X0.170000X0*%
%ADD24RoundRect,0.250000X-0.750000X0.750000X-0.750000X-0.750000X0.750000X-0.750000X0.750000X0.750000X0*%
%ADD25C,2.000000*%
%ADD26R,0.355600X1.409700*%
%ADD27RoundRect,0.140000X0.170000X-0.140000X0.170000X0.140000X-0.170000X0.140000X-0.170000X-0.140000X0*%
%ADD28RoundRect,0.135000X0.185000X-0.135000X0.185000X0.135000X-0.185000X0.135000X-0.185000X-0.135000X0*%
%ADD29FreePoly0,180.000000*%
%ADD30FreePoly1,180.000000*%
%ADD31RoundRect,0.250000X-1.060660X0.000000X0.000000X-1.060660X1.060660X0.000000X0.000000X1.060660X0*%
%ADD32RoundRect,0.102000X-1.210650X-1.210650X1.210650X-1.210650X1.210650X1.210650X-1.210650X1.210650X0*%
%ADD33RoundRect,0.135000X-0.185000X0.135000X-0.185000X-0.135000X0.185000X-0.135000X0.185000X0.135000X0*%
%ADD34RoundRect,0.250000X-0.750000X-0.750000X0.750000X-0.750000X0.750000X0.750000X-0.750000X0.750000X0*%
%ADD35R,2.387600X1.295400*%
%ADD36R,0.127000X0.127000*%
%ADD37R,0.203200X1.295400*%
%ADD38R,2.057400X0.254000*%
%ADD39RoundRect,0.102000X0.762000X-0.762000X0.762000X0.762000X-0.762000X0.762000X-0.762000X-0.762000X0*%
%ADD40C,1.728000*%
%ADD41RoundRect,0.150000X-0.587500X-0.150000X0.587500X-0.150000X0.587500X0.150000X-0.587500X0.150000X0*%
%ADD42RoundRect,0.150000X-0.825000X-0.150000X0.825000X-0.150000X0.825000X0.150000X-0.825000X0.150000X0*%
%ADD43RoundRect,0.075000X-0.662500X-0.075000X0.662500X-0.075000X0.662500X0.075000X-0.662500X0.075000X0*%
%ADD44RoundRect,0.075000X-0.075000X-0.662500X0.075000X-0.662500X0.075000X0.662500X-0.075000X0.662500X0*%
G04 APERTURE END LIST*
D10*
X169268009Y-113307272D02*
G75*
G02*
X166168009Y-113307272I-1550000J0D01*
G01*
X166168009Y-113307272D02*
G75*
G02*
X169268009Y-113307272I1550000J0D01*
G01*
X169268009Y-79366146D02*
G75*
G02*
X166168009Y-79366146I-1550000J0D01*
G01*
X166168009Y-79366146D02*
G75*
G02*
X169268009Y-79366146I1550000J0D01*
G01*
X214310839Y-113307490D02*
G75*
G02*
X211210839Y-113307490I-1550000J0D01*
G01*
X211210839Y-113307490D02*
G75*
G02*
X214310839Y-113307490I1550000J0D01*
G01*
X214312651Y-113307272D02*
G75*
G02*
X211212651Y-113307272I-1550000J0D01*
G01*
X211212651Y-113307272D02*
G75*
G02*
X214312651Y-113307272I1550000J0D01*
G01*
X169266197Y-79366364D02*
G75*
G02*
X166166197Y-79366364I-1550000J0D01*
G01*
X166166197Y-79366364D02*
G75*
G02*
X169266197Y-79366364I1550000J0D01*
G01*
X169266197Y-113307490D02*
G75*
G02*
X166166197Y-113307490I-1550000J0D01*
G01*
X166166197Y-113307490D02*
G75*
G02*
X169266197Y-113307490I1550000J0D01*
G01*
X214312651Y-79366146D02*
G75*
G02*
X211212651Y-79366146I-1550000J0D01*
G01*
X211212651Y-79366146D02*
G75*
G02*
X214312651Y-79366146I1550000J0D01*
G01*
X214310839Y-79366364D02*
G75*
G02*
X211210839Y-79366364I-1550000J0D01*
G01*
X211210839Y-79366364D02*
G75*
G02*
X214310839Y-79366364I1550000J0D01*
G01*
D11*
%TO.C,J2*%
X167579850Y-84124941D02*
G75*
G02*
X166048650Y-84124941I-765600J0D01*
G01*
X166048650Y-84124941D02*
G75*
G02*
X167579850Y-84124941I765600J0D01*
G01*
X167579850Y-94424941D02*
G75*
G02*
X166048650Y-94424941I-765600J0D01*
G01*
X166048650Y-94424941D02*
G75*
G02*
X167579850Y-94424941I765600J0D01*
G01*
D12*
X171552350Y-86274941D02*
G75*
G02*
X170716150Y-86274941I-418100J0D01*
G01*
X170716150Y-86274941D02*
G75*
G02*
X171552350Y-86274941I418100J0D01*
G01*
X171552350Y-89274941D02*
G75*
G02*
X170716150Y-89274941I-418100J0D01*
G01*
X170716150Y-89274941D02*
G75*
G02*
X171552350Y-89274941I418100J0D01*
G01*
D13*
X171970450Y-93111141D02*
X170298050Y-93111141D01*
X170298050Y-91438741D01*
X171970450Y-91438741D01*
X171970450Y-93111141D01*
G36*
X171970450Y-93111141D02*
G01*
X170298050Y-93111141D01*
X170298050Y-91438741D01*
X171970450Y-91438741D01*
X171970450Y-93111141D01*
G37*
%TO.C,J1*%
X186455933Y-125176200D02*
X185303533Y-125176200D01*
X185303533Y-122323800D01*
X186455933Y-122323800D01*
X186455933Y-125176200D01*
G36*
X186455933Y-125176200D02*
G01*
X185303533Y-125176200D01*
X185303533Y-122323800D01*
X186455933Y-122323800D01*
X186455933Y-125176200D01*
G37*
X188105933Y-121476200D02*
X187353533Y-121476200D01*
X187353533Y-119623800D01*
X188105933Y-119623800D01*
X188105933Y-121476200D01*
G36*
X188105933Y-121476200D02*
G01*
X187353533Y-121476200D01*
X187353533Y-119623800D01*
X188105933Y-119623800D01*
X188105933Y-121476200D01*
G37*
X189355933Y-121476200D02*
X188603533Y-121476200D01*
X188603533Y-119623800D01*
X189355933Y-119623800D01*
X189355933Y-121476200D01*
G36*
X189355933Y-121476200D02*
G01*
X188603533Y-121476200D01*
X188603533Y-119623800D01*
X189355933Y-119623800D01*
X189355933Y-121476200D01*
G37*
X190605933Y-121476200D02*
X189853533Y-121476200D01*
X189853533Y-119623800D01*
X190605933Y-119623800D01*
X190605933Y-121476200D01*
G36*
X190605933Y-121476200D02*
G01*
X189853533Y-121476200D01*
X189853533Y-119623800D01*
X190605933Y-119623800D01*
X190605933Y-121476200D01*
G37*
X191855933Y-121476200D02*
X191103533Y-121476200D01*
X191103533Y-119623800D01*
X191855933Y-119623800D01*
X191855933Y-121476200D01*
G36*
X191855933Y-121476200D02*
G01*
X191103533Y-121476200D01*
X191103533Y-119623800D01*
X191855933Y-119623800D01*
X191855933Y-121476200D01*
G37*
X193105933Y-121476200D02*
X192353533Y-121476200D01*
X192353533Y-119623800D01*
X193105933Y-119623800D01*
X193105933Y-121476200D01*
G36*
X193105933Y-121476200D02*
G01*
X192353533Y-121476200D01*
X192353533Y-119623800D01*
X193105933Y-119623800D01*
X193105933Y-121476200D01*
G37*
X195155933Y-125176200D02*
X194003533Y-125176200D01*
X194003533Y-122323800D01*
X195155933Y-122323800D01*
X195155933Y-125176200D01*
G36*
X195155933Y-125176200D02*
G01*
X194003533Y-125176200D01*
X194003533Y-122323800D01*
X195155933Y-122323800D01*
X195155933Y-125176200D01*
G37*
%TO.C,JP2*%
G36*
X209552001Y-96237930D02*
G01*
X207102001Y-96237930D01*
X207102001Y-94737930D01*
X209552001Y-94737930D01*
X209552001Y-96237930D01*
G37*
%TO.C,JP1*%
G36*
X205984801Y-94474854D02*
G01*
X203534801Y-94474854D01*
X203534801Y-92974854D01*
X205984801Y-92974854D01*
X205984801Y-94474854D01*
G37*
%TO.C,JP4*%
G36*
X209471022Y-99574159D02*
G01*
X207021022Y-99574159D01*
X207021022Y-98074159D01*
X209471022Y-98074159D01*
X209471022Y-99574159D01*
G37*
D11*
%TO.C,J3*%
X167579850Y-98124941D02*
G75*
G02*
X166048650Y-98124941I-765600J0D01*
G01*
X166048650Y-98124941D02*
G75*
G02*
X167579850Y-98124941I765600J0D01*
G01*
X167579850Y-108424941D02*
G75*
G02*
X166048650Y-108424941I-765600J0D01*
G01*
X166048650Y-108424941D02*
G75*
G02*
X167579850Y-108424941I765600J0D01*
G01*
D12*
X171552350Y-100274941D02*
G75*
G02*
X170716150Y-100274941I-418100J0D01*
G01*
X170716150Y-100274941D02*
G75*
G02*
X171552350Y-100274941I418100J0D01*
G01*
X171552350Y-103274941D02*
G75*
G02*
X170716150Y-103274941I-418100J0D01*
G01*
X170716150Y-103274941D02*
G75*
G02*
X171552350Y-103274941I418100J0D01*
G01*
D13*
X171970450Y-107111141D02*
X170298050Y-107111141D01*
X170298050Y-105438741D01*
X171970450Y-105438741D01*
X171970450Y-107111141D01*
G36*
X171970450Y-107111141D02*
G01*
X170298050Y-107111141D01*
X170298050Y-105438741D01*
X171970450Y-105438741D01*
X171970450Y-107111141D01*
G37*
D14*
%TO.C,U3*%
G36*
X195522692Y-111613094D02*
G01*
X195522692Y-112908494D01*
X194671093Y-112912793D01*
X194671093Y-112658793D01*
X195179093Y-112658793D01*
X195171093Y-112113093D01*
X195321093Y-112113093D01*
X195321093Y-111613093D01*
X195522692Y-111613094D01*
G37*
G36*
X195245492Y-114913092D02*
G01*
X195522692Y-115163092D01*
X195522692Y-116208492D01*
X195319492Y-116208492D01*
X195319492Y-115708492D01*
X195171492Y-115708492D01*
X195179093Y-115162793D01*
X194671093Y-115162793D01*
X194671093Y-114908793D01*
X195245492Y-114913092D01*
G37*
G36*
X198372694Y-112113094D02*
G01*
X198919493Y-112113094D01*
X198919493Y-111613094D01*
X199122693Y-111613094D01*
X199122693Y-116208492D01*
X198919493Y-116208492D01*
X198919493Y-115708492D01*
X198372694Y-115708492D01*
X198372694Y-116208492D01*
X198169494Y-116208492D01*
X198169494Y-111613094D01*
X198372694Y-111613094D01*
X198372694Y-112113094D01*
G37*
G36*
X200222694Y-112113094D02*
G01*
X200762694Y-112113094D01*
X200763093Y-112658793D01*
X201271093Y-112658793D01*
X201271093Y-112912793D01*
X200763093Y-112912793D01*
X200763093Y-114908793D01*
X201271093Y-114908793D01*
X201271093Y-115162793D01*
X200763093Y-115162793D01*
X200762694Y-115708492D01*
X200222694Y-115708492D01*
X200222694Y-116208492D01*
X200019494Y-116208492D01*
X200019494Y-111613094D01*
X200222694Y-111613094D01*
X200222694Y-112113094D01*
G37*
D11*
%TO.C,J4*%
X191015600Y-72814250D02*
G75*
G02*
X189484400Y-72814250I-765600J0D01*
G01*
X189484400Y-72814250D02*
G75*
G02*
X191015600Y-72814250I765600J0D01*
G01*
D12*
X195818100Y-77134250D02*
G75*
G02*
X194981900Y-77134250I-418100J0D01*
G01*
X194981900Y-77134250D02*
G75*
G02*
X195818100Y-77134250I418100J0D01*
G01*
X198818100Y-77134250D02*
G75*
G02*
X197981900Y-77134250I-418100J0D01*
G01*
X197981900Y-77134250D02*
G75*
G02*
X198818100Y-77134250I418100J0D01*
G01*
D11*
X201315600Y-72814250D02*
G75*
G02*
X199784400Y-72814250I-765600J0D01*
G01*
X199784400Y-72814250D02*
G75*
G02*
X201315600Y-72814250I765600J0D01*
G01*
D13*
X193236200Y-77970450D02*
X191563800Y-77970450D01*
X191563800Y-76298050D01*
X193236200Y-76298050D01*
X193236200Y-77970450D01*
G36*
X193236200Y-77970450D02*
G01*
X191563800Y-77970450D01*
X191563800Y-76298050D01*
X193236200Y-76298050D01*
X193236200Y-77970450D01*
G37*
D11*
%TO.C,J6*%
X176965600Y-72814250D02*
G75*
G02*
X175434400Y-72814250I-765600J0D01*
G01*
X175434400Y-72814250D02*
G75*
G02*
X176965600Y-72814250I765600J0D01*
G01*
D12*
X181768100Y-77134250D02*
G75*
G02*
X180931900Y-77134250I-418100J0D01*
G01*
X180931900Y-77134250D02*
G75*
G02*
X181768100Y-77134250I418100J0D01*
G01*
X184768100Y-77134250D02*
G75*
G02*
X183931900Y-77134250I-418100J0D01*
G01*
X183931900Y-77134250D02*
G75*
G02*
X184768100Y-77134250I418100J0D01*
G01*
D11*
X187265600Y-72814250D02*
G75*
G02*
X185734400Y-72814250I-765600J0D01*
G01*
X185734400Y-72814250D02*
G75*
G02*
X187265600Y-72814250I765600J0D01*
G01*
D13*
X179186200Y-77970450D02*
X177513800Y-77970450D01*
X177513800Y-76298050D01*
X179186200Y-76298050D01*
X179186200Y-77970450D01*
G36*
X179186200Y-77970450D02*
G01*
X177513800Y-77970450D01*
X177513800Y-76298050D01*
X179186200Y-76298050D01*
X179186200Y-77970450D01*
G37*
%TO.C,JP3*%
G36*
X205950000Y-97500000D02*
G01*
X203500000Y-97500000D01*
X203500000Y-96000000D01*
X205950000Y-96000000D01*
X205950000Y-97500000D01*
G37*
%TD*%
D15*
%TO.C,C13*%
X182480000Y-109297500D03*
X181520000Y-109297500D03*
%TD*%
D16*
%TO.C,R4*%
X205542696Y-102968684D03*
X204522696Y-102968684D03*
%TD*%
D17*
%TO.C,5VL*%
X205250000Y-124750000D03*
%TD*%
D18*
%TO.C,C33*%
X206064019Y-111484288D03*
X206064019Y-112444288D03*
%TD*%
D19*
%TO.C,PWM1*%
X182500000Y-115750000D03*
%TD*%
D20*
%TO.C,U5*%
X204889905Y-111299333D03*
X204239905Y-111299333D03*
X203589905Y-111299333D03*
X203589905Y-113074333D03*
X204239905Y-113074333D03*
X204889905Y-113074333D03*
D21*
X204239905Y-112186833D03*
%TD*%
D17*
%TO.C,3V3*%
X202000000Y-124750000D03*
%TD*%
D22*
%TO.C,R7*%
X185191980Y-98198232D03*
X186211980Y-98198232D03*
%TD*%
D23*
%TO.C,C14*%
X192250000Y-100250000D03*
X193210000Y-100250000D03*
%TD*%
D15*
%TO.C,C11*%
X191126509Y-111714676D03*
X190166509Y-111714676D03*
%TD*%
D18*
%TO.C,C26*%
X205032569Y-114504288D03*
X205032569Y-115464288D03*
%TD*%
D15*
%TO.C,C28*%
X180730000Y-107250000D03*
X179770000Y-107250000D03*
%TD*%
D24*
%TO.C,C16*%
X190000000Y-82132323D03*
D25*
X190000000Y-87132323D03*
%TD*%
D22*
%TO.C,R15*%
X196168262Y-109601533D03*
X197188262Y-109601533D03*
%TD*%
D15*
%TO.C,C9*%
X191121918Y-110706897D03*
X190161918Y-110706897D03*
%TD*%
D26*
%TO.C,U2*%
X199399999Y-92344500D03*
X198749998Y-92344500D03*
X198099999Y-92344500D03*
X197449998Y-92344500D03*
X196800000Y-92344500D03*
X196149998Y-92344500D03*
X195500000Y-92344500D03*
X194850001Y-92344500D03*
X194200000Y-92344500D03*
X193550001Y-92344500D03*
X192900000Y-92344500D03*
X192250001Y-92344500D03*
X191600000Y-92344500D03*
X190950001Y-92344500D03*
X190949999Y-98250000D03*
X191600000Y-98250000D03*
X192249999Y-98250000D03*
X192900000Y-98250000D03*
X193549998Y-98250000D03*
X194200000Y-98250000D03*
X194849998Y-98250000D03*
X195500000Y-98250000D03*
X196149998Y-98250000D03*
X196800000Y-98250000D03*
X197449998Y-98250000D03*
X198099999Y-98250000D03*
X198749998Y-98250000D03*
X199399999Y-98250000D03*
%TD*%
D18*
%TO.C,C24*%
X206032569Y-114493384D03*
X206032569Y-115453384D03*
%TD*%
D27*
%TO.C,C17*%
X200547130Y-99395611D03*
X200547130Y-98435611D03*
%TD*%
%TO.C,C3*%
X194282161Y-104523567D03*
X194282161Y-103563567D03*
%TD*%
D15*
%TO.C,C2*%
X199226497Y-110610754D03*
X198266497Y-110610754D03*
%TD*%
D18*
%TO.C,C29*%
X203994352Y-114501783D03*
X203994352Y-115461783D03*
%TD*%
D28*
%TO.C,R12*%
X201142543Y-96245617D03*
X201142543Y-95225617D03*
%TD*%
D29*
%TO.C,JP2*%
X209052001Y-95487930D03*
D30*
X207602001Y-95487930D03*
%TD*%
D15*
%TO.C,C12*%
X182456495Y-108287019D03*
X181496495Y-108287019D03*
%TD*%
D22*
%TO.C,R6*%
X190679802Y-90665130D03*
X191699802Y-90665130D03*
%TD*%
D29*
%TO.C,JP1*%
X205484801Y-93724854D03*
D30*
X204034801Y-93724854D03*
%TD*%
D31*
%TO.C,C18*%
X177482233Y-83091386D03*
D25*
X181017767Y-86626920D03*
%TD*%
D32*
%TO.C,J7*%
X175273500Y-121238650D03*
X180273500Y-121238650D03*
%TD*%
D27*
%TO.C,C4*%
X195278833Y-104523448D03*
X195278833Y-103563448D03*
%TD*%
D29*
%TO.C,JP4*%
X208971022Y-98824159D03*
D30*
X207521022Y-98824159D03*
%TD*%
D23*
%TO.C,C15*%
X192250000Y-101250000D03*
X193210000Y-101250000D03*
%TD*%
D15*
%TO.C,C27*%
X181710000Y-102000000D03*
X180750000Y-102000000D03*
%TD*%
D17*
%TO.C,C+*%
X207500000Y-101472278D03*
%TD*%
D19*
%TO.C,PWM4*%
X173500000Y-115750000D03*
%TD*%
D24*
%TO.C,C19*%
X200750000Y-82500000D03*
D25*
X200750000Y-87500000D03*
%TD*%
D16*
%TO.C,R11*%
X196982249Y-99797250D03*
X195962249Y-99797250D03*
%TD*%
D28*
%TO.C,R9*%
X201250000Y-93520000D03*
X201250000Y-92500000D03*
%TD*%
D33*
%TO.C,R2*%
X195123854Y-89752136D03*
X195123854Y-90772136D03*
%TD*%
D27*
%TO.C,C23*%
X192823047Y-114484288D03*
X192823047Y-113524288D03*
%TD*%
D34*
%TO.C,C20*%
X176632323Y-95667505D03*
D25*
X181632323Y-95667505D03*
%TD*%
D28*
%TO.C,R10*%
X202250000Y-95177437D03*
X202250000Y-94157437D03*
%TD*%
D18*
%TO.C,C21*%
X184250000Y-109250000D03*
X184250000Y-110210000D03*
%TD*%
D15*
%TO.C,C1*%
X200750000Y-107250000D03*
X199790000Y-107250000D03*
%TD*%
D35*
%TO.C,XTAL1*%
X181250000Y-103595000D03*
X181250000Y-105500000D03*
%TD*%
D19*
%TO.C,PWM2*%
X179500000Y-115750000D03*
%TD*%
D17*
%TO.C,GND*%
X198750000Y-124750000D03*
%TD*%
%TO.C,C-*%
X207500000Y-106500000D03*
%TD*%
D33*
%TO.C,R3*%
X193303407Y-89727863D03*
X193303407Y-90747863D03*
%TD*%
D27*
%TO.C,C8*%
X183844444Y-101189411D03*
X183844444Y-100229411D03*
%TD*%
D19*
%TO.C,PWM3*%
X176500000Y-115750000D03*
%TD*%
D16*
%TO.C,R8*%
X189305756Y-99203465D03*
X188285756Y-99203465D03*
%TD*%
D33*
%TO.C,R1*%
X196750000Y-89782194D03*
X196750000Y-90802194D03*
%TD*%
D28*
%TO.C,R13*%
X201750000Y-98260000D03*
X201750000Y-97240000D03*
%TD*%
D27*
%TO.C,C22*%
X191856287Y-114484288D03*
X191856287Y-113524288D03*
%TD*%
%TO.C,C7*%
X182825300Y-101202461D03*
X182825300Y-100242461D03*
%TD*%
D15*
%TO.C,C25*%
X195211769Y-109606184D03*
X194251769Y-109606184D03*
%TD*%
D36*
%TO.C,U3*%
X195421092Y-115560792D03*
D37*
X195871093Y-115560792D03*
X196321092Y-115560792D03*
X196771094Y-115560792D03*
X197221093Y-115560792D03*
X197671092Y-115560792D03*
D36*
X198271094Y-115560792D03*
X199021093Y-115560792D03*
X200121094Y-115560792D03*
X201017093Y-115035793D03*
X201017093Y-112785793D03*
X200121094Y-112260794D03*
X199021093Y-112260794D03*
X198271094Y-112260794D03*
D37*
X197671092Y-112260794D03*
X197221093Y-112260794D03*
X196771094Y-112260794D03*
X196321092Y-112260794D03*
X195871093Y-112260794D03*
D36*
X195421092Y-112260794D03*
X194925093Y-112785793D03*
D38*
X195700093Y-113635792D03*
X195700093Y-114185794D03*
D36*
X194925093Y-115035793D03*
%TD*%
D18*
%TO.C,C30*%
X203032569Y-114504288D03*
X203032569Y-115464288D03*
%TD*%
D16*
%TO.C,R17*%
X195258166Y-110629950D03*
X194238166Y-110629950D03*
%TD*%
D22*
%TO.C,R5*%
X204522696Y-104968684D03*
X205542696Y-104968684D03*
%TD*%
D39*
%TO.C,J5*%
X214030839Y-84906927D03*
D40*
X211490839Y-84906927D03*
X214030839Y-87446927D03*
X211490839Y-87446927D03*
X214030839Y-89986927D03*
X211490839Y-89986927D03*
X214030839Y-92526927D03*
X211490839Y-92526927D03*
X214030839Y-95066927D03*
X211490839Y-95066927D03*
X214030839Y-97606927D03*
X211490839Y-97606927D03*
X214030839Y-100146927D03*
X211490839Y-100146927D03*
X214030839Y-102686927D03*
X211490839Y-102686927D03*
X214030839Y-105226927D03*
X211490839Y-105226927D03*
X214030839Y-107766927D03*
X211490839Y-107766927D03*
%TD*%
D41*
%TO.C,D1*%
X207062500Y-103001764D03*
X207062500Y-104901764D03*
X208937500Y-103951764D03*
%TD*%
D42*
%TO.C,U1*%
X197050000Y-102017795D03*
X197050000Y-103287795D03*
X197050000Y-104557795D03*
X197050000Y-105827795D03*
X202000000Y-105827795D03*
X202000000Y-104557795D03*
X202000000Y-103287795D03*
X202000000Y-102017795D03*
%TD*%
D23*
%TO.C,C6*%
X204552696Y-103968684D03*
X205512696Y-103968684D03*
%TD*%
%TO.C,C10*%
X184880396Y-99310820D03*
X185840396Y-99310820D03*
%TD*%
D27*
%TO.C,C5*%
X193807171Y-114472497D03*
X193807171Y-113512497D03*
%TD*%
D28*
%TO.C,R14*%
X187250000Y-99250000D03*
X187250000Y-98230000D03*
%TD*%
D18*
%TO.C,C32*%
X202477933Y-112189161D03*
X202477933Y-113149161D03*
%TD*%
D43*
%TO.C,U4*%
X183925000Y-102250000D03*
X183925000Y-102750000D03*
X183925000Y-103250000D03*
X183925000Y-103750000D03*
X183925000Y-104250000D03*
X183925000Y-104750000D03*
X183925000Y-105250000D03*
X183925000Y-105750000D03*
X183925000Y-106250000D03*
X183925000Y-106750000D03*
X183925000Y-107250000D03*
X183925000Y-107750000D03*
D44*
X185337500Y-109162500D03*
X185837500Y-109162500D03*
X186337500Y-109162500D03*
X186837500Y-109162500D03*
X187337500Y-109162500D03*
X187837500Y-109162500D03*
X188337500Y-109162500D03*
X188837500Y-109162500D03*
X189337500Y-109162500D03*
X189837500Y-109162500D03*
X190337500Y-109162500D03*
X190837500Y-109162500D03*
D43*
X192250000Y-107750000D03*
X192250000Y-107250000D03*
X192250000Y-106750000D03*
X192250000Y-106250000D03*
X192250000Y-105750000D03*
X192250000Y-105250000D03*
X192250000Y-104750000D03*
X192250000Y-104250000D03*
X192250000Y-103750000D03*
X192250000Y-103250000D03*
X192250000Y-102750000D03*
X192250000Y-102250000D03*
D44*
X190837500Y-100837500D03*
X190337500Y-100837500D03*
X189837500Y-100837500D03*
X189337500Y-100837500D03*
X188837500Y-100837500D03*
X188337500Y-100837500D03*
X187837500Y-100837500D03*
X187337500Y-100837500D03*
X186837500Y-100837500D03*
X186337500Y-100837500D03*
X185837500Y-100837500D03*
X185337500Y-100837500D03*
%TD*%
D18*
%TO.C,C31*%
X202032569Y-114504288D03*
X202032569Y-115464288D03*
%TD*%
D22*
%TO.C,R16*%
X198212742Y-109592710D03*
X199232742Y-109592710D03*
%TD*%
D16*
%TO.C,R18*%
X176260000Y-112500000D03*
X175240000Y-112500000D03*
%TD*%
D29*
%TO.C,JP3*%
X205450000Y-96750000D03*
D30*
X204000000Y-96750000D03*
%TD*%
M02*
