%TF.GenerationSoftware,KiCad,Pcbnew,9.0.6*%
%TF.CreationDate,2026-03-23T01:33:42+00:00*%
%TF.ProjectId,KicadProject,4b696361-6450-4726-9f6a-6563742e6b69,rev?*%
%TF.SameCoordinates,Original*%
%TF.FileFunction,Paste,Top*%
%TF.FilePolarity,Positive*%
%FSLAX46Y46*%
G04 Gerber Fmt 4.6, Leading zero omitted, Abs format (unit mm)*
G04 Created by KiCad (PCBNEW 9.0.6) date 2026-03-23 01:33:42*
%MOMM*%
%LPD*%
G01*
G04 APERTURE LIST*
G04 Aperture macros list*
%AMRoundRect*
0 Rectangle with rounded corners*
0 $1 Rounding radius*
0 $2 $3 $4 $5 $6 $7 $8 $9 X,Y pos of 4 corners*
0 Add a 4 corners polygon primitive as box body*
4,1,4,$2,$3,$4,$5,$6,$7,$8,$9,$2,$3,0*
0 Add four circle primitives for the rounded corners*
1,1,$1+$1,$2,$3*
1,1,$1+$1,$4,$5*
1,1,$1+$1,$6,$7*
1,1,$1+$1,$8,$9*
0 Add four rect primitives between the rounded corners*
20,1,$1+$1,$2,$3,$4,$5,0*
20,1,$1+$1,$4,$5,$6,$7,0*
20,1,$1+$1,$6,$7,$8,$9,0*
20,1,$1+$1,$8,$9,$2,$3,0*%
%AMRotRect*
0 Rectangle, with rotation*
0 The origin of the aperture is its center*
0 $1 length*
0 $2 width*
0 $3 Rotation angle, in degrees counterclockwise*
0 Add horizontal line*
21,1,$1,$2,0,0,$3*%
G04 Aperture macros list end*
%ADD10C,0.000000*%
%ADD11R,2.387600X1.295400*%
%ADD12R,0.127000X0.127000*%
%ADD13R,0.203200X1.295400*%
%ADD14R,2.057400X0.254000*%
%ADD15R,0.355600X1.409700*%
%ADD16R,1.000000X1.800000*%
%ADD17R,0.600000X1.700000*%
%ADD18R,1.000000X2.700000*%
%ADD19R,1.800000X1.000000*%
%ADD20R,4.400000X1.900000*%
%ADD21R,1.900000X4.400000*%
%ADD22RotRect,4.400000X1.900000X315.000000*%
%ADD23RotRect,4.400000X1.900000X225.000000*%
%ADD24RoundRect,0.225000X0.225000X0.250000X-0.225000X0.250000X-0.225000X-0.250000X0.225000X-0.250000X0*%
%ADD25RoundRect,0.135000X0.135000X0.185000X-0.135000X0.185000X-0.135000X-0.185000X0.135000X-0.185000X0*%
%ADD26RoundRect,0.140000X-0.170000X0.140000X-0.170000X-0.140000X0.170000X-0.140000X0.170000X0.140000X0*%
%ADD27RoundRect,0.160000X-0.160000X0.245000X-0.160000X-0.245000X0.160000X-0.245000X0.160000X0.245000X0*%
%ADD28RoundRect,0.093750X-0.106250X0.093750X-0.106250X-0.093750X0.106250X-0.093750X0.106250X0.093750X0*%
%ADD29RoundRect,0.135000X-0.135000X-0.185000X0.135000X-0.185000X0.135000X0.185000X-0.135000X0.185000X0*%
%ADD30RoundRect,0.140000X-0.140000X-0.170000X0.140000X-0.170000X0.140000X0.170000X-0.140000X0.170000X0*%
%ADD31RoundRect,0.140000X0.140000X0.170000X-0.140000X0.170000X-0.140000X-0.170000X0.140000X-0.170000X0*%
%ADD32RoundRect,0.225000X-0.250000X0.225000X-0.250000X-0.225000X0.250000X-0.225000X0.250000X0.225000X0*%
%ADD33RoundRect,0.225000X0.250000X-0.225000X0.250000X0.225000X-0.250000X0.225000X-0.250000X-0.225000X0*%
%ADD34RoundRect,0.135000X0.185000X-0.135000X0.185000X0.135000X-0.185000X0.135000X-0.185000X-0.135000X0*%
%ADD35RoundRect,0.135000X0.035355X-0.226274X0.226274X-0.035355X-0.035355X0.226274X-0.226274X0.035355X0*%
%ADD36RoundRect,0.140000X0.170000X-0.140000X0.170000X0.140000X-0.170000X0.140000X-0.170000X-0.140000X0*%
%ADD37RoundRect,0.135000X-0.185000X0.135000X-0.185000X-0.135000X0.185000X-0.135000X0.185000X0.135000X0*%
%ADD38RoundRect,0.150000X-0.587500X-0.150000X0.587500X-0.150000X0.587500X0.150000X-0.587500X0.150000X0*%
%ADD39RoundRect,0.150000X-0.825000X-0.150000X0.825000X-0.150000X0.825000X0.150000X-0.825000X0.150000X0*%
%ADD40RoundRect,0.225000X-0.225000X-0.250000X0.225000X-0.250000X0.225000X0.250000X-0.225000X0.250000X0*%
%ADD41RoundRect,0.075000X-0.662500X-0.075000X0.662500X-0.075000X0.662500X0.075000X-0.662500X0.075000X0*%
%ADD42RoundRect,0.075000X-0.075000X-0.662500X0.075000X-0.662500X0.075000X0.662500X-0.075000X0.662500X0*%
G04 APERTURE END LIST*
D10*
%TO.C,U3*%
G36*
X200222694Y-112113094D02*
G01*
X200762694Y-112113094D01*
X200763093Y-112658793D01*
X201271093Y-112658793D01*
X201271093Y-112912793D01*
X200763093Y-112912793D01*
X200763093Y-114908793D01*
X201271093Y-114908793D01*
X201271093Y-115162793D01*
X200763093Y-115162793D01*
X200762694Y-115708492D01*
X200222694Y-115708492D01*
X200222694Y-116208492D01*
X200019494Y-116208492D01*
X200019494Y-111613094D01*
X200222694Y-111613094D01*
X200222694Y-112113094D01*
G37*
G36*
X198372694Y-112113094D02*
G01*
X198919493Y-112113094D01*
X198919493Y-111613094D01*
X199122693Y-111613094D01*
X199122693Y-116208492D01*
X198919493Y-116208492D01*
X198919493Y-115708492D01*
X198372694Y-115708492D01*
X198372694Y-116208492D01*
X198169494Y-116208492D01*
X198169494Y-111613094D01*
X198372694Y-111613094D01*
X198372694Y-112113094D01*
G37*
G36*
X195522692Y-111613094D02*
G01*
X195522692Y-112908494D01*
X194671093Y-112912793D01*
X194671093Y-112658793D01*
X195179093Y-112658793D01*
X195171093Y-112113093D01*
X195321093Y-112113093D01*
X195321093Y-111613093D01*
X195522692Y-111613094D01*
G37*
G36*
X195245492Y-114913092D02*
G01*
X195522692Y-115163092D01*
X195522692Y-116208492D01*
X195319492Y-116208492D01*
X195319492Y-115708492D01*
X195171492Y-115708492D01*
X195179093Y-115162793D01*
X194671093Y-115162793D01*
X194671093Y-114908793D01*
X195245492Y-114913092D01*
G37*
%TD*%
D11*
%TO.C,XTAL1*%
X181250000Y-103595000D03*
X181250000Y-105500000D03*
%TD*%
D12*
%TO.C,U3*%
X195421092Y-115560792D03*
D13*
X195871093Y-115560792D03*
X196321092Y-115560792D03*
X196771094Y-115560792D03*
X197221093Y-115560792D03*
X197671092Y-115560792D03*
D12*
X198271094Y-115560792D03*
X199021093Y-115560792D03*
X200121094Y-115560792D03*
X201017093Y-115035793D03*
X201017093Y-112785793D03*
X200121094Y-112260794D03*
X199021093Y-112260794D03*
X198271094Y-112260794D03*
D13*
X197671092Y-112260794D03*
X197221093Y-112260794D03*
X196771094Y-112260794D03*
X196321092Y-112260794D03*
X195871093Y-112260794D03*
D12*
X195421092Y-112260794D03*
X194925093Y-112785793D03*
D14*
X195700093Y-113635792D03*
X195700093Y-114185794D03*
D12*
X194925093Y-115035793D03*
%TD*%
D15*
%TO.C,U2*%
X199399999Y-92344500D03*
X198749998Y-92344500D03*
X198099999Y-92344500D03*
X197449998Y-92344500D03*
X196800000Y-92344500D03*
X196149998Y-92344500D03*
X195500000Y-92344500D03*
X194850001Y-92344500D03*
X194200000Y-92344500D03*
X193550001Y-92344500D03*
X192900000Y-92344500D03*
X192250001Y-92344500D03*
X191600000Y-92344500D03*
X190950001Y-92344500D03*
X190949999Y-98250000D03*
X191600000Y-98250000D03*
X192249999Y-98250000D03*
X192900000Y-98250000D03*
X193549998Y-98250000D03*
X194200000Y-98250000D03*
X194849998Y-98250000D03*
X195500000Y-98250000D03*
X196149998Y-98250000D03*
X196800000Y-98250000D03*
X197449998Y-98250000D03*
X198099999Y-98250000D03*
X198749998Y-98250000D03*
X199399999Y-98250000D03*
%TD*%
D16*
%TO.C,PWM4*%
X173500000Y-115750000D03*
%TD*%
%TO.C,PWM3*%
X176500000Y-115750000D03*
%TD*%
%TO.C,PWM2*%
X179500000Y-115750000D03*
%TD*%
%TO.C,PWM1*%
X182500000Y-115750000D03*
%TD*%
D17*
%TO.C,J1*%
X188979733Y-120550000D03*
X187729733Y-120550000D03*
D18*
X194579733Y-123750000D03*
X185879733Y-123750000D03*
D17*
X190229733Y-120550000D03*
X191479733Y-120550000D03*
X192729733Y-120550000D03*
%TD*%
D19*
%TO.C,GND*%
X198750000Y-124750000D03*
%TD*%
D20*
%TO.C,C20*%
X173800000Y-95667505D03*
X182500000Y-95667505D03*
%TD*%
D21*
%TO.C,C19*%
X201750000Y-80050000D03*
X201750000Y-88750000D03*
%TD*%
D22*
%TO.C,C18*%
X175348172Y-80848172D03*
X181500000Y-87000000D03*
%TD*%
D23*
%TO.C,C16*%
X193651828Y-81066719D03*
X187500000Y-87218547D03*
%TD*%
D24*
%TO.C,C13*%
X182775000Y-109750000D03*
X181225000Y-109750000D03*
%TD*%
D19*
%TO.C,C-*%
X207500000Y-106500000D03*
%TD*%
%TO.C,C+*%
X207500000Y-101472278D03*
%TD*%
%TO.C,5VL*%
X205250000Y-124750000D03*
%TD*%
%TO.C,3v3*%
X202000000Y-124750000D03*
%TD*%
D25*
%TO.C,R4*%
X205542696Y-102750000D03*
X204522696Y-102750000D03*
%TD*%
D26*
%TO.C,C33*%
X206064019Y-111484288D03*
X206064019Y-112444288D03*
%TD*%
D27*
%TO.C,U5*%
X204639905Y-112186833D03*
X203839905Y-112186833D03*
D28*
X204889905Y-111299333D03*
X204239905Y-111299333D03*
X203589905Y-111299333D03*
X203589905Y-113074333D03*
X204239905Y-113074333D03*
X204889905Y-113074333D03*
%TD*%
D29*
%TO.C,R7*%
X185191980Y-98198232D03*
X186211980Y-98198232D03*
%TD*%
D30*
%TO.C,C14*%
X192250000Y-100250000D03*
X193210000Y-100250000D03*
%TD*%
D31*
%TO.C,C11*%
X191126509Y-111714676D03*
X190166509Y-111714676D03*
%TD*%
D32*
%TO.C,C26*%
X205178712Y-114202304D03*
X205178712Y-115752304D03*
%TD*%
D31*
%TO.C,C28*%
X180730000Y-107250000D03*
X179770000Y-107250000D03*
%TD*%
D29*
%TO.C,R15*%
X196168262Y-109601533D03*
X197188262Y-109601533D03*
%TD*%
D31*
%TO.C,C9*%
X191121918Y-110706897D03*
X190161918Y-110706897D03*
%TD*%
D32*
%TO.C,C24*%
X206700458Y-114291819D03*
X206700458Y-115841819D03*
%TD*%
D33*
%TO.C,C17*%
X200547130Y-99690611D03*
X200547130Y-98140611D03*
%TD*%
%TO.C,C3*%
X195264449Y-104819438D03*
X195264449Y-103269438D03*
%TD*%
D31*
%TO.C,C2*%
X199226497Y-110610754D03*
X198266497Y-110610754D03*
%TD*%
D32*
%TO.C,C29*%
X203678712Y-114199799D03*
X203678712Y-115749799D03*
%TD*%
D34*
%TO.C,R12*%
X201142543Y-96245617D03*
X201142543Y-95225617D03*
%TD*%
D31*
%TO.C,C12*%
X182456495Y-108287019D03*
X181496495Y-108287019D03*
%TD*%
D35*
%TO.C,R6*%
X189149376Y-92110624D03*
X189870624Y-91389376D03*
%TD*%
D36*
%TO.C,C4*%
X194042531Y-104539160D03*
X194042531Y-103579160D03*
%TD*%
D30*
%TO.C,C15*%
X192250000Y-101250000D03*
X193210000Y-101250000D03*
%TD*%
D31*
%TO.C,C27*%
X181780042Y-102089176D03*
X180820042Y-102089176D03*
%TD*%
D25*
%TO.C,R11*%
X196982249Y-99797250D03*
X195962249Y-99797250D03*
%TD*%
D34*
%TO.C,R9*%
X201250000Y-93520000D03*
X201250000Y-92500000D03*
%TD*%
D37*
%TO.C,R2*%
X195123854Y-89752136D03*
X195123854Y-90772136D03*
%TD*%
D33*
%TO.C,C23*%
X193593268Y-114796873D03*
X193593268Y-113246873D03*
%TD*%
D34*
%TO.C,R10*%
X202250000Y-95177437D03*
X202250000Y-94157437D03*
%TD*%
D26*
%TO.C,C21*%
X184250000Y-109250000D03*
X184250000Y-110210000D03*
%TD*%
D31*
%TO.C,C1*%
X200750000Y-107250000D03*
X199790000Y-107250000D03*
%TD*%
D37*
%TO.C,R3*%
X193303407Y-89727863D03*
X193303407Y-90747863D03*
%TD*%
D36*
%TO.C,C8*%
X183844444Y-101189411D03*
X183844444Y-100229411D03*
%TD*%
D25*
%TO.C,R8*%
X189305756Y-99203465D03*
X188285756Y-99203465D03*
%TD*%
D37*
%TO.C,R1*%
X196750000Y-89782194D03*
X196750000Y-90802194D03*
%TD*%
D34*
%TO.C,R13*%
X201750000Y-98260000D03*
X201750000Y-97240000D03*
%TD*%
D33*
%TO.C,C22*%
X192074245Y-114821981D03*
X192074245Y-113271981D03*
%TD*%
D31*
%TO.C,C7*%
X182892149Y-101108320D03*
X181932149Y-101108320D03*
%TD*%
%TO.C,C25*%
X195211769Y-109606184D03*
X194251769Y-109606184D03*
%TD*%
D32*
%TO.C,C30*%
X202178712Y-114218016D03*
X202178712Y-115768016D03*
%TD*%
D25*
%TO.C,R17*%
X195258166Y-110629950D03*
X194238166Y-110629950D03*
%TD*%
D29*
%TO.C,R5*%
X204522696Y-105250000D03*
X205542696Y-105250000D03*
%TD*%
D38*
%TO.C,D1*%
X207062500Y-103001764D03*
X207062500Y-104901764D03*
X208937500Y-103951764D03*
%TD*%
D39*
%TO.C,U1*%
X197176577Y-102051106D03*
X197176577Y-103321106D03*
X197176577Y-104591106D03*
X197176577Y-105861106D03*
X202126577Y-105861106D03*
X202126577Y-104591106D03*
X202126577Y-103321106D03*
X202126577Y-102051106D03*
%TD*%
D40*
%TO.C,C6*%
X203975000Y-103968684D03*
X205525000Y-103968684D03*
%TD*%
D30*
%TO.C,C10*%
X184880396Y-99310820D03*
X185840396Y-99310820D03*
%TD*%
D36*
%TO.C,C5*%
X190818854Y-114539535D03*
X190818854Y-113579535D03*
%TD*%
D34*
%TO.C,R14*%
X187250000Y-99250000D03*
X187250000Y-98230000D03*
%TD*%
D26*
%TO.C,C32*%
X202477933Y-112189161D03*
X202477933Y-113149161D03*
%TD*%
D41*
%TO.C,U4*%
X183925000Y-102250000D03*
X183925000Y-102750000D03*
X183925000Y-103250000D03*
X183925000Y-103750000D03*
X183925000Y-104250000D03*
X183925000Y-104750000D03*
X183925000Y-105250000D03*
X183925000Y-105750000D03*
X183925000Y-106250000D03*
X183925000Y-106750000D03*
X183925000Y-107250000D03*
X183925000Y-107750000D03*
D42*
X185337500Y-109162500D03*
X185837500Y-109162500D03*
X186337500Y-109162500D03*
X186837500Y-109162500D03*
X187337500Y-109162500D03*
X187837500Y-109162500D03*
X188337500Y-109162500D03*
X188837500Y-109162500D03*
X189337500Y-109162500D03*
X189837500Y-109162500D03*
X190337500Y-109162500D03*
X190837500Y-109162500D03*
D41*
X192250000Y-107750000D03*
X192250000Y-107250000D03*
X192250000Y-106750000D03*
X192250000Y-106250000D03*
X192250000Y-105750000D03*
X192250000Y-105250000D03*
X192250000Y-104750000D03*
X192250000Y-104250000D03*
X192250000Y-103750000D03*
X192250000Y-103250000D03*
X192250000Y-102750000D03*
X192250000Y-102250000D03*
D42*
X190837500Y-100837500D03*
X190337500Y-100837500D03*
X189837500Y-100837500D03*
X189337500Y-100837500D03*
X188837500Y-100837500D03*
X188337500Y-100837500D03*
X187837500Y-100837500D03*
X187337500Y-100837500D03*
X186837500Y-100837500D03*
X186337500Y-100837500D03*
X185837500Y-100837500D03*
X185337500Y-100837500D03*
%TD*%
D36*
%TO.C,C31*%
X207036137Y-113107550D03*
X207036137Y-112147550D03*
%TD*%
D29*
%TO.C,R16*%
X198212742Y-109592710D03*
X199232742Y-109592710D03*
%TD*%
D25*
%TO.C,R18*%
X176260000Y-112500000D03*
X175240000Y-112500000D03*
%TD*%
M02*
